<?xml version="1.0" encoding="UTF-8" standalone="no"?><svg xmlns="http://www.w3.org/2000/svg" xmlns:xlink="http://www.w3.org/1999/xlink" contentScriptType="application/ecmascript" contentStyleType="text/css" height="859px" preserveAspectRatio="none" style="width:594px;height:859px;" version="1.1" viewBox="0 0 594 859" width="594px" zoomAndPan="magnify"><defs><filter height="300%" id="f8wi2iz0fw33o" width="300%" x="-1" y="-1"><feGaussianBlur result="blurOut" stdDeviation="2.0"/><feColorMatrix in="blurOut" result="blurOut2" type="matrix" values="0 0 0 0 0 0 0 0 0 0 0 0 0 0 0 0 0 0 .4 0"/><feOffset dx="4.0" dy="4.0" in="blurOut2" result="blurOut3"/><feBlend in="SourceGraphic" in2="blurOut3" mode="normal"/></filter></defs><g><!--MD5=[f0e2947da358815b8edd8324480afc7b]
class ButtonsPauseMenu--><rect fill="#FEFECE" filter="url(#f8wi2iz0fw33o)" height="342.5078" id="ButtonsPauseMenu" style="stroke: #A80036; stroke-width: 1.5;" width="254" x="117.5" y="116"/><ellipse cx="179.25" cy="132" fill="#ADD1B2" rx="11" ry="11" style="stroke: #A80036; stroke-width: 1.0;"/><path d="M182.2188,137.6406 Q181.6406,137.9375 181,138.0781 Q180.3594,138.2344 179.6563,138.2344 Q177.1563,138.2344 175.8281,136.5938 Q174.5156,134.9375 174.5156,131.8125 Q174.5156,128.6875 175.8281,127.0313 Q177.1563,125.375 179.6563,125.375 Q180.3594,125.375 181,125.5313 Q181.6563,125.6875 182.2188,125.9844 L182.2188,128.7031 Q181.5938,128.125 181,127.8594 Q180.4063,127.5781 179.7813,127.5781 Q178.4375,127.5781 177.75,128.6563 Q177.0625,129.7188 177.0625,131.8125 Q177.0625,133.9063 177.75,134.9844 Q178.4375,136.0469 179.7813,136.0469 Q180.4063,136.0469 181,135.7813 Q181.5938,135.5 182.2188,134.9219 L182.2188,137.6406 Z "/><text fill="#000000" font-family="sans-serif" font-size="12" lengthAdjust="spacingAndGlyphs" textLength="122" x="199.75" y="136.1543">ButtonsPauseMenu</text><line style="stroke: #A80036; stroke-width: 1.5;" x1="118.5" x2="370.5" y1="148" y2="148"/><text fill="#000000" font-family="sans-serif" font-size="11" lengthAdjust="spacingAndGlyphs" textLength="145" x="123.5" y="162.2104">screenshot : bool = false</text><line style="stroke: #A80036; stroke-width: 1.5;" x1="118.5" x2="370.5" y1="168.8047" y2="168.8047"/><text fill="#000000" font-family="sans-serif" font-size="11" lengthAdjust="spacingAndGlyphs" textLength="71" x="137.5" y="183.0151">Start() : void</text><text fill="#000000" font-family="sans-serif" font-size="11" lengthAdjust="spacingAndGlyphs" textLength="101" x="137.5" y="195.8198">ExitToTitle() : void</text><text fill="#000000" font-family="sans-serif" font-size="11" lengthAdjust="spacingAndGlyphs" textLength="63" x="137.5" y="208.6245">Exit() : void</text><text fill="#000000" font-family="sans-serif" font-size="11" lengthAdjust="spacingAndGlyphs" textLength="73" x="137.5" y="221.4292">Menu() : void</text><text fill="#000000" font-family="sans-serif" font-size="11" lengthAdjust="spacingAndGlyphs" textLength="90" x="137.5" y="234.2339">Settings() : void</text><text fill="#000000" font-family="sans-serif" font-size="11" lengthAdjust="spacingAndGlyphs" textLength="74" x="137.5" y="247.0386">GPS2() : void</text><text fill="#000000" font-family="sans-serif" font-size="11" lengthAdjust="spacingAndGlyphs" textLength="151" x="137.5" y="259.8433">GPS_INFO_ON_MAP() : void</text><text fill="#000000" font-family="sans-serif" font-size="11" lengthAdjust="spacingAndGlyphs" textLength="68" x="137.5" y="272.6479">Help() : void</text><text fill="#000000" font-family="sans-serif" font-size="11" lengthAdjust="spacingAndGlyphs" textLength="102" x="137.5" y="285.4526">Placemark() : void</text><text fill="#000000" font-family="sans-serif" font-size="11" lengthAdjust="spacingAndGlyphs" textLength="108" x="137.5" y="298.2573">Screenshot() : void</text><text fill="#000000" font-family="sans-serif" font-size="11" lengthAdjust="spacingAndGlyphs" textLength="149" x="137.5" y="311.062">TopographicProfile() : void</text><text fill="#000000" font-family="sans-serif" font-size="11" lengthAdjust="spacingAndGlyphs" textLength="72" x="137.5" y="323.8667">Ruler() : void</text><text fill="#000000" font-family="sans-serif" font-size="11" lengthAdjust="spacingAndGlyphs" textLength="74" x="137.5" y="336.6714">GPS1() : void</text><text fill="#000000" font-family="sans-serif" font-size="11" lengthAdjust="spacingAndGlyphs" textLength="98" x="137.5" y="349.4761">WalkMode() : void</text><text fill="#000000" font-family="sans-serif" font-size="11" lengthAdjust="spacingAndGlyphs" textLength="103" x="137.5" y="362.2808">FlightMode() : void</text><text fill="#000000" font-family="sans-serif" font-size="11" lengthAdjust="spacingAndGlyphs" textLength="107" x="137.5" y="375.0854">DroneMode() : void</text><text fill="#000000" font-family="sans-serif" font-size="11" lengthAdjust="spacingAndGlyphs" textLength="149" x="137.5" y="387.8901">PlacemarkTeleport() : void</text><text fill="#000000" font-family="sans-serif" font-size="11" lengthAdjust="spacingAndGlyphs" textLength="176" x="137.5" y="400.6948">ScreenshotForWaypoint() : void</text><text fill="#000000" font-family="sans-serif" font-size="11" lengthAdjust="spacingAndGlyphs" textLength="161" x="137.5" y="413.4995">ShowSons(value:bool) : void</text><text fill="#000000" font-family="sans-serif" font-size="11" lengthAdjust="spacingAndGlyphs" textLength="228" x="137.5" y="426.3042">Show(gb:GameObject, value:bool) : void</text><ellipse cx="128.5" cy="435.8984" fill="#84BE84" rx="3" ry="3" style="stroke: #038048; stroke-width: 1.0;"/><text fill="#000000" font-family="sans-serif" font-size="11" lengthAdjust="spacingAndGlyphs" textLength="160" x="137.5" y="439.1089">OculusTriggerButton() : void</text><ellipse cx="128.5" cy="448.7031" fill="#84BE84" rx="3" ry="3" style="stroke: #038048; stroke-width: 1.0;"/><text fill="#000000" font-family="sans-serif" font-size="11" lengthAdjust="spacingAndGlyphs" textLength="176" x="137.5" y="451.9136">OculusTriggerButtonOn() : void</text><!--MD5=[f8e7078f77c005d15b486c0c98deb1e6]
class Action--><rect fill="#FEFECE" filter="url(#f8wi2iz0fw33o)" height="329.7031" id="Action" style="stroke: #A80036; stroke-width: 1.5;" width="149" x="6" y="519"/><ellipse cx="56.75" cy="535" fill="#EB937F" rx="11" ry="11" style="stroke: #A80036; stroke-width: 1.0;"/><path d="M60.8594,541 L53.1406,541 L53.1406,528.6094 L60.8594,528.6094 L60.8594,530.7656 L55.5938,530.7656 L55.5938,533.4375 L60.3594,533.4375 L60.3594,535.5938 L55.5938,535.5938 L55.5938,538.8438 L60.8594,538.8438 L60.8594,541 Z "/><text fill="#000000" font-family="sans-serif" font-size="12" lengthAdjust="spacingAndGlyphs" textLength="39" x="77.25" y="539.1543">Action</text><line style="stroke: #A80036; stroke-width: 1.5;" x1="7" x2="154" y1="551" y2="551"/><text fill="#000000" font-family="sans-serif" font-size="11" lengthAdjust="spacingAndGlyphs" textLength="62" x="12" y="565.2104">ExitToTitle,</text><text fill="#000000" font-family="sans-serif" font-size="11" lengthAdjust="spacingAndGlyphs" textLength="24" x="12" y="578.0151">Exit,</text><text fill="#000000" font-family="sans-serif" font-size="11" lengthAdjust="spacingAndGlyphs" textLength="34" x="12" y="590.8198">Menu,</text><text fill="#000000" font-family="sans-serif" font-size="11" lengthAdjust="spacingAndGlyphs" textLength="51" x="12" y="603.6245">Settings,</text><text fill="#000000" font-family="sans-serif" font-size="11" lengthAdjust="spacingAndGlyphs" textLength="29" x="12" y="616.4292">Help,</text><text fill="#000000" font-family="sans-serif" font-size="11" lengthAdjust="spacingAndGlyphs" textLength="63" x="12" y="629.2339">Placemark,</text><text fill="#000000" font-family="sans-serif" font-size="11" lengthAdjust="spacingAndGlyphs" textLength="50" x="12" y="642.0386">PolyLine,</text><text fill="#000000" font-family="sans-serif" font-size="11" lengthAdjust="spacingAndGlyphs" textLength="48" x="12" y="654.8433">Polygon,</text><text fill="#000000" font-family="sans-serif" font-size="11" lengthAdjust="spacingAndGlyphs" textLength="110" x="12" y="667.6479">TopographicProfile,</text><text fill="#000000" font-family="sans-serif" font-size="11" lengthAdjust="spacingAndGlyphs" textLength="33" x="12" y="680.4526">Ruler,</text><text fill="#000000" font-family="sans-serif" font-size="11" lengthAdjust="spacingAndGlyphs" textLength="58" x="12" y="693.2573">Compass,</text><text fill="#000000" font-family="sans-serif" font-size="11" lengthAdjust="spacingAndGlyphs" textLength="57" x="12" y="706.062">Notebook,</text><text fill="#000000" font-family="sans-serif" font-size="11" lengthAdjust="spacingAndGlyphs" textLength="69" x="12" y="718.8667">Screenshot,</text><text fill="#000000" font-family="sans-serif" font-size="11" lengthAdjust="spacingAndGlyphs" textLength="35" x="12" y="731.6714">GPS1,</text><text fill="#000000" font-family="sans-serif" font-size="11" lengthAdjust="spacingAndGlyphs" textLength="35" x="12" y="744.4761">GPS2,</text><text fill="#000000" font-family="sans-serif" font-size="11" lengthAdjust="spacingAndGlyphs" textLength="35" x="12" y="757.2808">GPS3,</text><text fill="#000000" font-family="sans-serif" font-size="11" lengthAdjust="spacingAndGlyphs" textLength="112" x="12" y="770.0854">GPS_INFO_ON_MAP,</text><text fill="#000000" font-family="sans-serif" font-size="11" lengthAdjust="spacingAndGlyphs" textLength="59" x="12" y="782.8901">WalkMode,</text><text fill="#000000" font-family="sans-serif" font-size="11" lengthAdjust="spacingAndGlyphs" textLength="64" x="12" y="795.6948">FlightMode,</text><text fill="#000000" font-family="sans-serif" font-size="11" lengthAdjust="spacingAndGlyphs" textLength="68" x="12" y="808.4995">DroneMode,</text><text fill="#000000" font-family="sans-serif" font-size="11" lengthAdjust="spacingAndGlyphs" textLength="110" x="12" y="821.3042">PlacemarkTeleport,</text><text fill="#000000" font-family="sans-serif" font-size="11" lengthAdjust="spacingAndGlyphs" textLength="137" x="12" y="834.1089">ScreenshotForWaypoint,</text><line style="stroke: #A80036; stroke-width: 1.5;" x1="7" x2="154" y1="840.7031" y2="840.7031"/><!--MD5=[83b3cf3d23d77c6f1e1b5291a241bc2a]
class MonoBehaviour--><rect fill="#FEFECE" filter="url(#f8wi2iz0fw33o)" height="48" id="MonoBehaviour" style="stroke: #A80036; stroke-width: 1.5;" width="128" x="180.5" y="8"/><ellipse cx="195.5" cy="24" fill="#ADD1B2" rx="11" ry="11" style="stroke: #A80036; stroke-width: 1.0;"/><path d="M198.4688,29.6406 Q197.8906,29.9375 197.25,30.0781 Q196.6094,30.2344 195.9063,30.2344 Q193.4063,30.2344 192.0781,28.5938 Q190.7656,26.9375 190.7656,23.8125 Q190.7656,20.6875 192.0781,19.0313 Q193.4063,17.375 195.9063,17.375 Q196.6094,17.375 197.25,17.5313 Q197.9063,17.6875 198.4688,17.9844 L198.4688,20.7031 Q197.8438,20.125 197.25,19.8594 Q196.6563,19.5781 196.0313,19.5781 Q194.6875,19.5781 194,20.6563 Q193.3125,21.7188 193.3125,23.8125 Q193.3125,25.9063 194,26.9844 Q194.6875,28.0469 196.0313,28.0469 Q196.6563,28.0469 197.25,27.7813 Q197.8438,27.5 198.4688,26.9219 L198.4688,29.6406 Z "/><text fill="#000000" font-family="sans-serif" font-size="12" lengthAdjust="spacingAndGlyphs" textLength="96" x="209.5" y="28.1543">MonoBehaviour</text><line style="stroke: #A80036; stroke-width: 1.5;" x1="181.5" x2="307.5" y1="40" y2="40"/><line style="stroke: #A80036; stroke-width: 1.5;" x1="181.5" x2="307.5" y1="48" y2="48"/><!--MD5=[064f7a74fee85463ec1a30143664ee17]
class GameObject--><rect fill="#FEFECE" filter="url(#f8wi2iz0fw33o)" height="48" id="GameObject" style="stroke: #A80036; stroke-width: 1.5;" width="108" x="190.5" y="660"/><ellipse cx="205.5" cy="676" fill="#ADD1B2" rx="11" ry="11" style="stroke: #A80036; stroke-width: 1.0;"/><path d="M208.4688,681.6406 Q207.8906,681.9375 207.25,682.0781 Q206.6094,682.2344 205.9063,682.2344 Q203.4063,682.2344 202.0781,680.5938 Q200.7656,678.9375 200.7656,675.8125 Q200.7656,672.6875 202.0781,671.0313 Q203.4063,669.375 205.9063,669.375 Q206.6094,669.375 207.25,669.5313 Q207.9063,669.6875 208.4688,669.9844 L208.4688,672.7031 Q207.8438,672.125 207.25,671.8594 Q206.6563,671.5781 206.0313,671.5781 Q204.6875,671.5781 204,672.6563 Q203.3125,673.7188 203.3125,675.8125 Q203.3125,677.9063 204,678.9844 Q204.6875,680.0469 206.0313,680.0469 Q206.6563,680.0469 207.25,679.7813 Q207.8438,679.5 208.4688,678.9219 L208.4688,681.6406 Z "/><text fill="#000000" font-family="sans-serif" font-size="12" lengthAdjust="spacingAndGlyphs" textLength="76" x="219.5" y="680.1543">GameObject</text><line style="stroke: #A80036; stroke-width: 1.5;" x1="191.5" x2="297.5" y1="692" y2="692"/><line style="stroke: #A80036; stroke-width: 1.5;" x1="191.5" x2="297.5" y1="700" y2="700"/><!--MD5=[3ead63e7a6dbaeb1466e3b865cfef6ea]
class UnityEvent--><rect fill="#FEFECE" filter="url(#f8wi2iz0fw33o)" height="48" id="UnityEvent" style="stroke: #A80036; stroke-width: 1.5;" width="98" x="333.5" y="660"/><ellipse cx="348.5" cy="676" fill="#ADD1B2" rx="11" ry="11" style="stroke: #A80036; stroke-width: 1.0;"/><path d="M351.4688,681.6406 Q350.8906,681.9375 350.25,682.0781 Q349.6094,682.2344 348.9063,682.2344 Q346.4063,682.2344 345.0781,680.5938 Q343.7656,678.9375 343.7656,675.8125 Q343.7656,672.6875 345.0781,671.0313 Q346.4063,669.375 348.9063,669.375 Q349.6094,669.375 350.25,669.5313 Q350.9063,669.6875 351.4688,669.9844 L351.4688,672.7031 Q350.8438,672.125 350.25,671.8594 Q349.6563,671.5781 349.0313,671.5781 Q347.6875,671.5781 347,672.6563 Q346.3125,673.7188 346.3125,675.8125 Q346.3125,677.9063 347,678.9844 Q347.6875,680.0469 349.0313,680.0469 Q349.6563,680.0469 350.25,679.7813 Q350.8438,679.5 351.4688,678.9219 L351.4688,681.6406 Z "/><text fill="#000000" font-family="sans-serif" font-size="12" lengthAdjust="spacingAndGlyphs" textLength="66" x="362.5" y="680.1543">UnityEvent</text><line style="stroke: #A80036; stroke-width: 1.5;" x1="334.5" x2="430.5" y1="692" y2="692"/><line style="stroke: #A80036; stroke-width: 1.5;" x1="334.5" x2="430.5" y1="700" y2="700"/><!--MD5=[b9ad5919cf59d348ea177240501ab0d6]
reverse link MonoBehaviour to ButtonsPauseMenu--><path d="M244.5,76.6 C244.5,88.31 244.5,101.72 244.5,115.96 " fill="none" id="MonoBehaviour&lt;-ButtonsPauseMenu" style="stroke: #A80036; stroke-width: 1.0;"/><polygon fill="none" points="237.5,76.39,244.5,56.39,251.5,76.39,237.5,76.39" style="stroke: #A80036; stroke-width: 1.0;"/><!--MD5=[b7b409bedcb88401e9c64a617583b0b6]
link ButtonsPauseMenu to Action--><path d="M160.87,459.24 C153.22,477.32 145.58,495.71 138.22,513.77 " fill="none" id="ButtonsPauseMenu-&gt;Action" style="stroke: #A80036; stroke-width: 1.0;"/><polygon fill="#A80036" points="136.15,518.86,143.25,512.0344,138.0365,514.2295,135.8413,509.016,136.15,518.86" style="stroke: #A80036; stroke-width: 1.0;"/><text fill="#000000" font-family="sans-serif" font-size="13" lengthAdjust="spacingAndGlyphs" textLength="76" x="60.9498" y="508.1139">actionEnum</text><!--MD5=[9328ba2bf64fb2581bed39d9776a6832]
reverse link ButtonsPauseMenu to Action--><path d="M181.18,473.22 C172.62,494.01 163.78,514.98 155.05,535.21 " fill="none" id="ButtonsPauseMenu&lt;-Action" style="stroke: #A80036; stroke-width: 1.0;"/><ellipse cx="183.8759" cy="466.6423" fill="#FFFFFF" rx="8" ry="8" style="stroke: #A80036; stroke-width: 1.0;"/><line style="stroke: #A80036; stroke-width: 1.0;" x1="180.8418" x2="186.91" y1="474.0446" y2="459.24"/><line style="stroke: #A80036; stroke-width: 1.0;" x1="176.4736" x2="191.2782" y1="463.6082" y2="469.6764"/><!--MD5=[8cebe50c2ae4a6ef4e6ebe0fbdc2854a]
link ButtonsPauseMenu to GameObject--><path d="M231.85,459.24 C231.27,533.93 233.16,613.78 237.54,654.91 " fill="none" id="ButtonsPauseMenu-&gt;GameObject" style="stroke: #A80036; stroke-width: 1.0;"/><polygon fill="#A80036" points="238.11,659.97,241.053,650.5711,237.5374,655.0029,233.1057,651.4873,238.11,659.97" style="stroke: #A80036; stroke-width: 1.0;"/><text fill="#000000" font-family="sans-serif" font-size="13" lengthAdjust="spacingAndGlyphs" textLength="105" x="249.8006" y="648.9126">MenuGuiToShow</text><!--MD5=[8cebe50c2ae4a6ef4e6ebe0fbdc2854a]
link ButtonsPauseMenu to GameObject--><path d="M257.89,459.24 C258.51,533.93 256.5,613.78 251.87,654.91 " fill="none" id="ButtonsPauseMenu-&gt;GameObject-1" style="stroke: #A80036; stroke-width: 1.0;"/><polygon fill="#A80036" points="251.27,659.97,256.2984,651.5015,251.8567,655.0045,248.3537,650.5628,251.27,659.97" style="stroke: #A80036; stroke-width: 1.0;"/><text fill="#000000" font-family="sans-serif" font-size="13" lengthAdjust="spacingAndGlyphs" textLength="177" x="275.6543" y="648.9126">GuiToHidePauseScreenshot</text><!--MD5=[994f0e7ba8768989764990b7e6a98019]
link ButtonsPauseMenu to UnityEvent--><path d="M291.58,459.24 C317.17,534.08 347.07,614.1 365.82,655.16 " fill="none" id="ButtonsPauseMenu-&gt;UnityEvent" style="stroke: #A80036; stroke-width: 1.0;"/><polygon fill="#A80036" points="368.05,659.97,367.9044,650.1222,365.952,655.4315,360.6428,653.479,368.05,659.97" style="stroke: #A80036; stroke-width: 1.0;"/><text fill="#000000" font-family="sans-serif" font-size="13" lengthAdjust="spacingAndGlyphs" textLength="125" x="380.3628" y="648.9743">OculusTouchTrigger</text><!--MD5=[994f0e7ba8768989764990b7e6a98019]
link ButtonsPauseMenu to UnityEvent--><path d="M317.62,459.24 C344.36,533.93 370.29,613.78 380.05,654.91 " fill="none" id="ButtonsPauseMenu-&gt;UnityEvent-1" style="stroke: #A80036; stroke-width: 1.0;"/><polygon fill="#A80036" points="381.21,659.97,383.0755,650.2994,380.0815,655.099,375.282,652.105,381.21,659.97" style="stroke: #A80036; stroke-width: 1.0;"/><text fill="#000000" font-family="sans-serif" font-size="13" lengthAdjust="spacingAndGlyphs" textLength="143" x="439.1333" y="658.4544">OculusTouchTriggerOn</text><!--MD5=[2c98cf7aa6261fe56366e20766ec6799]
@startuml
class ButtonsPauseMenu {
    screenshot : bool = false
    Start() : void
    ExitToTitle() : void
    Exit() : void
    Menu() : void
    Settings() : void
    GPS2() : void
    GPS_INFO_ON_MAP() : void
    Help() : void
    Placemark() : void
    Screenshot() : void
    TopographicProfile() : void
    Ruler() : void
    GPS1() : void
    WalkMode() : void
    FlightMode() : void
    DroneMode() : void
    PlacemarkTeleport() : void
    ScreenshotForWaypoint() : void
    ShowSons(value:bool) : void
    Show(gb:GameObject, value:bool) : void
    + OculusTriggerButton() : void
    + OculusTriggerButtonOn() : void
}
enum Action {
    ExitToTitle,
    Exit,
    Menu,
    Settings,
    Help,
    Placemark,
    PolyLine,
    Polygon,
    TopographicProfile,
    Ruler,
    Compass,
    Notebook,
    Screenshot,
    GPS1,
    GPS2,
    GPS3,
    GPS_INFO_ON_MAP,
    WalkMode,
    FlightMode,
    DroneMode,
    PlacemarkTeleport,
    ScreenshotForWaypoint,
}
MonoBehaviour <|- - ButtonsPauseMenu
ButtonsPauseMenu - -> "actionEnum" Action
ButtonsPauseMenu - -> "MenuGuiToShow" GameObject
ButtonsPauseMenu - -> "OculusTouchTrigger" UnityEvent
ButtonsPauseMenu - -> "OculusTouchTriggerOn" UnityEvent
ButtonsPauseMenu - -> "GuiToHidePauseScreenshot" GameObject
ButtonsPauseMenu +- - Action
@enduml

PlantUML version 1.2020.02(Sun Mar 01 10:22:07 GMT 2020)
(GPL source distribution)
Java Runtime: OpenJDK Runtime Environment
JVM: OpenJDK 64-Bit Server VM
Java Version: 11.0.9+11-Ubuntu-0ubuntu1
Operating System: Linux
Default Encoding: ANSI_X3.4-1968
Language: en
Country: US
--></g></svg>