<?xml version="1.0" encoding="UTF-8" standalone="no"?><svg xmlns="http://www.w3.org/2000/svg" xmlns:xlink="http://www.w3.org/1999/xlink" contentScriptType="application/ecmascript" contentStyleType="text/css" height="309px" preserveAspectRatio="none" style="width:199px;height:309px;" version="1.1" viewBox="0 0 199 309" width="199px" zoomAndPan="magnify"><defs><filter height="300%" id="ftlrp41ihihuu" width="300%" x="-1" y="-1"><feGaussianBlur result="blurOut" stdDeviation="2.0"/><feColorMatrix in="blurOut" result="blurOut2" type="matrix" values="0 0 0 0 0 0 0 0 0 0 0 0 0 0 0 0 0 0 .4 0"/><feOffset dx="4.0" dy="4.0" in="blurOut2" result="blurOut3"/><feBlend in="SourceGraphic" in2="blurOut3" mode="normal"/></filter></defs><g><!--MD5=[9066d28aa2b944f5dd28d0505986f0b1]
class ButtonsEvents--><rect fill="#FEFECE" filter="url(#ftlrp41ihihuu)" height="73.6094" id="ButtonsEvents" style="stroke: #A80036; stroke-width: 1.5;" width="128" x="60" y="116"/><ellipse cx="77.25" cy="132" fill="#ADD1B2" rx="11" ry="11" style="stroke: #A80036; stroke-width: 1.0;"/><path d="M80.2188,137.6406 Q79.6406,137.9375 79,138.0781 Q78.3594,138.2344 77.6563,138.2344 Q75.1563,138.2344 73.8281,136.5938 Q72.5156,134.9375 72.5156,131.8125 Q72.5156,128.6875 73.8281,127.0313 Q75.1563,125.375 77.6563,125.375 Q78.3594,125.375 79,125.5313 Q79.6563,125.6875 80.2188,125.9844 L80.2188,128.7031 Q79.5938,128.125 79,127.8594 Q78.4063,127.5781 77.7813,127.5781 Q76.4375,127.5781 75.75,128.6563 Q75.0625,129.7188 75.0625,131.8125 Q75.0625,133.9063 75.75,134.9844 Q76.4375,136.0469 77.7813,136.0469 Q78.4063,136.0469 79,135.7813 Q79.5938,135.5 80.2188,134.9219 L80.2188,137.6406 Z "/><text fill="#000000" font-family="sans-serif" font-size="12" lengthAdjust="spacingAndGlyphs" textLength="91" x="91.75" y="136.1543">ButtonsEvents</text><line style="stroke: #A80036; stroke-width: 1.5;" x1="61" x2="187" y1="148" y2="148"/><line style="stroke: #A80036; stroke-width: 1.5;" x1="61" x2="187" y1="156" y2="156"/><text fill="#000000" font-family="sans-serif" font-size="11" lengthAdjust="spacingAndGlyphs" textLength="71" x="66" y="170.2104">Start() : void</text><text fill="#000000" font-family="sans-serif" font-size="11" lengthAdjust="spacingAndGlyphs" textLength="116" x="66" y="183.0151">ChangeState() : void</text><!--MD5=[83b3cf3d23d77c6f1e1b5291a241bc2a]
class MonoBehaviour--><rect fill="#FEFECE" filter="url(#ftlrp41ihihuu)" height="48" id="MonoBehaviour" style="stroke: #A80036; stroke-width: 1.5;" width="128" x="60" y="8"/><ellipse cx="75" cy="24" fill="#ADD1B2" rx="11" ry="11" style="stroke: #A80036; stroke-width: 1.0;"/><path d="M77.9688,29.6406 Q77.3906,29.9375 76.75,30.0781 Q76.1094,30.2344 75.4063,30.2344 Q72.9063,30.2344 71.5781,28.5938 Q70.2656,26.9375 70.2656,23.8125 Q70.2656,20.6875 71.5781,19.0313 Q72.9063,17.375 75.4063,17.375 Q76.1094,17.375 76.75,17.5313 Q77.4063,17.6875 77.9688,17.9844 L77.9688,20.7031 Q77.3438,20.125 76.75,19.8594 Q76.1563,19.5781 75.5313,19.5781 Q74.1875,19.5781 73.5,20.6563 Q72.8125,21.7188 72.8125,23.8125 Q72.8125,25.9063 73.5,26.9844 Q74.1875,28.0469 75.5313,28.0469 Q76.1563,28.0469 76.75,27.7813 Q77.3438,27.5 77.9688,26.9219 L77.9688,29.6406 Z "/><text fill="#000000" font-family="sans-serif" font-size="12" lengthAdjust="spacingAndGlyphs" textLength="96" x="89" y="28.1543">MonoBehaviour</text><line style="stroke: #A80036; stroke-width: 1.5;" x1="61" x2="187" y1="40" y2="40"/><line style="stroke: #A80036; stroke-width: 1.5;" x1="61" x2="187" y1="48" y2="48"/><!--MD5=[064f7a74fee85463ec1a30143664ee17]
class GameObject--><rect fill="#FEFECE" filter="url(#ftlrp41ihihuu)" height="48" id="GameObject" style="stroke: #A80036; stroke-width: 1.5;" width="108" x="70" y="250"/><ellipse cx="85" cy="266" fill="#ADD1B2" rx="11" ry="11" style="stroke: #A80036; stroke-width: 1.0;"/><path d="M87.9688,271.6406 Q87.3906,271.9375 86.75,272.0781 Q86.1094,272.2344 85.4063,272.2344 Q82.9063,272.2344 81.5781,270.5938 Q80.2656,268.9375 80.2656,265.8125 Q80.2656,262.6875 81.5781,261.0313 Q82.9063,259.375 85.4063,259.375 Q86.1094,259.375 86.75,259.5313 Q87.4063,259.6875 87.9688,259.9844 L87.9688,262.7031 Q87.3438,262.125 86.75,261.8594 Q86.1563,261.5781 85.5313,261.5781 Q84.1875,261.5781 83.5,262.6563 Q82.8125,263.7188 82.8125,265.8125 Q82.8125,267.9063 83.5,268.9844 Q84.1875,270.0469 85.5313,270.0469 Q86.1563,270.0469 86.75,269.7813 Q87.3438,269.5 87.9688,268.9219 L87.9688,271.6406 Z "/><text fill="#000000" font-family="sans-serif" font-size="12" lengthAdjust="spacingAndGlyphs" textLength="76" x="99" y="270.1543">GameObject</text><line style="stroke: #A80036; stroke-width: 1.5;" x1="71" x2="177" y1="282" y2="282"/><line style="stroke: #A80036; stroke-width: 1.5;" x1="71" x2="177" y1="290" y2="290"/><!--MD5=[c121c5f3408f130b8b7928589a96d1f2]
reverse link MonoBehaviour to ButtonsEvents--><path d="M124,76.43 C124,89.33 124,103.32 124,115.71 " fill="none" id="MonoBehaviour&lt;-ButtonsEvents" style="stroke: #A80036; stroke-width: 1.0;"/><polygon fill="none" points="117,76.23,124,56.23,131,76.23,117,76.23" style="stroke: #A80036; stroke-width: 1.0;"/><!--MD5=[c4db6b56aa470c103445e953a7b18908]
link ButtonsEvents to GameObject--><path d="M124,190.03 C124,207.48 124,228.15 124,244.49 " fill="none" id="ButtonsEvents-&gt;GameObject" style="stroke: #A80036; stroke-width: 1.0;"/><polygon fill="#A80036" points="124,249.85,128,240.85,124,244.85,120,240.85,124,249.85" style="stroke: #A80036; stroke-width: 1.0;"/><text fill="#000000" font-family="sans-serif" font-size="13" lengthAdjust="spacingAndGlyphs" textLength="103" x="7.8031" y="238.8236">FatherController</text><!--MD5=[046b5d72e433cdea78ca01a217371181]
@startuml
class ButtonsEvents {
    Start() : void
    ChangeState() : void
}
MonoBehaviour <|- - ButtonsEvents
ButtonsEvents - -> "FatherController" GameObject
@enduml

PlantUML version 1.2020.02(Sun Mar 01 10:22:07 GMT 2020)
(GPL source distribution)
Java Runtime: OpenJDK Runtime Environment
JVM: OpenJDK 64-Bit Server VM
Java Version: 11.0.9+11-Ubuntu-0ubuntu1
Operating System: Linux
Default Encoding: ANSI_X3.4-1968
Language: en
Country: US
--></g></svg>