<?xml version="1.0" encoding="UTF-8" standalone="no"?><svg xmlns="http://www.w3.org/2000/svg" xmlns:xlink="http://www.w3.org/1999/xlink" contentScriptType="application/ecmascript" contentStyleType="text/css" height="334px" preserveAspectRatio="none" style="width:180px;height:334px;" version="1.1" viewBox="0 0 180 334" width="180px" zoomAndPan="magnify"><defs><filter height="300%" id="frwaf07chb6ti" width="300%" x="-1" y="-1"><feGaussianBlur result="blurOut" stdDeviation="2.0"/><feColorMatrix in="blurOut" result="blurOut2" type="matrix" values="0 0 0 0 0 0 0 0 0 0 0 0 0 0 0 0 0 0 .4 0"/><feOffset dx="4.0" dy="4.0" in="blurOut2" result="blurOut3"/><feBlend in="SourceGraphic" in2="blurOut3" mode="normal"/></filter></defs><g><!--MD5=[c053a105bcf153d42bf1c80326010135]
class Clock--><rect fill="#FEFECE" filter="url(#frwaf07chb6ti)" height="99.2188" id="Clock" style="stroke: #A80036; stroke-width: 1.5;" width="141" x="19.47" y="116"/><ellipse cx="69.22" cy="132" fill="#ADD1B2" rx="11" ry="11" style="stroke: #A80036; stroke-width: 1.0;"/><path d="M72.1888,137.6406 Q71.6106,137.9375 70.97,138.0781 Q70.3294,138.2344 69.6263,138.2344 Q67.1263,138.2344 65.7981,136.5938 Q64.4856,134.9375 64.4856,131.8125 Q64.4856,128.6875 65.7981,127.0313 Q67.1263,125.375 69.6263,125.375 Q70.3294,125.375 70.97,125.5313 Q71.6263,125.6875 72.1888,125.9844 L72.1888,128.7031 Q71.5638,128.125 70.97,127.8594 Q70.3763,127.5781 69.7513,127.5781 Q68.4075,127.5781 67.72,128.6563 Q67.0325,129.7188 67.0325,131.8125 Q67.0325,133.9063 67.72,134.9844 Q68.4075,136.0469 69.7513,136.0469 Q70.3763,136.0469 70.97,135.7813 Q71.5638,135.5 72.1888,134.9219 L72.1888,137.6406 Z "/><text fill="#000000" font-family="sans-serif" font-size="12" lengthAdjust="spacingAndGlyphs" textLength="33" x="89.72" y="136.1543">Clock</text><line style="stroke: #A80036; stroke-width: 1.5;" x1="20.47" x2="159.47" y1="148" y2="148"/><ellipse cx="30.47" cy="159" fill="none" rx="3" ry="3" style="stroke: #038048; stroke-width: 1.0;"/><text fill="#000000" font-family="sans-serif" font-size="11" lengthAdjust="spacingAndGlyphs" textLength="115" x="39.47" y="162.2104">showSeconds : bool</text><line style="stroke: #A80036; stroke-width: 1.5;" x1="20.47" x2="159.47" y1="168.8047" y2="168.8047"/><text fill="#000000" font-family="sans-serif" font-size="11" lengthAdjust="spacingAndGlyphs" textLength="71" x="25.47" y="183.0151">Start() : void</text><text fill="#000000" font-family="sans-serif" font-size="11" lengthAdjust="spacingAndGlyphs" textLength="112" x="25.47" y="195.8198">FixedUpdate() : void</text><text fill="#000000" font-family="sans-serif" font-size="11" lengthAdjust="spacingAndGlyphs" textLength="107" x="25.47" y="208.6245">UpdateText() : void</text><!--MD5=[83b3cf3d23d77c6f1e1b5291a241bc2a]
class MonoBehaviour--><rect fill="#FEFECE" filter="url(#frwaf07chb6ti)" height="48" id="MonoBehaviour" style="stroke: #A80036; stroke-width: 1.5;" width="128" x="25.97" y="8"/><ellipse cx="40.97" cy="24" fill="#ADD1B2" rx="11" ry="11" style="stroke: #A80036; stroke-width: 1.0;"/><path d="M43.9388,29.6406 Q43.3606,29.9375 42.72,30.0781 Q42.0794,30.2344 41.3763,30.2344 Q38.8763,30.2344 37.5481,28.5938 Q36.2356,26.9375 36.2356,23.8125 Q36.2356,20.6875 37.5481,19.0313 Q38.8763,17.375 41.3763,17.375 Q42.0794,17.375 42.72,17.5313 Q43.3763,17.6875 43.9388,17.9844 L43.9388,20.7031 Q43.3138,20.125 42.72,19.8594 Q42.1263,19.5781 41.5013,19.5781 Q40.1575,19.5781 39.47,20.6563 Q38.7825,21.7188 38.7825,23.8125 Q38.7825,25.9063 39.47,26.9844 Q40.1575,28.0469 41.5013,28.0469 Q42.1263,28.0469 42.72,27.7813 Q43.3138,27.5 43.9388,26.9219 L43.9388,29.6406 Z "/><text fill="#000000" font-family="sans-serif" font-size="12" lengthAdjust="spacingAndGlyphs" textLength="96" x="54.97" y="28.1543">MonoBehaviour</text><line style="stroke: #A80036; stroke-width: 1.5;" x1="26.97" x2="152.97" y1="40" y2="40"/><line style="stroke: #A80036; stroke-width: 1.5;" x1="26.97" x2="152.97" y1="48" y2="48"/><!--MD5=[02a8746eb15ecbb4566dafa16ea4db73]
class Text--><rect fill="#FEFECE" filter="url(#frwaf07chb6ti)" height="48" id="Text" style="stroke: #A80036; stroke-width: 1.5;" width="58" x="60.97" y="275"/><ellipse cx="75.97" cy="291" fill="#ADD1B2" rx="11" ry="11" style="stroke: #A80036; stroke-width: 1.0;"/><path d="M78.9388,296.6406 Q78.3606,296.9375 77.72,297.0781 Q77.0794,297.2344 76.3763,297.2344 Q73.8763,297.2344 72.5481,295.5938 Q71.2356,293.9375 71.2356,290.8125 Q71.2356,287.6875 72.5481,286.0313 Q73.8763,284.375 76.3763,284.375 Q77.0794,284.375 77.72,284.5313 Q78.3763,284.6875 78.9388,284.9844 L78.9388,287.7031 Q78.3138,287.125 77.72,286.8594 Q77.1263,286.5781 76.5013,286.5781 Q75.1575,286.5781 74.47,287.6563 Q73.7825,288.7188 73.7825,290.8125 Q73.7825,292.9063 74.47,293.9844 Q75.1575,295.0469 76.5013,295.0469 Q77.1263,295.0469 77.72,294.7813 Q78.3138,294.5 78.9388,293.9219 L78.9388,296.6406 Z "/><text fill="#000000" font-family="sans-serif" font-size="12" lengthAdjust="spacingAndGlyphs" textLength="26" x="89.97" y="295.1543">Text</text><line style="stroke: #A80036; stroke-width: 1.5;" x1="61.97" x2="117.97" y1="307" y2="307"/><line style="stroke: #A80036; stroke-width: 1.5;" x1="61.97" x2="117.97" y1="315" y2="315"/><!--MD5=[fe48c48f86e8677ba5ddd04692a33a70]
reverse link MonoBehaviour to Clock--><path d="M89.97,76.51 C89.97,89.14 89.97,103.01 89.97,115.93 " fill="none" id="MonoBehaviour&lt;-Clock" style="stroke: #A80036; stroke-width: 1.0;"/><polygon fill="none" points="82.97,76.21,89.97,56.21,96.97,76.21,82.97,76.21" style="stroke: #A80036; stroke-width: 1.0;"/><!--MD5=[94d83f2025ec62bb5a44b532b9dd9387]
link Clock to Text--><path d="M77.61,215.09 C76.75,233.5 77.31,253.83 79.28,269.75 " fill="none" id="Clock-&gt;Text" style="stroke: #A80036; stroke-width: 1.0;"/><polygon fill="#A80036" points="80,274.98,82.7291,265.5168,79.3149,270.0272,74.8045,266.613,80,274.98" style="stroke: #A80036; stroke-width: 1.0;"/><text fill="#000000" font-family="sans-serif" font-size="13" lengthAdjust="spacingAndGlyphs" textLength="59" x="10.8858" y="263.9869">clockText</text><!--MD5=[94d83f2025ec62bb5a44b532b9dd9387]
link Clock to Text--><path d="M103.05,215.09 C103.97,233.5 103.38,253.83 101.29,269.75 " fill="none" id="Clock-&gt;Text-1" style="stroke: #A80036; stroke-width: 1.0;"/><polygon fill="#A80036" points="100.52,274.98,105.7661,266.6446,101.2351,270.0314,97.8483,265.5004,100.52,274.98" style="stroke: #A80036; stroke-width: 1.0;"/><text fill="#000000" font-family="sans-serif" font-size="13" lengthAdjust="spacingAndGlyphs" textLength="58" x="110.6547" y="263.9869">DateText</text><!--MD5=[71e65efccde6b526bf389348dfd6fccc]
@startuml
class Clock {
    + showSeconds : bool
    Start() : void
    FixedUpdate() : void
    UpdateText() : void
}
MonoBehaviour <|- - Clock
Clock - -> "clockText" Text
Clock - -> "DateText" Text
@enduml

PlantUML version 1.2020.02(Sun Mar 01 10:22:07 GMT 2020)
(GPL source distribution)
Java Runtime: OpenJDK Runtime Environment
JVM: OpenJDK 64-Bit Server VM
Java Version: 11.0.9+11-Ubuntu-0ubuntu1
Operating System: Linux
Default Encoding: ANSI_X3.4-1968
Language: en
Country: US
--></g></svg>