<?xml version="1.0" encoding="UTF-8" standalone="no"?><svg xmlns="http://www.w3.org/2000/svg" xmlns:xlink="http://www.w3.org/1999/xlink" contentScriptType="application/ecmascript" contentStyleType="text/css" height="213px" preserveAspectRatio="none" style="width:240px;height:213px;" version="1.1" viewBox="0 0 240 213" width="240px" zoomAndPan="magnify"><defs><filter height="300%" id="f9erp7t80c4zg" width="300%" x="-1" y="-1"><feGaussianBlur result="blurOut" stdDeviation="2.0"/><feColorMatrix in="blurOut" result="blurOut2" type="matrix" values="0 0 0 0 0 0 0 0 0 0 0 0 0 0 0 0 0 0 .4 0"/><feOffset dx="4.0" dy="4.0" in="blurOut2" result="blurOut3"/><feBlend in="SourceGraphic" in2="blurOut3" mode="normal"/></filter></defs><g><!--MD5=[9e11680b0fb625c8b8c5bb363321776b]
class ControlWithMouse--><rect fill="#FEFECE" filter="url(#f9erp7t80c4zg)" height="86.4141" id="ControlWithMouse" style="stroke: #A80036; stroke-width: 1.5;" width="223" x="6" y="116"/><ellipse cx="56.75" cy="132" fill="#ADD1B2" rx="11" ry="11" style="stroke: #A80036; stroke-width: 1.0;"/><path d="M59.7188,137.6406 Q59.1406,137.9375 58.5,138.0781 Q57.8594,138.2344 57.1563,138.2344 Q54.6563,138.2344 53.3281,136.5938 Q52.0156,134.9375 52.0156,131.8125 Q52.0156,128.6875 53.3281,127.0313 Q54.6563,125.375 57.1563,125.375 Q57.8594,125.375 58.5,125.5313 Q59.1563,125.6875 59.7188,125.9844 L59.7188,128.7031 Q59.0938,128.125 58.5,127.8594 Q57.9063,127.5781 57.2813,127.5781 Q55.9375,127.5781 55.25,128.6563 Q54.5625,129.7188 54.5625,131.8125 Q54.5625,133.9063 55.25,134.9844 Q55.9375,136.0469 57.2813,136.0469 Q57.9063,136.0469 58.5,135.7813 Q59.0938,135.5 59.7188,134.9219 L59.7188,137.6406 Z "/><text fill="#000000" font-family="sans-serif" font-size="12" lengthAdjust="spacingAndGlyphs" textLength="113" x="77.25" y="136.1543">ControlWithMouse</text><line style="stroke: #A80036; stroke-width: 1.5;" x1="7" x2="228" y1="148" y2="148"/><ellipse cx="17" cy="159" fill="none" rx="3" ry="3" style="stroke: #038048; stroke-width: 1.0;"/><text fill="#000000" font-family="sans-serif" font-size="11" lengthAdjust="spacingAndGlyphs" textLength="128" x="26" y="162.2104">SPEEDROT : float = 50</text><ellipse cx="17" cy="171.8047" fill="none" rx="3" ry="3" style="stroke: #038048; stroke-width: 1.0;"/><text fill="#000000" font-family="sans-serif" font-size="11" lengthAdjust="spacingAndGlyphs" textLength="197" x="26" y="175.0151">MAX_ROTATION_ANGLE : float = 75</text><line style="stroke: #A80036; stroke-width: 1.5;" x1="7" x2="228" y1="181.6094" y2="181.6094"/><text fill="#000000" font-family="sans-serif" font-size="11" lengthAdjust="spacingAndGlyphs" textLength="83" x="12" y="195.8198">Update() : void</text><!--MD5=[83b3cf3d23d77c6f1e1b5291a241bc2a]
class MonoBehaviour--><rect fill="#FEFECE" filter="url(#f9erp7t80c4zg)" height="48" id="MonoBehaviour" style="stroke: #A80036; stroke-width: 1.5;" width="128" x="53.5" y="8"/><ellipse cx="68.5" cy="24" fill="#ADD1B2" rx="11" ry="11" style="stroke: #A80036; stroke-width: 1.0;"/><path d="M71.4688,29.6406 Q70.8906,29.9375 70.25,30.0781 Q69.6094,30.2344 68.9063,30.2344 Q66.4063,30.2344 65.0781,28.5938 Q63.7656,26.9375 63.7656,23.8125 Q63.7656,20.6875 65.0781,19.0313 Q66.4063,17.375 68.9063,17.375 Q69.6094,17.375 70.25,17.5313 Q70.9063,17.6875 71.4688,17.9844 L71.4688,20.7031 Q70.8438,20.125 70.25,19.8594 Q69.6563,19.5781 69.0313,19.5781 Q67.6875,19.5781 67,20.6563 Q66.3125,21.7188 66.3125,23.8125 Q66.3125,25.9063 67,26.9844 Q67.6875,28.0469 69.0313,28.0469 Q69.6563,28.0469 70.25,27.7813 Q70.8438,27.5 71.4688,26.9219 L71.4688,29.6406 Z "/><text fill="#000000" font-family="sans-serif" font-size="12" lengthAdjust="spacingAndGlyphs" textLength="96" x="82.5" y="28.1543">MonoBehaviour</text><line style="stroke: #A80036; stroke-width: 1.5;" x1="54.5" x2="180.5" y1="40" y2="40"/><line style="stroke: #A80036; stroke-width: 1.5;" x1="54.5" x2="180.5" y1="48" y2="48"/><!--MD5=[df558920348e2900bc9acca3b2fb48c1]
reverse link MonoBehaviour to ControlWithMouse--><path d="M117.5,76.27 C117.5,89.12 117.5,103.17 117.5,115.94 " fill="none" id="MonoBehaviour&lt;-ControlWithMouse" style="stroke: #A80036; stroke-width: 1.0;"/><polygon fill="none" points="110.5,76.22,117.5,56.22,124.5,76.22,110.5,76.22" style="stroke: #A80036; stroke-width: 1.0;"/><!--MD5=[e497d5be5b815456404e1726f62ce9b6]
@startuml
class ControlWithMouse {
    + SPEEDROT : float = 50
    + MAX_ROTATION_ANGLE : float = 75
    Update() : void
}
MonoBehaviour <|- - ControlWithMouse
@enduml

PlantUML version 1.2020.02(Sun Mar 01 10:22:07 GMT 2020)
(GPL source distribution)
Java Runtime: OpenJDK Runtime Environment
JVM: OpenJDK 64-Bit Server VM
Java Version: 11.0.9+11-Ubuntu-0ubuntu1
Operating System: Linux
Default Encoding: ANSI_X3.4-1968
Language: en
Country: US
--></g></svg>