<?xml version="1.0" encoding="UTF-8" standalone="no"?><svg xmlns="http://www.w3.org/2000/svg" xmlns:xlink="http://www.w3.org/1999/xlink" contentScriptType="application/ecmascript" contentStyleType="text/css" height="321px" preserveAspectRatio="none" style="width:256px;height:321px;" version="1.1" viewBox="0 0 256 321" width="256px" zoomAndPan="magnify"><defs><filter height="300%" id="f1eq6li4wo2s4v" width="300%" x="-1" y="-1"><feGaussianBlur result="blurOut" stdDeviation="2.0"/><feColorMatrix in="blurOut" result="blurOut2" type="matrix" values="0 0 0 0 0 0 0 0 0 0 0 0 0 0 0 0 0 0 .4 0"/><feOffset dx="4.0" dy="4.0" in="blurOut2" result="blurOut3"/><feBlend in="SourceGraphic" in2="blurOut3" mode="normal"/></filter></defs><g><!--MD5=[f64dec5fba03db82bb00aad7b5cb72ab]
class CoordinateGUIController--><rect fill="#FEFECE" filter="url(#f1eq6li4wo2s4v)" height="86.4141" id="CoordinateGUIController" style="stroke: #A80036; stroke-width: 1.5;" width="183" x="11.56" y="116"/><ellipse cx="26.56" cy="132" fill="#ADD1B2" rx="11" ry="11" style="stroke: #A80036; stroke-width: 1.0;"/><path d="M29.5288,137.6406 Q28.9506,137.9375 28.31,138.0781 Q27.6694,138.2344 26.9663,138.2344 Q24.4663,138.2344 23.1381,136.5938 Q21.8256,134.9375 21.8256,131.8125 Q21.8256,128.6875 23.1381,127.0313 Q24.4663,125.375 26.9663,125.375 Q27.6694,125.375 28.31,125.5313 Q28.9663,125.6875 29.5288,125.9844 L29.5288,128.7031 Q28.9038,128.125 28.31,127.8594 Q27.7163,127.5781 27.0913,127.5781 Q25.7475,127.5781 25.06,128.6563 Q24.3725,129.7188 24.3725,131.8125 Q24.3725,133.9063 25.06,134.9844 Q25.7475,136.0469 27.0913,136.0469 Q27.7163,136.0469 28.31,135.7813 Q28.9038,135.5 29.5288,134.9219 L29.5288,137.6406 Z "/><text fill="#000000" font-family="sans-serif" font-size="12" lengthAdjust="spacingAndGlyphs" textLength="151" x="40.56" y="136.1543">CoordinateGUIController</text><line style="stroke: #A80036; stroke-width: 1.5;" x1="12.56" x2="193.56" y1="148" y2="148"/><text fill="#000000" font-family="sans-serif" font-size="11" lengthAdjust="spacingAndGlyphs" textLength="44" x="17.56" y="162.2104">n : float</text><text fill="#000000" font-family="sans-serif" font-size="11" lengthAdjust="spacingAndGlyphs" textLength="104" x="17.56" y="175.0151">rotationGap : float</text><line style="stroke: #A80036; stroke-width: 1.5;" x1="12.56" x2="193.56" y1="181.6094" y2="181.6094"/><text fill="#000000" font-family="sans-serif" font-size="11" lengthAdjust="spacingAndGlyphs" textLength="83" x="17.56" y="195.8198">Update() : void</text><!--MD5=[83b3cf3d23d77c6f1e1b5291a241bc2a]
class MonoBehaviour--><rect fill="#FEFECE" filter="url(#f1eq6li4wo2s4v)" height="48" id="MonoBehaviour" style="stroke: #A80036; stroke-width: 1.5;" width="128" x="39.06" y="8"/><ellipse cx="54.06" cy="24" fill="#ADD1B2" rx="11" ry="11" style="stroke: #A80036; stroke-width: 1.0;"/><path d="M57.0288,29.6406 Q56.4506,29.9375 55.81,30.0781 Q55.1694,30.2344 54.4663,30.2344 Q51.9663,30.2344 50.6381,28.5938 Q49.3256,26.9375 49.3256,23.8125 Q49.3256,20.6875 50.6381,19.0313 Q51.9663,17.375 54.4663,17.375 Q55.1694,17.375 55.81,17.5313 Q56.4663,17.6875 57.0288,17.9844 L57.0288,20.7031 Q56.4038,20.125 55.81,19.8594 Q55.2163,19.5781 54.5913,19.5781 Q53.2475,19.5781 52.56,20.6563 Q51.8725,21.7188 51.8725,23.8125 Q51.8725,25.9063 52.56,26.9844 Q53.2475,28.0469 54.5913,28.0469 Q55.2163,28.0469 55.81,27.7813 Q56.4038,27.5 57.0288,26.9219 L57.0288,29.6406 Z "/><text fill="#000000" font-family="sans-serif" font-size="12" lengthAdjust="spacingAndGlyphs" textLength="96" x="68.06" y="28.1543">MonoBehaviour</text><line style="stroke: #A80036; stroke-width: 1.5;" x1="40.06" x2="166.06" y1="40" y2="40"/><line style="stroke: #A80036; stroke-width: 1.5;" x1="40.06" x2="166.06" y1="48" y2="48"/><!--MD5=[02a8746eb15ecbb4566dafa16ea4db73]
class Text--><rect fill="#FEFECE" filter="url(#f1eq6li4wo2s4v)" height="48" id="Text" style="stroke: #A80036; stroke-width: 1.5;" width="58" x="74.06" y="262"/><ellipse cx="89.06" cy="278" fill="#ADD1B2" rx="11" ry="11" style="stroke: #A80036; stroke-width: 1.0;"/><path d="M92.0288,283.6406 Q91.4506,283.9375 90.81,284.0781 Q90.1694,284.2344 89.4663,284.2344 Q86.9663,284.2344 85.6381,282.5938 Q84.3256,280.9375 84.3256,277.8125 Q84.3256,274.6875 85.6381,273.0313 Q86.9663,271.375 89.4663,271.375 Q90.1694,271.375 90.81,271.5313 Q91.4663,271.6875 92.0288,271.9844 L92.0288,274.7031 Q91.4038,274.125 90.81,273.8594 Q90.2163,273.5781 89.5913,273.5781 Q88.2475,273.5781 87.56,274.6563 Q86.8725,275.7188 86.8725,277.8125 Q86.8725,279.9063 87.56,280.9844 Q88.2475,282.0469 89.5913,282.0469 Q90.2163,282.0469 90.81,281.7813 Q91.4038,281.5 92.0288,280.9219 L92.0288,283.6406 Z "/><text fill="#000000" font-family="sans-serif" font-size="12" lengthAdjust="spacingAndGlyphs" textLength="26" x="103.06" y="282.1543">Text</text><line style="stroke: #A80036; stroke-width: 1.5;" x1="75.06" x2="131.06" y1="294" y2="294"/><line style="stroke: #A80036; stroke-width: 1.5;" x1="75.06" x2="131.06" y1="302" y2="302"/><!--MD5=[964f074a2dd77d134c21b891bb53e381]
class Image--><rect fill="#FEFECE" filter="url(#f1eq6li4wo2s4v)" height="48" id="Image" style="stroke: #A80036; stroke-width: 1.5;" width="70" x="167.06" y="262"/><ellipse cx="182.06" cy="278" fill="#ADD1B2" rx="11" ry="11" style="stroke: #A80036; stroke-width: 1.0;"/><path d="M185.0288,283.6406 Q184.4506,283.9375 183.81,284.0781 Q183.1694,284.2344 182.4663,284.2344 Q179.9663,284.2344 178.6381,282.5938 Q177.3256,280.9375 177.3256,277.8125 Q177.3256,274.6875 178.6381,273.0313 Q179.9663,271.375 182.4663,271.375 Q183.1694,271.375 183.81,271.5313 Q184.4663,271.6875 185.0288,271.9844 L185.0288,274.7031 Q184.4038,274.125 183.81,273.8594 Q183.2163,273.5781 182.5913,273.5781 Q181.2475,273.5781 180.56,274.6563 Q179.8725,275.7188 179.8725,277.8125 Q179.8725,279.9063 180.56,280.9844 Q181.2475,282.0469 182.5913,282.0469 Q183.2163,282.0469 183.81,281.7813 Q184.4038,281.5 185.0288,280.9219 L185.0288,283.6406 Z "/><text fill="#000000" font-family="sans-serif" font-size="12" lengthAdjust="spacingAndGlyphs" textLength="38" x="196.06" y="282.1543">Image</text><line style="stroke: #A80036; stroke-width: 1.5;" x1="168.06" x2="236.06" y1="294" y2="294"/><line style="stroke: #A80036; stroke-width: 1.5;" x1="168.06" x2="236.06" y1="302" y2="302"/><!--MD5=[291485a2ecded2c6b243f0f5617e209b]
reverse link MonoBehaviour to CoordinateGUIController--><path d="M103.06,76.27 C103.06,89.12 103.06,103.17 103.06,115.94 " fill="none" id="MonoBehaviour&lt;-CoordinateGUIController" style="stroke: #A80036; stroke-width: 1.0;"/><polygon fill="none" points="96.06,76.22,103.06,56.22,110.06,76.22,96.06,76.22" style="stroke: #A80036; stroke-width: 1.0;"/><!--MD5=[95b8c8466ffdc669e487a2eec62323b1]
link CoordinateGUIController to Text--><path d="M65.93,202.32 C62.16,222 64.09,244.67 71.7,261.29 " fill="none" id="CoordinateGUIController-&gt;Text" style="stroke: #A80036; stroke-width: 1.0;"/><polygon fill="#A80036" points="74,265.81,73.4646,255.9757,71.7239,261.3581,66.3416,259.6174,74,265.81" style="stroke: #A80036; stroke-width: 1.0;"/><text fill="#000000" font-family="sans-serif" font-size="13" lengthAdjust="spacingAndGlyphs" textLength="53" x="13.1869" y="258.9923">northing</text><!--MD5=[95b8c8466ffdc669e487a2eec62323b1]
link CoordinateGUIController to Text--><path d="M90.92,202.32 C89.81,220.14 90.22,240.41 92.15,256.42 " fill="none" id="CoordinateGUIController-&gt;Text-1" style="stroke: #A80036; stroke-width: 1.0;"/><polygon fill="#A80036" points="92.87,261.67,95.6258,252.2146,92.1989,256.7152,87.6982,253.2883,92.87,261.67" style="stroke: #A80036; stroke-width: 1.0;"/><text fill="#000000" font-family="sans-serif" font-size="13" lengthAdjust="spacingAndGlyphs" textLength="48" x="96.2362" y="250.9945">altitude</text><!--MD5=[95b8c8466ffdc669e487a2eec62323b1]
link CoordinateGUIController to Text--><path d="M115.91,202.32 C117.09,220.14 116.66,240.41 114.61,256.42 " fill="none" id="CoordinateGUIController-&gt;Text-2" style="stroke: #A80036; stroke-width: 1.0;"/><polygon fill="#A80036" points="113.85,261.67,119.0927,253.3325,114.5631,256.7211,111.1745,252.1915,113.85,261.67" style="stroke: #A80036; stroke-width: 1.0;"/><text fill="#000000" font-family="sans-serif" font-size="13" lengthAdjust="spacingAndGlyphs" textLength="69" x="124.8228" y="250.9328">orientation</text><!--MD5=[95b8c8466ffdc669e487a2eec62323b1]
link CoordinateGUIController to Text--><path d="M140.91,202.32 C144.82,222.39 142.7,245.57 134.55,262.27 " fill="none" id="CoordinateGUIController-&gt;Text-3" style="stroke: #A80036; stroke-width: 1.0;"/><polygon fill="#A80036" points="132.1,266.8,139.9062,260.7948,134.4833,262.4045,132.8735,256.9816,132.1,266.8" style="stroke: #A80036; stroke-width: 1.0;"/><text fill="#000000" font-family="sans-serif" font-size="13" lengthAdjust="spacingAndGlyphs" textLength="58" x="100.968" y="252.2296">elevation</text><!--MD5=[6041d1205b9a6f4609b8742b09f6b06b]
link CoordinateGUIController to Image--><path d="M136.58,202.32 C151.06,220.6 167.58,241.46 180.41,257.66 " fill="none" id="CoordinateGUIController-&gt;Image" style="stroke: #A80036; stroke-width: 1.0;"/><polygon fill="#A80036" points="183.58,261.67,181.1281,252.1312,180.4758,257.7504,174.8566,257.098,183.58,261.67" style="stroke: #A80036; stroke-width: 1.0;"/><text fill="#000000" font-family="sans-serif" font-size="13" lengthAdjust="spacingAndGlyphs" textLength="58" x="186.1443" y="250.9945">compass</text><!--MD5=[082c224584311d0e392ed0966100547c]
@startuml
class CoordinateGUIController {
    n : float
    rotationGap : float
    Update() : void
}
MonoBehaviour <|- - CoordinateGUIController
CoordinateGUIController - -> "northing" Text
CoordinateGUIController - -> "altitude" Text
CoordinateGUIController - -> "orientation" Text
CoordinateGUIController - -> "elevation" Text
CoordinateGUIController - -> "compass" Image
@enduml

PlantUML version 1.2020.02(Sun Mar 01 10:22:07 GMT 2020)
(GPL source distribution)
Java Runtime: OpenJDK Runtime Environment
JVM: OpenJDK 64-Bit Server VM
Java Version: 11.0.9+11-Ubuntu-0ubuntu1
Operating System: Linux
Default Encoding: ANSI_X3.4-1968
Language: en
Country: US
--></g></svg>