<?xml version="1.0" encoding="UTF-8" standalone="no"?><svg xmlns="http://www.w3.org/2000/svg" xmlns:xlink="http://www.w3.org/1999/xlink" contentScriptType="application/ecmascript" contentStyleType="text/css" height="475px" preserveAspectRatio="none" style="width:480px;height:475px;" version="1.1" viewBox="0 0 480 475" width="480px" zoomAndPan="magnify"><defs><filter height="300%" id="fdugg88q57159" width="300%" x="-1" y="-1"><feGaussianBlur result="blurOut" stdDeviation="2.0"/><feColorMatrix in="blurOut" result="blurOut2" type="matrix" values="0 0 0 0 0 0 0 0 0 0 0 0 0 0 0 0 0 0 .4 0"/><feOffset dx="4.0" dy="4.0" in="blurOut2" result="blurOut3"/><feBlend in="SourceGraphic" in2="blurOut3" mode="normal"/></filter></defs><g><!--MD5=[1ac0670640e7bfffebde8a24bb8d05cf]
class CustomFPCharacter--><rect fill="#FEFECE" filter="url(#fdugg88q57159)" height="240.0703" id="CustomFPCharacter" style="stroke: #A80036; stroke-width: 1.5;" width="322" x="14.67" y="116"/><ellipse cx="109.42" cy="132" fill="#ADD1B2" rx="11" ry="11" style="stroke: #A80036; stroke-width: 1.0;"/><path d="M112.3888,137.6406 Q111.8106,137.9375 111.17,138.0781 Q110.5294,138.2344 109.8263,138.2344 Q107.3263,138.2344 105.9981,136.5938 Q104.6856,134.9375 104.6856,131.8125 Q104.6856,128.6875 105.9981,127.0313 Q107.3263,125.375 109.8263,125.375 Q110.5294,125.375 111.17,125.5313 Q111.8263,125.6875 112.3888,125.9844 L112.3888,128.7031 Q111.7638,128.125 111.17,127.8594 Q110.5763,127.5781 109.9513,127.5781 Q108.6075,127.5781 107.92,128.6563 Q107.2325,129.7188 107.2325,131.8125 Q107.2325,133.9063 107.92,134.9844 Q108.6075,136.0469 109.9513,136.0469 Q110.5763,136.0469 111.17,135.7813 Q111.7638,135.5 112.3888,134.9219 L112.3888,137.6406 Z "/><text fill="#000000" font-family="sans-serif" font-size="12" lengthAdjust="spacingAndGlyphs" textLength="124" x="129.92" y="136.1543">CustomFPCharacter</text><line style="stroke: #A80036; stroke-width: 1.5;" x1="15.67" x2="335.67" y1="148" y2="148"/><ellipse cx="25.67" cy="159" fill="none" rx="3" ry="3" style="stroke: #038048; stroke-width: 1.0;"/><text fill="#000000" font-family="sans-serif" font-size="11" lengthAdjust="spacingAndGlyphs" textLength="115" x="34.67" y="162.2104">m_WalkSpeed : float</text><ellipse cx="25.67" cy="171.8047" fill="none" rx="3" ry="3" style="stroke: #038048; stroke-width: 1.0;"/><text fill="#000000" font-family="sans-serif" font-size="11" lengthAdjust="spacingAndGlyphs" textLength="111" x="34.67" y="175.0151">m_RunSpeed : float</text><ellipse cx="25.67" cy="184.6094" fill="none" rx="3" ry="3" style="stroke: #038048; stroke-width: 1.0;"/><text fill="#000000" font-family="sans-serif" font-size="11" lengthAdjust="spacingAndGlyphs" textLength="92" x="34.67" y="187.8198">HEIGHT : int = 0</text><ellipse cx="25.67" cy="197.4141" fill="none" rx="3" ry="3" style="stroke: #038048; stroke-width: 1.0;"/><text fill="#000000" font-family="sans-serif" font-size="11" lengthAdjust="spacingAndGlyphs" textLength="164" x="34.67" y="200.6245">isOculusTouch : bool = false</text><ellipse cx="25.67" cy="210.2188" fill="none" rx="3" ry="3" style="stroke: #038048; stroke-width: 1.0;"/><text fill="#000000" font-family="sans-serif" font-size="11" lengthAdjust="spacingAndGlyphs" textLength="139" x="34.67" y="213.4292">flySpeed : float = 100.0f</text><ellipse cx="25.67" cy="223.0234" fill="none" rx="3" ry="3" style="stroke: #038048; stroke-width: 1.0;"/><text fill="#000000" font-family="sans-serif" font-size="11" lengthAdjust="spacingAndGlyphs" textLength="173" x="34.67" y="226.2339">flyYVectorTrigger : float = 0.3f</text><ellipse cx="25.67" cy="235.8281" fill="none" rx="3" ry="3" style="stroke: #038048; stroke-width: 1.0;"/><text fill="#000000" font-family="sans-serif" font-size="11" lengthAdjust="spacingAndGlyphs" textLength="151" x="34.67" y="239.0386">maxFlyHeight : float = 3.0f</text><ellipse cx="25.67" cy="248.6328" fill="none" rx="3" ry="3" style="stroke: #038048; stroke-width: 1.0;"/><text fill="#000000" font-family="sans-serif" font-size="11" lengthAdjust="spacingAndGlyphs" textLength="296" x="34.67" y="251.8433">ROTATIONSMOOTHINGSCALINGFACTOR : float = 3.0f</text><ellipse cx="25.67" cy="261.4375" fill="none" rx="3" ry="3" style="stroke: #038048; stroke-width: 1.0;"/><text fill="#000000" font-family="sans-serif" font-size="11" lengthAdjust="spacingAndGlyphs" textLength="231" x="34.67" y="264.6479">ROTATIONSMOOTHINGTIME : float = 0.5F</text><ellipse cx="25.67" cy="274.2422" fill="none" rx="3" ry="3" style="stroke: #038048; stroke-width: 1.0;"/><text fill="#000000" font-family="sans-serif" font-size="11" lengthAdjust="spacingAndGlyphs" textLength="169" x="34.67" y="277.4526">ROTATIONCAP : float = 360.0f</text><ellipse cx="25.67" cy="287.0469" fill="none" rx="3" ry="3" style="stroke: #038048; stroke-width: 1.0;"/><text fill="#000000" font-family="sans-serif" font-size="11" lengthAdjust="spacingAndGlyphs" textLength="202" x="34.67" y="290.2573">ROTATION_SPEED_VALUE : float = 1</text><ellipse cx="25.67" cy="299.8516" fill="none" rx="3" ry="3" style="stroke: #038048; stroke-width: 1.0;"/><text fill="#000000" font-family="sans-serif" font-size="11" lengthAdjust="spacingAndGlyphs" textLength="165" x="34.67" y="303.062">isRWTCrunning : bool = false</text><ellipse cx="25.67" cy="312.6563" fill="none" rx="3" ry="3" style="stroke: #038048; stroke-width: 1.0;"/><text fill="#000000" font-family="sans-serif" font-size="11" lengthAdjust="spacingAndGlyphs" textLength="173" x="34.67" y="315.8667">joystickDeadzone : float = 0.2f</text><line style="stroke: #A80036; stroke-width: 1.5;" x1="15.67" x2="335.67" y1="322.4609" y2="322.4609"/><ellipse cx="25.67" cy="333.4609" fill="#84BE84" rx="3" ry="3" style="stroke: #038048; stroke-width: 1.0;"/><text fill="#000000" font-family="sans-serif" font-size="11" lengthAdjust="spacingAndGlyphs" textLength="71" x="34.67" y="336.6714">Start() : void</text><text fill="#000000" font-family="sans-serif" font-size="11" lengthAdjust="spacingAndGlyphs" textLength="245" x="34.67" y="349.4761">RotateWithTriggerCoroutine() : IEnumerator</text><!--MD5=[83b3cf3d23d77c6f1e1b5291a241bc2a]
class MonoBehaviour--><rect fill="#FEFECE" filter="url(#fdugg88q57159)" height="48" id="MonoBehaviour" style="stroke: #A80036; stroke-width: 1.5;" width="128" x="111.67" y="8"/><ellipse cx="126.67" cy="24" fill="#ADD1B2" rx="11" ry="11" style="stroke: #A80036; stroke-width: 1.0;"/><path d="M129.6388,29.6406 Q129.0606,29.9375 128.42,30.0781 Q127.7794,30.2344 127.0763,30.2344 Q124.5763,30.2344 123.2481,28.5938 Q121.9356,26.9375 121.9356,23.8125 Q121.9356,20.6875 123.2481,19.0313 Q124.5763,17.375 127.0763,17.375 Q127.7794,17.375 128.42,17.5313 Q129.0763,17.6875 129.6388,17.9844 L129.6388,20.7031 Q129.0138,20.125 128.42,19.8594 Q127.8263,19.5781 127.2013,19.5781 Q125.8575,19.5781 125.17,20.6563 Q124.4825,21.7188 124.4825,23.8125 Q124.4825,25.9063 125.17,26.9844 Q125.8575,28.0469 127.2013,28.0469 Q127.8263,28.0469 128.42,27.7813 Q129.0138,27.5 129.6388,26.9219 L129.6388,29.6406 Z "/><text fill="#000000" font-family="sans-serif" font-size="12" lengthAdjust="spacingAndGlyphs" textLength="96" x="140.67" y="28.1543">MonoBehaviour</text><line style="stroke: #A80036; stroke-width: 1.5;" x1="112.67" x2="238.67" y1="40" y2="40"/><line style="stroke: #A80036; stroke-width: 1.5;" x1="112.67" x2="238.67" y1="48" y2="48"/><!--MD5=[3f551f1273bbfa514d2f681c1c48b5c1]
class Vector2--><rect fill="#FEFECE" filter="url(#fdugg88q57159)" height="48" id="Vector2" style="stroke: #A80036; stroke-width: 1.5;" width="81" x="19.17" y="416"/><ellipse cx="34.17" cy="432" fill="#ADD1B2" rx="11" ry="11" style="stroke: #A80036; stroke-width: 1.0;"/><path d="M37.1388,437.6406 Q36.5606,437.9375 35.92,438.0781 Q35.2794,438.2344 34.5763,438.2344 Q32.0763,438.2344 30.7481,436.5938 Q29.4356,434.9375 29.4356,431.8125 Q29.4356,428.6875 30.7481,427.0313 Q32.0763,425.375 34.5763,425.375 Q35.2794,425.375 35.92,425.5313 Q36.5763,425.6875 37.1388,425.9844 L37.1388,428.7031 Q36.5138,428.125 35.92,427.8594 Q35.3263,427.5781 34.7013,427.5781 Q33.3575,427.5781 32.67,428.6563 Q31.9825,429.7188 31.9825,431.8125 Q31.9825,433.9063 32.67,434.9844 Q33.3575,436.0469 34.7013,436.0469 Q35.3263,436.0469 35.92,435.7813 Q36.5138,435.5 37.1388,434.9219 L37.1388,437.6406 Z "/><text fill="#000000" font-family="sans-serif" font-size="12" lengthAdjust="spacingAndGlyphs" textLength="49" x="48.17" y="436.1543">Vector2</text><line style="stroke: #A80036; stroke-width: 1.5;" x1="20.17" x2="99.17" y1="448" y2="448"/><line style="stroke: #A80036; stroke-width: 1.5;" x1="20.17" x2="99.17" y1="456" y2="456"/><!--MD5=[65d619c042c23702cef2ca07d67b1cf6]
class Vector3--><rect fill="#FEFECE" filter="url(#fdugg88q57159)" height="48" id="Vector3" style="stroke: #A80036; stroke-width: 1.5;" width="81" x="135.17" y="416"/><ellipse cx="150.17" cy="432" fill="#ADD1B2" rx="11" ry="11" style="stroke: #A80036; stroke-width: 1.0;"/><path d="M153.1388,437.6406 Q152.5606,437.9375 151.92,438.0781 Q151.2794,438.2344 150.5763,438.2344 Q148.0763,438.2344 146.7481,436.5938 Q145.4356,434.9375 145.4356,431.8125 Q145.4356,428.6875 146.7481,427.0313 Q148.0763,425.375 150.5763,425.375 Q151.2794,425.375 151.92,425.5313 Q152.5763,425.6875 153.1388,425.9844 L153.1388,428.7031 Q152.5138,428.125 151.92,427.8594 Q151.3263,427.5781 150.7013,427.5781 Q149.3575,427.5781 148.67,428.6563 Q147.9825,429.7188 147.9825,431.8125 Q147.9825,433.9063 148.67,434.9844 Q149.3575,436.0469 150.7013,436.0469 Q151.3263,436.0469 151.92,435.7813 Q152.5138,435.5 153.1388,434.9219 L153.1388,437.6406 Z "/><text fill="#000000" font-family="sans-serif" font-size="12" lengthAdjust="spacingAndGlyphs" textLength="49" x="164.17" y="436.1543">Vector3</text><line style="stroke: #A80036; stroke-width: 1.5;" x1="136.17" x2="215.17" y1="448" y2="448"/><line style="stroke: #A80036; stroke-width: 1.5;" x1="136.17" x2="215.17" y1="456" y2="456"/><!--MD5=[064f7a74fee85463ec1a30143664ee17]
class GameObject--><rect fill="#FEFECE" filter="url(#fdugg88q57159)" height="48" id="GameObject" style="stroke: #A80036; stroke-width: 1.5;" width="108" x="251.67" y="416"/><ellipse cx="266.67" cy="432" fill="#ADD1B2" rx="11" ry="11" style="stroke: #A80036; stroke-width: 1.0;"/><path d="M269.6387,437.6406 Q269.0606,437.9375 268.42,438.0781 Q267.7794,438.2344 267.0762,438.2344 Q264.5762,438.2344 263.2481,436.5938 Q261.9356,434.9375 261.9356,431.8125 Q261.9356,428.6875 263.2481,427.0313 Q264.5762,425.375 267.0762,425.375 Q267.7794,425.375 268.42,425.5313 Q269.0762,425.6875 269.6387,425.9844 L269.6387,428.7031 Q269.0137,428.125 268.42,427.8594 Q267.8262,427.5781 267.2012,427.5781 Q265.8575,427.5781 265.17,428.6563 Q264.4825,429.7188 264.4825,431.8125 Q264.4825,433.9063 265.17,434.9844 Q265.8575,436.0469 267.2012,436.0469 Q267.8262,436.0469 268.42,435.7813 Q269.0137,435.5 269.6387,434.9219 L269.6387,437.6406 Z "/><text fill="#000000" font-family="sans-serif" font-size="12" lengthAdjust="spacingAndGlyphs" textLength="76" x="280.67" y="436.1543">GameObject</text><line style="stroke: #A80036; stroke-width: 1.5;" x1="252.67" x2="358.67" y1="448" y2="448"/><line style="stroke: #A80036; stroke-width: 1.5;" x1="252.67" x2="358.67" y1="456" y2="456"/><!--MD5=[1c3675c2bd65abde42df8723212007cd]
reverse link MonoBehaviour to CustomFPCharacter--><path d="M175.67,76.19 C175.67,88.09 175.67,101.61 175.67,115.62 " fill="none" id="MonoBehaviour&lt;-CustomFPCharacter" style="stroke: #A80036; stroke-width: 1.0;"/><polygon fill="none" points="168.67,76.17,175.67,56.17,182.67,76.17,168.67,76.17" style="stroke: #A80036; stroke-width: 1.0;"/><!--MD5=[f6e0b0024d25919c75f070f5d6c96736]
link CustomFPCharacter to Vector2--><path d="M107.19,356.26 C95.36,376.85 84.14,396.39 75.57,411.31 " fill="none" id="CustomFPCharacter-&gt;Vector2" style="stroke: #A80036; stroke-width: 1.0;"/><polygon fill="#A80036" points="73,415.79,80.9423,409.966,75.4838,411.4505,73.9992,405.992,73,415.79" style="stroke: #A80036; stroke-width: 1.0;"/><text fill="#000000" font-family="sans-serif" font-size="13" lengthAdjust="spacingAndGlyphs" textLength="52" x="17.7533" y="404.7482">m_Input</text><!--MD5=[4f0c70725ed24a9f29e9339baf9be683]
link CustomFPCharacter to Vector3--><path d="M149.8,356.26 C150.67,376.67 153.02,396.05 156.83,410.92 " fill="none" id="CustomFPCharacter-&gt;Vector3" style="stroke: #A80036; stroke-width: 1.0;"/><polygon fill="#A80036" points="158.18,415.79,159.6148,406.0462,156.8366,410.9738,151.909,408.1956,158.18,415.79" style="stroke: #A80036; stroke-width: 1.0;"/><text fill="#000000" font-family="sans-serif" font-size="13" lengthAdjust="spacingAndGlyphs" textLength="169" x="175.3513" y="404.7482">m_OriginalCameraPosition</text><!--MD5=[4f0c70725ed24a9f29e9339baf9be683]
link CustomFPCharacter to Vector3--><path d="M175.67,356.26 C175.67,376.49 175.67,395.72 175.67,410.53 " fill="none" id="CustomFPCharacter-&gt;Vector3-1" style="stroke: #A80036; stroke-width: 1.0;"/><polygon fill="#A80036" points="175.67,415.79,179.67,406.79,175.67,410.79,171.67,406.79,175.67,415.79" style="stroke: #A80036; stroke-width: 1.0;"/><text fill="#000000" font-family="sans-serif" font-size="13" lengthAdjust="spacingAndGlyphs" textLength="23" x="149.7231" y="404.7482">pos</text><!--MD5=[4f0c70725ed24a9f29e9339baf9be683]
link CustomFPCharacter to Vector3--><path d="M201.54,356.26 C200.67,376.67 198.32,396.05 194.51,410.92 " fill="none" id="CustomFPCharacter-&gt;Vector3-2" style="stroke: #A80036; stroke-width: 1.0;"/><polygon fill="#A80036" points="193.16,415.79,199.431,408.1956,194.5034,410.9738,191.7252,406.0462,193.16,415.79" style="stroke: #A80036; stroke-width: 1.0;"/><text fill="#000000" font-family="sans-serif" font-size="13" lengthAdjust="spacingAndGlyphs" textLength="81" x="202.3779" y="405.1566">desiredMove</text><!--MD5=[66644a6d45a3a9ddca6fe961ce757915]
link CustomFPCharacter to GameObject--><path d="M239.86,356.26 C253.65,377.02 267.5,396.73 279.04,411.69 " fill="none" id="CustomFPCharacter-&gt;GameObject" style="stroke: #A80036; stroke-width: 1.0;"/><polygon fill="#A80036" points="282.24,415.79,279.8648,406.2319,279.1673,411.8455,273.5536,411.1481,282.24,415.79" style="stroke: #A80036; stroke-width: 1.0;"/><text fill="#000000" font-family="sans-serif" font-size="13" lengthAdjust="spacingAndGlyphs" textLength="113" x="290.7142" y="404.7482">OculusTouchRight</text><!--MD5=[66644a6d45a3a9ddca6fe961ce757915]
link CustomFPCharacter to GameObject--><path d="M265.72,356.26 C278.52,376.85 289.88,396.39 297.49,411.31 " fill="none" id="CustomFPCharacter-&gt;GameObject-1" style="stroke: #A80036; stroke-width: 1.0;"/><polygon fill="#A80036" points="299.72,415.79,299.2602,405.9519,297.4782,411.3207,292.1094,409.5387,299.72,415.79" style="stroke: #A80036; stroke-width: 1.0;"/><text fill="#000000" font-family="sans-serif" font-size="13" lengthAdjust="spacingAndGlyphs" textLength="105" x="363.7263" y="404.972">OculusTouchLeft</text><!--MD5=[6529cd16fbecaee26aff03a58326c419]
@startuml
class CustomFPCharacter {
    + m_WalkSpeed : float
    + m_RunSpeed : float
    + HEIGHT : int = 0
    + isOculusTouch : bool = false
    + flySpeed : float = 100.0f
    + flyYVectorTrigger : float = 0.3f
    + maxFlyHeight : float = 3.0f
    + ROTATIONSMOOTHINGSCALINGFACTOR : float = 3.0f
    + ROTATIONSMOOTHINGTIME : float = 0.5F
    + ROTATIONCAP : float = 360.0f
    + ROTATION_SPEED_VALUE : float = 1
    + isRWTCrunning : bool = false
    + joystickDeadzone : float = 0.2f
    + Start() : void
    RotateWithTriggerCoroutine() : IEnumerator
}
MonoBehaviour <|- - CustomFPCharacter
CustomFPCharacter - -> "m_Input" Vector2
CustomFPCharacter - -> "m_OriginalCameraPosition" Vector3
CustomFPCharacter - -> "pos" Vector3
CustomFPCharacter - -> "OculusTouchRight" GameObject
CustomFPCharacter - -> "OculusTouchLeft" GameObject
CustomFPCharacter - -> "desiredMove" Vector3
@enduml

PlantUML version 1.2020.02(Sun Mar 01 10:22:07 GMT 2020)
(GPL source distribution)
Java Runtime: OpenJDK Runtime Environment
JVM: OpenJDK 64-Bit Server VM
Java Version: 11.0.9+11-Ubuntu-0ubuntu1
Operating System: Linux
Default Encoding: ANSI_X3.4-1968
Language: en
Country: US
--></g></svg>