<?xml version="1.0" encoding="UTF-8" standalone="no"?><svg xmlns="http://www.w3.org/2000/svg" xmlns:xlink="http://www.w3.org/1999/xlink" contentScriptType="application/ecmascript" contentStyleType="text/css" height="578px" preserveAspectRatio="none" style="width:764px;height:578px;" version="1.1" viewBox="0 0 764 578" width="764px" zoomAndPan="magnify"><defs><filter height="300%" id="fau59yipan5mh" width="300%" x="-1" y="-1"><feGaussianBlur result="blurOut" stdDeviation="2.0"/><feColorMatrix in="blurOut" result="blurOut2" type="matrix" values="0 0 0 0 0 0 0 0 0 0 0 0 0 0 0 0 0 0 .4 0"/><feOffset dx="4.0" dy="4.0" in="blurOut2" result="blurOut3"/><feBlend in="SourceGraphic" in2="blurOut3" mode="normal"/></filter></defs><g><!--MD5=[a5c040eacd349442931eb6fcf8641982]
class DroneModeController--><rect fill="#FEFECE" filter="url(#fau59yipan5mh)" height="342.5078" id="DroneModeController" style="stroke: #A80036; stroke-width: 1.5;" width="412" x="6" y="116"/><ellipse cx="141.25" cy="132" fill="#ADD1B2" rx="11" ry="11" style="stroke: #A80036; stroke-width: 1.0;"/><path d="M144.2188,137.6406 Q143.6406,137.9375 143,138.0781 Q142.3594,138.2344 141.6563,138.2344 Q139.1563,138.2344 137.8281,136.5938 Q136.5156,134.9375 136.5156,131.8125 Q136.5156,128.6875 137.8281,127.0313 Q139.1563,125.375 141.6563,125.375 Q142.3594,125.375 143,125.5313 Q143.6563,125.6875 144.2188,125.9844 L144.2188,128.7031 Q143.5938,128.125 143,127.8594 Q142.4063,127.5781 141.7813,127.5781 Q140.4375,127.5781 139.75,128.6563 Q139.0625,129.7188 139.0625,131.8125 Q139.0625,133.9063 139.75,134.9844 Q140.4375,136.0469 141.7813,136.0469 Q142.4063,136.0469 143,135.7813 Q143.5938,135.5 144.2188,134.9219 L144.2188,137.6406 Z "/><text fill="#000000" font-family="sans-serif" font-size="12" lengthAdjust="spacingAndGlyphs" textLength="133" x="161.75" y="136.1543">DroneModeController</text><line style="stroke: #A80036; stroke-width: 1.5;" x1="7" x2="417" y1="148" y2="148"/><ellipse cx="17" cy="159" fill="none" rx="3" ry="3" style="stroke: #038048; stroke-width: 1.0;"/><text fill="#000000" font-family="sans-serif" font-size="11" lengthAdjust="spacingAndGlyphs" textLength="105" x="26" y="162.2104">SPEED : float = 10</text><ellipse cx="17" cy="171.8047" fill="none" rx="3" ry="3" style="stroke: #038048; stroke-width: 1.0;"/><text fill="#000000" font-family="sans-serif" font-size="11" lengthAdjust="spacingAndGlyphs" textLength="121" x="26" y="175.0151">SPEEDROT : float = 1</text><ellipse cx="17" cy="184.6094" fill="none" rx="3" ry="3" style="stroke: #038048; stroke-width: 1.0;"/><text fill="#000000" font-family="sans-serif" font-size="11" lengthAdjust="spacingAndGlyphs" textLength="197" x="26" y="187.8198">MAX_ROTATION_ANGLE : float = 75</text><ellipse cx="17" cy="197.4141" fill="none" rx="3" ry="3" style="stroke: #038048; stroke-width: 1.0;"/><text fill="#000000" font-family="sans-serif" font-size="11" lengthAdjust="spacingAndGlyphs" textLength="110" x="26" y="200.6245">SPEEDZ : int = 100</text><ellipse cx="17" cy="210.2188" fill="none" rx="3" ry="3" style="stroke: #038048; stroke-width: 1.0;"/><text fill="#000000" font-family="sans-serif" font-size="11" lengthAdjust="spacingAndGlyphs" textLength="150" x="26" y="213.4292">VRSPEEDROT : float = 1.0f</text><ellipse cx="17" cy="223.0234" fill="none" rx="3" ry="3" style="stroke: #038048; stroke-width: 1.0;"/><text fill="#000000" font-family="sans-serif" font-size="11" lengthAdjust="spacingAndGlyphs" textLength="156" x="26" y="226.2339">STARTHEIGHT : int = 10000</text><ellipse cx="17" cy="235.8281" fill="none" rx="3" ry="3" style="stroke: #038048; stroke-width: 1.0;"/><text fill="#000000" font-family="sans-serif" font-size="11" lengthAdjust="spacingAndGlyphs" textLength="143" x="26" y="239.0386">MAXHEIGHT : int = 10000</text><ellipse cx="17" cy="248.6328" fill="none" rx="3" ry="3" style="stroke: #038048; stroke-width: 1.0;"/><text fill="#000000" font-family="sans-serif" font-size="11" lengthAdjust="spacingAndGlyphs" textLength="126" x="26" y="251.8433">MINHEIGHT : int = 100</text><ellipse cx="17" cy="261.4375" fill="none" rx="3" ry="3" style="stroke: #038048; stroke-width: 1.0;"/><text fill="#000000" font-family="sans-serif" font-size="11" lengthAdjust="spacingAndGlyphs" textLength="296" x="26" y="264.6479">ROTATIONSMOOTHINGSCALINGFACTOR : float = 3.0f</text><ellipse cx="17" cy="274.2422" fill="none" rx="3" ry="3" style="stroke: #038048; stroke-width: 1.0;"/><text fill="#000000" font-family="sans-serif" font-size="11" lengthAdjust="spacingAndGlyphs" textLength="231" x="26" y="277.4526">ROTATIONSMOOTHINGTIME : float = 0.5F</text><ellipse cx="17" cy="287.0469" fill="none" rx="3" ry="3" style="stroke: #038048; stroke-width: 1.0;"/><text fill="#000000" font-family="sans-serif" font-size="11" lengthAdjust="spacingAndGlyphs" textLength="169" x="26" y="290.2573">ROTATIONCAP : float = 360.0f</text><ellipse cx="17" cy="299.8516" fill="none" rx="3" ry="3" style="stroke: #038048; stroke-width: 1.0;"/><text fill="#000000" font-family="sans-serif" font-size="11" lengthAdjust="spacingAndGlyphs" textLength="173" x="26" y="303.062">joystickDeadzone : float = 0.3f</text><ellipse cx="17" cy="312.6563" fill="none" rx="3" ry="3" style="stroke: #038048; stroke-width: 1.0;"/><text fill="#000000" font-family="sans-serif" font-size="11" lengthAdjust="spacingAndGlyphs" textLength="164" x="26" y="315.8667">isPPCCrunning : bool = false</text><ellipse cx="17" cy="325.4609" fill="none" rx="3" ry="3" style="stroke: #038048; stroke-width: 1.0;"/><text fill="#000000" font-family="sans-serif" font-size="11" lengthAdjust="spacingAndGlyphs" textLength="165" x="26" y="328.6714">isMTPCrunning : bool = false</text><ellipse cx="17" cy="338.2656" fill="none" rx="3" ry="3" style="stroke: #038048; stroke-width: 1.0;"/><text fill="#000000" font-family="sans-serif" font-size="11" lengthAdjust="spacingAndGlyphs" textLength="165" x="26" y="341.4761">isRWTCrunning : bool = false</text><ellipse cx="17" cy="351.0703" fill="none" rx="3" ry="3" style="stroke: #038048; stroke-width: 1.0;"/><text fill="#000000" font-family="sans-serif" font-size="11" lengthAdjust="spacingAndGlyphs" textLength="109" x="26" y="354.2808">distance : float = 0</text><line style="stroke: #A80036; stroke-width: 1.5;" x1="7" x2="417" y1="360.875" y2="360.875"/><text fill="#000000" font-family="sans-serif" font-size="11" lengthAdjust="spacingAndGlyphs" textLength="71" x="26" y="375.0854">Start() : void</text><text fill="#000000" font-family="sans-serif" font-size="11" lengthAdjust="spacingAndGlyphs" textLength="112" x="26" y="387.8901">FixedUpdate() : void</text><text fill="#000000" font-family="sans-serif" font-size="11" lengthAdjust="spacingAndGlyphs" textLength="168" x="26" y="400.6948">MoveVertical(step:float) : void</text><text fill="#000000" font-family="sans-serif" font-size="11" lengthAdjust="spacingAndGlyphs" textLength="328" x="26" y="413.4995">PreventPlaneCrashCoroutine(point:Vector3) : IEnumerator</text><ellipse cx="17" cy="423.0938" fill="#84BE84" rx="3" ry="3" style="stroke: #038048; stroke-width: 1.0;"/><text fill="#000000" font-family="sans-serif" font-size="11" lengthAdjust="spacingAndGlyphs" textLength="106" x="26" y="426.3042">LinePointer() : void</text><text fill="#000000" font-family="sans-serif" font-size="11" lengthAdjust="spacingAndGlyphs" textLength="386" x="26" y="439.1089">MoveToPointCoroutine(target:Vector3, minAngle:float) : IEnumerator</text><text fill="#000000" font-family="sans-serif" font-size="11" lengthAdjust="spacingAndGlyphs" textLength="245" x="26" y="451.9136">RotateWithTriggerCoroutine() : IEnumerator</text><!--MD5=[83b3cf3d23d77c6f1e1b5291a241bc2a]
class MonoBehaviour--><rect fill="#FEFECE" filter="url(#fau59yipan5mh)" height="48" id="MonoBehaviour" style="stroke: #A80036; stroke-width: 1.5;" width="128" x="148" y="8"/><ellipse cx="163" cy="24" fill="#ADD1B2" rx="11" ry="11" style="stroke: #A80036; stroke-width: 1.0;"/><path d="M165.9688,29.6406 Q165.3906,29.9375 164.75,30.0781 Q164.1094,30.2344 163.4063,30.2344 Q160.9063,30.2344 159.5781,28.5938 Q158.2656,26.9375 158.2656,23.8125 Q158.2656,20.6875 159.5781,19.0313 Q160.9063,17.375 163.4063,17.375 Q164.1094,17.375 164.75,17.5313 Q165.4063,17.6875 165.9688,17.9844 L165.9688,20.7031 Q165.3438,20.125 164.75,19.8594 Q164.1563,19.5781 163.5313,19.5781 Q162.1875,19.5781 161.5,20.6563 Q160.8125,21.7188 160.8125,23.8125 Q160.8125,25.9063 161.5,26.9844 Q162.1875,28.0469 163.5313,28.0469 Q164.1563,28.0469 164.75,27.7813 Q165.3438,27.5 165.9688,26.9219 L165.9688,29.6406 Z "/><text fill="#000000" font-family="sans-serif" font-size="12" lengthAdjust="spacingAndGlyphs" textLength="96" x="177" y="28.1543">MonoBehaviour</text><line style="stroke: #A80036; stroke-width: 1.5;" x1="149" x2="275" y1="40" y2="40"/><line style="stroke: #A80036; stroke-width: 1.5;" x1="149" x2="275" y1="48" y2="48"/><!--MD5=[ee4c508de9d16bc5a4ce1076f631897d]
class KeyCode--><rect fill="#FEFECE" filter="url(#fau59yipan5mh)" height="48" id="KeyCode" style="stroke: #A80036; stroke-width: 1.5;" width="85" x="453.5" y="263.5"/><ellipse cx="468.5" cy="279.5" fill="#ADD1B2" rx="11" ry="11" style="stroke: #A80036; stroke-width: 1.0;"/><path d="M471.4688,285.1406 Q470.8906,285.4375 470.25,285.5781 Q469.6094,285.7344 468.9063,285.7344 Q466.4063,285.7344 465.0781,284.0938 Q463.7656,282.4375 463.7656,279.3125 Q463.7656,276.1875 465.0781,274.5313 Q466.4063,272.875 468.9063,272.875 Q469.6094,272.875 470.25,273.0313 Q470.9063,273.1875 471.4688,273.4844 L471.4688,276.2031 Q470.8438,275.625 470.25,275.3594 Q469.6563,275.0781 469.0313,275.0781 Q467.6875,275.0781 467,276.1563 Q466.3125,277.2188 466.3125,279.3125 Q466.3125,281.4063 467,282.4844 Q467.6875,283.5469 469.0313,283.5469 Q469.6563,283.5469 470.25,283.2813 Q470.8438,283 471.4688,282.4219 L471.4688,285.1406 Z "/><text fill="#000000" font-family="sans-serif" font-size="12" lengthAdjust="spacingAndGlyphs" textLength="53" x="482.5" y="283.6543">KeyCode</text><line style="stroke: #A80036; stroke-width: 1.5;" x1="454.5" x2="537.5" y1="295.5" y2="295.5"/><line style="stroke: #A80036; stroke-width: 1.5;" x1="454.5" x2="537.5" y1="303.5" y2="303.5"/><!--MD5=[064f7a74fee85463ec1a30143664ee17]
class GameObject--><rect fill="#FEFECE" filter="url(#fau59yipan5mh)" height="48" id="GameObject" style="stroke: #A80036; stroke-width: 1.5;" width="108" x="158" y="519"/><ellipse cx="173" cy="535" fill="#ADD1B2" rx="11" ry="11" style="stroke: #A80036; stroke-width: 1.0;"/><path d="M175.9688,540.6406 Q175.3906,540.9375 174.75,541.0781 Q174.1094,541.2344 173.4063,541.2344 Q170.9063,541.2344 169.5781,539.5938 Q168.2656,537.9375 168.2656,534.8125 Q168.2656,531.6875 169.5781,530.0313 Q170.9063,528.375 173.4063,528.375 Q174.1094,528.375 174.75,528.5313 Q175.4063,528.6875 175.9688,528.9844 L175.9688,531.7031 Q175.3438,531.125 174.75,530.8594 Q174.1563,530.5781 173.5313,530.5781 Q172.1875,530.5781 171.5,531.6563 Q170.8125,532.7188 170.8125,534.8125 Q170.8125,536.9063 171.5,537.9844 Q172.1875,539.0469 173.5313,539.0469 Q174.1563,539.0469 174.75,538.7813 Q175.3438,538.5 175.9688,537.9219 L175.9688,540.6406 Z "/><text fill="#000000" font-family="sans-serif" font-size="12" lengthAdjust="spacingAndGlyphs" textLength="76" x="187" y="539.1543">GameObject</text><line style="stroke: #A80036; stroke-width: 1.5;" x1="159" x2="265" y1="551" y2="551"/><line style="stroke: #A80036; stroke-width: 1.5;" x1="159" x2="265" y1="559" y2="559"/><!--MD5=[db462180693f7e61cf3217ec29875f93]
class LineRenderer--><rect fill="#FEFECE" filter="url(#fau59yipan5mh)" height="48" id="LineRenderer" style="stroke: #A80036; stroke-width: 1.5;" width="115" x="301.5" y="519"/><ellipse cx="316.5" cy="535" fill="#ADD1B2" rx="11" ry="11" style="stroke: #A80036; stroke-width: 1.0;"/><path d="M319.4688,540.6406 Q318.8906,540.9375 318.25,541.0781 Q317.6094,541.2344 316.9063,541.2344 Q314.4063,541.2344 313.0781,539.5938 Q311.7656,537.9375 311.7656,534.8125 Q311.7656,531.6875 313.0781,530.0313 Q314.4063,528.375 316.9063,528.375 Q317.6094,528.375 318.25,528.5313 Q318.9063,528.6875 319.4688,528.9844 L319.4688,531.7031 Q318.8438,531.125 318.25,530.8594 Q317.6563,530.5781 317.0313,530.5781 Q315.6875,530.5781 315,531.6563 Q314.3125,532.7188 314.3125,534.8125 Q314.3125,536.9063 315,537.9844 Q315.6875,539.0469 317.0313,539.0469 Q317.6563,539.0469 318.25,538.7813 Q318.8438,538.5 319.4688,537.9219 L319.4688,540.6406 Z "/><text fill="#000000" font-family="sans-serif" font-size="12" lengthAdjust="spacingAndGlyphs" textLength="83" x="330.5" y="539.1543">LineRenderer</text><line style="stroke: #A80036; stroke-width: 1.5;" x1="302.5" x2="415.5" y1="551" y2="551"/><line style="stroke: #A80036; stroke-width: 1.5;" x1="302.5" x2="415.5" y1="559" y2="559"/><!--MD5=[021e8f02a68f2e93155ea68811726318]
reverse link MonoBehaviour to DroneModeController--><path d="M212,76.6 C212,88.31 212,101.72 212,115.96 " fill="none" id="MonoBehaviour&lt;-DroneModeController" style="stroke: #A80036; stroke-width: 1.0;"/><polygon fill="none" points="205,76.39,212,56.39,219,76.39,205,76.39" style="stroke: #A80036; stroke-width: 1.0;"/><!--MD5=[f3487daae0464691fc8aa933ca3e6d0e]
link DroneModeController to KeyCode--><path d="M427.0723,382.0053 C427.0723,382.0053 459.38,346.85 475.04,322.66 " fill="none" id="DroneModeController-KeyCode" style="stroke: #A80036; stroke-width: 1.0;"/><polygon fill="#A80036" points="482,311.62,473.8239,317.111,479.3391,315.8532,480.597,321.3684,482,311.62" style="stroke: #A80036; stroke-width: 1.0;"/><line style="stroke: #A80036; stroke-width: 1.0;" x1="479.3391" x2="475.07" y1="315.8532" y2="322.62"/><polygon fill="#FFFFFF" points="418.07,389.94,425.216,388.9734,427.0723,382.0053,419.9263,382.9719,418.07,389.94" style="stroke: #A80036; stroke-width: 1.0;"/><text fill="#000000" font-family="sans-serif" font-size="13" lengthAdjust="spacingAndGlyphs" textLength="41" x="432.5906" y="331.4105">KEYUP</text><!--MD5=[f3487daae0464691fc8aa933ca3e6d0e]
link DroneModeController to KeyCode--><path d="M429.5625,318.197 C429.5625,318.197 437.59,315.54 441.01,314.28 " fill="none" id="DroneModeController-KeyCode-1" style="stroke: #A80036; stroke-width: 1.0;"/><polygon fill="#A80036" points="453.38,309.37,443.5395,308.9645,448.7312,311.2108,446.4848,316.4025,453.38,309.37" style="stroke: #A80036; stroke-width: 1.0;"/><line style="stroke: #A80036; stroke-width: 1.0;" x1="448.7312" x2="441.295" y1="311.2108" y2="314.16"/><polygon fill="#FFFFFF" points="418.07,321.65,424.9672,323.7543,429.5625,318.197,422.6652,316.0927,418.07,321.65" style="stroke: #A80036; stroke-width: 1.0;"/><text fill="#000000" font-family="sans-serif" font-size="13" lengthAdjust="spacingAndGlyphs" textLength="64" x="381.9053" y="328.0404">KEYDOWN</text><!--MD5=[f3487daae0464691fc8aa933ca3e6d0e]
link DroneModeController to KeyCode--><path d="M429.5625,256.803 C429.5625,256.803 437.59,259.46 441.01,260.72 " fill="none" id="DroneModeController-KeyCode-2" style="stroke: #A80036; stroke-width: 1.0;"/><polygon fill="#A80036" points="453.38,265.63,446.4848,258.5975,448.7312,263.7892,443.5395,266.0355,453.38,265.63" style="stroke: #A80036; stroke-width: 1.0;"/><line style="stroke: #A80036; stroke-width: 1.0;" x1="448.7312" x2="441.295" y1="263.7892" y2="260.84"/><polygon fill="#FFFFFF" points="418.07,253.35,422.6652,258.9073,429.5625,256.803,424.9672,251.2457,418.07,253.35" style="stroke: #A80036; stroke-width: 1.0;"/><text fill="#000000" font-family="sans-serif" font-size="13" lengthAdjust="spacingAndGlyphs" textLength="198" x="473.4654" y="252.2575">KEY_SPEED_REGULATOR_PLUS</text><!--MD5=[f3487daae0464691fc8aa933ca3e6d0e]
link DroneModeController to KeyCode--><path d="M427.0723,192.9947 C427.0723,192.9947 459.38,228.15 475.04,252.34 " fill="none" id="DroneModeController-KeyCode-3" style="stroke: #A80036; stroke-width: 1.0;"/><polygon fill="#A80036" points="482,263.38,480.597,253.6316,479.3391,259.1468,473.8239,257.889,482,263.38" style="stroke: #A80036; stroke-width: 1.0;"/><line style="stroke: #A80036; stroke-width: 1.0;" x1="479.3391" x2="475.07" y1="259.1468" y2="252.38"/><polygon fill="#FFFFFF" points="418.07,185.06,419.9263,192.0281,427.0723,192.9947,425.216,186.0266,418.07,185.06" style="stroke: #A80036; stroke-width: 1.0;"/><text fill="#000000" font-family="sans-serif" font-size="13" lengthAdjust="spacingAndGlyphs" textLength="207" x="545.7688" y="263.6525">KEY_SPEED_REGULATOR_MINUS</text><!--MD5=[a7b801c7d47f05587313f879fca493d9]
link DroneModeController to GameObject--><path d="M162.43,459.35 C165.34,480.35 170.4,499.52 177.62,514.09 " fill="none" id="DroneModeController-&gt;GameObject" style="stroke: #A80036; stroke-width: 1.0;"/><polygon fill="#A80036" points="180.15,518.85,179.4523,509.0259,177.8008,514.4363,172.3904,512.7847,180.15,518.85" style="stroke: #A80036; stroke-width: 1.0;"/><text fill="#000000" font-family="sans-serif" font-size="13" lengthAdjust="spacingAndGlyphs" textLength="49" x="116.7103" y="507.8236">camera</text><!--MD5=[a7b801c7d47f05587313f879fca493d9]
link DroneModeController to GameObject--><path d="M187.22,459.35 C188.66,480.17 191.15,499.18 194.71,513.71 " fill="none" id="DroneModeController-&gt;GameObject-1" style="stroke: #A80036; stroke-width: 1.0;"/><polygon fill="#A80036" points="196.07,518.85,197.6535,509.1293,194.8003,514.0139,189.9157,511.1607,196.07,518.85" style="stroke: #A80036; stroke-width: 1.0;"/><text fill="#000000" font-family="sans-serif" font-size="13" lengthAdjust="spacingAndGlyphs" textLength="39" x="196.9848" y="507.8236">player</text><!--MD5=[a7b801c7d47f05587313f879fca493d9]
link DroneModeController to GameObject--><path d="M212,459.35 C212,480.17 212,499.18 212,513.71 " fill="none" id="DroneModeController-&gt;GameObject-2" style="stroke: #A80036; stroke-width: 1.0;"/><polygon fill="#A80036" points="212,518.85,216,509.85,212,513.85,208,509.85,212,518.85" style="stroke: #A80036; stroke-width: 1.0;"/><text fill="#000000" font-family="sans-serif" font-size="13" lengthAdjust="spacingAndGlyphs" textLength="23" x="186.0531" y="507.8236">pos</text><!--MD5=[a7b801c7d47f05587313f879fca493d9]
link DroneModeController to GameObject--><path d="M236.78,459.35 C235.34,480.17 232.85,499.18 229.29,513.71 " fill="none" id="DroneModeController-&gt;GameObject-3" style="stroke: #A80036; stroke-width: 1.0;"/><polygon fill="#A80036" points="227.93,518.85,234.0843,511.1607,229.1997,514.0139,226.3465,509.1293,227.93,518.85" style="stroke: #A80036; stroke-width: 1.0;"/><text fill="#000000" font-family="sans-serif" font-size="13" lengthAdjust="spacingAndGlyphs" textLength="113" x="246.4902" y="507.8236">OculusTouchRight</text><!--MD5=[a7b801c7d47f05587313f879fca493d9]
link DroneModeController to GameObject--><path d="M261.57,459.35 C258.66,480.35 253.6,499.52 246.38,514.09 " fill="none" id="DroneModeController-&gt;GameObject-4" style="stroke: #A80036; stroke-width: 1.0;"/><polygon fill="#A80036" points="243.85,518.85,251.6096,512.7847,246.1992,514.4363,244.5477,509.0259,243.85,518.85" style="stroke: #A80036; stroke-width: 1.0;"/><text fill="#000000" font-family="sans-serif" font-size="13" lengthAdjust="spacingAndGlyphs" textLength="105" x="267.5954" y="507.9927">OculusTouchLeft</text><!--MD5=[f0933b9f21586f68bfdeb71cee63d902]
link DroneModeController to LineRenderer--><path d="M311.07,459.35 C323.36,480.54 334.56,499.85 343.03,514.47 " fill="none" id="DroneModeController-&gt;LineRenderer" style="stroke: #A80036; stroke-width: 1.0;"/><polygon fill="#A80036" points="345.58,518.85,344.5426,509.0559,343.0793,514.5203,337.615,513.057,345.58,518.85" style="stroke: #A80036; stroke-width: 1.0;"/><text fill="#000000" font-family="sans-serif" font-size="13" lengthAdjust="spacingAndGlyphs" textLength="8" x="343.1661" y="507.8236">lr</text><!--MD5=[e0da75329e09fbf0ce12f38f0e9c035a]
@startuml
class DroneModeController {
    + SPEED : float = 10
    + SPEEDROT : float = 1
    + MAX_ROTATION_ANGLE : float = 75
    + SPEEDZ : int = 100
    + VRSPEEDROT : float = 1.0f
    + STARTHEIGHT : int = 10000
    + MAXHEIGHT : int = 10000
    + MINHEIGHT : int = 100
    + ROTATIONSMOOTHINGSCALINGFACTOR : float = 3.0f
    + ROTATIONSMOOTHINGTIME : float = 0.5F
    + ROTATIONCAP : float = 360.0f
    + joystickDeadzone : float = 0.3f
    + isPPCCrunning : bool = false
    + isMTPCrunning : bool = false
    + isRWTCrunning : bool = false
    + distance : float = 0
    Start() : void
    FixedUpdate() : void
    MoveVertical(step:float) : void
    PreventPlaneCrashCoroutine(point:Vector3) : IEnumerator
    + LinePointer() : void
    MoveToPointCoroutine(target:Vector3, minAngle:float) : IEnumerator
    RotateWithTriggerCoroutine() : IEnumerator
}
MonoBehaviour <|- - DroneModeController
DroneModeController o-> "KEYUP" KeyCode
DroneModeController o-> "KEYDOWN" KeyCode
DroneModeController o-> "KEY_SPEED_REGULATOR_PLUS" KeyCode
DroneModeController o-> "KEY_SPEED_REGULATOR_MINUS" KeyCode
DroneModeController - -> "camera" GameObject
DroneModeController - -> "player" GameObject
DroneModeController - -> "lr" LineRenderer
DroneModeController - -> "pos" GameObject
DroneModeController - -> "OculusTouchRight" GameObject
DroneModeController - -> "OculusTouchLeft" GameObject
@enduml

PlantUML version 1.2020.02(Sun Mar 01 10:22:07 GMT 2020)
(GPL source distribution)
Java Runtime: OpenJDK Runtime Environment
JVM: OpenJDK 64-Bit Server VM
Java Version: 11.0.9+11-Ubuntu-0ubuntu1
Operating System: Linux
Default Encoding: ANSI_X3.4-1968
Language: en
Country: US
--></g></svg>