<?xml version="1.0" encoding="UTF-8" standalone="no"?><svg xmlns="http://www.w3.org/2000/svg" xmlns:xlink="http://www.w3.org/1999/xlink" contentScriptType="application/ecmascript" contentStyleType="text/css" height="187px" preserveAspectRatio="none" style="width:155px;height:187px;" version="1.1" viewBox="0 0 155 187" width="155px" zoomAndPan="magnify"><defs><filter height="300%" id="ffyl7jrj5ckoa" width="300%" x="-1" y="-1"><feGaussianBlur result="blurOut" stdDeviation="2.0"/><feColorMatrix in="blurOut" result="blurOut2" type="matrix" values="0 0 0 0 0 0 0 0 0 0 0 0 0 0 0 0 0 0 .4 0"/><feOffset dx="4.0" dy="4.0" in="blurOut2" result="blurOut3"/><feBlend in="SourceGraphic" in2="blurOut3" mode="normal"/></filter></defs><g><!--MD5=[781ac7ec380c222afa9bb4826f56272e]
class GUISubController--><rect fill="#FEFECE" filter="url(#ffyl7jrj5ckoa)" height="60.8047" id="GUISubController" style="stroke: #A80036; stroke-width: 1.5;" width="138" x="6" y="116"/><ellipse cx="21" cy="132" fill="#ADD1B2" rx="11" ry="11" style="stroke: #A80036; stroke-width: 1.0;"/><path d="M23.9688,137.6406 Q23.3906,137.9375 22.75,138.0781 Q22.1094,138.2344 21.4063,138.2344 Q18.9063,138.2344 17.5781,136.5938 Q16.2656,134.9375 16.2656,131.8125 Q16.2656,128.6875 17.5781,127.0313 Q18.9063,125.375 21.4063,125.375 Q22.1094,125.375 22.75,125.5313 Q23.4063,125.6875 23.9688,125.9844 L23.9688,128.7031 Q23.3438,128.125 22.75,127.8594 Q22.1563,127.5781 21.5313,127.5781 Q20.1875,127.5781 19.5,128.6563 Q18.8125,129.7188 18.8125,131.8125 Q18.8125,133.9063 19.5,134.9844 Q20.1875,136.0469 21.5313,136.0469 Q22.1563,136.0469 22.75,135.7813 Q23.3438,135.5 23.9688,134.9219 L23.9688,137.6406 Z "/><text fill="#000000" font-family="sans-serif" font-size="12" lengthAdjust="spacingAndGlyphs" textLength="106" x="35" y="136.1543">GUISubController</text><line style="stroke: #A80036; stroke-width: 1.5;" x1="7" x2="143" y1="148" y2="148"/><line style="stroke: #A80036; stroke-width: 1.5;" x1="7" x2="143" y1="156" y2="156"/><text fill="#000000" font-family="sans-serif" font-size="11" lengthAdjust="spacingAndGlyphs" textLength="83" x="12" y="170.2104">Update() : void</text><!--MD5=[83b3cf3d23d77c6f1e1b5291a241bc2a]
class MonoBehaviour--><rect fill="#FEFECE" filter="url(#ffyl7jrj5ckoa)" height="48" id="MonoBehaviour" style="stroke: #A80036; stroke-width: 1.5;" width="128" x="11" y="8"/><ellipse cx="26" cy="24" fill="#ADD1B2" rx="11" ry="11" style="stroke: #A80036; stroke-width: 1.0;"/><path d="M28.9688,29.6406 Q28.3906,29.9375 27.75,30.0781 Q27.1094,30.2344 26.4063,30.2344 Q23.9063,30.2344 22.5781,28.5938 Q21.2656,26.9375 21.2656,23.8125 Q21.2656,20.6875 22.5781,19.0313 Q23.9063,17.375 26.4063,17.375 Q27.1094,17.375 27.75,17.5313 Q28.4063,17.6875 28.9688,17.9844 L28.9688,20.7031 Q28.3438,20.125 27.75,19.8594 Q27.1563,19.5781 26.5313,19.5781 Q25.1875,19.5781 24.5,20.6563 Q23.8125,21.7188 23.8125,23.8125 Q23.8125,25.9063 24.5,26.9844 Q25.1875,28.0469 26.5313,28.0469 Q27.1563,28.0469 27.75,27.7813 Q28.3438,27.5 28.9688,26.9219 L28.9688,29.6406 Z "/><text fill="#000000" font-family="sans-serif" font-size="12" lengthAdjust="spacingAndGlyphs" textLength="96" x="40" y="28.1543">MonoBehaviour</text><line style="stroke: #A80036; stroke-width: 1.5;" x1="12" x2="138" y1="40" y2="40"/><line style="stroke: #A80036; stroke-width: 1.5;" x1="12" x2="138" y1="48" y2="48"/><!--MD5=[755d81f4c636b1ac060cf2658099692e]
reverse link MonoBehaviour to GUISubController--><path d="M75,76.11 C75,89.31 75,103.54 75,115.65 " fill="none" id="MonoBehaviour&lt;-GUISubController" style="stroke: #A80036; stroke-width: 1.0;"/><polygon fill="none" points="68,76.04,75,56.04,82,76.04,68,76.04" style="stroke: #A80036; stroke-width: 1.0;"/><!--MD5=[e866c35e7a4e1297e72bb10294e889d7]
@startuml
class GUISubController {
    Update() : void
}
MonoBehaviour <|- - GUISubController
@enduml

PlantUML version 1.2020.02(Sun Mar 01 10:22:07 GMT 2020)
(GPL source distribution)
Java Runtime: OpenJDK Runtime Environment
JVM: OpenJDK 64-Bit Server VM
Java Version: 11.0.9+11-Ubuntu-0ubuntu1
Operating System: Linux
Default Encoding: ANSI_X3.4-1968
Language: en
Country: US
--></g></svg>