<?xml version="1.0" encoding="UTF-8" standalone="no"?><svg xmlns="http://www.w3.org/2000/svg" xmlns:xlink="http://www.w3.org/1999/xlink" contentScriptType="application/ecmascript" contentStyleType="text/css" height="398px" preserveAspectRatio="none" style="width:854px;height:398px;" version="1.1" viewBox="0 0 854 398" width="854px" zoomAndPan="magnify"><defs><filter height="300%" id="f1ef9waz44hawg" width="300%" x="-1" y="-1"><feGaussianBlur result="blurOut" stdDeviation="2.0"/><feColorMatrix in="blurOut" result="blurOut2" type="matrix" values="0 0 0 0 0 0 0 0 0 0 0 0 0 0 0 0 0 0 .4 0"/><feOffset dx="4.0" dy="4.0" in="blurOut2" result="blurOut3"/><feBlend in="SourceGraphic" in2="blurOut3" mode="normal"/></filter></defs><g><!--MD5=[35e24acb0f2054815576f0a92e28ca72]
class HeightAndSpeedRegulator--><rect fill="#FEFECE" filter="url(#f1ef9waz44hawg)" height="163.2422" id="HeightAndSpeedRegulator" style="stroke: #A80036; stroke-width: 1.5;" width="245" x="257.5" y="116"/><ellipse cx="293.65" cy="132" fill="#ADD1B2" rx="11" ry="11" style="stroke: #A80036; stroke-width: 1.0;"/><path d="M296.6188,137.6406 Q296.0406,137.9375 295.4,138.0781 Q294.7594,138.2344 294.0563,138.2344 Q291.5563,138.2344 290.2281,136.5938 Q288.9156,134.9375 288.9156,131.8125 Q288.9156,128.6875 290.2281,127.0313 Q291.5563,125.375 294.0563,125.375 Q294.7594,125.375 295.4,125.5313 Q296.0563,125.6875 296.6188,125.9844 L296.6188,128.7031 Q295.9938,128.125 295.4,127.8594 Q294.8063,127.5781 294.1813,127.5781 Q292.8375,127.5781 292.15,128.6563 Q291.4625,129.7188 291.4625,131.8125 Q291.4625,133.9063 292.15,134.9844 Q292.8375,136.0469 294.1813,136.0469 Q294.8063,136.0469 295.4,135.7813 Q295.9938,135.5 296.6188,134.9219 L296.6188,137.6406 Z "/><text fill="#000000" font-family="sans-serif" font-size="12" lengthAdjust="spacingAndGlyphs" textLength="166" x="312.35" y="136.1543">HeightAndSpeedRegulator</text><line style="stroke: #A80036; stroke-width: 1.5;" x1="258.5" x2="501.5" y1="148" y2="148"/><ellipse cx="268.5" cy="159" fill="none" rx="3" ry="3" style="stroke: #038048; stroke-width: 1.0;"/><text fill="#000000" font-family="sans-serif" font-size="11" lengthAdjust="spacingAndGlyphs" textLength="135" x="277.5" y="162.2104">MAX_HEIGHT : int = 200</text><ellipse cx="268.5" cy="171.8047" fill="none" rx="3" ry="3" style="stroke: #038048; stroke-width: 1.0;"/><text fill="#000000" font-family="sans-serif" font-size="11" lengthAdjust="spacingAndGlyphs" textLength="125" x="277.5" y="175.0151">MIN_HEIGHT : int = 50</text><ellipse cx="268.5" cy="184.6094" fill="none" rx="3" ry="3" style="stroke: #038048; stroke-width: 1.0;"/><text fill="#000000" font-family="sans-serif" font-size="11" lengthAdjust="spacingAndGlyphs" textLength="82" x="277.5" y="187.8198">step : int = 10</text><ellipse cx="268.5" cy="197.4141" fill="none" rx="3" ry="3" style="stroke: #038048; stroke-width: 1.0;"/><text fill="#000000" font-family="sans-serif" font-size="11" lengthAdjust="spacingAndGlyphs" textLength="150" x="277.5" y="200.6245">SPEED_OFFSET : int = 200</text><ellipse cx="268.5" cy="210.2188" fill="none" rx="3" ry="3" style="stroke: #038048; stroke-width: 1.0;"/><text fill="#000000" font-family="sans-serif" font-size="11" lengthAdjust="spacingAndGlyphs" textLength="219" x="277.5" y="213.4292">SPEED_OFFSET_PERCENT : float = 0.2f</text><line style="stroke: #A80036; stroke-width: 1.5;" x1="258.5" x2="501.5" y1="220.0234" y2="220.0234"/><text fill="#000000" font-family="sans-serif" font-size="11" lengthAdjust="spacingAndGlyphs" textLength="71" x="277.5" y="234.2339">Start() : void</text><text fill="#000000" font-family="sans-serif" font-size="11" lengthAdjust="spacingAndGlyphs" textLength="83" x="277.5" y="247.0386">Update() : void</text><ellipse cx="268.5" cy="256.6328" fill="#84BE84" rx="3" ry="3" style="stroke: #038048; stroke-width: 1.0;"/><text fill="#000000" font-family="sans-serif" font-size="11" lengthAdjust="spacingAndGlyphs" textLength="128" x="277.5" y="259.8433">IncreaseSpeed() : void</text><ellipse cx="268.5" cy="269.4375" fill="#84BE84" rx="3" ry="3" style="stroke: #038048; stroke-width: 1.0;"/><text fill="#000000" font-family="sans-serif" font-size="11" lengthAdjust="spacingAndGlyphs" textLength="133" x="277.5" y="272.6479">DecreaseSpeed() : void</text><!--MD5=[83b3cf3d23d77c6f1e1b5291a241bc2a]
class MonoBehaviour--><rect fill="#FEFECE" filter="url(#f1ef9waz44hawg)" height="48" id="MonoBehaviour" style="stroke: #A80036; stroke-width: 1.5;" width="128" x="316" y="8"/><ellipse cx="331" cy="24" fill="#ADD1B2" rx="11" ry="11" style="stroke: #A80036; stroke-width: 1.0;"/><path d="M333.9688,29.6406 Q333.3906,29.9375 332.75,30.0781 Q332.1094,30.2344 331.4063,30.2344 Q328.9063,30.2344 327.5781,28.5938 Q326.2656,26.9375 326.2656,23.8125 Q326.2656,20.6875 327.5781,19.0313 Q328.9063,17.375 331.4063,17.375 Q332.1094,17.375 332.75,17.5313 Q333.4063,17.6875 333.9688,17.9844 L333.9688,20.7031 Q333.3438,20.125 332.75,19.8594 Q332.1563,19.5781 331.5313,19.5781 Q330.1875,19.5781 329.5,20.6563 Q328.8125,21.7188 328.8125,23.8125 Q328.8125,25.9063 329.5,26.9844 Q330.1875,28.0469 331.5313,28.0469 Q332.1563,28.0469 332.75,27.7813 Q333.3438,27.5 333.9688,26.9219 L333.9688,29.6406 Z "/><text fill="#000000" font-family="sans-serif" font-size="12" lengthAdjust="spacingAndGlyphs" textLength="96" x="345" y="28.1543">MonoBehaviour</text><line style="stroke: #A80036; stroke-width: 1.5;" x1="317" x2="443" y1="40" y2="40"/><line style="stroke: #A80036; stroke-width: 1.5;" x1="317" x2="443" y1="48" y2="48"/><!--MD5=[ee4c508de9d16bc5a4ce1076f631897d]
class KeyCode--><rect fill="#FEFECE" filter="url(#f1ef9waz44hawg)" height="48" id="KeyCode" style="stroke: #A80036; stroke-width: 1.5;" width="85" x="537.5" y="173.5"/><ellipse cx="552.5" cy="189.5" fill="#ADD1B2" rx="11" ry="11" style="stroke: #A80036; stroke-width: 1.0;"/><path d="M555.4688,195.1406 Q554.8906,195.4375 554.25,195.5781 Q553.6094,195.7344 552.9063,195.7344 Q550.4063,195.7344 549.0781,194.0938 Q547.7656,192.4375 547.7656,189.3125 Q547.7656,186.1875 549.0781,184.5313 Q550.4063,182.875 552.9063,182.875 Q553.6094,182.875 554.25,183.0313 Q554.9063,183.1875 555.4688,183.4844 L555.4688,186.2031 Q554.8438,185.625 554.25,185.3594 Q553.6563,185.0781 553.0313,185.0781 Q551.6875,185.0781 551,186.1563 Q550.3125,187.2188 550.3125,189.3125 Q550.3125,191.4063 551,192.4844 Q551.6875,193.5469 553.0313,193.5469 Q553.6563,193.5469 554.25,193.2813 Q554.8438,193 555.4688,192.4219 L555.4688,195.1406 Z "/><text fill="#000000" font-family="sans-serif" font-size="12" lengthAdjust="spacingAndGlyphs" textLength="53" x="566.5" y="193.6543">KeyCode</text><line style="stroke: #A80036; stroke-width: 1.5;" x1="538.5" x2="621.5" y1="205.5" y2="205.5"/><line style="stroke: #A80036; stroke-width: 1.5;" x1="538.5" x2="621.5" y1="213.5" y2="213.5"/><!--MD5=[1ac0670640e7bfffebde8a24bb8d05cf]
class CustomFPCharacter--><rect fill="#FEFECE" filter="url(#f1ef9waz44hawg)" height="48" id="CustomFPCharacter" style="stroke: #A80036; stroke-width: 1.5;" width="156" x="6" y="339"/><ellipse cx="21" cy="355" fill="#ADD1B2" rx="11" ry="11" style="stroke: #A80036; stroke-width: 1.0;"/><path d="M23.9688,360.6406 Q23.3906,360.9375 22.75,361.0781 Q22.1094,361.2344 21.4063,361.2344 Q18.9063,361.2344 17.5781,359.5938 Q16.2656,357.9375 16.2656,354.8125 Q16.2656,351.6875 17.5781,350.0313 Q18.9063,348.375 21.4063,348.375 Q22.1094,348.375 22.75,348.5313 Q23.4063,348.6875 23.9688,348.9844 L23.9688,351.7031 Q23.3438,351.125 22.75,350.8594 Q22.1563,350.5781 21.5313,350.5781 Q20.1875,350.5781 19.5,351.6563 Q18.8125,352.7188 18.8125,354.8125 Q18.8125,356.9063 19.5,357.9844 Q20.1875,359.0469 21.5313,359.0469 Q22.1563,359.0469 22.75,358.7813 Q23.3438,358.5 23.9688,357.9219 L23.9688,360.6406 Z "/><text fill="#000000" font-family="sans-serif" font-size="12" lengthAdjust="spacingAndGlyphs" textLength="124" x="35" y="359.1543">CustomFPCharacter</text><line style="stroke: #A80036; stroke-width: 1.5;" x1="7" x2="161" y1="371" y2="371"/><line style="stroke: #A80036; stroke-width: 1.5;" x1="7" x2="161" y1="379" y2="379"/><!--MD5=[a5c040eacd349442931eb6fcf8641982]
class DroneModeController--><rect fill="#FEFECE" filter="url(#f1ef9waz44hawg)" height="48" id="DroneModeController" style="stroke: #A80036; stroke-width: 1.5;" width="165" x="197.5" y="339"/><ellipse cx="212.5" cy="355" fill="#ADD1B2" rx="11" ry="11" style="stroke: #A80036; stroke-width: 1.0;"/><path d="M215.4688,360.6406 Q214.8906,360.9375 214.25,361.0781 Q213.6094,361.2344 212.9063,361.2344 Q210.4063,361.2344 209.0781,359.5938 Q207.7656,357.9375 207.7656,354.8125 Q207.7656,351.6875 209.0781,350.0313 Q210.4063,348.375 212.9063,348.375 Q213.6094,348.375 214.25,348.5313 Q214.9063,348.6875 215.4688,348.9844 L215.4688,351.7031 Q214.8438,351.125 214.25,350.8594 Q213.6563,350.5781 213.0313,350.5781 Q211.6875,350.5781 211,351.6563 Q210.3125,352.7188 210.3125,354.8125 Q210.3125,356.9063 211,357.9844 Q211.6875,359.0469 213.0313,359.0469 Q213.6563,359.0469 214.25,358.7813 Q214.8438,358.5 215.4688,357.9219 L215.4688,360.6406 Z "/><text fill="#000000" font-family="sans-serif" font-size="12" lengthAdjust="spacingAndGlyphs" textLength="133" x="226.5" y="359.1543">DroneModeController</text><line style="stroke: #A80036; stroke-width: 1.5;" x1="198.5" x2="361.5" y1="371" y2="371"/><line style="stroke: #A80036; stroke-width: 1.5;" x1="198.5" x2="361.5" y1="379" y2="379"/><!--MD5=[ccf45357b7daedbf2774cc680cb5012d]
class TopCameraControlller--><rect fill="#FEFECE" filter="url(#f1ef9waz44hawg)" height="48" id="TopCameraControlller" style="stroke: #A80036; stroke-width: 1.5;" width="167" x="397.5" y="339"/><ellipse cx="412.5" cy="355" fill="#ADD1B2" rx="11" ry="11" style="stroke: #A80036; stroke-width: 1.0;"/><path d="M415.4688,360.6406 Q414.8906,360.9375 414.25,361.0781 Q413.6094,361.2344 412.9063,361.2344 Q410.4063,361.2344 409.0781,359.5938 Q407.7656,357.9375 407.7656,354.8125 Q407.7656,351.6875 409.0781,350.0313 Q410.4063,348.375 412.9063,348.375 Q413.6094,348.375 414.25,348.5313 Q414.9063,348.6875 415.4688,348.9844 L415.4688,351.7031 Q414.8438,351.125 414.25,350.8594 Q413.6563,350.5781 413.0313,350.5781 Q411.6875,350.5781 411,351.6563 Q410.3125,352.7188 410.3125,354.8125 Q410.3125,356.9063 411,357.9844 Q411.6875,359.0469 413.0313,359.0469 Q413.6563,359.0469 414.25,358.7813 Q414.8438,358.5 415.4688,357.9219 L415.4688,360.6406 Z "/><text fill="#000000" font-family="sans-serif" font-size="12" lengthAdjust="spacingAndGlyphs" textLength="135" x="426.5" y="359.1543">TopCameraControlller</text><line style="stroke: #A80036; stroke-width: 1.5;" x1="398.5" x2="563.5" y1="371" y2="371"/><line style="stroke: #A80036; stroke-width: 1.5;" x1="398.5" x2="563.5" y1="379" y2="379"/><!--MD5=[02a8746eb15ecbb4566dafa16ea4db73]
class Text--><rect fill="#FEFECE" filter="url(#f1ef9waz44hawg)" height="48" id="Text" style="stroke: #A80036; stroke-width: 1.5;" width="58" x="599" y="339"/><ellipse cx="614" cy="355" fill="#ADD1B2" rx="11" ry="11" style="stroke: #A80036; stroke-width: 1.0;"/><path d="M616.9688,360.6406 Q616.3906,360.9375 615.75,361.0781 Q615.1094,361.2344 614.4063,361.2344 Q611.9063,361.2344 610.5781,359.5938 Q609.2656,357.9375 609.2656,354.8125 Q609.2656,351.6875 610.5781,350.0313 Q611.9063,348.375 614.4063,348.375 Q615.1094,348.375 615.75,348.5313 Q616.4063,348.6875 616.9688,348.9844 L616.9688,351.7031 Q616.3438,351.125 615.75,350.8594 Q615.1563,350.5781 614.5313,350.5781 Q613.1875,350.5781 612.5,351.6563 Q611.8125,352.7188 611.8125,354.8125 Q611.8125,356.9063 612.5,357.9844 Q613.1875,359.0469 614.5313,359.0469 Q615.1563,359.0469 615.75,358.7813 Q616.3438,358.5 616.9688,357.9219 L616.9688,360.6406 Z "/><text fill="#000000" font-family="sans-serif" font-size="12" lengthAdjust="spacingAndGlyphs" textLength="26" x="628" y="359.1543">Text</text><line style="stroke: #A80036; stroke-width: 1.5;" x1="600" x2="656" y1="371" y2="371"/><line style="stroke: #A80036; stroke-width: 1.5;" x1="600" x2="656" y1="379" y2="379"/><!--MD5=[60a7dd460964647683e837e5f8300c82]
reverse link MonoBehaviour to HeightAndSpeedRegulator--><path d="M380,76.19 C380,88.45 380,102.21 380,115.93 " fill="none" id="MonoBehaviour&lt;-HeightAndSpeedRegulator" style="stroke: #A80036; stroke-width: 1.0;"/><polygon fill="none" points="373,76.08,380,56.08,387,76.08,373,76.08" style="stroke: #A80036; stroke-width: 1.0;"/><!--MD5=[9080eb2039e8de6f72f16614e286fe61]
link HeightAndSpeedRegulator to KeyCode--><path d="M513.9752,251.4941 C513.9752,251.4941 536.82,239.61 547.68,230.63 " fill="none" id="HeightAndSpeedRegulator-KeyCode" style="stroke: #A80036; stroke-width: 1.0;"/><polygon fill="#A80036" points="557.64,221.78,548.2572,224.7739,553.9045,225.1035,553.5749,230.7508,557.64,221.78" style="stroke: #A80036; stroke-width: 1.0;"/><line style="stroke: #A80036; stroke-width: 1.0;" x1="553.9045" x2="547.925" y1="225.1035" y2="230.41"/><polygon fill="#FFFFFF" points="502.66,255.49,509.6495,257.2638,513.9752,251.4941,506.9856,249.7203,502.66,255.49" style="stroke: #A80036; stroke-width: 1.0;"/><text fill="#000000" font-family="sans-serif" font-size="13" lengthAdjust="spacingAndGlyphs" textLength="203" x="576.9304" y="241.6095">KEY_HEIGHT_REGULATOR_PLUS</text><!--MD5=[9080eb2039e8de6f72f16614e286fe61]
link HeightAndSpeedRegulator to KeyCode--><path d="M514.5766,215.418 C514.5766,215.418 521.57,214.37 524.51,213.84 " fill="none" id="HeightAndSpeedRegulator-KeyCode-1" style="stroke: #A80036; stroke-width: 1.0;"/><polygon fill="#A80036" points="537.4,211.16,527.7748,209.0732,532.5044,212.1765,529.4011,216.9061,537.4,211.16" style="stroke: #A80036; stroke-width: 1.0;"/><line style="stroke: #A80036; stroke-width: 1.0;" x1="532.5044" x2="524.675" y1="212.1765" y2="213.805"/><polygon fill="#FFFFFF" points="502.66,216.83,509.089,220.0962,514.5766,215.418,508.1476,212.1518,502.66,216.83" style="stroke: #A80036; stroke-width: 1.0;"/><text fill="#000000" font-family="sans-serif" font-size="13" lengthAdjust="spacingAndGlyphs" textLength="212" x="630.915" y="217.4108">KEY_HEIGHT_REGULATOR_MINUS</text><!--MD5=[9080eb2039e8de6f72f16614e286fe61]
link HeightAndSpeedRegulator to KeyCode--><path d="M514.5766,179.582 C514.5766,179.582 521.57,180.63 524.51,181.16 " fill="none" id="HeightAndSpeedRegulator-KeyCode-2" style="stroke: #A80036; stroke-width: 1.0;"/><polygon fill="#A80036" points="537.4,183.84,529.4011,178.0939,532.5044,182.8235,527.7748,185.9268,537.4,183.84" style="stroke: #A80036; stroke-width: 1.0;"/><line style="stroke: #A80036; stroke-width: 1.0;" x1="532.5044" x2="524.675" y1="182.8235" y2="181.195"/><polygon fill="#FFFFFF" points="502.66,178.17,508.1476,182.8482,514.5766,179.582,509.089,174.9038,502.66,178.17" style="stroke: #A80036; stroke-width: 1.0;"/><text fill="#000000" font-family="sans-serif" font-size="13" lengthAdjust="spacingAndGlyphs" textLength="198" x="586.75" y="162.45">KEY_SPEED_REGULATOR_PLUS</text><!--MD5=[9080eb2039e8de6f72f16614e286fe61]
link HeightAndSpeedRegulator to KeyCode--><path d="M513.9752,143.5059 C513.9752,143.5059 536.82,155.39 547.68,164.37 " fill="none" id="HeightAndSpeedRegulator-KeyCode-3" style="stroke: #A80036; stroke-width: 1.0;"/><polygon fill="#A80036" points="557.64,173.22,553.5749,164.2492,553.9045,169.8965,548.2572,170.2261,557.64,173.22" style="stroke: #A80036; stroke-width: 1.0;"/><line style="stroke: #A80036; stroke-width: 1.0;" x1="553.9045" x2="547.925" y1="169.8965" y2="164.59"/><polygon fill="#FFFFFF" points="502.66,139.51,506.9856,145.2797,513.9752,143.5059,509.6495,137.7362,502.66,139.51" style="stroke: #A80036; stroke-width: 1.0;"/><text fill="#000000" font-family="sans-serif" font-size="13" lengthAdjust="spacingAndGlyphs" textLength="207" x="577.4179" y="162.5567">KEY_SPEED_REGULATOR_MINUS</text><!--MD5=[11488aa3ead247eb16254efe4d2e888d]
link HeightAndSpeedRegulator to CustomFPCharacter--><path d="M257.47,266.18 C212.57,290.98 164.44,317.57 130.3,336.43 " fill="none" id="HeightAndSpeedRegulator-&gt;CustomFPCharacter" style="stroke: #A80036; stroke-width: 1.0;"/><polygon fill="#A80036" points="125.78,338.92,135.59,338.0458,130.1508,336.4918,131.7048,331.0526,125.78,338.92" style="stroke: #A80036; stroke-width: 1.0;"/><text fill="#000000" font-family="sans-serif" font-size="13" lengthAdjust="spacingAndGlyphs" textLength="19" x="115.0518" y="327.9115">fpc</text><!--MD5=[6dfd03a8585c4fe82dff75e111ecd58a]
link HeightAndSpeedRegulator to DroneModeController--><path d="M330.59,279.29 C318.46,299.12 306.28,319.03 296.92,334.34 " fill="none" id="HeightAndSpeedRegulator-&gt;DroneModeController" style="stroke: #A80036; stroke-width: 1.0;"/><polygon fill="#A80036" points="294.1,338.94,302.2183,333.3639,296.7165,334.6793,295.4011,329.1775,294.1,338.94" style="stroke: #A80036; stroke-width: 1.0;"/><text fill="#000000" font-family="sans-serif" font-size="13" lengthAdjust="spacingAndGlyphs" textLength="23" x="271.7663" y="327.9367">dpc</text><!--MD5=[c401bbe5c656c141783f01fdcda72a73]
link HeightAndSpeedRegulator to TopCameraControlller--><path d="M429.91,279.29 C442.16,299.12 454.46,319.03 463.92,334.34 " fill="none" id="HeightAndSpeedRegulator-&gt;TopCameraControlller" style="stroke: #A80036; stroke-width: 1.0;"/><polygon fill="#A80036" points="466.76,338.94,465.4352,329.1807,464.1331,334.6856,458.6282,333.3836,466.76,338.94" style="stroke: #A80036; stroke-width: 1.0;"/><text fill="#000000" font-family="sans-serif" font-size="13" lengthAdjust="spacingAndGlyphs" textLength="20" x="440.5485" y="327.9367">tpc</text><!--MD5=[6f40d184ebc51541c70f043f33987641]
link HeightAndSpeedRegulator to Text--><path d="M502.18,279.05 C536.02,301.36 570.04,323.79 594.16,339.69 " fill="none" id="HeightAndSpeedRegulator-&gt;Text" style="stroke: #A80036; stroke-width: 1.0;"/><polygon fill="#A80036" points="598.55,342.58,593.2276,334.2931,594.3722,339.833,588.8324,340.9776,598.55,342.58" style="stroke: #A80036; stroke-width: 1.0;"/><text fill="#000000" font-family="sans-serif" font-size="13" lengthAdjust="spacingAndGlyphs" textLength="66" x="567.2976" y="327.9729">speedText</text><!--MD5=[bcdf73eae95a146f8d7e31ca120829e4]
@startuml
class HeightAndSpeedRegulator {
    + MAX_HEIGHT : int = 200
    + MIN_HEIGHT : int = 50
    + step : int = 10
    + SPEED_OFFSET : int = 200
    + SPEED_OFFSET_PERCENT : float = 0.2f
    Start() : void
    Update() : void
    + IncreaseSpeed() : void
    + DecreaseSpeed() : void
}
MonoBehaviour <|- - HeightAndSpeedRegulator
HeightAndSpeedRegulator o-> "KEY_HEIGHT_REGULATOR_PLUS" KeyCode
HeightAndSpeedRegulator o-> "KEY_HEIGHT_REGULATOR_MINUS" KeyCode
HeightAndSpeedRegulator o-> "KEY_SPEED_REGULATOR_PLUS" KeyCode
HeightAndSpeedRegulator o-> "KEY_SPEED_REGULATOR_MINUS" KeyCode
HeightAndSpeedRegulator - -> "fpc" CustomFPCharacter
HeightAndSpeedRegulator - -> "dpc" DroneModeController
HeightAndSpeedRegulator - -> "tpc" TopCameraControlller
HeightAndSpeedRegulator - -> "speedText" Text
@enduml

PlantUML version 1.2020.02(Sun Mar 01 10:22:07 GMT 2020)
(GPL source distribution)
Java Runtime: OpenJDK Runtime Environment
JVM: OpenJDK 64-Bit Server VM
Java Version: 11.0.9+11-Ubuntu-0ubuntu1
Operating System: Linux
Default Encoding: ANSI_X3.4-1968
Language: en
Country: US
--></g></svg>