<?xml version="1.0" encoding="UTF-8" standalone="no"?><svg xmlns="http://www.w3.org/2000/svg" xmlns:xlink="http://www.w3.org/1999/xlink" contentScriptType="application/ecmascript" contentStyleType="text/css" height="188px" preserveAspectRatio="none" style="width:424px;height:188px;" version="1.1" viewBox="0 0 424 188" width="424px" zoomAndPan="magnify"><defs><filter height="300%" id="f1id3cg2lrlcxy" width="300%" x="-1" y="-1"><feGaussianBlur result="blurOut" stdDeviation="2.0"/><feColorMatrix in="blurOut" result="blurOut2" type="matrix" values="0 0 0 0 0 0 0 0 0 0 0 0 0 0 0 0 0 0 .4 0"/><feOffset dx="4.0" dy="4.0" in="blurOut2" result="blurOut3"/><feBlend in="SourceGraphic" in2="blurOut3" mode="normal"/></filter></defs><g><!--MD5=[a624dda28cb361c5dfd30511c24d494e]
class Kml--><rect fill="#FEFECE" filter="url(#f1id3cg2lrlcxy)" height="48" id="Kml" style="stroke: #A80036; stroke-width: 1.5;" width="53" x="148.5" y="14.5"/><ellipse cx="163.5" cy="30.5" fill="#ADD1B2" rx="11" ry="11" style="stroke: #A80036; stroke-width: 1.0;"/><path d="M166.4688,36.1406 Q165.8906,36.4375 165.25,36.5781 Q164.6094,36.7344 163.9063,36.7344 Q161.4063,36.7344 160.0781,35.0938 Q158.7656,33.4375 158.7656,30.3125 Q158.7656,27.1875 160.0781,25.5313 Q161.4063,23.875 163.9063,23.875 Q164.6094,23.875 165.25,24.0313 Q165.9063,24.1875 166.4688,24.4844 L166.4688,27.2031 Q165.8438,26.625 165.25,26.3594 Q164.6563,26.0781 164.0313,26.0781 Q162.6875,26.0781 162,27.1563 Q161.3125,28.2188 161.3125,30.3125 Q161.3125,32.4063 162,33.4844 Q162.6875,34.5469 164.0313,34.5469 Q164.6563,34.5469 165.25,34.2813 Q165.8438,34 166.4688,33.4219 L166.4688,36.1406 Z "/><text fill="#000000" font-family="sans-serif" font-size="12" lengthAdjust="spacingAndGlyphs" textLength="21" x="177.5" y="34.6543">Kml</text><line style="stroke: #A80036; stroke-width: 1.5;" x1="149.5" x2="200.5" y1="46.5" y2="46.5"/><line style="stroke: #A80036; stroke-width: 1.5;" x1="149.5" x2="200.5" y1="54.5" y2="54.5"/><!--MD5=[59b530d44ae785dc18db921986a9c15c]
class Document--><rect fill="#FEFECE" filter="url(#f1id3cg2lrlcxy)" height="60.8047" id="Document" style="stroke: #A80036; stroke-width: 1.5;" width="176" x="237" y="8"/><ellipse cx="288.75" cy="24" fill="#ADD1B2" rx="11" ry="11" style="stroke: #A80036; stroke-width: 1.0;"/><path d="M291.7188,29.6406 Q291.1406,29.9375 290.5,30.0781 Q289.8594,30.2344 289.1563,30.2344 Q286.6563,30.2344 285.3281,28.5938 Q284.0156,26.9375 284.0156,23.8125 Q284.0156,20.6875 285.3281,19.0313 Q286.6563,17.375 289.1563,17.375 Q289.8594,17.375 290.5,17.5313 Q291.1563,17.6875 291.7188,17.9844 L291.7188,20.7031 Q291.0938,20.125 290.5,19.8594 Q289.9063,19.5781 289.2813,19.5781 Q287.9375,19.5781 287.25,20.6563 Q286.5625,21.7188 286.5625,23.8125 Q286.5625,25.9063 287.25,26.9844 Q287.9375,28.0469 289.2813,28.0469 Q289.9063,28.0469 290.5,27.7813 Q291.0938,27.5 291.7188,26.9219 L291.7188,29.6406 Z "/><text fill="#000000" font-family="sans-serif" font-size="12" lengthAdjust="spacingAndGlyphs" textLength="64" x="309.25" y="28.1543">Document</text><line style="stroke: #A80036; stroke-width: 1.5;" x1="238" x2="412" y1="40" y2="40"/><ellipse cx="248" cy="51" fill="none" rx="3" ry="3" style="stroke: #038048; stroke-width: 1.0;"/><text fill="#000000" font-family="sans-serif" font-size="11" lengthAdjust="spacingAndGlyphs" textLength="150" x="257" y="54.2104">Name : string «get» «set»</text><line style="stroke: #A80036; stroke-width: 1.5;" x1="238" x2="412" y1="60.8047" y2="60.8047"/><!--MD5=[e644022de7dea015dd09463c37421447]
class List`1--><rect fill="#FEFECE" filter="url(#f1id3cg2lrlcxy)" height="48" id="List`1" style="stroke: #A80036; stroke-width: 1.5;" width="78" x="136" y="129"/><ellipse cx="151" cy="145" fill="#ADD1B2" rx="11" ry="11" style="stroke: #A80036; stroke-width: 1.0;"/><path d="M153.9688,150.6406 Q153.3906,150.9375 152.75,151.0781 Q152.1094,151.2344 151.4063,151.2344 Q148.9063,151.2344 147.5781,149.5938 Q146.2656,147.9375 146.2656,144.8125 Q146.2656,141.6875 147.5781,140.0313 Q148.9063,138.375 151.4063,138.375 Q152.1094,138.375 152.75,138.5313 Q153.4063,138.6875 153.9688,138.9844 L153.9688,141.7031 Q153.3438,141.125 152.75,140.8594 Q152.1563,140.5781 151.5313,140.5781 Q150.1875,140.5781 149.5,141.6563 Q148.8125,142.7188 148.8125,144.8125 Q148.8125,146.9063 149.5,147.9844 Q150.1875,149.0469 151.5313,149.0469 Q152.1563,149.0469 152.75,148.7813 Q153.3438,148.5 153.9688,147.9219 L153.9688,150.6406 Z "/><text fill="#000000" font-family="sans-serif" font-size="12" lengthAdjust="spacingAndGlyphs" textLength="35" x="165" y="149.1543">List`1</text><rect fill="#FFFFFF" height="15.9688" style="stroke: #000000; stroke-width: 1.0; stroke-dasharray: 2.0,2.0;" width="9" x="208" y="126"/><text fill="#000000" font-family="sans-serif" font-size="12" font-style="italic" lengthAdjust="spacingAndGlyphs" textLength="7" x="209" y="138.1387">T</text><line style="stroke: #A80036; stroke-width: 1.5;" x1="137" x2="213" y1="161" y2="161"/><line style="stroke: #A80036; stroke-width: 1.5;" x1="137" x2="213" y1="169" y2="169"/><!--MD5=[a93b4b67811100b024acd9e99a8af86a]
link Kml to List`1--><path d="M175,62.54 C175,80.28 175,104.9 175,123.82 " fill="none" id="Kml-&gt;List`1" style="stroke: #A80036; stroke-width: 1.0;"/><polygon fill="#A80036" points="175,128.99,179,119.99,175,123.99,171,119.99,175,128.99" style="stroke: #A80036; stroke-width: 1.0;"/><text fill="#000000" font-family="sans-serif" font-size="13" lengthAdjust="spacingAndGlyphs" textLength="154" x="1.2688" y="117.9995">document&lt;Document&gt;</text><!--MD5=[4aaa1233a8c39fb8d9132cdf343d238b]
@startuml
class Kml {
}
class Document {
    + Name : string <<get>> <<set>>
}
class "List`1"<T> {
}
Kml - -> "document<Document>" "List`1"
@enduml

PlantUML version 1.2020.02(Sun Mar 01 10:22:07 GMT 2020)
(GPL source distribution)
Java Runtime: OpenJDK Runtime Environment
JVM: OpenJDK 64-Bit Server VM
Java Version: 11.0.9+11-Ubuntu-0ubuntu1
Operating System: Linux
Default Encoding: ANSI_X3.4-1968
Language: en
Country: US
--></g></svg>