<?xml version="1.0" encoding="UTF-8" standalone="no"?><svg xmlns="http://www.w3.org/2000/svg" xmlns:xlink="http://www.w3.org/1999/xlink" contentScriptType="application/ecmascript" contentStyleType="text/css" height="373px" preserveAspectRatio="none" style="width:209px;height:373px;" version="1.1" viewBox="0 0 209 373" width="209px" zoomAndPan="magnify"><defs><filter height="300%" id="f7wan3h3xyuv0" width="300%" x="-1" y="-1"><feGaussianBlur result="blurOut" stdDeviation="2.0"/><feColorMatrix in="blurOut" result="blurOut2" type="matrix" values="0 0 0 0 0 0 0 0 0 0 0 0 0 0 0 0 0 0 .4 0"/><feOffset dx="4.0" dy="4.0" in="blurOut2" result="blurOut3"/><feBlend in="SourceGraphic" in2="blurOut3" mode="normal"/></filter></defs><g><!--MD5=[3b67c2d682d052102ed843d049016d53]
class MapCameraBehaviour--><rect fill="#FEFECE" filter="url(#f7wan3h3xyuv0)" height="137.6328" id="MapCameraBehaviour" style="stroke: #A80036; stroke-width: 1.5;" width="168" x="6" y="116"/><ellipse cx="21" cy="132" fill="#ADD1B2" rx="11" ry="11" style="stroke: #A80036; stroke-width: 1.0;"/><path d="M23.9688,137.6406 Q23.3906,137.9375 22.75,138.0781 Q22.1094,138.2344 21.4063,138.2344 Q18.9063,138.2344 17.5781,136.5938 Q16.2656,134.9375 16.2656,131.8125 Q16.2656,128.6875 17.5781,127.0313 Q18.9063,125.375 21.4063,125.375 Q22.1094,125.375 22.75,125.5313 Q23.4063,125.6875 23.9688,125.9844 L23.9688,128.7031 Q23.3438,128.125 22.75,127.8594 Q22.1563,127.5781 21.5313,127.5781 Q20.1875,127.5781 19.5,128.6563 Q18.8125,129.7188 18.8125,131.8125 Q18.8125,133.9063 19.5,134.9844 Q20.1875,136.0469 21.5313,136.0469 Q22.1563,136.0469 22.75,135.7813 Q23.3438,135.5 23.9688,134.9219 L23.9688,137.6406 Z "/><text fill="#000000" font-family="sans-serif" font-size="12" lengthAdjust="spacingAndGlyphs" textLength="136" x="35" y="136.1543">MapCameraBehaviour</text><line style="stroke: #A80036; stroke-width: 1.5;" x1="7" x2="173" y1="148" y2="148"/><ellipse cx="17" cy="159" fill="none" rx="3" ry="3" style="stroke: #038048; stroke-width: 1.0;"/><text fill="#000000" font-family="sans-serif" font-size="11" lengthAdjust="spacingAndGlyphs" textLength="103" x="26" y="162.2104">HEIGHT : float = 0</text><text fill="#000000" font-family="sans-serif" font-size="11" lengthAdjust="spacingAndGlyphs" textLength="58" x="26" y="175.0151">min : float</text><text fill="#000000" font-family="sans-serif" font-size="11" lengthAdjust="spacingAndGlyphs" textLength="61" x="26" y="187.8198">max : float</text><text fill="#000000" font-family="sans-serif" font-size="11" lengthAdjust="spacingAndGlyphs" textLength="84" x="26" y="200.6245">zoomVal : float</text><line style="stroke: #A80036; stroke-width: 1.5;" x1="7" x2="173" y1="207.2188" y2="207.2188"/><text fill="#000000" font-family="sans-serif" font-size="11" lengthAdjust="spacingAndGlyphs" textLength="71" x="26" y="221.4292">Start() : void</text><text fill="#000000" font-family="sans-serif" font-size="11" lengthAdjust="spacingAndGlyphs" textLength="83" x="26" y="234.2339">Update() : void</text><ellipse cx="17" cy="243.8281" fill="#84BE84" rx="3" ry="3" style="stroke: #038048; stroke-width: 1.0;"/><text fill="#000000" font-family="sans-serif" font-size="11" lengthAdjust="spacingAndGlyphs" textLength="98" x="26" y="247.0386">ZoomEdit() : void</text><!--MD5=[83b3cf3d23d77c6f1e1b5291a241bc2a]
class MonoBehaviour--><rect fill="#FEFECE" filter="url(#f7wan3h3xyuv0)" height="48" id="MonoBehaviour" style="stroke: #A80036; stroke-width: 1.5;" width="128" x="26" y="8"/><ellipse cx="41" cy="24" fill="#ADD1B2" rx="11" ry="11" style="stroke: #A80036; stroke-width: 1.0;"/><path d="M43.9688,29.6406 Q43.3906,29.9375 42.75,30.0781 Q42.1094,30.2344 41.4063,30.2344 Q38.9063,30.2344 37.5781,28.5938 Q36.2656,26.9375 36.2656,23.8125 Q36.2656,20.6875 37.5781,19.0313 Q38.9063,17.375 41.4063,17.375 Q42.1094,17.375 42.75,17.5313 Q43.4063,17.6875 43.9688,17.9844 L43.9688,20.7031 Q43.3438,20.125 42.75,19.8594 Q42.1563,19.5781 41.5313,19.5781 Q40.1875,19.5781 39.5,20.6563 Q38.8125,21.7188 38.8125,23.8125 Q38.8125,25.9063 39.5,26.9844 Q40.1875,28.0469 41.5313,28.0469 Q42.1563,28.0469 42.75,27.7813 Q43.3438,27.5 43.9688,26.9219 L43.9688,29.6406 Z "/><text fill="#000000" font-family="sans-serif" font-size="12" lengthAdjust="spacingAndGlyphs" textLength="96" x="55" y="28.1543">MonoBehaviour</text><line style="stroke: #A80036; stroke-width: 1.5;" x1="27" x2="153" y1="40" y2="40"/><line style="stroke: #A80036; stroke-width: 1.5;" x1="27" x2="153" y1="48" y2="48"/><!--MD5=[064f7a74fee85463ec1a30143664ee17]
class GameObject--><rect fill="#FEFECE" filter="url(#f7wan3h3xyuv0)" height="48" id="GameObject" style="stroke: #A80036; stroke-width: 1.5;" width="108" x="36" y="314"/><ellipse cx="51" cy="330" fill="#ADD1B2" rx="11" ry="11" style="stroke: #A80036; stroke-width: 1.0;"/><path d="M53.9688,335.6406 Q53.3906,335.9375 52.75,336.0781 Q52.1094,336.2344 51.4063,336.2344 Q48.9063,336.2344 47.5781,334.5938 Q46.2656,332.9375 46.2656,329.8125 Q46.2656,326.6875 47.5781,325.0313 Q48.9063,323.375 51.4063,323.375 Q52.1094,323.375 52.75,323.5313 Q53.4063,323.6875 53.9688,323.9844 L53.9688,326.7031 Q53.3438,326.125 52.75,325.8594 Q52.1563,325.5781 51.5313,325.5781 Q50.1875,325.5781 49.5,326.6563 Q48.8125,327.7188 48.8125,329.8125 Q48.8125,331.9063 49.5,332.9844 Q50.1875,334.0469 51.5313,334.0469 Q52.1563,334.0469 52.75,333.7813 Q53.3438,333.5 53.9688,332.9219 L53.9688,335.6406 Z "/><text fill="#000000" font-family="sans-serif" font-size="12" lengthAdjust="spacingAndGlyphs" textLength="76" x="65" y="334.1543">GameObject</text><line style="stroke: #A80036; stroke-width: 1.5;" x1="37" x2="143" y1="346" y2="346"/><line style="stroke: #A80036; stroke-width: 1.5;" x1="37" x2="143" y1="354" y2="354"/><!--MD5=[d52a4a0b6e8098969cddc9e4ce232100]
reverse link MonoBehaviour to MapCameraBehaviour--><path d="M90,76.56 C90,88.87 90,102.57 90,115.96 " fill="none" id="MonoBehaviour&lt;-MapCameraBehaviour" style="stroke: #A80036; stroke-width: 1.0;"/><polygon fill="none" points="83,76.26,90,56.26,97,76.26,83,76.26" style="stroke: #A80036; stroke-width: 1.0;"/><!--MD5=[f45b870ad675b03fcc58af9bff9fa275]
link MapCameraBehaviour to GameObject--><path d="M77.3,254.43 C77.03,273.64 77.87,293.47 79.81,308.87 " fill="none" id="MapCameraBehaviour-&gt;GameObject" style="stroke: #A80036; stroke-width: 1.0;"/><polygon fill="#A80036" points="80.52,313.92,83.2491,304.4568,79.8349,308.9672,75.3245,305.553,80.52,313.92" style="stroke: #A80036; stroke-width: 1.0;"/><text fill="#000000" font-family="sans-serif" font-size="13" lengthAdjust="spacingAndGlyphs" textLength="39" x="34.0939" y="302.9115">target</text><!--MD5=[f45b870ad675b03fcc58af9bff9fa275]
link MapCameraBehaviour to GameObject--><path d="M103.45,254.43 C103.73,273.64 102.85,293.47 100.79,308.87 " fill="none" id="MapCameraBehaviour-&gt;GameObject-1" style="stroke: #A80036; stroke-width: 1.0;"/><polygon fill="#A80036" points="100.04,313.92,105.3097,305.5995,100.7691,308.9734,97.3952,304.4329,100.04,313.92" style="stroke: #A80036; stroke-width: 1.0;"/><text fill="#000000" font-family="sans-serif" font-size="13" lengthAdjust="spacingAndGlyphs" textLength="84" x="113.3753" y="302.9115">targetPointer</text><!--MD5=[1da93ceae64fa088c6e30ac0708f9895]
@startuml
class MapCameraBehaviour {
    + HEIGHT : float = 0
    min : float
    max : float
    zoomVal : float
    Start() : void
    Update() : void
    + ZoomEdit() : void
}
MonoBehaviour <|- - MapCameraBehaviour
MapCameraBehaviour - -> "target" GameObject
MapCameraBehaviour - -> "targetPointer" GameObject
@enduml

PlantUML version 1.2020.02(Sun Mar 01 10:22:07 GMT 2020)
(GPL source distribution)
Java Runtime: OpenJDK Runtime Environment
JVM: OpenJDK 64-Bit Server VM
Java Version: 11.0.9+11-Ubuntu-0ubuntu1
Operating System: Linux
Default Encoding: ANSI_X3.4-1968
Language: en
Country: US
--></g></svg>