<?xml version="1.0" encoding="UTF-8" standalone="no"?><svg xmlns="http://www.w3.org/2000/svg" xmlns:xlink="http://www.w3.org/1999/xlink" contentScriptType="application/ecmascript" contentStyleType="text/css" height="373px" preserveAspectRatio="none" style="width:477px;height:373px;" version="1.1" viewBox="0 0 477 373" width="477px" zoomAndPan="magnify"><defs><filter height="300%" id="f10v4kwora9rq4" width="300%" x="-1" y="-1"><feGaussianBlur result="blurOut" stdDeviation="2.0"/><feColorMatrix in="blurOut" result="blurOut2" type="matrix" values="0 0 0 0 0 0 0 0 0 0 0 0 0 0 0 0 0 0 .4 0"/><feOffset dx="4.0" dy="4.0" in="blurOut2" result="blurOut3"/><feBlend in="SourceGraphic" in2="blurOut3" mode="normal"/></filter></defs><g><!--MD5=[b3300c7f6ed933e38fc7cd465fbebf39]
class ModeController--><rect fill="#FEFECE" filter="url(#f10v4kwora9rq4)" height="137.6328" id="ModeController" style="stroke: #A80036; stroke-width: 1.5;" width="233" x="37.51" y="116"/><ellipse cx="102.26" cy="132" fill="#ADD1B2" rx="11" ry="11" style="stroke: #A80036; stroke-width: 1.0;"/><path d="M105.2288,137.6406 Q104.6506,137.9375 104.01,138.0781 Q103.3694,138.2344 102.6663,138.2344 Q100.1663,138.2344 98.8381,136.5938 Q97.5256,134.9375 97.5256,131.8125 Q97.5256,128.6875 98.8381,127.0313 Q100.1663,125.375 102.6663,125.375 Q103.3694,125.375 104.01,125.5313 Q104.6663,125.6875 105.2288,125.9844 L105.2288,128.7031 Q104.6038,128.125 104.01,127.8594 Q103.4163,127.5781 102.7913,127.5781 Q101.4475,127.5781 100.76,128.6563 Q100.0725,129.7188 100.0725,131.8125 Q100.0725,133.9063 100.76,134.9844 Q101.4475,136.0469 102.7913,136.0469 Q103.4163,136.0469 104.01,135.7813 Q104.6038,135.5 105.2288,134.9219 L105.2288,137.6406 Z "/><text fill="#000000" font-family="sans-serif" font-size="12" lengthAdjust="spacingAndGlyphs" textLength="95" x="122.76" y="136.1543">ModeController</text><line style="stroke: #A80036; stroke-width: 1.5;" x1="38.51" x2="269.51" y1="148" y2="148"/><ellipse cx="48.51" cy="159" fill="none" rx="3" ry="3" style="stroke: #038048; stroke-width: 1.0;"/><text fill="#000000" font-family="sans-serif" font-size="11" lengthAdjust="spacingAndGlyphs" textLength="161" x="57.51" y="162.2104">playerHalfHeight : float = 50</text><ellipse cx="48.51" cy="171.8047" fill="none" rx="3" ry="3" style="stroke: #038048; stroke-width: 1.0;"/><text fill="#000000" font-family="sans-serif" font-size="11" lengthAdjust="spacingAndGlyphs" textLength="207" x="57.51" y="175.0151">droneStartHeightOffset : float = 400</text><line style="stroke: #A80036; stroke-width: 1.5;" x1="38.51" x2="269.51" y1="181.6094" y2="181.6094"/><ellipse cx="48.51" cy="192.6094" fill="#84BE84" rx="3" ry="3" style="stroke: #038048; stroke-width: 1.0;"/><text fill="#000000" font-family="sans-serif" font-size="11" lengthAdjust="spacingAndGlyphs" textLength="71" x="57.51" y="195.8198">Start() : void</text><text fill="#000000" font-family="sans-serif" font-size="11" lengthAdjust="spacingAndGlyphs" textLength="83" x="57.51" y="208.6245">Update() : void</text><text fill="#000000" font-family="sans-serif" font-size="11" lengthAdjust="spacingAndGlyphs" textLength="112" x="57.51" y="221.4292">FixedUpdate() : void</text><text fill="#000000" font-family="sans-serif" font-size="11" lengthAdjust="spacingAndGlyphs" textLength="190" x="57.51" y="234.2339">UpdateStateModeFarlocco() : void</text><ellipse cx="48.51" cy="243.8281" fill="#84BE84" rx="3" ry="3" style="stroke: #038048; stroke-width: 1.0;"/><text fill="#000000" font-family="sans-serif" font-size="11" lengthAdjust="spacingAndGlyphs" textLength="143" x="57.51" y="247.0386">UpdateStateMode() : void</text><!--MD5=[83b3cf3d23d77c6f1e1b5291a241bc2a]
class MonoBehaviour--><rect fill="#FEFECE" filter="url(#f10v4kwora9rq4)" height="48" id="MonoBehaviour" style="stroke: #A80036; stroke-width: 1.5;" width="128" x="90.01" y="8"/><ellipse cx="105.01" cy="24" fill="#ADD1B2" rx="11" ry="11" style="stroke: #A80036; stroke-width: 1.0;"/><path d="M107.9788,29.6406 Q107.4006,29.9375 106.76,30.0781 Q106.1194,30.2344 105.4163,30.2344 Q102.9163,30.2344 101.5881,28.5938 Q100.2756,26.9375 100.2756,23.8125 Q100.2756,20.6875 101.5881,19.0313 Q102.9163,17.375 105.4163,17.375 Q106.1194,17.375 106.76,17.5313 Q107.4163,17.6875 107.9788,17.9844 L107.9788,20.7031 Q107.3538,20.125 106.76,19.8594 Q106.1663,19.5781 105.5413,19.5781 Q104.1975,19.5781 103.51,20.6563 Q102.8225,21.7188 102.8225,23.8125 Q102.8225,25.9063 103.51,26.9844 Q104.1975,28.0469 105.5413,28.0469 Q106.1663,28.0469 106.76,27.7813 Q107.3538,27.5 107.9788,26.9219 L107.9788,29.6406 Z "/><text fill="#000000" font-family="sans-serif" font-size="12" lengthAdjust="spacingAndGlyphs" textLength="96" x="119.01" y="28.1543">MonoBehaviour</text><line style="stroke: #A80036; stroke-width: 1.5;" x1="91.01" x2="217.01" y1="40" y2="40"/><line style="stroke: #A80036; stroke-width: 1.5;" x1="91.01" x2="217.01" y1="48" y2="48"/><!--MD5=[064f7a74fee85463ec1a30143664ee17]
class GameObject--><rect fill="#FEFECE" filter="url(#f10v4kwora9rq4)" height="48" id="GameObject" style="stroke: #A80036; stroke-width: 1.5;" width="108" x="100.01" y="314"/><ellipse cx="115.01" cy="330" fill="#ADD1B2" rx="11" ry="11" style="stroke: #A80036; stroke-width: 1.0;"/><path d="M117.9788,335.6406 Q117.4006,335.9375 116.76,336.0781 Q116.1194,336.2344 115.4163,336.2344 Q112.9163,336.2344 111.5881,334.5938 Q110.2756,332.9375 110.2756,329.8125 Q110.2756,326.6875 111.5881,325.0313 Q112.9163,323.375 115.4163,323.375 Q116.1194,323.375 116.76,323.5313 Q117.4163,323.6875 117.9788,323.9844 L117.9788,326.7031 Q117.3538,326.125 116.76,325.8594 Q116.1663,325.5781 115.5413,325.5781 Q114.1975,325.5781 113.51,326.6563 Q112.8225,327.7188 112.8225,329.8125 Q112.8225,331.9063 113.51,332.9844 Q114.1975,334.0469 115.5413,334.0469 Q116.1663,334.0469 116.76,333.7813 Q117.3538,333.5 117.9788,332.9219 L117.9788,335.6406 Z "/><text fill="#000000" font-family="sans-serif" font-size="12" lengthAdjust="spacingAndGlyphs" textLength="76" x="129.01" y="334.1543">GameObject</text><line style="stroke: #A80036; stroke-width: 1.5;" x1="101.01" x2="207.01" y1="346" y2="346"/><line style="stroke: #A80036; stroke-width: 1.5;" x1="101.01" x2="207.01" y1="354" y2="354"/><!--MD5=[ee4c508de9d16bc5a4ce1076f631897d]
class KeyCode--><rect fill="#FEFECE" filter="url(#f10v4kwora9rq4)" height="48" id="KeyCode" style="stroke: #A80036; stroke-width: 1.5;" width="85" x="305.51" y="161"/><ellipse cx="320.51" cy="177" fill="#ADD1B2" rx="11" ry="11" style="stroke: #A80036; stroke-width: 1.0;"/><path d="M323.4788,182.6406 Q322.9006,182.9375 322.26,183.0781 Q321.6194,183.2344 320.9163,183.2344 Q318.4163,183.2344 317.0881,181.5938 Q315.7756,179.9375 315.7756,176.8125 Q315.7756,173.6875 317.0881,172.0313 Q318.4163,170.375 320.9163,170.375 Q321.6194,170.375 322.26,170.5313 Q322.9163,170.6875 323.4788,170.9844 L323.4788,173.7031 Q322.8538,173.125 322.26,172.8594 Q321.6663,172.5781 321.0413,172.5781 Q319.6975,172.5781 319.01,173.6563 Q318.3225,174.7188 318.3225,176.8125 Q318.3225,178.9063 319.01,179.9844 Q319.6975,181.0469 321.0413,181.0469 Q321.6663,181.0469 322.26,180.7813 Q322.8538,180.5 323.4788,179.9219 L323.4788,182.6406 Z "/><text fill="#000000" font-family="sans-serif" font-size="12" lengthAdjust="spacingAndGlyphs" textLength="53" x="334.51" y="181.1543">KeyCode</text><line style="stroke: #A80036; stroke-width: 1.5;" x1="306.51" x2="389.51" y1="193" y2="193"/><line style="stroke: #A80036; stroke-width: 1.5;" x1="306.51" x2="389.51" y1="201" y2="201"/><!--MD5=[bda4f9c15903e4a52beda04443d3face]
reverse link MonoBehaviour to ModeController--><path d="M154.01,76.56 C154.01,88.87 154.01,102.57 154.01,115.96 " fill="none" id="MonoBehaviour&lt;-ModeController" style="stroke: #A80036; stroke-width: 1.0;"/><polygon fill="none" points="147.01,76.26,154.01,56.26,161.01,76.26,147.01,76.26" style="stroke: #A80036; stroke-width: 1.0;"/><!--MD5=[9e3f7b724707176ec48dcc2868ba1822]
link ModeController to GameObject--><path d="M115.16,254.43 C114.33,273.81 116.94,293.81 123.01,309.27 " fill="none" id="ModeController-&gt;GameObject" style="stroke: #A80036; stroke-width: 1.0;"/><polygon fill="#A80036" points="125,313.92,125.1313,304.072,123.0304,309.3243,117.7781,307.2234,125,313.92" style="stroke: #A80036; stroke-width: 1.0;"/><text fill="#000000" font-family="sans-serif" font-size="13" lengthAdjust="spacingAndGlyphs" textLength="104" x="0.2412" y="302.9115">WalkingModeObj</text><!--MD5=[9e3f7b724707176ec48dcc2868ba1822]
link ModeController to GameObject--><path d="M141.31,254.43 C141.04,273.64 141.88,293.47 143.82,308.87 " fill="none" id="ModeController-&gt;GameObject-1" style="stroke: #A80036; stroke-width: 1.0;"/><polygon fill="#A80036" points="144.53,313.92,147.2591,304.4568,143.8449,308.9672,139.3345,305.553,144.53,313.92" style="stroke: #A80036; stroke-width: 1.0;"/><text fill="#000000" font-family="sans-serif" font-size="13" lengthAdjust="spacingAndGlyphs" textLength="90" x="153.632" y="302.9115">FlightModeObj</text><!--MD5=[9e3f7b724707176ec48dcc2868ba1822]
link ModeController to GameObject--><path d="M167.46,254.43 C167.75,273.64 166.86,293.47 164.8,308.87 " fill="none" id="ModeController-&gt;GameObject-2" style="stroke: #A80036; stroke-width: 1.0;"/><polygon fill="#A80036" points="164.05,313.92,169.3197,305.5995,164.7791,308.9734,161.4052,304.4329,164.05,313.92" style="stroke: #A80036; stroke-width: 1.0;"/><text fill="#000000" font-family="sans-serif" font-size="13" lengthAdjust="spacingAndGlyphs" textLength="95" x="217.2745" y="310.7118">DroneModeObj</text><!--MD5=[9e3f7b724707176ec48dcc2868ba1822]
link ModeController to GameObject--><path d="M193.61,254.43 C194.46,273.81 191.79,293.81 185.61,309.27 " fill="none" id="ModeController-&gt;GameObject-3" style="stroke: #A80036; stroke-width: 1.0;"/><polygon fill="#A80036" points="183.58,313.92,190.8444,307.2695,185.5788,309.3369,183.5115,304.0714,183.58,313.92" style="stroke: #A80036; stroke-width: 1.0;"/><text fill="#000000" font-family="sans-serif" font-size="13" lengthAdjust="spacingAndGlyphs" textLength="99" x="203.8417" y="302.9115">MapCameraObj</text><!--MD5=[b3071dad2325b63cb0df8f2a7b6b73e3]
link ModeController to KeyCode--><path d="M282.2438,231.2977 C282.2438,231.2977 301.81,223.02 310.98,216.97 " fill="none" id="ModeController-KeyCode" style="stroke: #A80036; stroke-width: 1.0;"/><polygon fill="#A80036" points="321.74,209.23,312.097,211.2333,317.6795,212.1476,316.7652,217.7301,321.74,209.23" style="stroke: #A80036; stroke-width: 1.0;"/><line style="stroke: #A80036; stroke-width: 1.0;" x1="317.6795" x2="311.185" y1="212.1476" y2="216.825"/><polygon fill="#FFFFFF" points="270.71,234.61,277.581,236.7984,282.2438,231.2977,275.3728,229.1092,270.71,234.61" style="stroke: #A80036; stroke-width: 1.0;"/><text fill="#000000" font-family="sans-serif" font-size="13" lengthAdjust="spacingAndGlyphs" textLength="134" x="331.6679" y="229.0473">WALKING_MODE_KEY</text><!--MD5=[b3071dad2325b63cb0df8f2a7b6b73e3]
link ModeController to KeyCode--><path d="M282.71,185 C282.71,185 289.39,185 292.21,185 " fill="none" id="ModeController-KeyCode-1" style="stroke: #A80036; stroke-width: 1.0;"/><polygon fill="#A80036" points="305.44,185,296.44,181,300.44,185,296.44,189,305.44,185" style="stroke: #A80036; stroke-width: 1.0;"/><line style="stroke: #A80036; stroke-width: 1.0;" x1="300.44" x2="292.44" y1="185" y2="185"/><polygon fill="#FFFFFF" points="270.71,185,276.71,189,282.71,185,276.71,181,270.71,185" style="stroke: #A80036; stroke-width: 1.0;"/><text fill="#000000" font-family="sans-serif" font-size="13" lengthAdjust="spacingAndGlyphs" textLength="120" x="264.5462" y="150.1087">FLIGHT_MODE_KEY</text><!--MD5=[b3071dad2325b63cb0df8f2a7b6b73e3]
link ModeController to KeyCode--><path d="M282.2438,138.7023 C282.2438,138.7023 301.81,146.98 310.98,153.03 " fill="none" id="ModeController-KeyCode-2" style="stroke: #A80036; stroke-width: 1.0;"/><polygon fill="#A80036" points="321.74,160.77,316.7652,152.2699,317.6795,157.8524,312.097,158.7667,321.74,160.77" style="stroke: #A80036; stroke-width: 1.0;"/><line style="stroke: #A80036; stroke-width: 1.0;" x1="317.6795" x2="311.185" y1="157.8524" y2="153.175"/><polygon fill="#FFFFFF" points="270.71,135.39,275.3728,140.8908,282.2438,138.7023,277.581,133.2016,270.71,135.39" style="stroke: #A80036; stroke-width: 1.0;"/><text fill="#000000" font-family="sans-serif" font-size="13" lengthAdjust="spacingAndGlyphs" textLength="122" x="330.2054" y="150.1189">DRONE_MODE_KEY</text><!--MD5=[ae1b64c1d8b383fadb55bc4894cd7325]
@startuml
class ModeController {
    + playerHalfHeight : float = 50
    + droneStartHeightOffset : float = 400
    + Start() : void
    Update() : void
    FixedUpdate() : void
    UpdateStateModeFarlocco() : void
    + UpdateStateMode() : void
}
MonoBehaviour <|- - ModeController
ModeController - -> "WalkingModeObj" GameObject
ModeController - -> "FlightModeObj" GameObject
ModeController - -> "DroneModeObj" GameObject
ModeController - -> "MapCameraObj" GameObject
ModeController o-> "WALKING_MODE_KEY" KeyCode
ModeController o-> "FLIGHT_MODE_KEY" KeyCode
ModeController o-> "DRONE_MODE_KEY" KeyCode
@enduml

PlantUML version 1.2020.02(Sun Mar 01 10:22:07 GMT 2020)
(GPL source distribution)
Java Runtime: OpenJDK Runtime Environment
JVM: OpenJDK 64-Bit Server VM
Java Version: 11.0.9+11-Ubuntu-0ubuntu1
Operating System: Linux
Default Encoding: ANSI_X3.4-1968
Language: en
Country: US
--></g></svg>