<?xml version="1.0" encoding="UTF-8" standalone="no"?><svg xmlns="http://www.w3.org/2000/svg" xmlns:xlink="http://www.w3.org/1999/xlink" contentScriptType="application/ecmascript" contentStyleType="text/css" height="309px" preserveAspectRatio="none" style="width:263px;height:309px;" version="1.1" viewBox="0 0 263 309" width="263px" zoomAndPan="magnify"><defs><filter height="300%" id="f1aa7w6gkcix2u" width="300%" x="-1" y="-1"><feGaussianBlur result="blurOut" stdDeviation="2.0"/><feColorMatrix in="blurOut" result="blurOut2" type="matrix" values="0 0 0 0 0 0 0 0 0 0 0 0 0 0 0 0 0 0 .4 0"/><feOffset dx="4.0" dy="4.0" in="blurOut2" result="blurOut3"/><feBlend in="SourceGraphic" in2="blurOut3" mode="normal"/></filter></defs><g><!--MD5=[a1fcf48840517052abab4e98d9838e3b]
class MovementOculusTouchRegulator--><rect fill="#FEFECE" filter="url(#f1aa7w6gkcix2u)" height="73.6094" id="MovementOculusTouchRegulator" style="stroke: #A80036; stroke-width: 1.5;" width="237" x="15.5" y="116"/><ellipse cx="30.5" cy="132" fill="#ADD1B2" rx="11" ry="11" style="stroke: #A80036; stroke-width: 1.0;"/><path d="M33.4688,137.6406 Q32.8906,137.9375 32.25,138.0781 Q31.6094,138.2344 30.9063,138.2344 Q28.4063,138.2344 27.0781,136.5938 Q25.7656,134.9375 25.7656,131.8125 Q25.7656,128.6875 27.0781,127.0313 Q28.4063,125.375 30.9063,125.375 Q31.6094,125.375 32.25,125.5313 Q32.9063,125.6875 33.4688,125.9844 L33.4688,128.7031 Q32.8438,128.125 32.25,127.8594 Q31.6563,127.5781 31.0313,127.5781 Q29.6875,127.5781 29,128.6563 Q28.3125,129.7188 28.3125,131.8125 Q28.3125,133.9063 29,134.9844 Q29.6875,136.0469 31.0313,136.0469 Q31.6563,136.0469 32.25,135.7813 Q32.8438,135.5 33.4688,134.9219 L33.4688,137.6406 Z "/><text fill="#000000" font-family="sans-serif" font-size="12" lengthAdjust="spacingAndGlyphs" textLength="205" x="44.5" y="136.1543">MovementOculusTouchRegulator</text><line style="stroke: #A80036; stroke-width: 1.5;" x1="16.5" x2="251.5" y1="148" y2="148"/><line style="stroke: #A80036; stroke-width: 1.5;" x1="16.5" x2="251.5" y1="156" y2="156"/><text fill="#000000" font-family="sans-serif" font-size="11" lengthAdjust="spacingAndGlyphs" textLength="71" x="21.5" y="170.2104">Start() : void</text><text fill="#000000" font-family="sans-serif" font-size="11" lengthAdjust="spacingAndGlyphs" textLength="83" x="21.5" y="183.0151">Update() : void</text><!--MD5=[83b3cf3d23d77c6f1e1b5291a241bc2a]
class MonoBehaviour--><rect fill="#FEFECE" filter="url(#f1aa7w6gkcix2u)" height="48" id="MonoBehaviour" style="stroke: #A80036; stroke-width: 1.5;" width="128" x="70" y="8"/><ellipse cx="85" cy="24" fill="#ADD1B2" rx="11" ry="11" style="stroke: #A80036; stroke-width: 1.0;"/><path d="M87.9688,29.6406 Q87.3906,29.9375 86.75,30.0781 Q86.1094,30.2344 85.4063,30.2344 Q82.9063,30.2344 81.5781,28.5938 Q80.2656,26.9375 80.2656,23.8125 Q80.2656,20.6875 81.5781,19.0313 Q82.9063,17.375 85.4063,17.375 Q86.1094,17.375 86.75,17.5313 Q87.4063,17.6875 87.9688,17.9844 L87.9688,20.7031 Q87.3438,20.125 86.75,19.8594 Q86.1563,19.5781 85.5313,19.5781 Q84.1875,19.5781 83.5,20.6563 Q82.8125,21.7188 82.8125,23.8125 Q82.8125,25.9063 83.5,26.9844 Q84.1875,28.0469 85.5313,28.0469 Q86.1563,28.0469 86.75,27.7813 Q87.3438,27.5 87.9688,26.9219 L87.9688,29.6406 Z "/><text fill="#000000" font-family="sans-serif" font-size="12" lengthAdjust="spacingAndGlyphs" textLength="96" x="99" y="28.1543">MonoBehaviour</text><line style="stroke: #A80036; stroke-width: 1.5;" x1="71" x2="197" y1="40" y2="40"/><line style="stroke: #A80036; stroke-width: 1.5;" x1="71" x2="197" y1="48" y2="48"/><!--MD5=[064f7a74fee85463ec1a30143664ee17]
class GameObject--><rect fill="#FEFECE" filter="url(#f1aa7w6gkcix2u)" height="48" id="GameObject" style="stroke: #A80036; stroke-width: 1.5;" width="108" x="80" y="250"/><ellipse cx="95" cy="266" fill="#ADD1B2" rx="11" ry="11" style="stroke: #A80036; stroke-width: 1.0;"/><path d="M97.9688,271.6406 Q97.3906,271.9375 96.75,272.0781 Q96.1094,272.2344 95.4063,272.2344 Q92.9063,272.2344 91.5781,270.5938 Q90.2656,268.9375 90.2656,265.8125 Q90.2656,262.6875 91.5781,261.0313 Q92.9063,259.375 95.4063,259.375 Q96.1094,259.375 96.75,259.5313 Q97.4063,259.6875 97.9688,259.9844 L97.9688,262.7031 Q97.3438,262.125 96.75,261.8594 Q96.1563,261.5781 95.5313,261.5781 Q94.1875,261.5781 93.5,262.6563 Q92.8125,263.7188 92.8125,265.8125 Q92.8125,267.9063 93.5,268.9844 Q94.1875,270.0469 95.5313,270.0469 Q96.1563,270.0469 96.75,269.7813 Q97.3438,269.5 97.9688,268.9219 L97.9688,271.6406 Z "/><text fill="#000000" font-family="sans-serif" font-size="12" lengthAdjust="spacingAndGlyphs" textLength="76" x="109" y="270.1543">GameObject</text><line style="stroke: #A80036; stroke-width: 1.5;" x1="81" x2="187" y1="282" y2="282"/><line style="stroke: #A80036; stroke-width: 1.5;" x1="81" x2="187" y1="290" y2="290"/><!--MD5=[b4e4c8645a02671f4579f749c4d5642b]
reverse link MonoBehaviour to MovementOculusTouchRegulator--><path d="M134,76.43 C134,89.33 134,103.32 134,115.71 " fill="none" id="MonoBehaviour&lt;-MovementOculusTouchRegulator" style="stroke: #A80036; stroke-width: 1.0;"/><polygon fill="none" points="127,76.23,134,56.23,141,76.23,127,76.23" style="stroke: #A80036; stroke-width: 1.0;"/><!--MD5=[99cc70a4bbec5a2eb115cfc6b7983838]
link MovementOculusTouchRegulator to GameObject--><path d="M134,190.03 C134,207.48 134,228.15 134,244.49 " fill="none" id="MovementOculusTouchRegulator-&gt;GameObject" style="stroke: #A80036; stroke-width: 1.0;"/><polygon fill="#A80036" points="134,249.85,138,240.85,134,244.85,130,240.85,134,249.85" style="stroke: #A80036; stroke-width: 1.0;"/><text fill="#000000" font-family="sans-serif" font-size="13" lengthAdjust="spacingAndGlyphs" textLength="113" x="6.5219" y="238.8236">RightOculusTouch</text><!--MD5=[2395000299e139980fce6db323cbef6f]
@startuml
class MovementOculusTouchRegulator {
    Start() : void
    Update() : void
}
MonoBehaviour <|- - MovementOculusTouchRegulator
MovementOculusTouchRegulator - -> "RightOculusTouch" GameObject
@enduml

PlantUML version 1.2020.02(Sun Mar 01 10:22:07 GMT 2020)
(GPL source distribution)
Java Runtime: OpenJDK Runtime Environment
JVM: OpenJDK 64-Bit Server VM
Java Version: 11.0.9+11-Ubuntu-0ubuntu1
Operating System: Linux
Default Encoding: ANSI_X3.4-1968
Language: en
Country: US
--></g></svg>