<?xml version="1.0" encoding="UTF-8" standalone="no"?><svg xmlns="http://www.w3.org/2000/svg" xmlns:xlink="http://www.w3.org/1999/xlink" contentScriptType="application/ecmascript" contentStyleType="text/css" height="382px" preserveAspectRatio="none" style="width:431px;height:382px;" version="1.1" viewBox="0 0 431 382" width="431px" zoomAndPan="magnify"><defs><filter height="300%" id="f130jf0wh7rq4j" width="300%" x="-1" y="-1"><feGaussianBlur result="blurOut" stdDeviation="2.0"/><feColorMatrix in="blurOut" result="blurOut2" type="matrix" values="0 0 0 0 0 0 0 0 0 0 0 0 0 0 0 0 0 0 .4 0"/><feOffset dx="4.0" dy="4.0" in="blurOut2" result="blurOut3"/><feBlend in="SourceGraphic" in2="blurOut3" mode="normal"/></filter></defs><g><!--MD5=[34c44120bd0ea43e50f3e13ec82d0bf7]
class MyOVRTrackedRemote--><rect fill="#FEFECE" filter="url(#f130jf0wh7rq4j)" height="124.8281" id="MyOVRTrackedRemote" style="stroke: #A80036; stroke-width: 1.5;" width="326" x="16.17" y="116"/><ellipse cx="105.42" cy="132" fill="#ADD1B2" rx="11" ry="11" style="stroke: #A80036; stroke-width: 1.0;"/><path d="M108.3888,137.6406 Q107.8106,137.9375 107.17,138.0781 Q106.5294,138.2344 105.8263,138.2344 Q103.3263,138.2344 101.9981,136.5938 Q100.6856,134.9375 100.6856,131.8125 Q100.6856,128.6875 101.9981,127.0313 Q103.3263,125.375 105.8263,125.375 Q106.5294,125.375 107.17,125.5313 Q107.8263,125.6875 108.3888,125.9844 L108.3888,128.7031 Q107.7638,128.125 107.17,127.8594 Q106.5763,127.5781 105.9513,127.5781 Q104.6075,127.5781 103.92,128.6563 Q103.2325,129.7188 103.2325,131.8125 Q103.2325,133.9063 103.92,134.9844 Q104.6075,136.0469 105.9513,136.0469 Q106.5763,136.0469 107.17,135.7813 Q107.7638,135.5 108.3888,134.9219 L108.3888,137.6406 Z "/><text fill="#000000" font-family="sans-serif" font-size="12" lengthAdjust="spacingAndGlyphs" textLength="139" x="125.92" y="136.1543">MyOVRTrackedRemote</text><line style="stroke: #A80036; stroke-width: 1.5;" x1="17.17" x2="341.17" y1="148" y2="148"/><ellipse cx="27.17" cy="159" fill="none" rx="3" ry="3" style="stroke: #038048; stroke-width: 1.0;"/><text fill="#000000" font-family="sans-serif" font-size="11" lengthAdjust="spacingAndGlyphs" textLength="92" x="36.17" y="162.2104">RayOffset : float</text><line style="stroke: #A80036; stroke-width: 1.5;" x1="17.17" x2="341.17" y1="168.8047" y2="168.8047"/><text fill="#000000" font-family="sans-serif" font-size="11" lengthAdjust="spacingAndGlyphs" textLength="97" x="36.17" y="183.0151">OnEnable() : void</text><text fill="#000000" font-family="sans-serif" font-size="11" lengthAdjust="spacingAndGlyphs" textLength="112" x="36.17" y="195.8198">FixedUpdate() : void</text><text fill="#000000" font-family="sans-serif" font-size="11" lengthAdjust="spacingAndGlyphs" textLength="83" x="36.17" y="208.6245">Update() : void</text><ellipse cx="27.17" cy="218.2188" fill="#84BE84" rx="3" ry="3" style="stroke: #038048; stroke-width: 1.0;"/><text fill="#000000" font-family="sans-serif" font-size="11" lengthAdjust="spacingAndGlyphs" textLength="300" x="36.17" y="221.4292">Initialize(y:float, z:float, optionalYRotation:float) : void</text><text fill="#000000" font-family="sans-serif" font-size="11" lengthAdjust="spacingAndGlyphs" textLength="116" x="36.17" y="234.2339">ChangeState() : void</text><!--MD5=[83b3cf3d23d77c6f1e1b5291a241bc2a]
class MonoBehaviour--><rect fill="#FEFECE" filter="url(#f130jf0wh7rq4j)" height="48" id="MonoBehaviour" style="stroke: #A80036; stroke-width: 1.5;" width="128" x="115.17" y="8"/><ellipse cx="130.17" cy="24" fill="#ADD1B2" rx="11" ry="11" style="stroke: #A80036; stroke-width: 1.0;"/><path d="M133.1388,29.6406 Q132.5606,29.9375 131.92,30.0781 Q131.2794,30.2344 130.5763,30.2344 Q128.0763,30.2344 126.7481,28.5938 Q125.4356,26.9375 125.4356,23.8125 Q125.4356,20.6875 126.7481,19.0313 Q128.0763,17.375 130.5763,17.375 Q131.2794,17.375 131.92,17.5313 Q132.5763,17.6875 133.1388,17.9844 L133.1388,20.7031 Q132.5138,20.125 131.92,19.8594 Q131.3263,19.5781 130.7013,19.5781 Q129.3575,19.5781 128.67,20.6563 Q127.9825,21.7188 127.9825,23.8125 Q127.9825,25.9063 128.67,26.9844 Q129.3575,28.0469 130.7013,28.0469 Q131.3263,28.0469 131.92,27.7813 Q132.5138,27.5 133.1388,26.9219 L133.1388,29.6406 Z "/><text fill="#000000" font-family="sans-serif" font-size="12" lengthAdjust="spacingAndGlyphs" textLength="96" x="144.17" y="28.1543">MonoBehaviour</text><line style="stroke: #A80036; stroke-width: 1.5;" x1="116.17" x2="242.17" y1="40" y2="40"/><line style="stroke: #A80036; stroke-width: 1.5;" x1="116.17" x2="242.17" y1="48" y2="48"/><!--MD5=[064f7a74fee85463ec1a30143664ee17]
class GameObject--><rect fill="#FEFECE" filter="url(#f130jf0wh7rq4j)" height="48" id="GameObject" style="stroke: #A80036; stroke-width: 1.5;" width="108" x="125.17" y="301"/><ellipse cx="140.17" cy="317" fill="#ADD1B2" rx="11" ry="11" style="stroke: #A80036; stroke-width: 1.0;"/><path d="M143.1388,322.6406 Q142.5606,322.9375 141.92,323.0781 Q141.2794,323.2344 140.5763,323.2344 Q138.0763,323.2344 136.7481,321.5938 Q135.4356,319.9375 135.4356,316.8125 Q135.4356,313.6875 136.7481,312.0313 Q138.0763,310.375 140.5763,310.375 Q141.2794,310.375 141.92,310.5313 Q142.5763,310.6875 143.1388,310.9844 L143.1388,313.7031 Q142.5138,313.125 141.92,312.8594 Q141.3263,312.5781 140.7013,312.5781 Q139.3575,312.5781 138.67,313.6563 Q137.9825,314.7188 137.9825,316.8125 Q137.9825,318.9063 138.67,319.9844 Q139.3575,321.0469 140.7013,321.0469 Q141.3263,321.0469 141.92,320.7813 Q142.5138,320.5 143.1388,319.9219 L143.1388,322.6406 Z "/><text fill="#000000" font-family="sans-serif" font-size="12" lengthAdjust="spacingAndGlyphs" textLength="76" x="154.17" y="321.1543">GameObject</text><line style="stroke: #A80036; stroke-width: 1.5;" x1="126.17" x2="232.17" y1="333" y2="333"/><line style="stroke: #A80036; stroke-width: 1.5;" x1="126.17" x2="232.17" y1="341" y2="341"/><!--MD5=[65d619c042c23702cef2ca07d67b1cf6]
class Vector3--><rect fill="#FEFECE" filter="url(#f130jf0wh7rq4j)" height="48" id="Vector3" style="stroke: #A80036; stroke-width: 1.5;" width="81" x="268.67" y="301"/><ellipse cx="283.67" cy="317" fill="#ADD1B2" rx="11" ry="11" style="stroke: #A80036; stroke-width: 1.0;"/><path d="M286.6388,322.6406 Q286.0606,322.9375 285.42,323.0781 Q284.7794,323.2344 284.0763,323.2344 Q281.5763,323.2344 280.2481,321.5938 Q278.9356,319.9375 278.9356,316.8125 Q278.9356,313.6875 280.2481,312.0313 Q281.5763,310.375 284.0763,310.375 Q284.7794,310.375 285.42,310.5313 Q286.0763,310.6875 286.6388,310.9844 L286.6388,313.7031 Q286.0138,313.125 285.42,312.8594 Q284.8263,312.5781 284.2013,312.5781 Q282.8575,312.5781 282.17,313.6563 Q281.4825,314.7188 281.4825,316.8125 Q281.4825,318.9063 282.17,319.9844 Q282.8575,321.0469 284.2013,321.0469 Q284.8263,321.0469 285.42,320.7813 Q286.0138,320.5 286.6388,319.9219 L286.6388,322.6406 Z "/><text fill="#000000" font-family="sans-serif" font-size="12" lengthAdjust="spacingAndGlyphs" textLength="49" x="297.67" y="321.1543">Vector3</text><line style="stroke: #A80036; stroke-width: 1.5;" x1="269.67" x2="348.67" y1="333" y2="333"/><line style="stroke: #A80036; stroke-width: 1.5;" x1="269.67" x2="348.67" y1="341" y2="341"/><!--MD5=[7eb884d05a91f4cbe59d3a90266ee4ff]
reverse link MonoBehaviour to MyOVRTrackedRemote--><path d="M179.17,76.67 C179.17,89.05 179.17,102.77 179.17,115.99 " fill="none" id="MonoBehaviour&lt;-MyOVRTrackedRemote" style="stroke: #A80036; stroke-width: 1.0;"/><polygon fill="none" points="172.17,76.22,179.17,56.22,186.17,76.22,172.17,76.22" style="stroke: #A80036; stroke-width: 1.0;"/><!--MD5=[aec3c1e2224a2845261015eb58d38522]
link MyOVRTrackedRemote to GameObject--><path d="M23.17,241.2 C14.08,272.92 46.26,307.42 119.71,319.51 " fill="none" id="MyOVRTrackedRemote-&gt;GameObject" style="stroke: #A80036; stroke-width: 1.0;"/><polygon fill="#A80036" points="125.07,320.35,116.7794,315.0334,120.1276,319.5929,115.5681,322.9412,125.07,320.35" style="stroke: #A80036; stroke-width: 1.0;"/><text fill="#000000" font-family="sans-serif" font-size="13" lengthAdjust="spacingAndGlyphs" textLength="39" x="78.02" y="332.7359">target</text><!--MD5=[aec3c1e2224a2845261015eb58d38522]
link MyOVRTrackedRemote to GameObject--><path d="M49.17,241.2 C42.01,271.21 65.61,303.7 119.99,317.36 " fill="none" id="MyOVRTrackedRemote-&gt;GameObject-1" style="stroke: #A80036; stroke-width: 1.0;"/><polygon fill="#A80036" points="125,318.54,117.1554,312.585,120.1329,317.3948,115.3231,320.3723,125,318.54" style="stroke: #A80036; stroke-width: 1.0;"/><text fill="#000000" font-family="sans-serif" font-size="13" lengthAdjust="spacingAndGlyphs" textLength="104" x="13.2031" y="314.5866">WalkingModeObj</text><!--MD5=[aec3c1e2224a2845261015eb58d38522]
link MyOVRTrackedRemote to GameObject--><path d="M75.17,241.2 C69.98,268.36 84.96,297.56 120.11,312.98 " fill="none" id="MyOVRTrackedRemote-&gt;GameObject-2" style="stroke: #A80036; stroke-width: 1.0;"/><polygon fill="#A80036" points="124.97,314.98,118.1632,307.8619,120.3445,313.0813,115.1252,315.2627,124.97,314.98" style="stroke: #A80036; stroke-width: 1.0;"/><text fill="#000000" font-family="sans-serif" font-size="13" lengthAdjust="spacingAndGlyphs" textLength="90" x="27.065" y="326.8514">FlightModeObj</text><!--MD5=[aec3c1e2224a2845261015eb58d38522]
link MyOVRTrackedRemote to GameObject--><path d="M101.17,241.2 C98.04,263.02 104.68,286.16 121.08,302.41 " fill="none" id="MyOVRTrackedRemote-&gt;GameObject-3" style="stroke: #A80036; stroke-width: 1.0;"/><polygon fill="#A80036" points="124.97,305.97,121.0655,296.9282,121.2943,302.5804,115.6421,302.8092,124.97,305.97" style="stroke: #A80036; stroke-width: 1.0;"/><text fill="#000000" font-family="sans-serif" font-size="13" lengthAdjust="spacingAndGlyphs" textLength="95" x="22.1836" y="301.0108">DroneModeObj</text><!--MD5=[aec3c1e2224a2845261015eb58d38522]
link MyOVRTrackedRemote to GameObject--><path d="M127.17,241.2 C125.34,260.39 128.54,280.59 136.77,296.23 " fill="none" id="MyOVRTrackedRemote-&gt;GameObject-4" style="stroke: #A80036; stroke-width: 1.0;"/><polygon fill="#A80036" points="139.48,300.94,138.4426,291.1459,136.9793,296.6103,131.515,295.147,139.48,300.94" style="stroke: #A80036; stroke-width: 1.0;"/><text fill="#000000" font-family="sans-serif" font-size="13" lengthAdjust="spacingAndGlyphs" textLength="90" x="140.8407" y="289.9367">targetCamera</text><!--MD5=[aec3c1e2224a2845261015eb58d38522]
link MyOVRTrackedRemote to GameObject--><path d="M153.17,241.2 C152.26,260.22 153.83,280.24 157.86,295.83 " fill="none" id="MyOVRTrackedRemote-&gt;GameObject-5" style="stroke: #A80036; stroke-width: 1.0;"/><polygon fill="#A80036" points="159.33,300.94,160.7036,291.1874,157.9564,296.1324,153.0114,293.3852,159.33,300.94" style="stroke: #A80036; stroke-width: 1.0;"/><text fill="#000000" font-family="sans-serif" font-size="13" lengthAdjust="spacingAndGlyphs" textLength="155" x="174.0154" y="289.8748">WalkingModeObjCamera</text><!--MD5=[aec3c1e2224a2845261015eb58d38522]
link MyOVRTrackedRemote to GameObject--><path d="M179.17,241.2 C179.17,260.22 179.17,280.24 179.17,295.83 " fill="none" id="MyOVRTrackedRemote-&gt;GameObject-6" style="stroke: #A80036; stroke-width: 1.0;"/><polygon fill="#A80036" points="179.17,300.94,183.17,291.94,179.17,295.94,175.17,291.94,179.17,300.94" style="stroke: #A80036; stroke-width: 1.0;"/><text fill="#000000" font-family="sans-serif" font-size="13" lengthAdjust="spacingAndGlyphs" textLength="141" x="241.4727" y="289.8772">FlightModeObjCamera</text><!--MD5=[aec3c1e2224a2845261015eb58d38522]
link MyOVRTrackedRemote to GameObject--><path d="M205.17,241.2 C206.08,260.22 204.51,280.24 200.48,295.83 " fill="none" id="MyOVRTrackedRemote-&gt;GameObject-7" style="stroke: #A80036; stroke-width: 1.0;"/><polygon fill="#A80036" points="199.01,300.94,205.3286,293.3852,200.3836,296.1324,197.6364,291.1874,199.01,300.94" style="stroke: #A80036; stroke-width: 1.0;"/><text fill="#000000" font-family="sans-serif" font-size="13" lengthAdjust="spacingAndGlyphs" textLength="146" x="222.7794" y="289.8748">DroneModeObjCamera</text><!--MD5=[aec3c1e2224a2845261015eb58d38522]
link MyOVRTrackedRemote to GameObject--><path d="M231.17,241.2 C233,260.39 229.8,280.59 221.57,296.23 " fill="none" id="MyOVRTrackedRemote-&gt;GameObject-8" style="stroke: #A80036; stroke-width: 1.0;"/><polygon fill="#A80036" points="218.86,300.94,226.825,295.147,221.3607,296.6103,219.8974,291.1459,218.86,300.94" style="stroke: #A80036; stroke-width: 1.0;"/><text fill="#000000" font-family="sans-serif" font-size="13" lengthAdjust="spacingAndGlyphs" textLength="45" x="197.4962" y="290.3282">Anchor</text><!--MD5=[aec3c1e2224a2845261015eb58d38522]
link MyOVRTrackedRemote to GameObject--><path d="M257.17,241.2 C260.3,263.02 253.66,286.16 237.26,302.41 " fill="none" id="MyOVRTrackedRemote-&gt;GameObject-9" style="stroke: #A80036; stroke-width: 1.0;"/><polygon fill="#A80036" points="233.37,305.97,242.6979,302.8092,237.0457,302.5804,237.2745,296.9282,233.37,305.97" style="stroke: #A80036; stroke-width: 1.0;"/><text fill="#000000" font-family="sans-serif" font-size="13" lengthAdjust="spacingAndGlyphs" textLength="128" x="232.6301" y="289.7406">WalkingModeAnchor</text><!--MD5=[aec3c1e2224a2845261015eb58d38522]
link MyOVRTrackedRemote to GameObject--><path d="M283.17,241.2 C288.36,268.36 273.38,297.56 238.23,312.98 " fill="none" id="MyOVRTrackedRemote-&gt;GameObject-10" style="stroke: #A80036; stroke-width: 1.0;"/><polygon fill="#A80036" points="233.37,314.98,243.2148,315.2627,237.9955,313.0813,240.1768,307.8619,233.37,314.98" style="stroke: #A80036; stroke-width: 1.0;"/><text fill="#000000" font-family="sans-serif" font-size="13" lengthAdjust="spacingAndGlyphs" textLength="114" x="160.096" y="288.9426">FlightModeAnchor</text><!--MD5=[aec3c1e2224a2845261015eb58d38522]
link MyOVRTrackedRemote to GameObject--><path d="M309.17,241.2 C316.33,271.21 292.73,303.7 238.35,317.36 " fill="none" id="MyOVRTrackedRemote-&gt;GameObject-11" style="stroke: #A80036; stroke-width: 1.0;"/><polygon fill="#A80036" points="233.34,318.54,243.0169,320.3723,238.2071,317.3948,241.1846,312.585,233.34,318.54" style="stroke: #A80036; stroke-width: 1.0;"/><text fill="#000000" font-family="sans-serif" font-size="13" lengthAdjust="spacingAndGlyphs" textLength="119" x="174.1734" y="369.0766">DroneModeAnchor</text><!--MD5=[aec3c1e2224a2845261015eb58d38522]
link MyOVRTrackedRemote to GameObject--><path d="M335.17,241.2 C344.26,272.92 312.08,307.42 238.63,319.51 " fill="none" id="MyOVRTrackedRemote-&gt;GameObject-12" style="stroke: #A80036; stroke-width: 1.0;"/><polygon fill="#A80036" points="233.27,320.35,242.7719,322.9412,238.2124,319.5929,241.5606,315.0334,233.27,320.35" style="stroke: #A80036; stroke-width: 1.0;"/><text fill="#000000" font-family="sans-serif" font-size="13" lengthAdjust="spacingAndGlyphs" textLength="45" x="215.5753" y="334.5273">pointer</text><!--MD5=[369b127516d3be00fad7cc89674a6318]
link MyOVRTrackedRemote to Vector3--><path d="M234.68,241.2 C252.24,260.72 270.74,281.28 284.91,297.04 " fill="none" id="MyOVRTrackedRemote-&gt;Vector3" style="stroke: #A80036; stroke-width: 1.0;"/><polygon fill="#A80036" points="288.42,300.94,285.3725,291.5745,285.0752,297.2235,279.4261,296.9262,288.42,300.94" style="stroke: #A80036; stroke-width: 1.0;"/><text fill="#000000" font-family="sans-serif" font-size="13" lengthAdjust="spacingAndGlyphs" textLength="121" x="298.6059" y="289.9367">startOffsetRotation</text><!--MD5=[2d7edcf61cfbea722be6cd0163a86989]
@startuml
class MyOVRTrackedRemote {
    + RayOffset : float
    OnEnable() : void
    FixedUpdate() : void
    Update() : void
    + Initialize(y:float, z:float, optionalYRotation:float) : void
    ChangeState() : void
}
MonoBehaviour <|- - MyOVRTrackedRemote
MyOVRTrackedRemote - -> "target" GameObject
MyOVRTrackedRemote - -> "WalkingModeObj" GameObject
MyOVRTrackedRemote - -> "FlightModeObj" GameObject
MyOVRTrackedRemote - -> "DroneModeObj" GameObject
MyOVRTrackedRemote - -> "targetCamera" GameObject
MyOVRTrackedRemote - -> "WalkingModeObjCamera" GameObject
MyOVRTrackedRemote - -> "FlightModeObjCamera" GameObject
MyOVRTrackedRemote - -> "DroneModeObjCamera" GameObject
MyOVRTrackedRemote - -> "Anchor" GameObject
MyOVRTrackedRemote - -> "WalkingModeAnchor" GameObject
MyOVRTrackedRemote - -> "FlightModeAnchor" GameObject
MyOVRTrackedRemote - -> "DroneModeAnchor" GameObject
MyOVRTrackedRemote - -> "startOffsetRotation" Vector3
MyOVRTrackedRemote - -> "pointer" GameObject
@enduml

PlantUML version 1.2020.02(Sun Mar 01 10:22:07 GMT 2020)
(GPL source distribution)
Java Runtime: OpenJDK Runtime Environment
JVM: OpenJDK 64-Bit Server VM
Java Version: 11.0.9+11-Ubuntu-0ubuntu1
Operating System: Linux
Default Encoding: ANSI_X3.4-1968
Language: en
Country: US
--></g></svg>