<?xml version="1.0" encoding="UTF-8" standalone="no"?><svg xmlns="http://www.w3.org/2000/svg" xmlns:xlink="http://www.w3.org/1999/xlink" contentScriptType="application/ecmascript" contentStyleType="text/css" height="693px" preserveAspectRatio="none" style="width:380px;height:693px;" version="1.1" viewBox="0 0 380 693" width="380px" zoomAndPan="magnify"><defs><filter height="300%" id="fnu1ku156pvog" width="300%" x="-1" y="-1"><feGaussianBlur result="blurOut" stdDeviation="2.0"/><feColorMatrix in="blurOut" result="blurOut2" type="matrix" values="0 0 0 0 0 0 0 0 0 0 0 0 0 0 0 0 0 0 .4 0"/><feOffset dx="4.0" dy="4.0" in="blurOut2" result="blurOut3"/><feBlend in="SourceGraphic" in2="blurOut3" mode="normal"/></filter></defs><g><!--MD5=[e25090902d5433cba2a574e8ebc4ef45]
class PauseAndGUIBehaviour--><rect fill="#FEFECE" filter="url(#fnu1ku156pvog)" height="457.75" id="PauseAndGUIBehaviour" style="stroke: #A80036; stroke-width: 1.5;" width="340" x="6" y="116"/><ellipse cx="98.75" cy="132" fill="#ADD1B2" rx="11" ry="11" style="stroke: #A80036; stroke-width: 1.0;"/><path d="M101.7188,137.6406 Q101.1406,137.9375 100.5,138.0781 Q99.8594,138.2344 99.1563,138.2344 Q96.6563,138.2344 95.3281,136.5938 Q94.0156,134.9375 94.0156,131.8125 Q94.0156,128.6875 95.3281,127.0313 Q96.6563,125.375 99.1563,125.375 Q99.8594,125.375 100.5,125.5313 Q101.1563,125.6875 101.7188,125.9844 L101.7188,128.7031 Q101.0938,128.125 100.5,127.8594 Q99.9063,127.5781 99.2813,127.5781 Q97.9375,127.5781 97.25,128.6563 Q96.5625,129.7188 96.5625,131.8125 Q96.5625,133.9063 97.25,134.9844 Q97.9375,136.0469 99.2813,136.0469 Q99.9063,136.0469 100.5,135.7813 Q101.0938,135.5 101.7188,134.9219 L101.7188,137.6406 Z "/><text fill="#000000" font-family="sans-serif" font-size="12" lengthAdjust="spacingAndGlyphs" textLength="146" x="119.25" y="136.1543">PauseAndGUIBehaviour</text><line style="stroke: #A80036; stroke-width: 1.5;" x1="7" x2="345" y1="148" y2="148"/><ellipse cx="17" cy="159" fill="none" rx="3" ry="3" style="stroke: #038048; stroke-width: 1.0;"/><text fill="#000000" font-family="sans-serif" font-size="11" lengthAdjust="spacingAndGlyphs" textLength="206" x="26" y="162.2104">isBTCoroutineRunning : bool = false</text><ellipse cx="17" cy="171.8047" fill="none" rx="3" ry="3" style="stroke: #038048; stroke-width: 1.0;"/><text fill="#000000" font-family="sans-serif" font-size="11" lengthAdjust="spacingAndGlyphs" text-decoration="underline" textLength="126" x="26" y="175.0151">isPause : bool = false</text><ellipse cx="17" cy="184.6094" fill="none" rx="3" ry="3" style="stroke: #038048; stroke-width: 1.0;"/><text fill="#000000" font-family="sans-serif" font-size="11" lengthAdjust="spacingAndGlyphs" text-decoration="underline" textLength="168" x="26" y="187.8198">isSettingsMenu : bool = false</text><ellipse cx="17" cy="197.4141" fill="none" rx="3" ry="3" style="stroke: #038048; stroke-width: 1.0;"/><text fill="#000000" font-family="sans-serif" font-size="11" lengthAdjust="spacingAndGlyphs" text-decoration="underline" textLength="151" x="26" y="200.6245">isModeMenu : bool = false</text><ellipse cx="17" cy="210.2188" fill="none" rx="3" ry="3" style="stroke: #038048; stroke-width: 1.0;"/><text fill="#000000" font-family="sans-serif" font-size="11" lengthAdjust="spacingAndGlyphs" text-decoration="underline" textLength="145" x="26" y="213.4292">isToolMenu : bool = false</text><ellipse cx="17" cy="223.0234" fill="none" rx="3" ry="3" style="stroke: #038048; stroke-width: 1.0;"/><text fill="#000000" font-family="sans-serif" font-size="11" lengthAdjust="spacingAndGlyphs" text-decoration="underline" textLength="153" x="26" y="226.2339">isCoordinate : bool = false</text><ellipse cx="17" cy="235.8281" fill="none" rx="3" ry="3" style="stroke: #038048; stroke-width: 1.0;"/><text fill="#000000" font-family="sans-serif" font-size="11" lengthAdjust="spacingAndGlyphs" text-decoration="underline" textLength="150" x="26" y="239.0386">isPlacemark : bool = false</text><ellipse cx="17" cy="248.6328" fill="none" rx="3" ry="3" style="stroke: #038048; stroke-width: 1.0;"/><text fill="#000000" font-family="sans-serif" font-size="11" lengthAdjust="spacingAndGlyphs" text-decoration="underline" textLength="196" x="26" y="251.8433">isTopographicGraph : bool = false</text><ellipse cx="17" cy="261.4375" fill="none" rx="3" ry="3" style="stroke: #038048; stroke-width: 1.0;"/><text fill="#000000" font-family="sans-serif" font-size="11" lengthAdjust="spacingAndGlyphs" text-decoration="underline" textLength="122" x="26" y="264.6479">isGPS2 : bool = false</text><ellipse cx="17" cy="274.2422" fill="none" rx="3" ry="3" style="stroke: #038048; stroke-width: 1.0;"/><text fill="#000000" font-family="sans-serif" font-size="11" lengthAdjust="spacingAndGlyphs" text-decoration="underline" textLength="174" x="26" y="277.4526">isGpsInfoOnMap : bool = false</text><ellipse cx="17" cy="287.0469" fill="none" rx="3" ry="3" style="stroke: #038048; stroke-width: 1.0;"/><text fill="#000000" font-family="sans-serif" font-size="11" lengthAdjust="spacingAndGlyphs" text-decoration="underline" textLength="207" x="26" y="290.2573">isGuiCameraControlUI : bool = false</text><ellipse cx="17" cy="299.8516" fill="none" rx="3" ry="3" style="stroke: #038048; stroke-width: 1.0;"/><text fill="#000000" font-family="sans-serif" font-size="11" lengthAdjust="spacingAndGlyphs" textLength="137" x="26" y="303.062">isMePause : bool = true</text><ellipse cx="17" cy="312.6563" fill="none" rx="3" ry="3" style="stroke: #038048; stroke-width: 1.0;"/><text fill="#000000" font-family="sans-serif" font-size="11" lengthAdjust="spacingAndGlyphs" textLength="164" x="26" y="315.8667">isMeCoordinate : bool = true</text><ellipse cx="17" cy="325.4609" fill="none" rx="3" ry="3" style="stroke: #038048; stroke-width: 1.0;"/><text fill="#000000" font-family="sans-serif" font-size="11" lengthAdjust="spacingAndGlyphs" textLength="179" x="26" y="328.6714">isMeSettingsMenu : bool = true</text><ellipse cx="17" cy="338.2656" fill="none" rx="3" ry="3" style="stroke: #038048; stroke-width: 1.0;"/><text fill="#000000" font-family="sans-serif" font-size="11" lengthAdjust="spacingAndGlyphs" textLength="162" x="26" y="341.4761">isMeModeMenu : bool = true</text><ellipse cx="17" cy="351.0703" fill="none" rx="3" ry="3" style="stroke: #038048; stroke-width: 1.0;"/><text fill="#000000" font-family="sans-serif" font-size="11" lengthAdjust="spacingAndGlyphs" textLength="156" x="26" y="354.2808">isMeToolMenu : bool = true</text><ellipse cx="17" cy="363.875" fill="none" rx="3" ry="3" style="stroke: #038048; stroke-width: 1.0;"/><text fill="#000000" font-family="sans-serif" font-size="11" lengthAdjust="spacingAndGlyphs" textLength="161" x="26" y="367.0854">isMePlacemark : bool = true</text><ellipse cx="17" cy="376.6797" fill="none" rx="3" ry="3" style="stroke: #038048; stroke-width: 1.0;"/><text fill="#000000" font-family="sans-serif" font-size="11" lengthAdjust="spacingAndGlyphs" textLength="207" x="26" y="379.8901">isMeTopographicGraph : bool = true</text><ellipse cx="17" cy="389.4844" fill="none" rx="3" ry="3" style="stroke: #038048; stroke-width: 1.0;"/><text fill="#000000" font-family="sans-serif" font-size="11" lengthAdjust="spacingAndGlyphs" textLength="185" x="26" y="392.6948">isMeGpsInfoOnMap : bool = true</text><ellipse cx="17" cy="402.2891" fill="none" rx="3" ry="3" style="stroke: #038048; stroke-width: 1.0;"/><text fill="#000000" font-family="sans-serif" font-size="11" lengthAdjust="spacingAndGlyphs" text-decoration="underline" textLength="218" x="26" y="405.4995">isMeGuiCameraControlUI : bool = true</text><ellipse cx="17" cy="415.0938" fill="none" rx="3" ry="3" style="stroke: #038048; stroke-width: 1.0;"/><text fill="#000000" font-family="sans-serif" font-size="11" lengthAdjust="spacingAndGlyphs" text-decoration="underline" textLength="138" x="26" y="418.3042">isMeGPS2 : bool = false</text><ellipse cx="17" cy="427.8984" fill="none" rx="3" ry="3" style="stroke: #038048; stroke-width: 1.0;"/><text fill="#000000" font-family="sans-serif" font-size="11" lengthAdjust="spacingAndGlyphs" text-decoration="underline" textLength="111" x="26" y="431.1089">isScreenshot : bool</text><line style="stroke: #A80036; stroke-width: 1.5;" x1="7" x2="345" y1="437.7031" y2="437.7031"/><text fill="#000000" font-family="sans-serif" font-size="11" lengthAdjust="spacingAndGlyphs" textLength="71" x="26" y="451.9136">Start() : void</text><text fill="#000000" font-family="sans-serif" font-size="11" lengthAdjust="spacingAndGlyphs" textLength="83" x="26" y="464.7183">Update() : void</text><ellipse cx="17" cy="474.3125" fill="#84BE84" rx="3" ry="3" style="stroke: #038048; stroke-width: 1.0;"/><text fill="#000000" font-family="sans-serif" font-size="11" lengthAdjust="spacingAndGlyphs" textLength="217" x="26" y="477.5229">PauseforScreenshot(value:bool) : void</text><ellipse cx="17" cy="487.1172" fill="#84BE84" rx="3" ry="3" style="stroke: #038048; stroke-width: 1.0;"/><text fill="#000000" font-family="sans-serif" font-size="11" lengthAdjust="spacingAndGlyphs" textLength="136" x="26" y="490.3276">Pause(value:bool) : void</text><ellipse cx="17" cy="499.9219" fill="#84BE84" rx="3" ry="3" style="stroke: #038048; stroke-width: 1.0;"/><text fill="#000000" font-family="sans-serif" font-size="11" lengthAdjust="spacingAndGlyphs" textLength="178" x="26" y="503.1323">SettingsMenu(value:bool) : void</text><ellipse cx="17" cy="512.7266" fill="#84BE84" rx="3" ry="3" style="stroke: #038048; stroke-width: 1.0;"/><text fill="#000000" font-family="sans-serif" font-size="11" lengthAdjust="spacingAndGlyphs" textLength="161" x="26" y="515.937">ModeMenu(value:bool) : void</text><ellipse cx="17" cy="525.5313" fill="#84BE84" rx="3" ry="3" style="stroke: #038048; stroke-width: 1.0;"/><text fill="#000000" font-family="sans-serif" font-size="11" lengthAdjust="spacingAndGlyphs" textLength="247" x="26" y="528.7417">GuiCameraControlUIMenu(value:bool) : void</text><ellipse cx="17" cy="538.3359" fill="#84BE84" rx="3" ry="3" style="stroke: #038048; stroke-width: 1.0;"/><text fill="#000000" font-family="sans-serif" font-size="11" lengthAdjust="spacingAndGlyphs" textLength="155" x="26" y="541.5464">ToolMenu(value:bool) : void</text><ellipse cx="17" cy="551.1406" fill="#84BE84" rx="3" ry="3" style="stroke: #038048; stroke-width: 1.0;"/><text fill="#000000" font-family="sans-serif" font-size="11" lengthAdjust="spacingAndGlyphs" textLength="160" x="26" y="554.3511">Placemark(value:bool) : void</text><text fill="#000000" font-family="sans-serif" font-size="11" lengthAdjust="spacingAndGlyphs" textLength="314" x="26" y="567.1558">BlinkText(t:GameObject, keys:KeyCode[]) : IEnumerator</text><!--MD5=[83b3cf3d23d77c6f1e1b5291a241bc2a]
class MonoBehaviour--><rect fill="#FEFECE" filter="url(#fnu1ku156pvog)" height="48" id="MonoBehaviour" style="stroke: #A80036; stroke-width: 1.5;" width="128" x="112" y="8"/><ellipse cx="127" cy="24" fill="#ADD1B2" rx="11" ry="11" style="stroke: #A80036; stroke-width: 1.0;"/><path d="M129.9688,29.6406 Q129.3906,29.9375 128.75,30.0781 Q128.1094,30.2344 127.4063,30.2344 Q124.9063,30.2344 123.5781,28.5938 Q122.2656,26.9375 122.2656,23.8125 Q122.2656,20.6875 123.5781,19.0313 Q124.9063,17.375 127.4063,17.375 Q128.1094,17.375 128.75,17.5313 Q129.4063,17.6875 129.9688,17.9844 L129.9688,20.7031 Q129.3438,20.125 128.75,19.8594 Q128.1563,19.5781 127.5313,19.5781 Q126.1875,19.5781 125.5,20.6563 Q124.8125,21.7188 124.8125,23.8125 Q124.8125,25.9063 125.5,26.9844 Q126.1875,28.0469 127.5313,28.0469 Q128.1563,28.0469 128.75,27.7813 Q129.3438,27.5 129.9688,26.9219 L129.9688,29.6406 Z "/><text fill="#000000" font-family="sans-serif" font-size="12" lengthAdjust="spacingAndGlyphs" textLength="96" x="141" y="28.1543">MonoBehaviour</text><line style="stroke: #A80036; stroke-width: 1.5;" x1="113" x2="239" y1="40" y2="40"/><line style="stroke: #A80036; stroke-width: 1.5;" x1="113" x2="239" y1="48" y2="48"/><!--MD5=[064f7a74fee85463ec1a30143664ee17]
class GameObject--><rect fill="#FEFECE" filter="url(#fnu1ku156pvog)" height="48" id="GameObject" style="stroke: #A80036; stroke-width: 1.5;" width="108" x="122" y="634"/><ellipse cx="137" cy="650" fill="#ADD1B2" rx="11" ry="11" style="stroke: #A80036; stroke-width: 1.0;"/><path d="M139.9688,655.6406 Q139.3906,655.9375 138.75,656.0781 Q138.1094,656.2344 137.4063,656.2344 Q134.9063,656.2344 133.5781,654.5938 Q132.2656,652.9375 132.2656,649.8125 Q132.2656,646.6875 133.5781,645.0313 Q134.9063,643.375 137.4063,643.375 Q138.1094,643.375 138.75,643.5313 Q139.4063,643.6875 139.9688,643.9844 L139.9688,646.7031 Q139.3438,646.125 138.75,645.8594 Q138.1563,645.5781 137.5313,645.5781 Q136.1875,645.5781 135.5,646.6563 Q134.8125,647.7188 134.8125,649.8125 Q134.8125,651.9063 135.5,652.9844 Q136.1875,654.0469 137.5313,654.0469 Q138.1563,654.0469 138.75,653.7813 Q139.3438,653.5 139.9688,652.9219 L139.9688,655.6406 Z "/><text fill="#000000" font-family="sans-serif" font-size="12" lengthAdjust="spacingAndGlyphs" textLength="76" x="151" y="654.1543">GameObject</text><line style="stroke: #A80036; stroke-width: 1.5;" x1="123" x2="229" y1="666" y2="666"/><line style="stroke: #A80036; stroke-width: 1.5;" x1="123" x2="229" y1="674" y2="674"/><!--MD5=[05ab022ba81cfd378c60832d56ca25e8]
reverse link MonoBehaviour to PauseAndGUIBehaviour--><path d="M176,76.13 C176,87.79 176,101.27 176,115.84 " fill="none" id="MonoBehaviour&lt;-PauseAndGUIBehaviour" style="stroke: #A80036; stroke-width: 1.0;"/><polygon fill="none" points="169,76.12,176,56.12,183,76.12,169,76.12" style="stroke: #A80036; stroke-width: 1.0;"/><!--MD5=[15caa2c4184e55ecd4c43807a5d243f0]
link PauseAndGUIBehaviour to GameObject--><path d="M117.53,574.07 C121.9,595.8 128.39,615.09 136.99,629.59 " fill="none" id="PauseAndGUIBehaviour-&gt;GameObject" style="stroke: #A80036; stroke-width: 1.0;"/><polygon fill="#A80036" points="139.73,633.93,138.3048,624.1848,137.0595,629.7029,131.5414,628.4576,139.73,633.93" style="stroke: #A80036; stroke-width: 1.0;"/><text fill="#000000" font-family="sans-serif" font-size="13" lengthAdjust="spacingAndGlyphs" textLength="78" x="42.4421" y="622.9241">textToBlink1</text><!--MD5=[15caa2c4184e55ecd4c43807a5d243f0]
link PauseAndGUIBehaviour to GameObject--><path d="M141.05,574.07 C143.64,595.61 147.47,614.76 152.55,629.21 " fill="none" id="PauseAndGUIBehaviour-&gt;GameObject-1" style="stroke: #A80036; stroke-width: 1.0;"/><polygon fill="#A80036" points="154.32,633.93,154.9217,624.0995,152.5722,629.2454,147.4264,626.896,154.32,633.93" style="stroke: #A80036; stroke-width: 1.0;"/><text fill="#000000" font-family="sans-serif" font-size="13" lengthAdjust="spacingAndGlyphs" textLength="101" x="161.7051" y="622.9241">speedTextPanel</text><!--MD5=[15caa2c4184e55ecd4c43807a5d243f0]
link PauseAndGUIBehaviour to GameObject--><path d="M164.57,574.07 C165.41,595.42 166.65,614.43 168.29,628.84 " fill="none" id="PauseAndGUIBehaviour-&gt;GameObject-2" style="stroke: #A80036; stroke-width: 1.0;"/><polygon fill="#A80036" points="168.91,633.93,171.7996,624.5146,168.3092,628.9662,163.8575,625.4759,168.91,633.93" style="stroke: #A80036; stroke-width: 1.0;"/><text fill="#000000" font-family="sans-serif" font-size="13" lengthAdjust="spacingAndGlyphs" textLength="114" x="-1.1688" y="631.5562">GuiGpsInfoOnMap</text><!--MD5=[15caa2c4184e55ecd4c43807a5d243f0]
link PauseAndGUIBehaviour to GameObject--><path d="M188.1,574.07 C187.21,595.42 185.9,614.43 184.16,628.84 " fill="none" id="PauseAndGUIBehaviour-&gt;GameObject-3" style="stroke: #A80036; stroke-width: 1.0;"/><polygon fill="#A80036" points="183.5,633.93,188.6242,625.5192,184.143,628.9715,180.6907,624.4903,183.5,633.93" style="stroke: #A80036; stroke-width: 1.0;"/><text fill="#000000" font-family="sans-serif" font-size="13" lengthAdjust="spacingAndGlyphs" textLength="131" x="237.3375" y="633.8255">GuiCameraControlUI</text><!--MD5=[15caa2c4184e55ecd4c43807a5d243f0]
link PauseAndGUIBehaviour to GameObject--><path d="M211.62,574.07 C208.98,595.61 205.07,614.76 199.9,629.21 " fill="none" id="PauseAndGUIBehaviour-&gt;GameObject-4" style="stroke: #A80036; stroke-width: 1.0;"/><polygon fill="#A80036" points="198.1,633.93,205.0499,626.9515,199.8853,629.2596,197.5773,624.095,198.1,633.93" style="stroke: #A80036; stroke-width: 1.0;"/><text fill="#000000" font-family="sans-serif" font-size="13" lengthAdjust="spacingAndGlyphs" textLength="99" x="216.4475" y="622.9241">NotificationText</text><!--MD5=[15caa2c4184e55ecd4c43807a5d243f0]
link PauseAndGUIBehaviour to GameObject--><path d="M235.15,574.07 C230.72,595.8 224.16,615.09 215.46,629.59 " fill="none" id="PauseAndGUIBehaviour-&gt;GameObject-5" style="stroke: #A80036; stroke-width: 1.0;"/><polygon fill="#A80036" points="212.69,633.93,220.9001,628.4899,215.3772,629.7135,214.1536,624.1905,212.69,633.93" style="stroke: #A80036; stroke-width: 1.0;"/><text fill="#000000" font-family="sans-serif" font-size="13" lengthAdjust="spacingAndGlyphs" textLength="107" x="235.8012" y="622.9241">NotificationPanel</text><!--MD5=[f0480545b710a39311439463151006d1]
@startuml
class PauseAndGUIBehaviour {
    + isBTCoroutineRunning : bool = false
    + {static} isPause : bool = false
    + {static} isSettingsMenu : bool = false
    + {static} isModeMenu : bool = false
    + {static} isToolMenu : bool = false
    + {static} isCoordinate : bool = false
    + {static} isPlacemark : bool = false
    + {static} isTopographicGraph : bool = false
    + {static} isGPS2 : bool = false
    + {static} isGpsInfoOnMap : bool = false
    + {static} isGuiCameraControlUI : bool = false
    + isMePause : bool = true
    + isMeCoordinate : bool = true
    + isMeSettingsMenu : bool = true
    + isMeModeMenu : bool = true
    + isMeToolMenu : bool = true
    + isMePlacemark : bool = true
    + isMeTopographicGraph : bool = true
    + isMeGpsInfoOnMap : bool = true
    + {static} isMeGuiCameraControlUI : bool = true
    + {static} isMeGPS2 : bool = false
    + {static} isScreenshot : bool
    Start() : void
    Update() : void
    + PauseforScreenshot(value:bool) : void
    + Pause(value:bool) : void
    + SettingsMenu(value:bool) : void
    + ModeMenu(value:bool) : void
    + GuiCameraControlUIMenu(value:bool) : void
    + ToolMenu(value:bool) : void
    + Placemark(value:bool) : void
    BlinkText(t:GameObject, keys:KeyCode[]) : IEnumerator
}
MonoBehaviour <|- - PauseAndGUIBehaviour
PauseAndGUIBehaviour - -> "textToBlink1" GameObject
PauseAndGUIBehaviour - -> "speedTextPanel" GameObject
PauseAndGUIBehaviour - -> "GuiGpsInfoOnMap" GameObject
PauseAndGUIBehaviour - -> "GuiCameraControlUI" GameObject
PauseAndGUIBehaviour - -> "NotificationText" GameObject
PauseAndGUIBehaviour - -> "NotificationPanel" GameObject
@enduml

PlantUML version 1.2020.02(Sun Mar 01 10:22:07 GMT 2020)
(GPL source distribution)
Java Runtime: OpenJDK Runtime Environment
JVM: OpenJDK 64-Bit Server VM
Java Version: 11.0.9+11-Ubuntu-0ubuntu1
Operating System: Linux
Default Encoding: ANSI_X3.4-1968
Language: en
Country: US
--></g></svg>