<?xml version="1.0" encoding="UTF-8" standalone="no"?><svg xmlns="http://www.w3.org/2000/svg" xmlns:xlink="http://www.w3.org/1999/xlink" contentScriptType="application/ecmascript" contentStyleType="text/css" height="283px" preserveAspectRatio="none" style="width:272px;height:283px;" version="1.1" viewBox="0 0 272 283" width="272px" zoomAndPan="magnify"><defs><filter height="300%" id="fg999uebzkzec" width="300%" x="-1" y="-1"><feGaussianBlur result="blurOut" stdDeviation="2.0"/><feColorMatrix in="blurOut" result="blurOut2" type="matrix" values="0 0 0 0 0 0 0 0 0 0 0 0 0 0 0 0 0 0 .4 0"/><feOffset dx="4.0" dy="4.0" in="blurOut2" result="blurOut3"/><feBlend in="SourceGraphic" in2="blurOut3" mode="normal"/></filter></defs><g><!--MD5=[a6e8400d3725b000bc063f3166c2b6c7]
class PlacemarkData--><rect fill="#FEFECE" filter="url(#fg999uebzkzec)" height="48" id="PlacemarkData" style="stroke: #A80036; stroke-width: 1.5;" width="127" x="62.1" y="116"/><ellipse cx="77.1" cy="132" fill="#ADD1B2" rx="11" ry="11" style="stroke: #A80036; stroke-width: 1.0;"/><path d="M80.0688,137.6406 Q79.4906,137.9375 78.85,138.0781 Q78.2094,138.2344 77.5063,138.2344 Q75.0063,138.2344 73.6781,136.5938 Q72.3656,134.9375 72.3656,131.8125 Q72.3656,128.6875 73.6781,127.0313 Q75.0063,125.375 77.5063,125.375 Q78.2094,125.375 78.85,125.5313 Q79.5063,125.6875 80.0688,125.9844 L80.0688,128.7031 Q79.4438,128.125 78.85,127.8594 Q78.2563,127.5781 77.6313,127.5781 Q76.2875,127.5781 75.6,128.6563 Q74.9125,129.7188 74.9125,131.8125 Q74.9125,133.9063 75.6,134.9844 Q76.2875,136.0469 77.6313,136.0469 Q78.2563,136.0469 78.85,135.7813 Q79.4438,135.5 80.0688,134.9219 L80.0688,137.6406 Z "/><text fill="#000000" font-family="sans-serif" font-size="12" lengthAdjust="spacingAndGlyphs" textLength="95" x="91.1" y="136.1543">PlacemarkData</text><line style="stroke: #A80036; stroke-width: 1.5;" x1="63.1" x2="188.1" y1="148" y2="148"/><line style="stroke: #A80036; stroke-width: 1.5;" x1="63.1" x2="188.1" y1="156" y2="156"/><!--MD5=[83b3cf3d23d77c6f1e1b5291a241bc2a]
class MonoBehaviour--><rect fill="#FEFECE" filter="url(#fg999uebzkzec)" height="48" id="MonoBehaviour" style="stroke: #A80036; stroke-width: 1.5;" width="128" x="61.6" y="8"/><ellipse cx="76.6" cy="24" fill="#ADD1B2" rx="11" ry="11" style="stroke: #A80036; stroke-width: 1.0;"/><path d="M79.5688,29.6406 Q78.9906,29.9375 78.35,30.0781 Q77.7094,30.2344 77.0063,30.2344 Q74.5063,30.2344 73.1781,28.5938 Q71.8656,26.9375 71.8656,23.8125 Q71.8656,20.6875 73.1781,19.0313 Q74.5063,17.375 77.0063,17.375 Q77.7094,17.375 78.35,17.5313 Q79.0063,17.6875 79.5688,17.9844 L79.5688,20.7031 Q78.9438,20.125 78.35,19.8594 Q77.7563,19.5781 77.1313,19.5781 Q75.7875,19.5781 75.1,20.6563 Q74.4125,21.7188 74.4125,23.8125 Q74.4125,25.9063 75.1,26.9844 Q75.7875,28.0469 77.1313,28.0469 Q77.7563,28.0469 78.35,27.7813 Q78.9438,27.5 79.5688,26.9219 L79.5688,29.6406 Z "/><text fill="#000000" font-family="sans-serif" font-size="12" lengthAdjust="spacingAndGlyphs" textLength="96" x="90.6" y="28.1543">MonoBehaviour</text><line style="stroke: #A80036; stroke-width: 1.5;" x1="62.6" x2="188.6" y1="40" y2="40"/><line style="stroke: #A80036; stroke-width: 1.5;" x1="62.6" x2="188.6" y1="48" y2="48"/><!--MD5=[65d619c042c23702cef2ca07d67b1cf6]
class Vector3--><rect fill="#FEFECE" filter="url(#fg999uebzkzec)" height="48" id="Vector3" style="stroke: #A80036; stroke-width: 1.5;" width="81" x="15.1" y="224"/><ellipse cx="30.1" cy="240" fill="#ADD1B2" rx="11" ry="11" style="stroke: #A80036; stroke-width: 1.0;"/><path d="M33.0688,245.6406 Q32.4906,245.9375 31.85,246.0781 Q31.2094,246.2344 30.5063,246.2344 Q28.0063,246.2344 26.6781,244.5938 Q25.3656,242.9375 25.3656,239.8125 Q25.3656,236.6875 26.6781,235.0313 Q28.0063,233.375 30.5063,233.375 Q31.2094,233.375 31.85,233.5313 Q32.5063,233.6875 33.0688,233.9844 L33.0688,236.7031 Q32.4438,236.125 31.85,235.8594 Q31.2563,235.5781 30.6313,235.5781 Q29.2875,235.5781 28.6,236.6563 Q27.9125,237.7188 27.9125,239.8125 Q27.9125,241.9063 28.6,242.9844 Q29.2875,244.0469 30.6313,244.0469 Q31.2563,244.0469 31.85,243.7813 Q32.4438,243.5 33.0688,242.9219 L33.0688,245.6406 Z "/><text fill="#000000" font-family="sans-serif" font-size="12" lengthAdjust="spacingAndGlyphs" textLength="49" x="44.1" y="244.1543">Vector3</text><line style="stroke: #A80036; stroke-width: 1.5;" x1="16.1" x2="95.1" y1="256" y2="256"/><line style="stroke: #A80036; stroke-width: 1.5;" x1="16.1" x2="95.1" y1="264" y2="264"/><!--MD5=[dc20ee3f0f361795c68e41c3587a88b5]
class Vector3Decimal--><rect fill="#FEFECE" filter="url(#fg999uebzkzec)" height="48" id="Vector3Decimal" style="stroke: #A80036; stroke-width: 1.5;" width="130" x="131.6" y="224"/><ellipse cx="146.6" cy="240" fill="#ADD1B2" rx="11" ry="11" style="stroke: #A80036; stroke-width: 1.0;"/><path d="M149.5688,245.6406 Q148.9906,245.9375 148.35,246.0781 Q147.7094,246.2344 147.0063,246.2344 Q144.5063,246.2344 143.1781,244.5938 Q141.8656,242.9375 141.8656,239.8125 Q141.8656,236.6875 143.1781,235.0313 Q144.5063,233.375 147.0063,233.375 Q147.7094,233.375 148.35,233.5313 Q149.0063,233.6875 149.5688,233.9844 L149.5688,236.7031 Q148.9438,236.125 148.35,235.8594 Q147.7563,235.5781 147.1313,235.5781 Q145.7875,235.5781 145.1,236.6563 Q144.4125,237.7188 144.4125,239.8125 Q144.4125,241.9063 145.1,242.9844 Q145.7875,244.0469 147.1313,244.0469 Q147.7563,244.0469 148.35,243.7813 Q148.9438,243.5 149.5688,242.9219 L149.5688,245.6406 Z "/><text fill="#000000" font-family="sans-serif" font-size="12" lengthAdjust="spacingAndGlyphs" textLength="98" x="160.6" y="244.1543">Vector3Decimal</text><line style="stroke: #A80036; stroke-width: 1.5;" x1="132.6" x2="260.6" y1="256" y2="256"/><line style="stroke: #A80036; stroke-width: 1.5;" x1="132.6" x2="260.6" y1="264" y2="264"/><!--MD5=[8cbe27e45328f7b597558ae59523ebe6]
reverse link MonoBehaviour to PlacemarkData--><path d="M125.6,76.02 C125.6,89.58 125.6,104.04 125.6,115.68 " fill="none" id="MonoBehaviour&lt;-PlacemarkData" style="stroke: #A80036; stroke-width: 1.0;"/><polygon fill="none" points="118.6,76,125.6,56,132.6,76,118.6,76" style="stroke: #A80036; stroke-width: 1.0;"/><!--MD5=[7a2b2e19de1bd401ba6b8a1301772640]
link PlacemarkData to Vector3--><path d="M110.41,164 C99.66,180.28 85.19,202.19 73.82,219.41 " fill="none" id="PlacemarkData-&gt;Vector3" style="stroke: #A80036; stroke-width: 1.0;"/><polygon fill="#A80036" points="71,223.68,79.2996,218.3774,73.757,219.5088,72.6256,213.9662,71,223.68" style="stroke: #A80036; stroke-width: 1.0;"/><text fill="#000000" font-family="sans-serif" font-size="13" lengthAdjust="spacingAndGlyphs" textLength="50" x="18.66" y="213.007">position</text><!--MD5=[78df26835a52e332e76b4094b2d4df23]
link PlacemarkData to Vector3Decimal--><path d="M141.01,164 C151.91,180.28 166.58,202.19 178.12,219.41 " fill="none" id="PlacemarkData-&gt;Vector3Decimal" style="stroke: #A80036; stroke-width: 1.0;"/><polygon fill="#A80036" points="180.98,223.68,179.2928,213.9767,178.1966,219.5263,172.647,218.4301,180.98,223.68" style="stroke: #A80036; stroke-width: 1.0;"/><text fill="#000000" font-family="sans-serif" font-size="13" lengthAdjust="spacingAndGlyphs" textLength="74" x="94.1539" y="213.007">realPosition</text><!--MD5=[61404fb30cd0463580ced9232c3cf840]
@startuml
class PlacemarkData {
}
MonoBehaviour <|- - PlacemarkData
PlacemarkData - -> "position" Vector3
PlacemarkData - -> "realPosition" Vector3Decimal
@enduml

PlantUML version 1.2020.02(Sun Mar 01 10:22:07 GMT 2020)
(GPL source distribution)
Java Runtime: OpenJDK Runtime Environment
JVM: OpenJDK 64-Bit Server VM
Java Version: 11.0.9+11-Ubuntu-0ubuntu1
Operating System: Linux
Default Encoding: ANSI_X3.4-1968
Language: en
Country: US
--></g></svg>