<?xml version="1.0" encoding="UTF-8" standalone="no"?><svg xmlns="http://www.w3.org/2000/svg" xmlns:xlink="http://www.w3.org/1999/xlink" contentScriptType="application/ecmascript" contentStyleType="text/css" height="194px" preserveAspectRatio="none" style="width:432px;height:194px;" version="1.1" viewBox="0 0 432 194" width="432px" zoomAndPan="magnify"><defs><filter height="300%" id="f1f1l6fj9lx8w" width="300%" x="-1" y="-1"><feGaussianBlur result="blurOut" stdDeviation="2.0"/><feColorMatrix in="blurOut" result="blurOut2" type="matrix" values="0 0 0 0 0 0 0 0 0 0 0 0 0 0 0 0 0 0 .4 0"/><feOffset dx="4.0" dy="4.0" in="blurOut2" result="blurOut3"/><feBlend in="SourceGraphic" in2="blurOut3" mode="normal"/></filter></defs><g><!--MD5=[a242cd793f3a2247cf312cbc32a5d823]
class PositionSingleton--><rect fill="#FEFECE" filter="url(#f1f1l6fj9lx8w)" height="66.7422" id="PositionSingleton" style="stroke: #A80036; stroke-width: 1.5;" width="192" x="88.47" y="8"/><ellipse cx="126.42" cy="26.9688" fill="#ADD1B2" rx="11" ry="11" style="stroke: #A80036; stroke-width: 1.0;"/><path d="M129.3888,32.6094 Q128.8106,32.9063 128.17,33.0469 Q127.5294,33.2031 126.8263,33.2031 Q124.3263,33.2031 122.9981,31.5625 Q121.6856,29.9063 121.6856,26.7813 Q121.6856,23.6563 122.9981,22 Q124.3263,20.3438 126.8263,20.3438 Q127.5294,20.3438 128.17,20.5 Q128.8263,20.6563 129.3888,20.9531 L129.3888,23.6719 Q128.7638,23.0938 128.17,22.8281 Q127.5763,22.5469 126.9513,22.5469 Q125.6075,22.5469 124.92,23.625 Q124.2325,24.6875 124.2325,26.7813 Q124.2325,28.875 124.92,29.9531 Q125.6075,31.0156 126.9513,31.0156 Q127.5763,31.0156 128.17,30.75 Q128.7638,30.4688 129.3888,29.8906 L129.3888,32.6094 Z "/><text fill="#000000" font-family="sans-serif" font-size="12" font-style="italic" lengthAdjust="spacingAndGlyphs" textLength="48" x="176.02" y="24.1387">«static»</text><text fill="#000000" font-family="sans-serif" font-size="12" lengthAdjust="spacingAndGlyphs" textLength="109" x="145.52" y="38.1074">PositionSingleton</text><line style="stroke: #A80036; stroke-width: 1.5;" x1="89.47" x2="279.47" y1="45.9375" y2="45.9375"/><ellipse cx="99.47" cy="56.9375" fill="none" rx="3" ry="3" style="stroke: #038048; stroke-width: 1.0;"/><text fill="#000000" font-family="sans-serif" font-size="11" lengthAdjust="spacingAndGlyphs" text-decoration="underline" textLength="166" x="108.47" y="60.1479">playerRealElevation : decimal</text><line style="stroke: #A80036; stroke-width: 1.5;" x1="89.47" x2="279.47" y1="66.7422" y2="66.7422"/><!--MD5=[65d619c042c23702cef2ca07d67b1cf6]
class Vector3--><rect fill="#FEFECE" filter="url(#f1f1l6fj9lx8w)" height="48" id="Vector3" style="stroke: #A80036; stroke-width: 1.5;" width="81" x="143.97" y="135"/><ellipse cx="158.97" cy="151" fill="#ADD1B2" rx="11" ry="11" style="stroke: #A80036; stroke-width: 1.0;"/><path d="M161.9388,156.6406 Q161.3606,156.9375 160.72,157.0781 Q160.0794,157.2344 159.3763,157.2344 Q156.8763,157.2344 155.5481,155.5938 Q154.2356,153.9375 154.2356,150.8125 Q154.2356,147.6875 155.5481,146.0313 Q156.8763,144.375 159.3763,144.375 Q160.0794,144.375 160.72,144.5313 Q161.3763,144.6875 161.9388,144.9844 L161.9388,147.7031 Q161.3138,147.125 160.72,146.8594 Q160.1263,146.5781 159.5013,146.5781 Q158.1575,146.5781 157.47,147.6563 Q156.7825,148.7188 156.7825,150.8125 Q156.7825,152.9063 157.47,153.9844 Q158.1575,155.0469 159.5013,155.0469 Q160.1263,155.0469 160.72,154.7813 Q161.3138,154.5 161.9388,153.9219 L161.9388,156.6406 Z "/><text fill="#000000" font-family="sans-serif" font-size="12" lengthAdjust="spacingAndGlyphs" textLength="49" x="172.97" y="155.1543">Vector3</text><line style="stroke: #A80036; stroke-width: 1.5;" x1="144.97" x2="223.97" y1="167" y2="167"/><line style="stroke: #A80036; stroke-width: 1.5;" x1="144.97" x2="223.97" y1="175" y2="175"/><!--MD5=[dc20ee3f0f361795c68e41c3587a88b5]
class Vector3Decimal--><rect fill="#FEFECE" filter="url(#f1f1l6fj9lx8w)" height="48" id="Vector3Decimal" style="stroke: #A80036; stroke-width: 1.5;" width="130" x="260.47" y="135"/><ellipse cx="275.47" cy="151" fill="#ADD1B2" rx="11" ry="11" style="stroke: #A80036; stroke-width: 1.0;"/><path d="M278.4388,156.6406 Q277.8606,156.9375 277.22,157.0781 Q276.5794,157.2344 275.8763,157.2344 Q273.3763,157.2344 272.0481,155.5938 Q270.7356,153.9375 270.7356,150.8125 Q270.7356,147.6875 272.0481,146.0313 Q273.3763,144.375 275.8763,144.375 Q276.5794,144.375 277.22,144.5313 Q277.8763,144.6875 278.4388,144.9844 L278.4388,147.7031 Q277.8138,147.125 277.22,146.8594 Q276.6263,146.5781 276.0013,146.5781 Q274.6575,146.5781 273.97,147.6563 Q273.2825,148.7188 273.2825,150.8125 Q273.2825,152.9063 273.97,153.9844 Q274.6575,155.0469 276.0013,155.0469 Q276.6263,155.0469 277.22,154.7813 Q277.8138,154.5 278.4388,153.9219 L278.4388,156.6406 Z "/><text fill="#000000" font-family="sans-serif" font-size="12" lengthAdjust="spacingAndGlyphs" textLength="98" x="289.47" y="155.1543">Vector3Decimal</text><line style="stroke: #A80036; stroke-width: 1.5;" x1="261.47" x2="389.47" y1="167" y2="167"/><line style="stroke: #A80036; stroke-width: 1.5;" x1="261.47" x2="389.47" y1="175" y2="175"/><!--MD5=[f5266426b0e1f01e695084ac0b64001e]
link PositionSingleton to Vector3--><path d="M172.85,75.29 C171.2,92.45 171.36,113.26 173.33,129.71 " fill="none" id="PositionSingleton-&gt;Vector3" style="stroke: #A80036; stroke-width: 1.0;"/><polygon fill="#A80036" points="174,134.67,176.7558,125.2146,173.3289,129.7152,168.8282,126.2883,174,134.67" style="stroke: #A80036; stroke-width: 1.0;"/><text fill="#000000" font-family="sans-serif" font-size="13" lengthAdjust="spacingAndGlyphs" textLength="153" x="-0.1989" y="123.9945">playerContinousPosition</text><!--MD5=[f5266426b0e1f01e695084ac0b64001e]
link PositionSingleton to Vector3--><path d="M196.78,75.29 C198.53,92.45 198.36,113.26 196.27,129.71 " fill="none" id="PositionSingleton-&gt;Vector3-1" style="stroke: #A80036; stroke-width: 1.0;"/><polygon fill="#A80036" points="195.56,134.67,200.8061,126.3346,196.2751,129.7214,192.8883,125.1904,195.56,134.67" style="stroke: #A80036; stroke-width: 1.0;"/><text fill="#000000" font-family="sans-serif" font-size="13" lengthAdjust="spacingAndGlyphs" textLength="156" x="217.2285" y="123.9328">playerContinousRotation</text><!--MD5=[f1a311d30d1716bd18cb6d0f1fac5e79]
link PositionSingleton to Vector3Decimal--><path d="M224.5,75.29 C246.18,93.05 272.62,114.7 293,131.4 " fill="none" id="PositionSingleton-&gt;Vector3Decimal" style="stroke: #A80036; stroke-width: 1.0;"/><polygon fill="#A80036" points="296.99,134.67,292.5432,125.8822,293.1151,131.51,287.4873,132.082,296.99,134.67" style="stroke: #A80036; stroke-width: 1.0;"/><text fill="#000000" font-family="sans-serif" font-size="13" lengthAdjust="spacingAndGlyphs" textLength="116" x="304.1855" y="123.9945">playerRealPosition</text><!--MD5=[db1e6ebf0f295571b812afcaa41e3636]
@startuml
class PositionSingleton <<static>> {
    + {static} playerRealElevation : decimal
}
PositionSingleton - -> "playerContinousPosition" Vector3
PositionSingleton - -> "playerContinousRotation" Vector3
PositionSingleton - -> "playerRealPosition" Vector3Decimal
@enduml

PlantUML version 1.2020.02(Sun Mar 01 10:22:07 GMT 2020)
(GPL source distribution)
Java Runtime: OpenJDK Runtime Environment
JVM: OpenJDK 64-Bit Server VM
Java Version: 11.0.9+11-Ubuntu-0ubuntu1
Operating System: Linux
Default Encoding: ANSI_X3.4-1968
Language: en
Country: US
--></g></svg>