<?xml version="1.0" encoding="UTF-8" standalone="no"?><svg xmlns="http://www.w3.org/2000/svg" xmlns:xlink="http://www.w3.org/1999/xlink" contentScriptType="application/ecmascript" contentStyleType="text/css" height="296px" preserveAspectRatio="none" style="width:145px;height:296px;" version="1.1" viewBox="0 0 145 296" width="145px" zoomAndPan="magnify"><defs><filter height="300%" id="fchznpd6azqij" width="300%" x="-1" y="-1"><feGaussianBlur result="blurOut" stdDeviation="2.0"/><feColorMatrix in="blurOut" result="blurOut2" type="matrix" values="0 0 0 0 0 0 0 0 0 0 0 0 0 0 0 0 0 0 .4 0"/><feOffset dx="4.0" dy="4.0" in="blurOut2" result="blurOut3"/><feBlend in="SourceGraphic" in2="blurOut3" mode="normal"/></filter></defs><g><!--MD5=[6bfe5a4eda1b30b2c7214feeb87fc2f3]
class position--><rect fill="#FEFECE" filter="url(#fchznpd6azqij)" height="60.8047" id="position" style="stroke: #A80036; stroke-width: 1.5;" width="83" x="28.5" y="116"/><ellipse cx="43.95" cy="132" fill="#ADD1B2" rx="11" ry="11" style="stroke: #A80036; stroke-width: 1.0;"/><path d="M46.9188,137.6406 Q46.3406,137.9375 45.7,138.0781 Q45.0594,138.2344 44.3563,138.2344 Q41.8563,138.2344 40.5281,136.5938 Q39.2156,134.9375 39.2156,131.8125 Q39.2156,128.6875 40.5281,127.0313 Q41.8563,125.375 44.3563,125.375 Q45.0594,125.375 45.7,125.5313 Q46.3563,125.6875 46.9188,125.9844 L46.9188,128.7031 Q46.2938,128.125 45.7,127.8594 Q45.1063,127.5781 44.4813,127.5781 Q43.1375,127.5781 42.45,128.6563 Q41.7625,129.7188 41.7625,131.8125 Q41.7625,133.9063 42.45,134.9844 Q43.1375,136.0469 44.4813,136.0469 Q45.1063,136.0469 45.7,135.7813 Q46.2938,135.5 46.9188,134.9219 L46.9188,137.6406 Z "/><text fill="#000000" font-family="sans-serif" font-size="12" lengthAdjust="spacingAndGlyphs" textLength="50" x="58.05" y="136.1543">position</text><line style="stroke: #A80036; stroke-width: 1.5;" x1="29.5" x2="110.5" y1="148" y2="148"/><line style="stroke: #A80036; stroke-width: 1.5;" x1="29.5" x2="110.5" y1="156" y2="156"/><text fill="#000000" font-family="sans-serif" font-size="11" lengthAdjust="spacingAndGlyphs" textLength="71" x="34.5" y="170.2104">Start() : void</text><!--MD5=[83b3cf3d23d77c6f1e1b5291a241bc2a]
class MonoBehaviour--><rect fill="#FEFECE" filter="url(#fchznpd6azqij)" height="48" id="MonoBehaviour" style="stroke: #A80036; stroke-width: 1.5;" width="128" x="6" y="8"/><ellipse cx="21" cy="24" fill="#ADD1B2" rx="11" ry="11" style="stroke: #A80036; stroke-width: 1.0;"/><path d="M23.9688,29.6406 Q23.3906,29.9375 22.75,30.0781 Q22.1094,30.2344 21.4063,30.2344 Q18.9063,30.2344 17.5781,28.5938 Q16.2656,26.9375 16.2656,23.8125 Q16.2656,20.6875 17.5781,19.0313 Q18.9063,17.375 21.4063,17.375 Q22.1094,17.375 22.75,17.5313 Q23.4063,17.6875 23.9688,17.9844 L23.9688,20.7031 Q23.3438,20.125 22.75,19.8594 Q22.1563,19.5781 21.5313,19.5781 Q20.1875,19.5781 19.5,20.6563 Q18.8125,21.7188 18.8125,23.8125 Q18.8125,25.9063 19.5,26.9844 Q20.1875,28.0469 21.5313,28.0469 Q22.1563,28.0469 22.75,27.7813 Q23.3438,27.5 23.9688,26.9219 L23.9688,29.6406 Z "/><text fill="#000000" font-family="sans-serif" font-size="12" lengthAdjust="spacingAndGlyphs" textLength="96" x="35" y="28.1543">MonoBehaviour</text><line style="stroke: #A80036; stroke-width: 1.5;" x1="7" x2="133" y1="40" y2="40"/><line style="stroke: #A80036; stroke-width: 1.5;" x1="7" x2="133" y1="48" y2="48"/><!--MD5=[65d619c042c23702cef2ca07d67b1cf6]
class Vector3--><rect fill="#FEFECE" filter="url(#fchznpd6azqij)" height="48" id="Vector3" style="stroke: #A80036; stroke-width: 1.5;" width="81" x="29.5" y="237"/><ellipse cx="44.5" cy="253" fill="#ADD1B2" rx="11" ry="11" style="stroke: #A80036; stroke-width: 1.0;"/><path d="M47.4688,258.6406 Q46.8906,258.9375 46.25,259.0781 Q45.6094,259.2344 44.9063,259.2344 Q42.4063,259.2344 41.0781,257.5938 Q39.7656,255.9375 39.7656,252.8125 Q39.7656,249.6875 41.0781,248.0313 Q42.4063,246.375 44.9063,246.375 Q45.6094,246.375 46.25,246.5313 Q46.9063,246.6875 47.4688,246.9844 L47.4688,249.7031 Q46.8438,249.125 46.25,248.8594 Q45.6563,248.5781 45.0313,248.5781 Q43.6875,248.5781 43,249.6563 Q42.3125,250.7188 42.3125,252.8125 Q42.3125,254.9063 43,255.9844 Q43.6875,257.0469 45.0313,257.0469 Q45.6563,257.0469 46.25,256.7813 Q46.8438,256.5 47.4688,255.9219 L47.4688,258.6406 Z "/><text fill="#000000" font-family="sans-serif" font-size="12" lengthAdjust="spacingAndGlyphs" textLength="49" x="58.5" y="257.1543">Vector3</text><line style="stroke: #A80036; stroke-width: 1.5;" x1="30.5" x2="109.5" y1="269" y2="269"/><line style="stroke: #A80036; stroke-width: 1.5;" x1="30.5" x2="109.5" y1="277" y2="277"/><!--MD5=[53ae179e1ef97a21e4f4badf0e9d1d50]
reverse link MonoBehaviour to position--><path d="M70,76.11 C70,89.31 70,103.54 70,115.65 " fill="none" id="MonoBehaviour&lt;-position" style="stroke: #A80036; stroke-width: 1.0;"/><polygon fill="none" points="63,76.04,70,56.04,77,76.04,63,76.04" style="stroke: #A80036; stroke-width: 1.0;"/><!--MD5=[9a6fc38c0021459aefd735dcdc870f62]
link position to Vector3--><path d="M70,177.06 C70,193.93 70,214.98 70,231.65 " fill="none" id="position-&gt;Vector3" style="stroke: #A80036; stroke-width: 1.0;"/><polygon fill="#A80036" points="70,236.67,74,227.67,70,231.67,66,227.67,70,236.67" style="stroke: #A80036; stroke-width: 1.0;"/><text fill="#000000" font-family="sans-serif" font-size="13" lengthAdjust="spacingAndGlyphs" textLength="23" x="44.1969" y="225.9945">pos</text><!--MD5=[78dce0b063fdc1d90a28fedeb39c2034]
@startuml
class position {
    Start() : void
}
MonoBehaviour <|- - position
position - -> "pos" Vector3
@enduml

PlantUML version 1.2020.02(Sun Mar 01 10:22:07 GMT 2020)
(GPL source distribution)
Java Runtime: OpenJDK Runtime Environment
JVM: OpenJDK 64-Bit Server VM
Java Version: 11.0.9+11-Ubuntu-0ubuntu1
Operating System: Linux
Default Encoding: ANSI_X3.4-1968
Language: en
Country: US
--></g></svg>