<?xml version="1.0" encoding="UTF-8" standalone="no"?><svg xmlns="http://www.w3.org/2000/svg" xmlns:xlink="http://www.w3.org/1999/xlink" contentScriptType="application/ecmascript" contentStyleType="text/css" height="634px" preserveAspectRatio="none" style="width:1735px;height:634px;" version="1.1" viewBox="0 0 1735 634" width="1735px" zoomAndPan="magnify"><defs><filter height="300%" id="fotyq4p9fvbe3" width="300%" x="-1" y="-1"><feGaussianBlur result="blurOut" stdDeviation="2.0"/><feColorMatrix in="blurOut" result="blurOut2" type="matrix" values="0 0 0 0 0 0 0 0 0 0 0 0 0 0 0 0 0 0 .4 0"/><feOffset dx="4.0" dy="4.0" in="blurOut2" result="blurOut3"/><feBlend in="SourceGraphic" in2="blurOut3" mode="normal"/></filter></defs><g><!--MD5=[dc20ee3f0f361795c68e41c3587a88b5]
class Vector3Decimal--><rect fill="#FEFECE" filter="url(#fotyq4p9fvbe3)" height="181.9844" id="Vector3Decimal" style="stroke: #A80036; stroke-width: 1.5;" width="345" x="306.5" y="442"/><ellipse cx="425.75" cy="460.9688" fill="#ADD1B2" rx="11" ry="11" style="stroke: #A80036; stroke-width: 1.0;"/><path d="M428.7188,466.6094 Q428.1406,466.9063 427.5,467.0469 Q426.8594,467.2031 426.1563,467.2031 Q423.6563,467.2031 422.3281,465.5625 Q421.0156,463.9063 421.0156,460.7813 Q421.0156,457.6563 422.3281,456 Q423.6563,454.3438 426.1563,454.3438 Q426.8594,454.3438 427.5,454.5 Q428.1563,454.6563 428.7188,454.9531 L428.7188,457.6719 Q428.0938,457.0938 427.5,456.8281 Q426.9063,456.5469 426.2813,456.5469 Q424.9375,456.5469 424.25,457.625 Q423.5625,458.6875 423.5625,460.7813 Q423.5625,462.875 424.25,463.9531 Q424.9375,465.0156 426.2813,465.0156 Q426.9063,465.0156 427.5,464.75 Q428.0938,464.4688 428.7188,463.8906 L428.7188,466.6094 Z "/><text fill="#000000" font-family="sans-serif" font-size="12" font-style="italic" lengthAdjust="spacingAndGlyphs" textLength="50" x="470.25" y="458.1387">«struct»</text><text fill="#000000" font-family="sans-serif" font-size="12" lengthAdjust="spacingAndGlyphs" textLength="98" x="446.25" y="472.1074">Vector3Decimal</text><line style="stroke: #A80036; stroke-width: 1.5;" x1="307.5" x2="650.5" y1="479.9375" y2="479.9375"/><ellipse cx="317.5" cy="490.9375" fill="none" rx="3" ry="3" style="stroke: #038048; stroke-width: 1.0;"/><text fill="#000000" font-family="sans-serif" font-size="11" lengthAdjust="spacingAndGlyphs" textLength="62" x="326.5" y="494.1479">x : decimal</text><ellipse cx="317.5" cy="503.7422" fill="none" rx="3" ry="3" style="stroke: #038048; stroke-width: 1.0;"/><text fill="#000000" font-family="sans-serif" font-size="11" lengthAdjust="spacingAndGlyphs" textLength="62" x="326.5" y="506.9526">y : decimal</text><ellipse cx="317.5" cy="516.5469" fill="none" rx="3" ry="3" style="stroke: #038048; stroke-width: 1.0;"/><text fill="#000000" font-family="sans-serif" font-size="11" lengthAdjust="spacingAndGlyphs" textLength="61" x="326.5" y="519.7573">z : decimal</text><line style="stroke: #A80036; stroke-width: 1.5;" x1="307.5" x2="650.5" y1="526.3516" y2="526.3516"/><ellipse cx="317.5" cy="537.3516" fill="#84BE84" rx="3" ry="3" style="stroke: #038048; stroke-width: 1.0;"/><text fill="#000000" font-family="sans-serif" font-size="11" lengthAdjust="spacingAndGlyphs" textLength="273" x="326.5" y="540.562">Vector3Decimal(x:decimal, y:decimal, z:decimal)</text><ellipse cx="317.5" cy="550.1563" fill="#84BE84" rx="3" ry="3" style="stroke: #038048; stroke-width: 1.0;"/><text fill="#000000" font-family="sans-serif" font-size="11" lengthAdjust="spacingAndGlyphs" text-decoration="underline" textLength="194" x="326.5" y="553.3667">Parse(v:Vector3) : Vector3Decimal</text><ellipse cx="317.5" cy="562.9609" fill="#84BE84" rx="3" ry="3" style="stroke: #038048; stroke-width: 1.0;"/><text fill="#000000" font-family="sans-serif" font-size="11" lengthAdjust="spacingAndGlyphs" textLength="192" x="326.5" y="566.1714">«override» Equals(o:object) : bool</text><ellipse cx="317.5" cy="575.7656" fill="#84BE84" rx="3" ry="3" style="stroke: #038048; stroke-width: 1.0;"/><text fill="#000000" font-family="sans-serif" font-size="11" lengthAdjust="spacingAndGlyphs" text-decoration="underline" textLength="319" x="326.5" y="578.9761">Distance(a:Vector3Decimal, b:Vector3Decimal) : decimal</text><ellipse cx="317.5" cy="588.5703" fill="#84BE84" rx="3" ry="3" style="stroke: #038048; stroke-width: 1.0;"/><text fill="#000000" font-family="sans-serif" font-size="11" lengthAdjust="spacingAndGlyphs" text-decoration="underline" textLength="220" x="326.5" y="591.7808">Magnitude(v:Vector3Decimal) : decimal</text><ellipse cx="317.5" cy="601.375" fill="#84BE84" rx="3" ry="3" style="stroke: #038048; stroke-width: 1.0;"/><text fill="#000000" font-family="sans-serif" font-size="11" lengthAdjust="spacingAndGlyphs" textLength="166" x="326.5" y="604.5854">«override» ToString() : string</text><ellipse cx="317.5" cy="614.1797" fill="#84BE84" rx="3" ry="3" style="stroke: #038048; stroke-width: 1.0;"/><text fill="#000000" font-family="sans-serif" font-size="11" lengthAdjust="spacingAndGlyphs" textLength="176" x="326.5" y="617.3901">ToString(format:string) : string</text><!--MD5=[a5060deb6d59cc61592f8ab03ae49efc]
class PositionController--><rect fill="#FEFECE" filter="url(#fotyq4p9fvbe3)" height="265.6797" id="PositionController" style="stroke: #A80036; stroke-width: 1.5;" width="1718" x="6" y="116"/><ellipse cx="805.25" cy="132" fill="#ADD1B2" rx="11" ry="11" style="stroke: #A80036; stroke-width: 1.0;"/><path d="M808.2188,137.6406 Q807.6406,137.9375 807,138.0781 Q806.3594,138.2344 805.6563,138.2344 Q803.1563,138.2344 801.8281,136.5938 Q800.5156,134.9375 800.5156,131.8125 Q800.5156,128.6875 801.8281,127.0313 Q803.1563,125.375 805.6563,125.375 Q806.3594,125.375 807,125.5313 Q807.6563,125.6875 808.2188,125.9844 L808.2188,128.7031 Q807.5938,128.125 807,127.8594 Q806.4063,127.5781 805.7813,127.5781 Q804.4375,127.5781 803.75,128.6563 Q803.0625,129.7188 803.0625,131.8125 Q803.0625,133.9063 803.75,134.9844 Q804.4375,136.0469 805.7813,136.0469 Q806.4063,136.0469 807,135.7813 Q807.5938,135.5 808.2188,134.9219 L808.2188,137.6406 Z "/><text fill="#000000" font-family="sans-serif" font-size="12" lengthAdjust="spacingAndGlyphs" textLength="111" x="825.75" y="136.1543">PositionController</text><line style="stroke: #A80036; stroke-width: 1.5;" x1="7" x2="1723" y1="148" y2="148"/><ellipse cx="17" cy="159" fill="none" rx="3" ry="3" style="stroke: #038048; stroke-width: 1.0;"/><text fill="#000000" font-family="sans-serif" font-size="11" lengthAdjust="spacingAndGlyphs" textLength="114" x="26" y="162.2104">tileFileName : string</text><line style="stroke: #A80036; stroke-width: 1.5;" x1="7" x2="1723" y1="168.8047" y2="168.8047"/><text fill="#000000" font-family="sans-serif" font-size="11" lengthAdjust="spacingAndGlyphs" textLength="71" x="26" y="183.0151">Start() : void</text><text fill="#000000" font-family="sans-serif" font-size="11" lengthAdjust="spacingAndGlyphs" textLength="83" x="26" y="195.8198">Update() : void</text><ellipse cx="17" cy="205.4141" fill="#84BE84" rx="3" ry="3" style="stroke: #038048; stroke-width: 1.0;"/><text fill="#000000" font-family="sans-serif" font-size="11" lengthAdjust="spacingAndGlyphs" text-decoration="underline" textLength="382" x="26" y="208.6245">CalculateHeadingFromPositions(Pos1:Vector3, Pos2:Vector3) : float</text><ellipse cx="17" cy="218.2188" fill="#84BE84" rx="3" ry="3" style="stroke: #038048; stroke-width: 1.0;"/><text fill="#000000" font-family="sans-serif" font-size="11" lengthAdjust="spacingAndGlyphs" text-decoration="underline" textLength="276" x="26" y="221.4292">CalculateHeading(DirectionVector:Vector3) : float</text><ellipse cx="17" cy="231.0234" fill="#84BE84" rx="3" ry="3" style="stroke: #038048; stroke-width: 1.0;"/><text fill="#000000" font-family="sans-serif" font-size="11" lengthAdjust="spacingAndGlyphs" text-decoration="underline" textLength="393" x="26" y="234.2339">CalculateInclinationFromPositions(Pos1:Vector3, Pos2:Vector3) : float</text><ellipse cx="17" cy="243.8281" fill="#84BE84" rx="3" ry="3" style="stroke: #038048; stroke-width: 1.0;"/><text fill="#000000" font-family="sans-serif" font-size="11" lengthAdjust="spacingAndGlyphs" text-decoration="underline" textLength="287" x="26" y="247.0386">CalculateInclination(DirectionVector:Vector3) : float</text><ellipse cx="17" cy="256.6328" fill="#84BE84" rx="3" ry="3" style="stroke: #038048; stroke-width: 1.0;"/><text fill="#000000" font-family="sans-serif" font-size="11" lengthAdjust="spacingAndGlyphs" text-decoration="underline" textLength="345" x="26" y="259.8433">CalculateRealPositionOfPoint(point:Vector3) : Vector3Decimal</text><ellipse cx="17" cy="269.4375" fill="#84BE84" rx="3" ry="3" style="stroke: #038048; stroke-width: 1.0;"/><text fill="#000000" font-family="sans-serif" font-size="11" lengthAdjust="spacingAndGlyphs" text-decoration="underline" textLength="304" x="26" y="272.6479">CalculateGPSPosition(point:Vector3) : Vector3Decimal</text><ellipse cx="17" cy="282.2422" fill="#84BE84" rx="3" ry="3" style="stroke: #038048; stroke-width: 1.0;"/><text fill="#000000" font-family="sans-serif" font-size="11" lengthAdjust="spacingAndGlyphs" text-decoration="underline" textLength="361" x="26" y="285.4526">CalculateRealDistance(point1:Vector3, point2:Vector3) : decimal</text><ellipse cx="17" cy="295.0469" fill="#84BE84" rx="3" ry="3" style="stroke: #038048; stroke-width: 1.0;"/><text fill="#000000" font-family="sans-serif" font-size="11" lengthAdjust="spacingAndGlyphs" text-decoration="underline" textLength="376" x="26" y="298.2573">CalculateRealDistance2D(point1:Vector3, point2:Vector3) : decimal</text><ellipse cx="17" cy="307.8516" fill="#84BE84" rx="3" ry="3" style="stroke: #038048; stroke-width: 1.0;"/><text fill="#000000" font-family="sans-serif" font-size="11" lengthAdjust="spacingAndGlyphs" text-decoration="underline" textLength="451" x="26" y="311.062">CalculateRealDistance(point1:Vector3Decimal, point2:Vector3Decimal) : decimal</text><ellipse cx="17" cy="320.6563" fill="#84BE84" rx="3" ry="3" style="stroke: #038048; stroke-width: 1.0;"/><text fill="#000000" font-family="sans-serif" font-size="11" lengthAdjust="spacingAndGlyphs" text-decoration="underline" textLength="353" x="26" y="323.8667">CalculateUnityPosition(point:Vector3Decimal) : Vector3Decimal</text><ellipse cx="17" cy="333.4609" fill="#84BE84" rx="3" ry="3" style="stroke: #038048; stroke-width: 1.0;"/><text fill="#000000" font-family="sans-serif" font-size="11" lengthAdjust="spacingAndGlyphs" text-decoration="underline" textLength="418" x="26" y="336.6714">CalculateVerticalRealDistance2D(point1:Vector3, point2:Vector3) : decimal</text><ellipse cx="17" cy="346.2656" fill="#84BE84" rx="3" ry="3" style="stroke: #038048; stroke-width: 1.0;"/><text fill="#000000" font-family="sans-serif" font-size="11" lengthAdjust="spacingAndGlyphs" text-decoration="underline" textLength="508" x="26" y="349.4761">CalculateVerticalRealDistance2D(point1:Vector3Decimal, point2:Vector3Decimal) : decimal</text><ellipse cx="17" cy="359.0703" fill="#84BE84" rx="3" ry="3" style="stroke: #038048; stroke-width: 1.0;"/><text fill="#000000" font-family="sans-serif" font-size="11" lengthAdjust="spacingAndGlyphs" text-decoration="underline" textLength="688" x="26" y="362.2808">CalculateGroundDistance(start:Vector3, end:Vector3, lineRenderer:LineRenderer, maxRays:int, linearStep:float) : decimal</text><ellipse cx="17" cy="371.875" fill="#84BE84" rx="3" ry="3" style="stroke: #038048; stroke-width: 1.0;"/><text fill="#000000" font-family="sans-serif" font-size="11" lengthAdjust="spacingAndGlyphs" text-decoration="underline" textLength="1692" x="26" y="375.0854">SetStaticGPSLatLonAltBox(_west_dd:Decimal, _east_dd:Decimal, _south_dd:Decimal, _north_dd:Decimal, _west_uu:Decimal, _east_uu:Decimal, _south_uu:Decimal, _north_uu:Decimal, _alt_min_dd:Decimal, _alt_max_dd:Decimal, _alt_min_uu:Decimal, _alt_max_uu:Decimal, _offset_alt:Decimal) : void</text><!--MD5=[e644022de7dea015dd09463c37421447]
class List`1--><rect fill="#FEFECE" filter="url(#fotyq4p9fvbe3)" height="48" id="List`1" style="stroke: #A80036; stroke-width: 1.5;" width="78" x="705" y="509"/><ellipse cx="720" cy="525" fill="#ADD1B2" rx="11" ry="11" style="stroke: #A80036; stroke-width: 1.0;"/><path d="M722.9688,530.6406 Q722.3906,530.9375 721.75,531.0781 Q721.1094,531.2344 720.4063,531.2344 Q717.9063,531.2344 716.5781,529.5938 Q715.2656,527.9375 715.2656,524.8125 Q715.2656,521.6875 716.5781,520.0313 Q717.9063,518.375 720.4063,518.375 Q721.1094,518.375 721.75,518.5313 Q722.4063,518.6875 722.9688,518.9844 L722.9688,521.7031 Q722.3438,521.125 721.75,520.8594 Q721.1563,520.5781 720.5313,520.5781 Q719.1875,520.5781 718.5,521.6563 Q717.8125,522.7188 717.8125,524.8125 Q717.8125,526.9063 718.5,527.9844 Q719.1875,529.0469 720.5313,529.0469 Q721.1563,529.0469 721.75,528.7813 Q722.3438,528.5 722.9688,527.9219 L722.9688,530.6406 Z "/><text fill="#000000" font-family="sans-serif" font-size="12" lengthAdjust="spacingAndGlyphs" textLength="35" x="734" y="529.1543">List`1</text><rect fill="#FFFFFF" height="15.9688" style="stroke: #000000; stroke-width: 1.0; stroke-dasharray: 2.0,2.0;" width="9" x="777" y="506"/><text fill="#000000" font-family="sans-serif" font-size="12" font-style="italic" lengthAdjust="spacingAndGlyphs" textLength="7" x="778" y="518.1387">T</text><line style="stroke: #A80036; stroke-width: 1.5;" x1="706" x2="782" y1="541" y2="541"/><line style="stroke: #A80036; stroke-width: 1.5;" x1="706" x2="782" y1="549" y2="549"/><!--MD5=[83b3cf3d23d77c6f1e1b5291a241bc2a]
class MonoBehaviour--><rect fill="#FEFECE" filter="url(#fotyq4p9fvbe3)" height="48" id="MonoBehaviour" style="stroke: #A80036; stroke-width: 1.5;" width="128" x="801" y="8"/><ellipse cx="816" cy="24" fill="#ADD1B2" rx="11" ry="11" style="stroke: #A80036; stroke-width: 1.0;"/><path d="M818.9688,29.6406 Q818.3906,29.9375 817.75,30.0781 Q817.1094,30.2344 816.4063,30.2344 Q813.9063,30.2344 812.5781,28.5938 Q811.2656,26.9375 811.2656,23.8125 Q811.2656,20.6875 812.5781,19.0313 Q813.9063,17.375 816.4063,17.375 Q817.1094,17.375 817.75,17.5313 Q818.4063,17.6875 818.9688,17.9844 L818.9688,20.7031 Q818.3438,20.125 817.75,19.8594 Q817.1563,19.5781 816.5313,19.5781 Q815.1875,19.5781 814.5,20.6563 Q813.8125,21.7188 813.8125,23.8125 Q813.8125,25.9063 814.5,26.9844 Q815.1875,28.0469 816.5313,28.0469 Q817.1563,28.0469 817.75,27.7813 Q818.3438,27.5 818.9688,26.9219 L818.9688,29.6406 Z "/><text fill="#000000" font-family="sans-serif" font-size="12" lengthAdjust="spacingAndGlyphs" textLength="96" x="830" y="28.1543">MonoBehaviour</text><line style="stroke: #A80036; stroke-width: 1.5;" x1="802" x2="928" y1="40" y2="40"/><line style="stroke: #A80036; stroke-width: 1.5;" x1="802" x2="928" y1="48" y2="48"/><!--MD5=[6edc259cc6894202c981acd21687e5bf]
class TileObject--><rect fill="#FEFECE" filter="url(#fotyq4p9fvbe3)" height="48" id="TileObject" style="stroke: #A80036; stroke-width: 1.5;" width="93" x="818.5" y="509"/><ellipse cx="833.5" cy="525" fill="#ADD1B2" rx="11" ry="11" style="stroke: #A80036; stroke-width: 1.0;"/><path d="M836.4688,530.6406 Q835.8906,530.9375 835.25,531.0781 Q834.6094,531.2344 833.9063,531.2344 Q831.4063,531.2344 830.0781,529.5938 Q828.7656,527.9375 828.7656,524.8125 Q828.7656,521.6875 830.0781,520.0313 Q831.4063,518.375 833.9063,518.375 Q834.6094,518.375 835.25,518.5313 Q835.9063,518.6875 836.4688,518.9844 L836.4688,521.7031 Q835.8438,521.125 835.25,520.8594 Q834.6563,520.5781 834.0313,520.5781 Q832.6875,520.5781 832,521.6563 Q831.3125,522.7188 831.3125,524.8125 Q831.3125,526.9063 832,527.9844 Q832.6875,529.0469 834.0313,529.0469 Q834.6563,529.0469 835.25,528.7813 Q835.8438,528.5 836.4688,527.9219 L836.4688,530.6406 Z "/><text fill="#000000" font-family="sans-serif" font-size="12" lengthAdjust="spacingAndGlyphs" textLength="61" x="847.5" y="529.1543">TileObject</text><line style="stroke: #A80036; stroke-width: 1.5;" x1="819.5" x2="910.5" y1="541" y2="541"/><line style="stroke: #A80036; stroke-width: 1.5;" x1="819.5" x2="910.5" y1="549" y2="549"/><!--MD5=[3d91eed8a5fb97066f89b7a9b5f07894]
class TileData--><rect fill="#FEFECE" filter="url(#fotyq4p9fvbe3)" height="48" id="TileData" style="stroke: #A80036; stroke-width: 1.5;" width="83" x="946.5" y="509"/><ellipse cx="961.5" cy="525" fill="#ADD1B2" rx="11" ry="11" style="stroke: #A80036; stroke-width: 1.0;"/><path d="M964.4688,530.6406 Q963.8906,530.9375 963.25,531.0781 Q962.6094,531.2344 961.9063,531.2344 Q959.4063,531.2344 958.0781,529.5938 Q956.7656,527.9375 956.7656,524.8125 Q956.7656,521.6875 958.0781,520.0313 Q959.4063,518.375 961.9063,518.375 Q962.6094,518.375 963.25,518.5313 Q963.9063,518.6875 964.4688,518.9844 L964.4688,521.7031 Q963.8438,521.125 963.25,520.8594 Q962.6563,520.5781 962.0313,520.5781 Q960.6875,520.5781 960,521.6563 Q959.3125,522.7188 959.3125,524.8125 Q959.3125,526.9063 960,527.9844 Q960.6875,529.0469 962.0313,529.0469 Q962.6563,529.0469 963.25,528.7813 Q963.8438,528.5 964.4688,527.9219 L964.4688,530.6406 Z "/><text fill="#000000" font-family="sans-serif" font-size="12" lengthAdjust="spacingAndGlyphs" textLength="51" x="975.5" y="529.1543">TileData</text><line style="stroke: #A80036; stroke-width: 1.5;" x1="947.5" x2="1028.5" y1="541" y2="541"/><line style="stroke: #A80036; stroke-width: 1.5;" x1="947.5" x2="1028.5" y1="549" y2="549"/><!--MD5=[064f7a74fee85463ec1a30143664ee17]
class GameObject--><rect fill="#FEFECE" filter="url(#fotyq4p9fvbe3)" height="48" id="GameObject" style="stroke: #A80036; stroke-width: 1.5;" width="108" x="1065" y="509"/><ellipse cx="1080" cy="525" fill="#ADD1B2" rx="11" ry="11" style="stroke: #A80036; stroke-width: 1.0;"/><path d="M1082.9688,530.6406 Q1082.3906,530.9375 1081.75,531.0781 Q1081.1094,531.2344 1080.4063,531.2344 Q1077.9063,531.2344 1076.5781,529.5938 Q1075.2656,527.9375 1075.2656,524.8125 Q1075.2656,521.6875 1076.5781,520.0313 Q1077.9063,518.375 1080.4063,518.375 Q1081.1094,518.375 1081.75,518.5313 Q1082.4063,518.6875 1082.9688,518.9844 L1082.9688,521.7031 Q1082.3438,521.125 1081.75,520.8594 Q1081.1563,520.5781 1080.5313,520.5781 Q1079.1875,520.5781 1078.5,521.6563 Q1077.8125,522.7188 1077.8125,524.8125 Q1077.8125,526.9063 1078.5,527.9844 Q1079.1875,529.0469 1080.5313,529.0469 Q1081.1563,529.0469 1081.75,528.7813 Q1082.3438,528.5 1082.9688,527.9219 L1082.9688,530.6406 Z "/><text fill="#000000" font-family="sans-serif" font-size="12" lengthAdjust="spacingAndGlyphs" textLength="76" x="1094" y="529.1543">GameObject</text><line style="stroke: #A80036; stroke-width: 1.5;" x1="1066" x2="1172" y1="541" y2="541"/><line style="stroke: #A80036; stroke-width: 1.5;" x1="1066" x2="1172" y1="549" y2="549"/><!--MD5=[13960f677a22c0b79cf721d27d871b52]
link Vector3Decimal to Vector3Decimal--><path d="M662.2815,492.2596 C662.2815,492.2596 686.5,515.1 686.5,533 C686.5,550.9 677.71,564.29 663.44,573.16 " fill="none" id="Vector3Decimal-Vector3Decimal" style="stroke: #A80036; stroke-width: 1.0;"/><polygon fill="#A80036" points="651.53,579.07,661.3702,578.6566,656.0098,576.8493,657.8171,571.489,651.53,579.07" style="stroke: #A80036; stroke-width: 1.0;"/><line style="stroke: #A80036; stroke-width: 1.0;" x1="656.0098" x2="663.17" y1="576.8493" y2="573.295"/><polygon fill="#FFFFFF" points="651.53,486.93,655.1292,493.1786,662.2815,492.2596,658.6823,486.011,651.53,486.93" style="stroke: #A80036; stroke-width: 1.0;"/><text fill="#000000" font-family="sans-serif" font-size="13" lengthAdjust="spacingAndGlyphs" textLength="28" x="659.3992" y="577.7672">zero</text><!--MD5=[d96f4a752260888792345870d8029a43]
reverse link MonoBehaviour to PositionController--><path d="M865,76.45 C865,88.26 865,101.7 865,115.73 " fill="none" id="MonoBehaviour&lt;-PositionController" style="stroke: #A80036; stroke-width: 1.0;"/><polygon fill="none" points="858,76.01,865,56.01,872,76.01,858,76.01" style="stroke: #A80036; stroke-width: 1.0;"/><!--MD5=[7e7658d858f934b2c1adba185e8ac249]
link PositionController to Vector3Decimal--><path d="M684.15,382.12 C657.93,401.28 631.4,420.66 606.53,438.83 " fill="none" id="PositionController-&gt;Vector3Decimal" style="stroke: #A80036; stroke-width: 1.0;"/><polygon fill="#A80036" points="602.22,441.98,611.8504,439.9174,606.2624,439.0374,607.1424,433.4494,602.22,441.98" style="stroke: #A80036; stroke-width: 1.0;"/><text fill="#000000" font-family="sans-serif" font-size="13" lengthAdjust="spacingAndGlyphs" textLength="116" x="491.621" y="430.8944">playerRealPosition</text><!--MD5=[d92f7333ee9d550646bc89358a15ef6f]
link PositionController to List`1--><path d="M808.22,382.33 C788.6,428.05 768.46,475 756.09,503.83 " fill="none" id="PositionController-&gt;List`1" style="stroke: #A80036; stroke-width: 1.0;"/><polygon fill="#A80036" points="754.02,508.65,761.2594,501.9723,756.0016,504.0595,753.9145,498.8017,754.02,508.65" style="stroke: #A80036; stroke-width: 1.0;"/><text fill="#000000" font-family="sans-serif" font-size="13" lengthAdjust="spacingAndGlyphs" textLength="181" x="778.528" y="497.9079">tilesColliding&lt;GameObject&gt;</text><!--MD5=[088d162236b72e07ab4c0969cfe31ae1]
link PositionController to TileObject--><path d="M865,382.33 C865,427.86 865,474.61 865,503.47 " fill="none" id="PositionController-&gt;TileObject" style="stroke: #A80036; stroke-width: 1.0;"/><polygon fill="#A80036" points="865,508.65,869,499.65,865,503.65,861,499.65,865,508.65" style="stroke: #A80036; stroke-width: 1.0;"/><text fill="#000000" font-family="sans-serif" font-size="13" lengthAdjust="spacingAndGlyphs" textLength="60" x="763.75" y="497.6395">tileObject</text><!--MD5=[8cd8a217cdcd5329c86b72ae859bef1a]
link PositionController to TileData--><path d="M922.72,382.33 C942.66,428.05 963.14,475 975.71,503.83 " fill="none" id="PositionController-&gt;TileData" style="stroke: #A80036; stroke-width: 1.0;"/><polygon fill="#A80036" points="977.82,508.65,977.8885,498.8014,975.8212,504.0669,970.5556,501.9995,977.82,508.65" style="stroke: #A80036; stroke-width: 1.0;"/><text fill="#000000" font-family="sans-serif" font-size="13" lengthAdjust="spacingAndGlyphs" textLength="13" x="960.7543" y="497.9696">td</text><!--MD5=[ecb64e8751afb16bb0b7c7bdeb715e9e]
link PositionController to GameObject--><path d="M993.02,382.16 C1011.4,401.97 1029.88,422.35 1047,442 C1064.84,462.48 1084,486.54 1098.07,504.63 " fill="none" id="PositionController-&gt;GameObject" style="stroke: #A80036; stroke-width: 1.0;"/><polygon fill="#A80036" points="1101.17,508.63,1098.8164,499.0665,1098.1062,504.6786,1092.4941,503.9685,1101.17,508.63" style="stroke: #A80036; stroke-width: 1.0;"/><text fill="#000000" font-family="sans-serif" font-size="13" lengthAdjust="spacingAndGlyphs" textLength="38" x="1054.1927" y="497.9448">refTile</text><!--MD5=[1139e623370673a41caf9d9c2a61ef2a]
@startuml
class Vector3Decimal <<struct>> {
    + x : decimal
    + y : decimal
    + z : decimal
    + Vector3Decimal(x:decimal, y:decimal, z:decimal)
    + {static} Parse(v:Vector3) : Vector3Decimal
    + <<override>> Equals(o:object) : bool
    + {static} Distance(a:Vector3Decimal, b:Vector3Decimal) : decimal
    + {static} Magnitude(v:Vector3Decimal) : decimal
    + <<override>> ToString() : string
    + ToString(format:string) : string
}
class PositionController {
    + tileFileName : string
    Start() : void
    Update() : void
    + {static} CalculateHeadingFromPositions(Pos1:Vector3, Pos2:Vector3) : float
    + {static} CalculateHeading(DirectionVector:Vector3) : float
    + {static} CalculateInclinationFromPositions(Pos1:Vector3, Pos2:Vector3) : float
    + {static} CalculateInclination(DirectionVector:Vector3) : float
    + {static} CalculateRealPositionOfPoint(point:Vector3) : Vector3Decimal
    + {static} CalculateGPSPosition(point:Vector3) : Vector3Decimal
    + {static} CalculateRealDistance(point1:Vector3, point2:Vector3) : decimal
    + {static} CalculateRealDistance2D(point1:Vector3, point2:Vector3) : decimal
    + {static} CalculateRealDistance(point1:Vector3Decimal, point2:Vector3Decimal) : decimal
    + {static} CalculateUnityPosition(point:Vector3Decimal) : Vector3Decimal
    + {static} CalculateVerticalRealDistance2D(point1:Vector3, point2:Vector3) : decimal
    + {static} CalculateVerticalRealDistance2D(point1:Vector3Decimal, point2:Vector3Decimal) : decimal
    + {static} CalculateGroundDistance(start:Vector3, end:Vector3, lineRenderer:LineRenderer, maxRays:int, linearStep:float) : decimal
    + {static} SetStaticGPSLatLonAltBox(_west_dd:Decimal, _east_dd:Decimal, _south_dd:Decimal, _north_dd:Decimal, _west_uu:Decimal, _east_uu:Decimal, _south_uu:Decimal, _north_uu:Decimal, _alt_min_dd:Decimal, _alt_max_dd:Decimal, _alt_min_uu:Decimal, _alt_max_uu:Decimal, _offset_alt:Decimal) : void
}
class "List`1"<T> {
}
Vector3Decimal o-> "zero" Vector3Decimal
MonoBehaviour <|- - PositionController
PositionController - -> "playerRealPosition" Vector3Decimal
PositionController - -> "tilesColliding<GameObject>" "List`1"
PositionController - -> "tileObject" TileObject
PositionController - -> "td" TileData
PositionController - -> "refTile" GameObject
@enduml

PlantUML version 1.2020.02(Sun Mar 01 10:22:07 GMT 2020)
(GPL source distribution)
Java Runtime: OpenJDK Runtime Environment
JVM: OpenJDK 64-Bit Server VM
Java Version: 11.0.9+11-Ubuntu-0ubuntu1
Operating System: Linux
Default Encoding: ANSI_X3.4-1968
Language: en
Country: US
--></g></svg>