<?xml version="1.0" encoding="UTF-8" standalone="no"?><svg xmlns="http://www.w3.org/2000/svg" xmlns:xlink="http://www.w3.org/1999/xlink" contentScriptType="application/ecmascript" contentStyleType="text/css" height="360px" preserveAspectRatio="none" style="width:314px;height:360px;" version="1.1" viewBox="0 0 314 360" width="314px" zoomAndPan="magnify"><defs><filter height="300%" id="fsfb34k4654ir" width="300%" x="-1" y="-1"><feGaussianBlur result="blurOut" stdDeviation="2.0"/><feColorMatrix in="blurOut" result="blurOut2" type="matrix" values="0 0 0 0 0 0 0 0 0 0 0 0 0 0 0 0 0 0 .4 0"/><feOffset dx="4.0" dy="4.0" in="blurOut2" result="blurOut3"/><feBlend in="SourceGraphic" in2="blurOut3" mode="normal"/></filter></defs><g><!--MD5=[a7e2a3f314023f8267b1269512eac88e]
class SettingsMenuController--><rect fill="#FEFECE" filter="url(#fsfb34k4654ir)" height="124.8281" id="SettingsMenuController" style="stroke: #A80036; stroke-width: 1.5;" width="179" x="55.34" y="116"/><ellipse cx="70.34" cy="132" fill="#ADD1B2" rx="11" ry="11" style="stroke: #A80036; stroke-width: 1.0;"/><path d="M73.3088,137.6406 Q72.7306,137.9375 72.09,138.0781 Q71.4494,138.2344 70.7463,138.2344 Q68.2463,138.2344 66.9181,136.5938 Q65.6056,134.9375 65.6056,131.8125 Q65.6056,128.6875 66.9181,127.0313 Q68.2463,125.375 70.7463,125.375 Q71.4494,125.375 72.09,125.5313 Q72.7463,125.6875 73.3088,125.9844 L73.3088,128.7031 Q72.6838,128.125 72.09,127.8594 Q71.4963,127.5781 70.8713,127.5781 Q69.5275,127.5781 68.84,128.6563 Q68.1525,129.7188 68.1525,131.8125 Q68.1525,133.9063 68.84,134.9844 Q69.5275,136.0469 70.8713,136.0469 Q71.4963,136.0469 72.09,135.7813 Q72.6838,135.5 73.3088,134.9219 L73.3088,137.6406 Z "/><text fill="#000000" font-family="sans-serif" font-size="12" lengthAdjust="spacingAndGlyphs" textLength="147" x="84.34" y="136.1543">SettingsMenuController</text><line style="stroke: #A80036; stroke-width: 1.5;" x1="56.34" x2="233.34" y1="148" y2="148"/><line style="stroke: #A80036; stroke-width: 1.5;" x1="56.34" x2="233.34" y1="156" y2="156"/><text fill="#000000" font-family="sans-serif" font-size="11" lengthAdjust="spacingAndGlyphs" textLength="71" x="75.34" y="170.2104">Start() : void</text><text fill="#000000" font-family="sans-serif" font-size="11" lengthAdjust="spacingAndGlyphs" textLength="83" x="75.34" y="183.0151">Update() : void</text><ellipse cx="66.34" cy="192.6094" fill="#84BE84" rx="3" ry="3" style="stroke: #038048; stroke-width: 1.0;"/><text fill="#000000" font-family="sans-serif" font-size="11" lengthAdjust="spacingAndGlyphs" textLength="127" x="75.34" y="195.8198">QuitApplication() : void</text><ellipse cx="66.34" cy="205.4141" fill="#84BE84" rx="3" ry="3" style="stroke: #038048; stroke-width: 1.0;"/><text fill="#000000" font-family="sans-serif" font-size="11" lengthAdjust="spacingAndGlyphs" textLength="127" x="75.34" y="208.6245">LoadNewModel() : void</text><ellipse cx="66.34" cy="218.2188" fill="#84BE84" rx="3" ry="3" style="stroke: #038048; stroke-width: 1.0;"/><text fill="#000000" font-family="sans-serif" font-size="11" lengthAdjust="spacingAndGlyphs" textLength="128" x="75.34" y="221.4292">IncreaseSpeed() : void</text><ellipse cx="66.34" cy="231.0234" fill="#84BE84" rx="3" ry="3" style="stroke: #038048; stroke-width: 1.0;"/><text fill="#000000" font-family="sans-serif" font-size="11" lengthAdjust="spacingAndGlyphs" textLength="133" x="75.34" y="234.2339">DecreaseSpeed() : void</text><!--MD5=[83b3cf3d23d77c6f1e1b5291a241bc2a]
class MonoBehaviour--><rect fill="#FEFECE" filter="url(#fsfb34k4654ir)" height="48" id="MonoBehaviour" style="stroke: #A80036; stroke-width: 1.5;" width="128" x="80.84" y="8"/><ellipse cx="95.84" cy="24" fill="#ADD1B2" rx="11" ry="11" style="stroke: #A80036; stroke-width: 1.0;"/><path d="M98.8088,29.6406 Q98.2306,29.9375 97.59,30.0781 Q96.9494,30.2344 96.2463,30.2344 Q93.7463,30.2344 92.4181,28.5938 Q91.1056,26.9375 91.1056,23.8125 Q91.1056,20.6875 92.4181,19.0313 Q93.7463,17.375 96.2463,17.375 Q96.9494,17.375 97.59,17.5313 Q98.2463,17.6875 98.8088,17.9844 L98.8088,20.7031 Q98.1838,20.125 97.59,19.8594 Q96.9963,19.5781 96.3713,19.5781 Q95.0275,19.5781 94.34,20.6563 Q93.6525,21.7188 93.6525,23.8125 Q93.6525,25.9063 94.34,26.9844 Q95.0275,28.0469 96.3713,28.0469 Q96.9963,28.0469 97.59,27.7813 Q98.1838,27.5 98.8088,26.9219 L98.8088,29.6406 Z "/><text fill="#000000" font-family="sans-serif" font-size="12" lengthAdjust="spacingAndGlyphs" textLength="96" x="109.84" y="28.1543">MonoBehaviour</text><line style="stroke: #A80036; stroke-width: 1.5;" x1="81.84" x2="207.84" y1="40" y2="40"/><line style="stroke: #A80036; stroke-width: 1.5;" x1="81.84" x2="207.84" y1="48" y2="48"/><!--MD5=[064f7a74fee85463ec1a30143664ee17]
class GameObject--><rect fill="#FEFECE" filter="url(#fsfb34k4654ir)" height="48" id="GameObject" style="stroke: #A80036; stroke-width: 1.5;" width="108" x="90.84" y="301"/><ellipse cx="105.84" cy="317" fill="#ADD1B2" rx="11" ry="11" style="stroke: #A80036; stroke-width: 1.0;"/><path d="M108.8088,322.6406 Q108.2306,322.9375 107.59,323.0781 Q106.9494,323.2344 106.2463,323.2344 Q103.7463,323.2344 102.4181,321.5938 Q101.1056,319.9375 101.1056,316.8125 Q101.1056,313.6875 102.4181,312.0313 Q103.7463,310.375 106.2463,310.375 Q106.9494,310.375 107.59,310.5313 Q108.2463,310.6875 108.8088,310.9844 L108.8088,313.7031 Q108.1838,313.125 107.59,312.8594 Q106.9963,312.5781 106.3713,312.5781 Q105.0275,312.5781 104.34,313.6563 Q103.6525,314.7188 103.6525,316.8125 Q103.6525,318.9063 104.34,319.9844 Q105.0275,321.0469 106.3713,321.0469 Q106.9963,321.0469 107.59,320.7813 Q108.1838,320.5 108.8088,319.9219 L108.8088,322.6406 Z "/><text fill="#000000" font-family="sans-serif" font-size="12" lengthAdjust="spacingAndGlyphs" textLength="76" x="119.84" y="321.1543">GameObject</text><line style="stroke: #A80036; stroke-width: 1.5;" x1="91.84" x2="197.84" y1="333" y2="333"/><line style="stroke: #A80036; stroke-width: 1.5;" x1="91.84" x2="197.84" y1="341" y2="341"/><!--MD5=[e9f6c0b5eeec5ab58c49427dd4648137]
reverse link MonoBehaviour to SettingsMenuController--><path d="M144.84,76.67 C144.84,89.05 144.84,102.77 144.84,115.99 " fill="none" id="MonoBehaviour&lt;-SettingsMenuController" style="stroke: #A80036; stroke-width: 1.0;"/><polygon fill="none" points="137.84,76.22,144.84,56.22,151.84,76.22,137.84,76.22" style="stroke: #A80036; stroke-width: 1.0;"/><!--MD5=[50bf4b7491e2723fbf358f48aa500725]
link SettingsMenuController to GameObject--><path d="M118.84,241.2 C117.93,260.22 119.5,280.24 123.54,295.83 " fill="none" id="SettingsMenuController-&gt;GameObject" style="stroke: #A80036; stroke-width: 1.0;"/><polygon fill="#A80036" points="125,300.94,126.3736,291.1874,123.6264,296.1324,118.6814,293.3852,125,300.94" style="stroke: #A80036; stroke-width: 1.0;"/><text fill="#000000" font-family="sans-serif" font-size="13" lengthAdjust="spacingAndGlyphs" textLength="104" x="2.591" y="289.9367">WalkingModeObj</text><!--MD5=[50bf4b7491e2723fbf358f48aa500725]
link SettingsMenuController to GameObject--><path d="M144.84,241.2 C144.84,260.22 144.84,280.24 144.84,295.83 " fill="none" id="SettingsMenuController-&gt;GameObject-1" style="stroke: #A80036; stroke-width: 1.0;"/><polygon fill="#A80036" points="144.84,300.94,148.84,291.94,144.84,295.94,140.84,291.94,144.84,300.94" style="stroke: #A80036; stroke-width: 1.0;"/><text fill="#000000" font-family="sans-serif" font-size="13" lengthAdjust="spacingAndGlyphs" textLength="90" x="156.3713" y="289.9367">FlightModeObj</text><!--MD5=[50bf4b7491e2723fbf358f48aa500725]
link SettingsMenuController to GameObject--><path d="M170.84,241.2 C171.75,260.22 170.19,280.24 166.15,295.83 " fill="none" id="SettingsMenuController-&gt;GameObject-2" style="stroke: #A80036; stroke-width: 1.0;"/><polygon fill="#A80036" points="164.69,300.94,171.0027,293.3802,166.0598,296.1313,163.3087,291.1885,164.69,300.94" style="stroke: #A80036; stroke-width: 1.0;"/><text fill="#000000" font-family="sans-serif" font-size="13" lengthAdjust="spacingAndGlyphs" textLength="95" x="207.6256" y="302.4922">DroneModeObj</text><!--MD5=[ad3df44dc7ecf1569c540725b0d6b354]
@startuml
class SettingsMenuController {
    Start() : void
    Update() : void
    + QuitApplication() : void
    + LoadNewModel() : void
    + IncreaseSpeed() : void
    + DecreaseSpeed() : void
}
MonoBehaviour <|- - SettingsMenuController
SettingsMenuController - -> "WalkingModeObj" GameObject
SettingsMenuController - -> "FlightModeObj" GameObject
SettingsMenuController - -> "DroneModeObj" GameObject
@enduml

PlantUML version 1.2020.02(Sun Mar 01 10:22:07 GMT 2020)
(GPL source distribution)
Java Runtime: OpenJDK Runtime Environment
JVM: OpenJDK 64-Bit Server VM
Java Version: 11.0.9+11-Ubuntu-0ubuntu1
Operating System: Linux
Default Encoding: ANSI_X3.4-1968
Language: en
Country: US
--></g></svg>