<?xml version="1.0" encoding="UTF-8" standalone="no"?><svg xmlns="http://www.w3.org/2000/svg" xmlns:xlink="http://www.w3.org/1999/xlink" contentScriptType="application/ecmascript" contentStyleType="text/css" height="321px" preserveAspectRatio="none" style="width:280px;height:321px;" version="1.1" viewBox="0 0 280 321" width="280px" zoomAndPan="magnify"><defs><filter height="300%" id="fk9wi91mxnuzu" width="300%" x="-1" y="-1"><feGaussianBlur result="blurOut" stdDeviation="2.0"/><feColorMatrix in="blurOut" result="blurOut2" type="matrix" values="0 0 0 0 0 0 0 0 0 0 0 0 0 0 0 0 0 0 .4 0"/><feOffset dx="4.0" dy="4.0" in="blurOut2" result="blurOut3"/><feBlend in="SourceGraphic" in2="blurOut3" mode="normal"/></filter></defs><g><!--MD5=[c85ada506bbc193739b9fa0529294a4f]
class SplashScreenButtonEvents--><rect fill="#FEFECE" filter="url(#fk9wi91mxnuzu)" height="86.4141" id="SplashScreenButtonEvents" style="stroke: #A80036; stroke-width: 1.5;" width="263" x="6" y="116"/><ellipse cx="48.45" cy="132" fill="#ADD1B2" rx="11" ry="11" style="stroke: #A80036; stroke-width: 1.0;"/><path d="M51.4188,137.6406 Q50.8406,137.9375 50.2,138.0781 Q49.5594,138.2344 48.8563,138.2344 Q46.3563,138.2344 45.0281,136.5938 Q43.7156,134.9375 43.7156,131.8125 Q43.7156,128.6875 45.0281,127.0313 Q46.3563,125.375 48.8563,125.375 Q49.5594,125.375 50.2,125.5313 Q50.8563,125.6875 51.4188,125.9844 L51.4188,128.7031 Q50.7938,128.125 50.2,127.8594 Q49.6063,127.5781 48.9813,127.5781 Q47.6375,127.5781 46.95,128.6563 Q46.2625,129.7188 46.2625,131.8125 Q46.2625,133.9063 46.95,134.9844 Q47.6375,136.0469 48.9813,136.0469 Q49.6063,136.0469 50.2,135.7813 Q50.7938,135.5 51.4188,134.9219 L51.4188,137.6406 Z "/><text fill="#000000" font-family="sans-serif" font-size="12" lengthAdjust="spacingAndGlyphs" textLength="170" x="68.55" y="136.1543">SplashScreenButtonEvents</text><line style="stroke: #A80036; stroke-width: 1.5;" x1="7" x2="268" y1="148" y2="148"/><line style="stroke: #A80036; stroke-width: 1.5;" x1="7" x2="268" y1="156" y2="156"/><text fill="#000000" font-family="sans-serif" font-size="11" lengthAdjust="spacingAndGlyphs" textLength="71" x="12" y="170.2104">Start() : void</text><text fill="#000000" font-family="sans-serif" font-size="11" lengthAdjust="spacingAndGlyphs" textLength="116" x="12" y="183.0151">ChangeState() : void</text><text fill="#000000" font-family="sans-serif" font-size="11" lengthAdjust="spacingAndGlyphs" textLength="251" x="12" y="195.8198">SceneLoaderWithLoadingBar() : IEnumerator</text><!--MD5=[83b3cf3d23d77c6f1e1b5291a241bc2a]
class MonoBehaviour--><rect fill="#FEFECE" filter="url(#fk9wi91mxnuzu)" height="48" id="MonoBehaviour" style="stroke: #A80036; stroke-width: 1.5;" width="128" x="73.5" y="8"/><ellipse cx="88.5" cy="24" fill="#ADD1B2" rx="11" ry="11" style="stroke: #A80036; stroke-width: 1.0;"/><path d="M91.4688,29.6406 Q90.8906,29.9375 90.25,30.0781 Q89.6094,30.2344 88.9063,30.2344 Q86.4063,30.2344 85.0781,28.5938 Q83.7656,26.9375 83.7656,23.8125 Q83.7656,20.6875 85.0781,19.0313 Q86.4063,17.375 88.9063,17.375 Q89.6094,17.375 90.25,17.5313 Q90.9063,17.6875 91.4688,17.9844 L91.4688,20.7031 Q90.8438,20.125 90.25,19.8594 Q89.6563,19.5781 89.0313,19.5781 Q87.6875,19.5781 87,20.6563 Q86.3125,21.7188 86.3125,23.8125 Q86.3125,25.9063 87,26.9844 Q87.6875,28.0469 89.0313,28.0469 Q89.6563,28.0469 90.25,27.7813 Q90.8438,27.5 91.4688,26.9219 L91.4688,29.6406 Z "/><text fill="#000000" font-family="sans-serif" font-size="12" lengthAdjust="spacingAndGlyphs" textLength="96" x="102.5" y="28.1543">MonoBehaviour</text><line style="stroke: #A80036; stroke-width: 1.5;" x1="74.5" x2="200.5" y1="40" y2="40"/><line style="stroke: #A80036; stroke-width: 1.5;" x1="74.5" x2="200.5" y1="48" y2="48"/><!--MD5=[02a8746eb15ecbb4566dafa16ea4db73]
class Text--><rect fill="#FEFECE" filter="url(#fk9wi91mxnuzu)" height="48" id="Text" style="stroke: #A80036; stroke-width: 1.5;" width="58" x="108.5" y="262"/><ellipse cx="123.5" cy="278" fill="#ADD1B2" rx="11" ry="11" style="stroke: #A80036; stroke-width: 1.0;"/><path d="M126.4688,283.6406 Q125.8906,283.9375 125.25,284.0781 Q124.6094,284.2344 123.9063,284.2344 Q121.4063,284.2344 120.0781,282.5938 Q118.7656,280.9375 118.7656,277.8125 Q118.7656,274.6875 120.0781,273.0313 Q121.4063,271.375 123.9063,271.375 Q124.6094,271.375 125.25,271.5313 Q125.9063,271.6875 126.4688,271.9844 L126.4688,274.7031 Q125.8438,274.125 125.25,273.8594 Q124.6563,273.5781 124.0313,273.5781 Q122.6875,273.5781 122,274.6563 Q121.3125,275.7188 121.3125,277.8125 Q121.3125,279.9063 122,280.9844 Q122.6875,282.0469 124.0313,282.0469 Q124.6563,282.0469 125.25,281.7813 Q125.8438,281.5 126.4688,280.9219 L126.4688,283.6406 Z "/><text fill="#000000" font-family="sans-serif" font-size="12" lengthAdjust="spacingAndGlyphs" textLength="26" x="137.5" y="282.1543">Text</text><line style="stroke: #A80036; stroke-width: 1.5;" x1="109.5" x2="165.5" y1="294" y2="294"/><line style="stroke: #A80036; stroke-width: 1.5;" x1="109.5" x2="165.5" y1="302" y2="302"/><!--MD5=[c0122c1e4f2cb04fb7a38c2ed479b538]
reverse link MonoBehaviour to SplashScreenButtonEvents--><path d="M137.5,76.27 C137.5,89.12 137.5,103.17 137.5,115.94 " fill="none" id="MonoBehaviour&lt;-SplashScreenButtonEvents" style="stroke: #A80036; stroke-width: 1.0;"/><polygon fill="none" points="130.5,76.22,137.5,56.22,144.5,76.22,130.5,76.22" style="stroke: #A80036; stroke-width: 1.0;"/><!--MD5=[ff2f6a0a5fbe5824c7f8738bb6dbdfd7]
link SplashScreenButtonEvents to Text--><path d="M137.5,202.32 C137.5,220.14 137.5,240.41 137.5,256.42 " fill="none" id="SplashScreenButtonEvents-&gt;Text" style="stroke: #A80036; stroke-width: 1.0;"/><polygon fill="#A80036" points="137.5,261.67,141.5,252.67,137.5,256.67,133.5,252.67,137.5,261.67" style="stroke: #A80036; stroke-width: 1.0;"/><text fill="#000000" font-family="sans-serif" font-size="13" lengthAdjust="spacingAndGlyphs" textLength="71" x="57.8469" y="250.9945">LoadingObj</text><!--MD5=[c0a65054c3af15e40303920f71994196]
@startuml
class SplashScreenButtonEvents {
    Start() : void
    ChangeState() : void
    SceneLoaderWithLoadingBar() : IEnumerator
}
MonoBehaviour <|- - SplashScreenButtonEvents
SplashScreenButtonEvents - -> "LoadingObj" Text
@enduml

PlantUML version 1.2020.02(Sun Mar 01 10:22:07 GMT 2020)
(GPL source distribution)
Java Runtime: OpenJDK Runtime Environment
JVM: OpenJDK 64-Bit Server VM
Java Version: 11.0.9+11-Ubuntu-0ubuntu1
Operating System: Linux
Default Encoding: ANSI_X3.4-1968
Language: en
Country: US
--></g></svg>