<?xml version="1.0" encoding="UTF-8" standalone="no"?><svg xmlns="http://www.w3.org/2000/svg" xmlns:xlink="http://www.w3.org/1999/xlink" contentScriptType="application/ecmascript" contentStyleType="text/css" height="258px" preserveAspectRatio="none" style="width:374px;height:258px;" version="1.1" viewBox="0 0 374 258" width="374px" zoomAndPan="magnify"><defs><filter height="300%" id="f175cxc1nokgc4" width="300%" x="-1" y="-1"><feGaussianBlur result="blurOut" stdDeviation="2.0"/><feColorMatrix in="blurOut" result="blurOut2" type="matrix" values="0 0 0 0 0 0 0 0 0 0 0 0 0 0 0 0 0 0 .4 0"/><feOffset dx="4.0" dy="4.0" in="blurOut2" result="blurOut3"/><feBlend in="SourceGraphic" in2="blurOut3" mode="normal"/></filter></defs><g><!--MD5=[1a885841d73f43fcfa5dfa8ef56726a1]
class StateSingleton--><rect fill="#FEFECE" filter="url(#f175cxc1nokgc4)" height="66.7422" id="StateSingleton" style="stroke: #A80036; stroke-width: 1.5;" width="125" x="152.5" y="8"/><ellipse cx="167.5" cy="26.9688" fill="#ADD1B2" rx="11" ry="11" style="stroke: #A80036; stroke-width: 1.0;"/><path d="M170.4688,32.6094 Q169.8906,32.9063 169.25,33.0469 Q168.6094,33.2031 167.9063,33.2031 Q165.4063,33.2031 164.0781,31.5625 Q162.7656,29.9063 162.7656,26.7813 Q162.7656,23.6563 164.0781,22 Q165.4063,20.3438 167.9063,20.3438 Q168.6094,20.3438 169.25,20.5 Q169.9063,20.6563 170.4688,20.9531 L170.4688,23.6719 Q169.8438,23.0938 169.25,22.8281 Q168.6563,22.5469 168.0313,22.5469 Q166.6875,22.5469 166,23.625 Q165.3125,24.6875 165.3125,26.7813 Q165.3125,28.875 166,29.9531 Q166.6875,31.0156 168.0313,31.0156 Q168.6563,31.0156 169.25,30.75 Q169.8438,30.4688 170.4688,29.8906 L170.4688,32.6094 Z "/><text fill="#000000" font-family="sans-serif" font-size="12" font-style="italic" lengthAdjust="spacingAndGlyphs" textLength="48" x="204" y="24.1387">«static»</text><text fill="#000000" font-family="sans-serif" font-size="12" lengthAdjust="spacingAndGlyphs" textLength="93" x="181.5" y="38.1074">StateSingleton</text><line style="stroke: #A80036; stroke-width: 1.5;" x1="153.5" x2="276.5" y1="45.9375" y2="45.9375"/><line style="stroke: #A80036; stroke-width: 1.5;" x1="153.5" x2="276.5" y1="53.9375" y2="53.9375"/><text fill="#000000" font-family="sans-serif" font-size="11" lengthAdjust="spacingAndGlyphs" text-decoration="underline" textLength="91" x="158.5" y="68.1479">StateSingleton()</text><!--MD5=[28f01c60fc05b1b81170dac4aed3513c]
class StateView--><rect fill="#FEFECE" filter="url(#f175cxc1nokgc4)" height="112.0234" id="StateView" style="stroke: #A80036; stroke-width: 1.5;" width="222" x="6" y="135"/><ellipse cx="81.75" cy="151" fill="#EB937F" rx="11" ry="11" style="stroke: #A80036; stroke-width: 1.0;"/><path d="M85.8594,157 L78.1406,157 L78.1406,144.6094 L85.8594,144.6094 L85.8594,146.7656 L80.5938,146.7656 L80.5938,149.4375 L85.3594,149.4375 L85.3594,151.5938 L80.5938,151.5938 L80.5938,154.8438 L85.8594,154.8438 L85.8594,157 Z "/><text fill="#000000" font-family="sans-serif" font-size="12" lengthAdjust="spacingAndGlyphs" textLength="62" x="102.25" y="155.1543">StateView</text><line style="stroke: #A80036; stroke-width: 1.5;" x1="7" x2="227" y1="167" y2="167"/><text fill="#000000" font-family="sans-serif" font-size="11" lengthAdjust="spacingAndGlyphs" textLength="42" x="12" y="181.2104">UNSET,</text><text fill="#000000" font-family="sans-serif" font-size="11" lengthAdjust="spacingAndGlyphs" textLength="52" x="12" y="194.0151">MODE2D,</text><text fill="#000000" font-family="sans-serif" font-size="11" lengthAdjust="spacingAndGlyphs" textLength="122" x="12" y="206.8198">MODE2D_PLUS_3DVP,</text><text fill="#000000" font-family="sans-serif" font-size="11" lengthAdjust="spacingAndGlyphs" textLength="140" x="12" y="219.6245">MODE2D_PLUS_OCULUS,</text><text fill="#000000" font-family="sans-serif" font-size="11" lengthAdjust="spacingAndGlyphs" textLength="210" x="12" y="232.4292">MODE2D_PLUS_3DVP_PLUS_OCULUS,</text><line style="stroke: #A80036; stroke-width: 1.5;" x1="7" x2="227" y1="239.0234" y2="239.0234"/><!--MD5=[6d305c284579aedd1c96f99978347811]
class StateMode--><rect fill="#FEFECE" filter="url(#f175cxc1nokgc4)" height="99.2188" id="StateMode" style="stroke: #A80036; stroke-width: 1.5;" width="100" x="263" y="141.5"/><ellipse cx="278" cy="157.5" fill="#EB937F" rx="11" ry="11" style="stroke: #A80036; stroke-width: 1.0;"/><path d="M282.1094,163.5 L274.3906,163.5 L274.3906,151.1094 L282.1094,151.1094 L282.1094,153.2656 L276.8438,153.2656 L276.8438,155.9375 L281.6094,155.9375 L281.6094,158.0938 L276.8438,158.0938 L276.8438,161.3438 L282.1094,161.3438 L282.1094,163.5 Z "/><text fill="#000000" font-family="sans-serif" font-size="12" lengthAdjust="spacingAndGlyphs" textLength="68" x="292" y="161.6543">StateMode</text><line style="stroke: #A80036; stroke-width: 1.5;" x1="264" x2="362" y1="173.5" y2="173.5"/><text fill="#000000" font-family="sans-serif" font-size="11" lengthAdjust="spacingAndGlyphs" textLength="42" x="269" y="187.7104">UNSET,</text><text fill="#000000" font-family="sans-serif" font-size="11" lengthAdjust="spacingAndGlyphs" textLength="53" x="269" y="200.5151">WALKING,</text><text fill="#000000" font-family="sans-serif" font-size="11" lengthAdjust="spacingAndGlyphs" textLength="43" x="269" y="213.3198">FLIGHT,</text><text fill="#000000" font-family="sans-serif" font-size="11" lengthAdjust="spacingAndGlyphs" textLength="43" x="269" y="226.1245">DRONE,</text><line style="stroke: #A80036; stroke-width: 1.5;" x1="264" x2="362" y1="232.7188" y2="232.7188"/><!--MD5=[5259ae0f68f8000e2a33171d26c0a80c]
link StateSingleton to StateView--><path d="M182.45,75.24 C169.92,91.49 155.95,111.64 144,130.5 " fill="none" id="StateSingleton-&gt;StateView" style="stroke: #A80036; stroke-width: 1.0;"/><polygon fill="#A80036" points="141.32,134.76,149.5086,129.2876,143.9905,130.5329,142.7452,125.0148,141.32,134.76" style="stroke: #A80036; stroke-width: 1.0;"/><text fill="#000000" font-family="sans-serif" font-size="13" lengthAdjust="spacingAndGlyphs" textLength="62" x="78.5059" y="124.0652">stateView</text><!--MD5=[e3ec034ff76ca319dd7fdcec3acbe7d3]
reverse link StateSingleton to StateView--><path d="M196.97,88.64 C188.23,103.26 177.56,119.57 166.82,134.76 " fill="none" id="StateSingleton&lt;-StateView" style="stroke: #A80036; stroke-width: 1.0;"/><ellipse cx="200.6979" cy="82.1728" fill="#FFFFFF" rx="8" ry="8" style="stroke: #A80036; stroke-width: 1.0;"/><line style="stroke: #A80036; stroke-width: 1.0;" x1="196.7059" x2="204.69" y1="89.1056" y2="75.24"/><line style="stroke: #A80036; stroke-width: 1.0;" x1="193.7652" x2="207.6307" y1="78.1807" y2="86.1648"/><!--MD5=[2e7093564b77be074d3f200d85df63e6]
link StateSingleton to StateMode--><path d="M225.94,75.24 C236.11,93.46 250.98,116.57 265.69,137.28 " fill="none" id="StateSingleton-&gt;StateMode" style="stroke: #A80036; stroke-width: 1.0;"/><polygon fill="#A80036" points="268.63,141.39,266.6442,131.7434,265.7198,137.3242,260.139,136.3998,268.63,141.39" style="stroke: #A80036; stroke-width: 1.0;"/><text fill="#000000" font-family="sans-serif" font-size="13" lengthAdjust="spacingAndGlyphs" textLength="68" x="267.1717" y="130.4198">stateMode</text><!--MD5=[63995e900d90f15ef4e612a5b78878a5]
reverse link StateSingleton to StateMode--><path d="M257.58,87.69 C270.06,104.69 283.02,124.09 293.48,141.39 " fill="none" id="StateSingleton&lt;-StateMode" style="stroke: #A80036; stroke-width: 1.0;"/><ellipse cx="253.0071" cy="81.6272" fill="#FFFFFF" rx="8" ry="8" style="stroke: #A80036; stroke-width: 1.0;"/><line style="stroke: #A80036; stroke-width: 1.0;" x1="257.8241" x2="248.19" y1="88.0143" y2="75.24"/><line style="stroke: #A80036; stroke-width: 1.0;" x1="246.6199" x2="259.3942" y1="86.4442" y2="76.8101"/><!--MD5=[6e2a7b348b46d6cf0f6a3e8e3ba4cb02]
@startuml
class StateSingleton <<static>> {
    {static} StateSingleton()
}
enum StateView {
    UNSET,
    MODE2D,
    MODE2D_PLUS_3DVP,
    MODE2D_PLUS_OCULUS,
    MODE2D_PLUS_3DVP_PLUS_OCULUS,
}
enum StateMode {
    UNSET,
    WALKING,
    FLIGHT,
    DRONE,
}
StateSingleton - -> "stateView" StateView
StateSingleton - -> "stateMode" StateMode
StateSingleton +- - StateView
StateSingleton +- - StateMode
@enduml

PlantUML version 1.2020.02(Sun Mar 01 10:22:07 GMT 2020)
(GPL source distribution)
Java Runtime: OpenJDK Runtime Environment
JVM: OpenJDK 64-Bit Server VM
Java Version: 11.0.9+11-Ubuntu-0ubuntu1
Operating System: Linux
Default Encoding: ANSI_X3.4-1968
Language: en
Country: US
--></g></svg>