<?xml version="1.0" encoding="UTF-8" standalone="no"?><svg xmlns="http://www.w3.org/2000/svg" xmlns:xlink="http://www.w3.org/1999/xlink" contentScriptType="application/ecmascript" contentStyleType="text/css" height="360px" preserveAspectRatio="none" style="width:469px;height:360px;" version="1.1" viewBox="0 0 469 360" width="469px" zoomAndPan="magnify"><defs><filter height="300%" id="fuaiyqkklphfv" width="300%" x="-1" y="-1"><feGaussianBlur result="blurOut" stdDeviation="2.0"/><feColorMatrix in="blurOut" result="blurOut2" type="matrix" values="0 0 0 0 0 0 0 0 0 0 0 0 0 0 0 0 0 0 .4 0"/><feOffset dx="4.0" dy="4.0" in="blurOut2" result="blurOut3"/><feBlend in="SourceGraphic" in2="blurOut3" mode="normal"/></filter></defs><g><!--MD5=[3d91eed8a5fb97066f89b7a9b5f07894]
class TileData--><rect fill="#FEFECE" filter="url(#fuaiyqkklphfv)" height="124.8281" id="TileData" style="stroke: #A80036; stroke-width: 1.5;" width="218" x="182.8" y="116"/><ellipse cx="262.05" cy="132" fill="#ADD1B2" rx="11" ry="11" style="stroke: #A80036; stroke-width: 1.0;"/><path d="M265.0188,137.6406 Q264.4406,137.9375 263.8,138.0781 Q263.1594,138.2344 262.4563,138.2344 Q259.9563,138.2344 258.6281,136.5938 Q257.3156,134.9375 257.3156,131.8125 Q257.3156,128.6875 258.6281,127.0313 Q259.9563,125.375 262.4563,125.375 Q263.1594,125.375 263.8,125.5313 Q264.4563,125.6875 265.0188,125.9844 L265.0188,128.7031 Q264.3938,128.125 263.8,127.8594 Q263.2063,127.5781 262.5813,127.5781 Q261.2375,127.5781 260.55,128.6563 Q259.8625,129.7188 259.8625,131.8125 Q259.8625,133.9063 260.55,134.9844 Q261.2375,136.0469 262.5813,136.0469 Q263.2063,136.0469 263.8,135.7813 Q264.3938,135.5 265.0188,134.9219 L265.0188,137.6406 Z "/><text fill="#000000" font-family="sans-serif" font-size="12" lengthAdjust="spacingAndGlyphs" textLength="51" x="282.55" y="136.1543">TileData</text><line style="stroke: #A80036; stroke-width: 1.5;" x1="183.8" x2="399.8" y1="148" y2="148"/><ellipse cx="193.8" cy="159" fill="none" rx="3" ry="3" style="stroke: #038048; stroke-width: 1.0;"/><text fill="#000000" font-family="sans-serif" font-size="11" lengthAdjust="spacingAndGlyphs" textLength="114" x="202.8" y="162.2104">tileFileName : string</text><ellipse cx="193.8" cy="171.8047" fill="none" rx="3" ry="3" style="stroke: #038048; stroke-width: 1.0;"/><text fill="#000000" font-family="sans-serif" font-size="11" lengthAdjust="spacingAndGlyphs" textLength="156" x="202.8" y="175.0151">globalScaleFactor : decimal</text><ellipse cx="193.8" cy="184.6094" fill="none" rx="3" ry="3" style="stroke: #038048; stroke-width: 1.0;"/><text fill="#000000" font-family="sans-serif" font-size="11" lengthAdjust="spacingAndGlyphs" textLength="192" x="202.8" y="187.8198">globalHeightScaleFactor : decimal</text><ellipse cx="193.8" cy="197.4141" fill="none" rx="3" ry="3" style="stroke: #038048; stroke-width: 1.0;"/><text fill="#000000" font-family="sans-serif" font-size="11" lengthAdjust="spacingAndGlyphs" textLength="136" x="202.8" y="200.6245">totalNumberOfTiles : int</text><line style="stroke: #A80036; stroke-width: 1.5;" x1="183.8" x2="399.8" y1="207.2188" y2="207.2188"/><text fill="#000000" font-family="sans-serif" font-size="11" lengthAdjust="spacingAndGlyphs" textLength="71" x="188.8" y="221.4292">Start() : void</text><text fill="#000000" font-family="sans-serif" font-size="11" lengthAdjust="spacingAndGlyphs" textLength="83" x="188.8" y="234.2339">Update() : void</text><!--MD5=[83b3cf3d23d77c6f1e1b5291a241bc2a]
class MonoBehaviour--><rect fill="#FEFECE" filter="url(#fuaiyqkklphfv)" height="48" id="MonoBehaviour" style="stroke: #A80036; stroke-width: 1.5;" width="128" x="227.8" y="8"/><ellipse cx="242.8" cy="24" fill="#ADD1B2" rx="11" ry="11" style="stroke: #A80036; stroke-width: 1.0;"/><path d="M245.7688,29.6406 Q245.1906,29.9375 244.55,30.0781 Q243.9094,30.2344 243.2063,30.2344 Q240.7063,30.2344 239.3781,28.5938 Q238.0656,26.9375 238.0656,23.8125 Q238.0656,20.6875 239.3781,19.0313 Q240.7063,17.375 243.2063,17.375 Q243.9094,17.375 244.55,17.5313 Q245.2063,17.6875 245.7688,17.9844 L245.7688,20.7031 Q245.1438,20.125 244.55,19.8594 Q243.9563,19.5781 243.3313,19.5781 Q241.9875,19.5781 241.3,20.6563 Q240.6125,21.7188 240.6125,23.8125 Q240.6125,25.9063 241.3,26.9844 Q241.9875,28.0469 243.3313,28.0469 Q243.9563,28.0469 244.55,27.7813 Q245.1438,27.5 245.7688,26.9219 L245.7688,29.6406 Z "/><text fill="#000000" font-family="sans-serif" font-size="12" lengthAdjust="spacingAndGlyphs" textLength="96" x="256.8" y="28.1543">MonoBehaviour</text><line style="stroke: #A80036; stroke-width: 1.5;" x1="228.8" x2="354.8" y1="40" y2="40"/><line style="stroke: #A80036; stroke-width: 1.5;" x1="228.8" x2="354.8" y1="48" y2="48"/><!--MD5=[dc20ee3f0f361795c68e41c3587a88b5]
class Vector3Decimal--><rect fill="#FEFECE" filter="url(#fuaiyqkklphfv)" height="48" id="Vector3Decimal" style="stroke: #A80036; stroke-width: 1.5;" width="130" x="18.8" y="301"/><ellipse cx="33.8" cy="317" fill="#ADD1B2" rx="11" ry="11" style="stroke: #A80036; stroke-width: 1.0;"/><path d="M36.7688,322.6406 Q36.1906,322.9375 35.55,323.0781 Q34.9094,323.2344 34.2063,323.2344 Q31.7062,323.2344 30.3781,321.5938 Q29.0656,319.9375 29.0656,316.8125 Q29.0656,313.6875 30.3781,312.0313 Q31.7062,310.375 34.2063,310.375 Q34.9094,310.375 35.55,310.5313 Q36.2063,310.6875 36.7688,310.9844 L36.7688,313.7031 Q36.1438,313.125 35.55,312.8594 Q34.9563,312.5781 34.3313,312.5781 Q32.9875,312.5781 32.3,313.6563 Q31.6125,314.7188 31.6125,316.8125 Q31.6125,318.9063 32.3,319.9844 Q32.9875,321.0469 34.3313,321.0469 Q34.9563,321.0469 35.55,320.7813 Q36.1438,320.5 36.7688,319.9219 L36.7688,322.6406 Z "/><text fill="#000000" font-family="sans-serif" font-size="12" lengthAdjust="spacingAndGlyphs" textLength="98" x="47.8" y="321.1543">Vector3Decimal</text><line style="stroke: #A80036; stroke-width: 1.5;" x1="19.8" x2="147.8" y1="333" y2="333"/><line style="stroke: #A80036; stroke-width: 1.5;" x1="19.8" x2="147.8" y1="341" y2="341"/><!--MD5=[6edc259cc6894202c981acd21687e5bf]
class TileObject--><rect fill="#FEFECE" filter="url(#fuaiyqkklphfv)" height="48" id="TileObject" style="stroke: #A80036; stroke-width: 1.5;" width="93" x="184.3" y="301"/><ellipse cx="199.3" cy="317" fill="#ADD1B2" rx="11" ry="11" style="stroke: #A80036; stroke-width: 1.0;"/><path d="M202.2688,322.6406 Q201.6906,322.9375 201.05,323.0781 Q200.4094,323.2344 199.7063,323.2344 Q197.2063,323.2344 195.8781,321.5938 Q194.5656,319.9375 194.5656,316.8125 Q194.5656,313.6875 195.8781,312.0313 Q197.2063,310.375 199.7063,310.375 Q200.4094,310.375 201.05,310.5313 Q201.7063,310.6875 202.2688,310.9844 L202.2688,313.7031 Q201.6438,313.125 201.05,312.8594 Q200.4563,312.5781 199.8313,312.5781 Q198.4875,312.5781 197.8,313.6563 Q197.1125,314.7188 197.1125,316.8125 Q197.1125,318.9063 197.8,319.9844 Q198.4875,321.0469 199.8313,321.0469 Q200.4563,321.0469 201.05,320.7813 Q201.6438,320.5 202.2688,319.9219 L202.2688,322.6406 Z "/><text fill="#000000" font-family="sans-serif" font-size="12" lengthAdjust="spacingAndGlyphs" textLength="61" x="213.3" y="321.1543">TileObject</text><line style="stroke: #A80036; stroke-width: 1.5;" x1="185.3" x2="276.3" y1="333" y2="333"/><line style="stroke: #A80036; stroke-width: 1.5;" x1="185.3" x2="276.3" y1="341" y2="341"/><!--MD5=[65d619c042c23702cef2ca07d67b1cf6]
class Vector3--><rect fill="#FEFECE" filter="url(#fuaiyqkklphfv)" height="48" id="Vector3" style="stroke: #A80036; stroke-width: 1.5;" width="81" x="312.3" y="301"/><ellipse cx="327.3" cy="317" fill="#ADD1B2" rx="11" ry="11" style="stroke: #A80036; stroke-width: 1.0;"/><path d="M330.2688,322.6406 Q329.6906,322.9375 329.05,323.0781 Q328.4094,323.2344 327.7063,323.2344 Q325.2063,323.2344 323.8781,321.5938 Q322.5656,319.9375 322.5656,316.8125 Q322.5656,313.6875 323.8781,312.0313 Q325.2063,310.375 327.7063,310.375 Q328.4094,310.375 329.05,310.5313 Q329.7063,310.6875 330.2688,310.9844 L330.2688,313.7031 Q329.6438,313.125 329.05,312.8594 Q328.4563,312.5781 327.8313,312.5781 Q326.4875,312.5781 325.8,313.6563 Q325.1125,314.7188 325.1125,316.8125 Q325.1125,318.9063 325.8,319.9844 Q326.4875,321.0469 327.8313,321.0469 Q328.4563,321.0469 329.05,320.7813 Q329.6438,320.5 330.2688,319.9219 L330.2688,322.6406 Z "/><text fill="#000000" font-family="sans-serif" font-size="12" lengthAdjust="spacingAndGlyphs" textLength="49" x="341.3" y="321.1543">Vector3</text><line style="stroke: #A80036; stroke-width: 1.5;" x1="313.3" x2="392.3" y1="333" y2="333"/><line style="stroke: #A80036; stroke-width: 1.5;" x1="313.3" x2="392.3" y1="341" y2="341"/><!--MD5=[07657739d73f7ceda4f909e488ef09e5]
reverse link MonoBehaviour to TileData--><path d="M291.8,76.67 C291.8,89.05 291.8,102.77 291.8,115.99 " fill="none" id="MonoBehaviour&lt;-TileData" style="stroke: #A80036; stroke-width: 1.0;"/><polygon fill="none" points="284.8,76.22,291.8,56.22,298.8,76.22,284.8,76.22" style="stroke: #A80036; stroke-width: 1.0;"/><!--MD5=[074e13aea207b60f775132fd1849a5a4]
link TileData to Vector3Decimal--><path d="M202.99,241.2 C174.3,261.13 144.03,282.16 121.18,298.03 " fill="none" id="TileData-&gt;Vector3Decimal" style="stroke: #A80036; stroke-width: 1.0;"/><polygon fill="#A80036" points="117,300.94,126.6752,299.0989,121.1089,298.091,122.1168,292.5246,117,300.94" style="stroke: #A80036; stroke-width: 1.0;"/><text fill="#000000" font-family="sans-serif" font-size="13" lengthAdjust="spacingAndGlyphs" textLength="96" x="17.2075" y="289.9367">tileRealPosition</text><!--MD5=[34ea27c1de77a734627c9470e8256088]
link TileData to TileObject--><path d="M265.75,241.2 C257.65,260.39 249.13,280.59 242.52,296.23 " fill="none" id="TileData-&gt;TileObject" style="stroke: #A80036; stroke-width: 1.0;"/><polygon fill="#A80036" points="240.54,300.94,247.7265,294.2055,242.4854,296.334,240.3569,291.0928,240.54,300.94" style="stroke: #A80036; stroke-width: 1.0;"/><text fill="#000000" font-family="sans-serif" font-size="13" lengthAdjust="spacingAndGlyphs" textLength="60" x="175.3484" y="289.9367">tileObject</text><!--MD5=[623cc8c39dcd7a8c0e7dfbfeeb3c5b1d]
link TileData to Vector3--><path d="M305.22,241.2 C312.87,260.39 322.18,280.59 330.78,296.23 " fill="none" id="TileData-&gt;Vector3" style="stroke: #A80036; stroke-width: 1.0;"/><polygon fill="#A80036" points="333.43,300.94,332.4933,291.1358,330.9739,296.5848,325.5249,295.0655,333.43,300.94" style="stroke: #A80036; stroke-width: 1.0;"/><text fill="#000000" font-family="sans-serif" font-size="13" lengthAdjust="spacingAndGlyphs" textLength="69" x="281.8314" y="289.8748">terrainSize</text><!--MD5=[623cc8c39dcd7a8c0e7dfbfeeb3c5b1d]
link TileData to Vector3--><path d="M331.22,241.2 C339.71,260.22 347.36,280.24 351.86,295.83 " fill="none" id="TileData-&gt;Vector3-1" style="stroke: #A80036; stroke-width: 1.0;"/><polygon fill="#A80036" points="353.27,300.94,354.7317,291.2002,351.9399,296.1202,347.0199,293.3284,353.27,300.94" style="stroke: #A80036; stroke-width: 1.0;"/><text fill="#000000" font-family="sans-serif" font-size="13" lengthAdjust="spacingAndGlyphs" textLength="92" x="365.1779" y="289.9367">terrainPosition</text><!--MD5=[4c5669ea74d8011c353b4d617844cfc8]
@startuml
class TileData {
    + tileFileName : string
    + globalScaleFactor : decimal
    + globalHeightScaleFactor : decimal
    + totalNumberOfTiles : int
    Start() : void
    Update() : void
}
MonoBehaviour <|- - TileData
TileData - -> "tileRealPosition" Vector3Decimal
TileData - -> "tileObject" TileObject
TileData - -> "terrainSize" Vector3
TileData - -> "terrainPosition" Vector3
@enduml

PlantUML version 1.2020.02(Sun Mar 01 10:22:07 GMT 2020)
(GPL source distribution)
Java Runtime: OpenJDK Runtime Environment
JVM: OpenJDK 64-Bit Server VM
Java Version: 11.0.9+11-Ubuntu-0ubuntu1
Operating System: Linux
Default Encoding: ANSI_X3.4-1968
Language: en
Country: US
--></g></svg>