<?xml version="1.0" encoding="UTF-8" standalone="no"?><svg xmlns="http://www.w3.org/2000/svg" xmlns:xlink="http://www.w3.org/1999/xlink" contentScriptType="application/ecmascript" contentStyleType="text/css" height="449px" preserveAspectRatio="none" style="width:627px;height:449px;" version="1.1" viewBox="0 0 627 449" width="627px" zoomAndPan="magnify"><defs><filter height="300%" id="f16xuaiits597l" width="300%" x="-1" y="-1"><feGaussianBlur result="blurOut" stdDeviation="2.0"/><feColorMatrix in="blurOut" result="blurOut2" type="matrix" values="0 0 0 0 0 0 0 0 0 0 0 0 0 0 0 0 0 0 .4 0"/><feOffset dx="4.0" dy="4.0" in="blurOut2" result="blurOut3"/><feBlend in="SourceGraphic" in2="blurOut3" mode="normal"/></filter></defs><g><!--MD5=[ccf45357b7daedbf2774cc680cb5012d]
class TopCameraControlller--><rect fill="#FEFECE" filter="url(#f16xuaiits597l)" height="214.4609" id="TopCameraControlller" style="stroke: #A80036; stroke-width: 1.5;" width="322" x="6" y="116"/><ellipse cx="95.25" cy="132" fill="#ADD1B2" rx="11" ry="11" style="stroke: #A80036; stroke-width: 1.0;"/><path d="M98.2188,137.6406 Q97.6406,137.9375 97,138.0781 Q96.3594,138.2344 95.6563,138.2344 Q93.1563,138.2344 91.8281,136.5938 Q90.5156,134.9375 90.5156,131.8125 Q90.5156,128.6875 91.8281,127.0313 Q93.1563,125.375 95.6563,125.375 Q96.3594,125.375 97,125.5313 Q97.6563,125.6875 98.2188,125.9844 L98.2188,128.7031 Q97.5938,128.125 97,127.8594 Q96.4063,127.5781 95.7813,127.5781 Q94.4375,127.5781 93.75,128.6563 Q93.0625,129.7188 93.0625,131.8125 Q93.0625,133.9063 93.75,134.9844 Q94.4375,136.0469 95.7813,136.0469 Q96.4063,136.0469 97,135.7813 Q97.5938,135.5 98.2188,134.9219 L98.2188,137.6406 Z "/><text fill="#000000" font-family="sans-serif" font-size="12" lengthAdjust="spacingAndGlyphs" textLength="135" x="115.75" y="136.1543">TopCameraControlller</text><line style="stroke: #A80036; stroke-width: 1.5;" x1="7" x2="327" y1="148" y2="148"/><ellipse cx="17" cy="159" fill="none" rx="3" ry="3" style="stroke: #038048; stroke-width: 1.0;"/><text fill="#000000" font-family="sans-serif" font-size="11" lengthAdjust="spacingAndGlyphs" textLength="110" x="26" y="162.2104">SPEEDXZ : int = 10</text><ellipse cx="17" cy="171.8047" fill="none" rx="3" ry="3" style="stroke: #038048; stroke-width: 1.0;"/><text fill="#000000" font-family="sans-serif" font-size="11" lengthAdjust="spacingAndGlyphs" textLength="103" x="26" y="175.0151">SPEEDZ : int = 10</text><ellipse cx="17" cy="184.6094" fill="none" rx="3" ry="3" style="stroke: #038048; stroke-width: 1.0;"/><text fill="#000000" font-family="sans-serif" font-size="11" lengthAdjust="spacingAndGlyphs" textLength="151" x="26" y="187.8198">SPEEDROTATION : int = 10</text><ellipse cx="17" cy="197.4141" fill="none" rx="3" ry="3" style="stroke: #038048; stroke-width: 1.0;"/><text fill="#000000" font-family="sans-serif" font-size="11" lengthAdjust="spacingAndGlyphs" textLength="156" x="26" y="200.6245">STARTHEIGHT : int = 10000</text><ellipse cx="17" cy="210.2188" fill="none" rx="3" ry="3" style="stroke: #038048; stroke-width: 1.0;"/><text fill="#000000" font-family="sans-serif" font-size="11" lengthAdjust="spacingAndGlyphs" textLength="143" x="26" y="213.4292">MAXHEIGHT : int = 10000</text><ellipse cx="17" cy="223.0234" fill="none" rx="3" ry="3" style="stroke: #038048; stroke-width: 1.0;"/><text fill="#000000" font-family="sans-serif" font-size="11" lengthAdjust="spacingAndGlyphs" textLength="126" x="26" y="226.2339">MINHEIGHT : int = 100</text><ellipse cx="17" cy="235.8281" fill="none" rx="3" ry="3" style="stroke: #038048; stroke-width: 1.0;"/><text fill="#000000" font-family="sans-serif" font-size="11" lengthAdjust="spacingAndGlyphs" textLength="296" x="26" y="239.0386">ROTATIONSMOOTHINGSCALINGFACTOR : float = 3.0f</text><ellipse cx="17" cy="248.6328" fill="none" rx="3" ry="3" style="stroke: #038048; stroke-width: 1.0;"/><text fill="#000000" font-family="sans-serif" font-size="11" lengthAdjust="spacingAndGlyphs" textLength="231" x="26" y="251.8433">ROTATIONSMOOTHINGTIME : float = 0.5F</text><ellipse cx="17" cy="261.4375" fill="none" rx="3" ry="3" style="stroke: #038048; stroke-width: 1.0;"/><text fill="#000000" font-family="sans-serif" font-size="11" lengthAdjust="spacingAndGlyphs" textLength="169" x="26" y="264.6479">ROTATIONCAP : float = 360.0f</text><ellipse cx="17" cy="274.2422" fill="none" rx="3" ry="3" style="stroke: #038048; stroke-width: 1.0;"/><text fill="#000000" font-family="sans-serif" font-size="11" lengthAdjust="spacingAndGlyphs" textLength="150" x="26" y="277.4526">VRSPEEDROT : float = 1.0f</text><line style="stroke: #A80036; stroke-width: 1.5;" x1="7" x2="327" y1="284.0469" y2="284.0469"/><text fill="#000000" font-family="sans-serif" font-size="11" lengthAdjust="spacingAndGlyphs" textLength="71" x="12" y="298.2573">Start() : void</text><text fill="#000000" font-family="sans-serif" font-size="11" lengthAdjust="spacingAndGlyphs" textLength="83" x="12" y="311.062">Update() : void</text><text fill="#000000" font-family="sans-serif" font-size="11" lengthAdjust="spacingAndGlyphs" textLength="168" x="12" y="323.8667">MoveVertical(step:float) : void</text><!--MD5=[83b3cf3d23d77c6f1e1b5291a241bc2a]
class MonoBehaviour--><rect fill="#FEFECE" filter="url(#f16xuaiits597l)" height="48" id="MonoBehaviour" style="stroke: #A80036; stroke-width: 1.5;" width="128" x="103" y="8"/><ellipse cx="118" cy="24" fill="#ADD1B2" rx="11" ry="11" style="stroke: #A80036; stroke-width: 1.0;"/><path d="M120.9688,29.6406 Q120.3906,29.9375 119.75,30.0781 Q119.1094,30.2344 118.4063,30.2344 Q115.9063,30.2344 114.5781,28.5938 Q113.2656,26.9375 113.2656,23.8125 Q113.2656,20.6875 114.5781,19.0313 Q115.9063,17.375 118.4063,17.375 Q119.1094,17.375 119.75,17.5313 Q120.4063,17.6875 120.9688,17.9844 L120.9688,20.7031 Q120.3438,20.125 119.75,19.8594 Q119.1563,19.5781 118.5313,19.5781 Q117.1875,19.5781 116.5,20.6563 Q115.8125,21.7188 115.8125,23.8125 Q115.8125,25.9063 116.5,26.9844 Q117.1875,28.0469 118.5313,28.0469 Q119.1563,28.0469 119.75,27.7813 Q120.3438,27.5 120.9688,26.9219 L120.9688,29.6406 Z "/><text fill="#000000" font-family="sans-serif" font-size="12" lengthAdjust="spacingAndGlyphs" textLength="96" x="132" y="28.1543">MonoBehaviour</text><line style="stroke: #A80036; stroke-width: 1.5;" x1="104" x2="230" y1="40" y2="40"/><line style="stroke: #A80036; stroke-width: 1.5;" x1="104" x2="230" y1="48" y2="48"/><!--MD5=[ee4c508de9d16bc5a4ce1076f631897d]
class KeyCode--><rect fill="#FEFECE" filter="url(#f16xuaiits597l)" height="48" id="KeyCode" style="stroke: #A80036; stroke-width: 1.5;" width="85" x="363.5" y="199"/><ellipse cx="378.5" cy="215" fill="#ADD1B2" rx="11" ry="11" style="stroke: #A80036; stroke-width: 1.0;"/><path d="M381.4688,220.6406 Q380.8906,220.9375 380.25,221.0781 Q379.6094,221.2344 378.9063,221.2344 Q376.4063,221.2344 375.0781,219.5938 Q373.7656,217.9375 373.7656,214.8125 Q373.7656,211.6875 375.0781,210.0313 Q376.4063,208.375 378.9063,208.375 Q379.6094,208.375 380.25,208.5313 Q380.9063,208.6875 381.4688,208.9844 L381.4688,211.7031 Q380.8438,211.125 380.25,210.8594 Q379.6563,210.5781 379.0313,210.5781 Q377.6875,210.5781 377,211.6563 Q376.3125,212.7188 376.3125,214.8125 Q376.3125,216.9063 377,217.9844 Q377.6875,219.0469 379.0313,219.0469 Q379.6563,219.0469 380.25,218.7813 Q380.8438,218.5 381.4688,217.9219 L381.4688,220.6406 Z "/><text fill="#000000" font-family="sans-serif" font-size="12" lengthAdjust="spacingAndGlyphs" textLength="53" x="392.5" y="219.1543">KeyCode</text><line style="stroke: #A80036; stroke-width: 1.5;" x1="364.5" x2="447.5" y1="231" y2="231"/><line style="stroke: #A80036; stroke-width: 1.5;" x1="364.5" x2="447.5" y1="239" y2="239"/><!--MD5=[064f7a74fee85463ec1a30143664ee17]
class GameObject--><rect fill="#FEFECE" filter="url(#f16xuaiits597l)" height="48" id="GameObject" style="stroke: #A80036; stroke-width: 1.5;" width="108" x="113" y="390"/><ellipse cx="128" cy="406" fill="#ADD1B2" rx="11" ry="11" style="stroke: #A80036; stroke-width: 1.0;"/><path d="M130.9688,411.6406 Q130.3906,411.9375 129.75,412.0781 Q129.1094,412.2344 128.4063,412.2344 Q125.9063,412.2344 124.5781,410.5938 Q123.2656,408.9375 123.2656,405.8125 Q123.2656,402.6875 124.5781,401.0313 Q125.9063,399.375 128.4063,399.375 Q129.1094,399.375 129.75,399.5313 Q130.4063,399.6875 130.9688,399.9844 L130.9688,402.7031 Q130.3438,402.125 129.75,401.8594 Q129.1563,401.5781 128.5313,401.5781 Q127.1875,401.5781 126.5,402.6563 Q125.8125,403.7188 125.8125,405.8125 Q125.8125,407.9063 126.5,408.9844 Q127.1875,410.0469 128.5313,410.0469 Q129.1563,410.0469 129.75,409.7813 Q130.3438,409.5 130.9688,408.9219 L130.9688,411.6406 Z "/><text fill="#000000" font-family="sans-serif" font-size="12" lengthAdjust="spacingAndGlyphs" textLength="76" x="142" y="410.1543">GameObject</text><line style="stroke: #A80036; stroke-width: 1.5;" x1="114" x2="220" y1="422" y2="422"/><line style="stroke: #A80036; stroke-width: 1.5;" x1="114" x2="220" y1="430" y2="430"/><!--MD5=[a039a2343e812a42ae868e7b6cf6e2b5]
reverse link MonoBehaviour to TopCameraControlller--><path d="M167,76.34 C167,88.3 167,101.83 167,115.71 " fill="none" id="MonoBehaviour&lt;-TopCameraControlller" style="stroke: #A80036; stroke-width: 1.0;"/><polygon fill="none" points="160,76.18,167,56.18,174,76.18,160,76.18" style="stroke: #A80036; stroke-width: 1.0;"/><!--MD5=[41b32a9559874cddfc81646b6dab1d1b]
link TopCameraControlller to KeyCode--><path d="M338.6213,287.8899 C338.6213,287.8899 364.91,269.57 377.41,256.8 " fill="none" id="TopCameraControlller-KeyCode" style="stroke: #A80036; stroke-width: 1.0;"/><polygon fill="#A80036" points="386.51,247.04,377.4499,250.9019,383.1031,250.6997,383.3053,256.3529,386.51,247.04" style="stroke: #A80036; stroke-width: 1.0;"/><line style="stroke: #A80036; stroke-width: 1.0;" x1="383.1031" x2="377.65" y1="250.6997" y2="256.55"/><polygon fill="#FFFFFF" points="328.04,293.55,335.2173,294.2471,338.6213,287.8899,331.444,287.1929,328.04,293.55" style="stroke: #A80036; stroke-width: 1.0;"/><text fill="#000000" font-family="sans-serif" font-size="13" lengthAdjust="spacingAndGlyphs" textLength="41" x="335.2626" y="267.206">KEYUP</text><!--MD5=[41b32a9559874cddfc81646b6dab1d1b]
link TopCameraControlller to KeyCode--><path d="M339.8481,244.3827 C339.8481,244.3827 347.53,242.79 350.79,242.01 " fill="none" id="TopCameraControlller-KeyCode-1" style="stroke: #A80036; stroke-width: 1.0;"/><polygon fill="#A80036" points="363.37,238.68,353.6472,237.1092,358.5356,239.956,355.6888,244.8443,363.37,238.68" style="stroke: #A80036; stroke-width: 1.0;"/><line style="stroke: #A80036; stroke-width: 1.0;" x1="358.5356" x2="350.8" y1="239.956" y2="242.005"/><polygon fill="#FFFFFF" points="328.04,246.52,334.6565,249.3874,339.8481,244.3827,333.2316,241.5153,328.04,246.52" style="stroke: #A80036; stroke-width: 1.0;"/><text fill="#000000" font-family="sans-serif" font-size="13" lengthAdjust="spacingAndGlyphs" textLength="64" x="291.8176" y="248.7503">KEYDOWN</text><!--MD5=[41b32a9559874cddfc81646b6dab1d1b]
link TopCameraControlller to KeyCode--><path d="M339.8481,201.6173 C339.8481,201.6173 347.53,203.21 350.79,203.99 " fill="none" id="TopCameraControlller-KeyCode-2" style="stroke: #A80036; stroke-width: 1.0;"/><polygon fill="#A80036" points="363.37,207.32,355.6888,201.1557,358.5356,206.044,353.6472,208.8908,363.37,207.32" style="stroke: #A80036; stroke-width: 1.0;"/><line style="stroke: #A80036; stroke-width: 1.0;" x1="358.5356" x2="350.8" y1="206.044" y2="203.995"/><polygon fill="#FFFFFF" points="328.04,199.48,333.2316,204.4847,339.8481,201.6173,334.6565,196.6126,328.04,199.48" style="stroke: #A80036; stroke-width: 1.0;"/><text fill="#000000" font-family="sans-serif" font-size="13" lengthAdjust="spacingAndGlyphs" textLength="198" x="403.5336" y="187.9185">KEY_SPEED_REGULATOR_PLUS</text><!--MD5=[41b32a9559874cddfc81646b6dab1d1b]
link TopCameraControlller to KeyCode--><path d="M338.6213,158.1101 C338.6213,158.1101 364.91,176.43 377.41,189.2 " fill="none" id="TopCameraControlller-KeyCode-3" style="stroke: #A80036; stroke-width: 1.0;"/><polygon fill="#A80036" points="386.51,198.96,383.3053,189.6471,383.1031,195.3003,377.4499,195.0981,386.51,198.96" style="stroke: #A80036; stroke-width: 1.0;"/><line style="stroke: #A80036; stroke-width: 1.0;" x1="383.1031" x2="377.65" y1="195.3003" y2="189.45"/><polygon fill="#FFFFFF" points="328.04,152.45,331.444,158.8071,338.6213,158.1101,335.2173,151.7529,328.04,152.45" style="stroke: #A80036; stroke-width: 1.0;"/><text fill="#000000" font-family="sans-serif" font-size="13" lengthAdjust="spacingAndGlyphs" textLength="207" x="408.0376" y="187.9618">KEY_SPEED_REGULATOR_MINUS</text><!--MD5=[dad146fa22da3d71876e1551e49840c6]
link TopCameraControlller to GameObject--><path d="M140.93,330.1 C141.55,350.36 143.8,369.9 147.68,384.91 " fill="none" id="TopCameraControlller-&gt;GameObject" style="stroke: #A80036; stroke-width: 1.0;"/><polygon fill="#A80036" points="149.06,389.83,150.468,380.0823,147.7034,385.0176,142.7681,382.2529,149.06,389.83" style="stroke: #A80036; stroke-width: 1.0;"/><text fill="#000000" font-family="sans-serif" font-size="13" lengthAdjust="spacingAndGlyphs" textLength="49" x="89.1848" y="378.7985">camera</text><!--MD5=[dad146fa22da3d71876e1551e49840c6]
link TopCameraControlller to GameObject--><path d="M167,330.1 C167,350.19 167,369.56 167,384.52 " fill="none" id="TopCameraControlller-&gt;GameObject-1" style="stroke: #A80036; stroke-width: 1.0;"/><polygon fill="#A80036" points="167,389.83,171,380.83,167,384.83,163,380.83,167,389.83" style="stroke: #A80036; stroke-width: 1.0;"/><text fill="#000000" font-family="sans-serif" font-size="13" lengthAdjust="spacingAndGlyphs" textLength="39" x="171.9969" y="378.7985">player</text><!--MD5=[dad146fa22da3d71876e1551e49840c6]
link TopCameraControlller to GameObject--><path d="M193.07,330.1 C192.45,350.36 190.2,369.9 186.32,384.91 " fill="none" id="TopCameraControlller-&gt;GameObject-2" style="stroke: #A80036; stroke-width: 1.0;"/><polygon fill="#A80036" points="184.94,389.83,191.2319,382.2529,186.2966,385.0176,183.532,380.0823,184.94,389.83" style="stroke: #A80036; stroke-width: 1.0;"/><text fill="#000000" font-family="sans-serif" font-size="13" lengthAdjust="spacingAndGlyphs" textLength="113" x="204.0152" y="378.7985">OculusTouchRight</text><!--MD5=[e9f83da21f7f073e2881641926237915]
@startuml
class TopCameraControlller {
    + SPEEDXZ : int = 10
    + SPEEDZ : int = 10
    + SPEEDROTATION : int = 10
    + STARTHEIGHT : int = 10000
    + MAXHEIGHT : int = 10000
    + MINHEIGHT : int = 100
    + ROTATIONSMOOTHINGSCALINGFACTOR : float = 3.0f
    + ROTATIONSMOOTHINGTIME : float = 0.5F
    + ROTATIONCAP : float = 360.0f
    + VRSPEEDROT : float = 1.0f
    Start() : void
    Update() : void
    MoveVertical(step:float) : void
}
MonoBehaviour <|- - TopCameraControlller
TopCameraControlller o-> "KEYUP" KeyCode
TopCameraControlller o-> "KEYDOWN" KeyCode
TopCameraControlller o-> "KEY_SPEED_REGULATOR_PLUS" KeyCode
TopCameraControlller o-> "KEY_SPEED_REGULATOR_MINUS" KeyCode
TopCameraControlller - -> "camera" GameObject
TopCameraControlller - -> "player" GameObject
TopCameraControlller - -> "OculusTouchRight" GameObject
@enduml

PlantUML version 1.2020.02(Sun Mar 01 10:22:07 GMT 2020)
(GPL source distribution)
Java Runtime: OpenJDK Runtime Environment
JVM: OpenJDK 64-Bit Server VM
Java Version: 11.0.9+11-Ubuntu-0ubuntu1
Operating System: Linux
Default Encoding: ANSI_X3.4-1968
Language: en
Country: US
--></g></svg>