<?xml version="1.0" encoding="UTF-8" standalone="no"?><svg xmlns="http://www.w3.org/2000/svg" xmlns:xlink="http://www.w3.org/1999/xlink" contentScriptType="application/ecmascript" contentStyleType="text/css" height="187px" preserveAspectRatio="none" style="width:150px;height:187px;" version="1.1" viewBox="0 0 150 187" width="150px" zoomAndPan="magnify"><defs><filter height="300%" id="f10eeubarlmsgm" width="300%" x="-1" y="-1"><feGaussianBlur result="blurOut" stdDeviation="2.0"/><feColorMatrix in="blurOut" result="blurOut2" type="matrix" values="0 0 0 0 0 0 0 0 0 0 0 0 0 0 0 0 0 0 .4 0"/><feOffset dx="4.0" dy="4.0" in="blurOut2" result="blurOut3"/><feBlend in="SourceGraphic" in2="blurOut3" mode="normal"/></filter></defs><g><!--MD5=[eb7adae919d251faa048f267549d4605]
class UIRenderInFront--><rect fill="#FEFECE" filter="url(#f10eeubarlmsgm)" height="60.8047" id="UIRenderInFront" style="stroke: #A80036; stroke-width: 1.5;" width="133" x="6" y="116"/><ellipse cx="21" cy="132" fill="#ADD1B2" rx="11" ry="11" style="stroke: #A80036; stroke-width: 1.0;"/><path d="M23.9688,137.6406 Q23.3906,137.9375 22.75,138.0781 Q22.1094,138.2344 21.4063,138.2344 Q18.9063,138.2344 17.5781,136.5938 Q16.2656,134.9375 16.2656,131.8125 Q16.2656,128.6875 17.5781,127.0313 Q18.9063,125.375 21.4063,125.375 Q22.1094,125.375 22.75,125.5313 Q23.4063,125.6875 23.9688,125.9844 L23.9688,128.7031 Q23.3438,128.125 22.75,127.8594 Q22.1563,127.5781 21.5313,127.5781 Q20.1875,127.5781 19.5,128.6563 Q18.8125,129.7188 18.8125,131.8125 Q18.8125,133.9063 19.5,134.9844 Q20.1875,136.0469 21.5313,136.0469 Q22.1563,136.0469 22.75,135.7813 Q23.3438,135.5 23.9688,134.9219 L23.9688,137.6406 Z "/><text fill="#000000" font-family="sans-serif" font-size="12" lengthAdjust="spacingAndGlyphs" textLength="101" x="35" y="136.1543">UIRenderInFront</text><line style="stroke: #A80036; stroke-width: 1.5;" x1="7" x2="138" y1="148" y2="148"/><ellipse cx="17" cy="159" fill="none" rx="3" ry="3" style="stroke: #038048; stroke-width: 1.0;"/><text fill="#000000" font-family="sans-serif" font-size="11" lengthAdjust="spacingAndGlyphs" textLength="106" x="26" y="162.2104">apply : bool = true</text><line style="stroke: #A80036; stroke-width: 1.5;" x1="7" x2="138" y1="168.8047" y2="168.8047"/><!--MD5=[83b3cf3d23d77c6f1e1b5291a241bc2a]
class MonoBehaviour--><rect fill="#FEFECE" filter="url(#f10eeubarlmsgm)" height="48" id="MonoBehaviour" style="stroke: #A80036; stroke-width: 1.5;" width="128" x="8.5" y="8"/><ellipse cx="23.5" cy="24" fill="#ADD1B2" rx="11" ry="11" style="stroke: #A80036; stroke-width: 1.0;"/><path d="M26.4688,29.6406 Q25.8906,29.9375 25.25,30.0781 Q24.6094,30.2344 23.9063,30.2344 Q21.4063,30.2344 20.0781,28.5938 Q18.7656,26.9375 18.7656,23.8125 Q18.7656,20.6875 20.0781,19.0313 Q21.4063,17.375 23.9063,17.375 Q24.6094,17.375 25.25,17.5313 Q25.9063,17.6875 26.4688,17.9844 L26.4688,20.7031 Q25.8438,20.125 25.25,19.8594 Q24.6563,19.5781 24.0313,19.5781 Q22.6875,19.5781 22,20.6563 Q21.3125,21.7188 21.3125,23.8125 Q21.3125,25.9063 22,26.9844 Q22.6875,28.0469 24.0313,28.0469 Q24.6563,28.0469 25.25,27.7813 Q25.8438,27.5 26.4688,26.9219 L26.4688,29.6406 Z "/><text fill="#000000" font-family="sans-serif" font-size="12" lengthAdjust="spacingAndGlyphs" textLength="96" x="37.5" y="28.1543">MonoBehaviour</text><line style="stroke: #A80036; stroke-width: 1.5;" x1="9.5" x2="135.5" y1="40" y2="40"/><line style="stroke: #A80036; stroke-width: 1.5;" x1="9.5" x2="135.5" y1="48" y2="48"/><!--MD5=[790871c2a9d81b7c511afdd2fdd1dd94]
reverse link MonoBehaviour to UIRenderInFront--><path d="M72.5,76.11 C72.5,89.31 72.5,103.54 72.5,115.65 " fill="none" id="MonoBehaviour&lt;-UIRenderInFront" style="stroke: #A80036; stroke-width: 1.0;"/><polygon fill="none" points="65.5,76.04,72.5,56.04,79.5,76.04,65.5,76.04" style="stroke: #A80036; stroke-width: 1.0;"/><!--MD5=[f7ec6c011f93d95f5ddae3e4b84a202c]
@startuml
class UIRenderInFront {
    + apply : bool = true
}
MonoBehaviour <|- - UIRenderInFront
@enduml

PlantUML version 1.2020.02(Sun Mar 01 10:22:07 GMT 2020)
(GPL source distribution)
Java Runtime: OpenJDK Runtime Environment
JVM: OpenJDK 64-Bit Server VM
Java Version: 11.0.9+11-Ubuntu-0ubuntu1
Operating System: Linux
Default Encoding: ANSI_X3.4-1968
Language: en
Country: US
--></g></svg>