<?xml version="1.0" encoding="UTF-8" standalone="no"?><svg xmlns="http://www.w3.org/2000/svg" xmlns:xlink="http://www.w3.org/1999/xlink" contentScriptType="application/ecmascript" contentStyleType="text/css" height="373px" preserveAspectRatio="none" style="width:605px;height:373px;" version="1.1" viewBox="0 0 605 373" width="605px" zoomAndPan="magnify"><defs><filter height="300%" id="fp5olyyjzd2vt" width="300%" x="-1" y="-1"><feGaussianBlur result="blurOut" stdDeviation="2.0"/><feColorMatrix in="blurOut" result="blurOut2" type="matrix" values="0 0 0 0 0 0 0 0 0 0 0 0 0 0 0 0 0 0 .4 0"/><feOffset dx="4.0" dy="4.0" in="blurOut2" result="blurOut3"/><feBlend in="SourceGraphic" in2="blurOut3" mode="normal"/></filter></defs><g><!--MD5=[3b3b6896349c39f54fba09a0a4f08330]
class ViewController--><rect fill="#FEFECE" filter="url(#fp5olyyjzd2vt)" height="137.6328" id="ViewController" style="stroke: #A80036; stroke-width: 1.5;" width="353" x="65.87" y="116"/><ellipse cx="193.62" cy="132" fill="#ADD1B2" rx="11" ry="11" style="stroke: #A80036; stroke-width: 1.0;"/><path d="M196.5888,137.6406 Q196.0106,137.9375 195.37,138.0781 Q194.7294,138.2344 194.0263,138.2344 Q191.5263,138.2344 190.1981,136.5938 Q188.8856,134.9375 188.8856,131.8125 Q188.8856,128.6875 190.1981,127.0313 Q191.5263,125.375 194.0263,125.375 Q194.7294,125.375 195.37,125.5313 Q196.0263,125.6875 196.5888,125.9844 L196.5888,128.7031 Q195.9638,128.125 195.37,127.8594 Q194.7763,127.5781 194.1513,127.5781 Q192.8075,127.5781 192.12,128.6563 Q191.4325,129.7188 191.4325,131.8125 Q191.4325,133.9063 192.12,134.9844 Q192.8075,136.0469 194.1513,136.0469 Q194.7763,136.0469 195.37,135.7813 Q195.9638,135.5 196.5888,134.9219 L196.5888,137.6406 Z "/><text fill="#000000" font-family="sans-serif" font-size="12" lengthAdjust="spacingAndGlyphs" textLength="89" x="214.12" y="136.1543">ViewController</text><line style="stroke: #A80036; stroke-width: 1.5;" x1="66.87" x2="417.87" y1="148" y2="148"/><ellipse cx="76.87" cy="159" fill="none" rx="3" ry="3" style="stroke: #038048; stroke-width: 1.0;"/><text fill="#000000" font-family="sans-serif" font-size="11" lengthAdjust="spacingAndGlyphs" textLength="225" x="85.87" y="162.2104">oculusCanvasDistance : float = 1000.0f</text><ellipse cx="76.87" cy="171.8047" fill="none" rx="3" ry="3" style="stroke: #038048; stroke-width: 1.0;"/><text fill="#000000" font-family="sans-serif" font-size="11" lengthAdjust="spacingAndGlyphs" textLength="186" x="85.87" y="175.0151">oculusCanvasScale : float = 1.0f</text><ellipse cx="76.87" cy="184.6094" fill="none" rx="3" ry="3" style="stroke: #038048; stroke-width: 1.0;"/><text fill="#000000" font-family="sans-serif" font-size="11" lengthAdjust="spacingAndGlyphs" textLength="205" x="85.87" y="187.8198">ExperimentalOculusUI : bool = false</text><line style="stroke: #A80036; stroke-width: 1.5;" x1="66.87" x2="417.87" y1="194.4141" y2="194.4141"/><text fill="#000000" font-family="sans-serif" font-size="11" lengthAdjust="spacingAndGlyphs" textLength="71" x="71.87" y="208.6245">Start() : void</text><text fill="#000000" font-family="sans-serif" font-size="11" lengthAdjust="spacingAndGlyphs" textLength="83" x="71.87" y="221.4292">Update() : void</text><text fill="#000000" font-family="sans-serif" font-size="11" lengthAdjust="spacingAndGlyphs" textLength="341" x="71.87" y="234.2339">ShowNotification(message:string, delay:float) : IEnumerator</text><text fill="#000000" font-family="sans-serif" font-size="11" lengthAdjust="spacingAndGlyphs" textLength="139" x="71.87" y="247.0386">UpdateStateView() : void</text><!--MD5=[83b3cf3d23d77c6f1e1b5291a241bc2a]
class MonoBehaviour--><rect fill="#FEFECE" filter="url(#fp5olyyjzd2vt)" height="48" id="MonoBehaviour" style="stroke: #A80036; stroke-width: 1.5;" width="128" x="178.37" y="8"/><ellipse cx="193.37" cy="24" fill="#ADD1B2" rx="11" ry="11" style="stroke: #A80036; stroke-width: 1.0;"/><path d="M196.3388,29.6406 Q195.7606,29.9375 195.12,30.0781 Q194.4794,30.2344 193.7763,30.2344 Q191.2763,30.2344 189.9481,28.5938 Q188.6356,26.9375 188.6356,23.8125 Q188.6356,20.6875 189.9481,19.0313 Q191.2763,17.375 193.7763,17.375 Q194.4794,17.375 195.12,17.5313 Q195.7763,17.6875 196.3388,17.9844 L196.3388,20.7031 Q195.7138,20.125 195.12,19.8594 Q194.5263,19.5781 193.9013,19.5781 Q192.5575,19.5781 191.87,20.6563 Q191.1825,21.7188 191.1825,23.8125 Q191.1825,25.9063 191.87,26.9844 Q192.5575,28.0469 193.9013,28.0469 Q194.5263,28.0469 195.12,27.7813 Q195.7138,27.5 196.3388,26.9219 L196.3388,29.6406 Z "/><text fill="#000000" font-family="sans-serif" font-size="12" lengthAdjust="spacingAndGlyphs" textLength="96" x="207.37" y="28.1543">MonoBehaviour</text><line style="stroke: #A80036; stroke-width: 1.5;" x1="179.37" x2="305.37" y1="40" y2="40"/><line style="stroke: #A80036; stroke-width: 1.5;" x1="179.37" x2="305.37" y1="48" y2="48"/><!--MD5=[064f7a74fee85463ec1a30143664ee17]
class GameObject--><rect fill="#FEFECE" filter="url(#fp5olyyjzd2vt)" height="48" id="GameObject" style="stroke: #A80036; stroke-width: 1.5;" width="108" x="188.37" y="314"/><ellipse cx="203.37" cy="330" fill="#ADD1B2" rx="11" ry="11" style="stroke: #A80036; stroke-width: 1.0;"/><path d="M206.3388,335.6406 Q205.7606,335.9375 205.12,336.0781 Q204.4794,336.2344 203.7763,336.2344 Q201.2763,336.2344 199.9481,334.5938 Q198.6356,332.9375 198.6356,329.8125 Q198.6356,326.6875 199.9481,325.0313 Q201.2763,323.375 203.7763,323.375 Q204.4794,323.375 205.12,323.5313 Q205.7763,323.6875 206.3388,323.9844 L206.3388,326.7031 Q205.7138,326.125 205.12,325.8594 Q204.5263,325.5781 203.9013,325.5781 Q202.5575,325.5781 201.87,326.6563 Q201.1825,327.7188 201.1825,329.8125 Q201.1825,331.9063 201.87,332.9844 Q202.5575,334.0469 203.9013,334.0469 Q204.5263,334.0469 205.12,333.7813 Q205.7138,333.5 206.3388,332.9219 L206.3388,335.6406 Z "/><text fill="#000000" font-family="sans-serif" font-size="12" lengthAdjust="spacingAndGlyphs" textLength="76" x="217.37" y="334.1543">GameObject</text><line style="stroke: #A80036; stroke-width: 1.5;" x1="189.37" x2="295.37" y1="346" y2="346"/><line style="stroke: #A80036; stroke-width: 1.5;" x1="189.37" x2="295.37" y1="354" y2="354"/><!--MD5=[ee4c508de9d16bc5a4ce1076f631897d]
class KeyCode--><rect fill="#FEFECE" filter="url(#fp5olyyjzd2vt)" height="48" id="KeyCode" style="stroke: #A80036; stroke-width: 1.5;" width="85" x="453.87" y="161"/><ellipse cx="468.87" cy="177" fill="#ADD1B2" rx="11" ry="11" style="stroke: #A80036; stroke-width: 1.0;"/><path d="M471.8388,182.6406 Q471.2606,182.9375 470.62,183.0781 Q469.9794,183.2344 469.2763,183.2344 Q466.7763,183.2344 465.4481,181.5938 Q464.1356,179.9375 464.1356,176.8125 Q464.1356,173.6875 465.4481,172.0313 Q466.7763,170.375 469.2763,170.375 Q469.9794,170.375 470.62,170.5313 Q471.2763,170.6875 471.8388,170.9844 L471.8388,173.7031 Q471.2138,173.125 470.62,172.8594 Q470.0263,172.5781 469.4013,172.5781 Q468.0575,172.5781 467.37,173.6563 Q466.6825,174.7188 466.6825,176.8125 Q466.6825,178.9063 467.37,179.9844 Q468.0575,181.0469 469.4013,181.0469 Q470.0263,181.0469 470.62,180.7813 Q471.2138,180.5 471.8388,179.9219 L471.8388,182.6406 Z "/><text fill="#000000" font-family="sans-serif" font-size="12" lengthAdjust="spacingAndGlyphs" textLength="53" x="482.87" y="181.1543">KeyCode</text><line style="stroke: #A80036; stroke-width: 1.5;" x1="454.87" x2="537.87" y1="193" y2="193"/><line style="stroke: #A80036; stroke-width: 1.5;" x1="454.87" x2="537.87" y1="201" y2="201"/><!--MD5=[f66fbc30246e62b06d4b1df6ad356d65]
reverse link MonoBehaviour to ViewController--><path d="M242.37,76.56 C242.37,88.87 242.37,102.57 242.37,115.96 " fill="none" id="MonoBehaviour&lt;-ViewController" style="stroke: #A80036; stroke-width: 1.0;"/><polygon fill="none" points="235.37,76.26,242.37,56.26,249.37,76.26,235.37,76.26" style="stroke: #A80036; stroke-width: 1.0;"/><!--MD5=[fa6bcf29513f9a6b646a6120299bb98e]
link ViewController to GameObject--><path d="M65.65,209.43 C-42.51,248.06 -3.28,322.16 183.35,335.06 " fill="none" id="ViewController-&gt;GameObject" style="stroke: #A80036; stroke-width: 1.0;"/><polygon fill="#A80036" points="188.35,335.39,179.6195,330.8317,183.3599,335.0754,179.1162,338.8159,188.35,335.39" style="stroke: #A80036; stroke-width: 1.0;"/><text fill="#000000" font-family="sans-serif" font-size="13" lengthAdjust="spacingAndGlyphs" textLength="97" x="83.5008" y="347.8364">ModeController</text><!--MD5=[fa6bcf29513f9a6b646a6120299bb98e]
link ViewController to GameObject--><path d="M65.71,218.76 C-3.71,258.28 35.28,321.09 182.65,334.45 " fill="none" id="ViewController-&gt;GameObject-1" style="stroke: #A80036; stroke-width: 1.0;"/><polygon fill="#A80036" points="187.94,334.9,179.3156,330.1439,182.9584,334.4718,178.6305,338.1145,187.94,334.9" style="stroke: #A80036; stroke-width: 1.0;"/><text fill="#000000" font-family="sans-serif" font-size="13" lengthAdjust="spacingAndGlyphs" textLength="104" x="76.4566" y="331.2263">WalkingModeObj</text><!--MD5=[fa6bcf29513f9a6b646a6120299bb98e]
link ViewController to GameObject--><path d="M65.63,239.66 C41.27,276.63 80.41,321.25 183.05,333.66 " fill="none" id="ViewController-&gt;GameObject-2" style="stroke: #A80036; stroke-width: 1.0;"/><polygon fill="#A80036" points="188.3,334.26,179.8156,329.2584,183.3327,333.689,178.9021,337.2061,188.3,334.26" style="stroke: #A80036; stroke-width: 1.0;"/><text fill="#000000" font-family="sans-serif" font-size="13" lengthAdjust="spacingAndGlyphs" textLength="90" x="90.4054" y="346.6318">FlightModeObj</text><!--MD5=[fa6bcf29513f9a6b646a6120299bb98e]
link ViewController to GameObject--><path d="M85.49,254.43 C79.89,286.47 112.43,320.23 183.08,332.34 " fill="none" id="ViewController-&gt;GameObject-3" style="stroke: #A80036; stroke-width: 1.0;"/><polygon fill="#A80036" points="188.24,333.18,179.9972,327.7897,183.3046,332.3789,178.7154,335.6863,188.24,333.18" style="stroke: #A80036; stroke-width: 1.0;"/><text fill="#000000" font-family="sans-serif" font-size="13" lengthAdjust="spacingAndGlyphs" textLength="95" x="85.459" y="329.3087">DroneModeObj</text><!--MD5=[fa6bcf29513f9a6b646a6120299bb98e]
link ViewController to GameObject--><path d="M111.63,254.43 C107.25,284.59 131.01,316.27 182.92,329.99 " fill="none" id="ViewController-&gt;GameObject-4" style="stroke: #A80036; stroke-width: 1.0;"/><polygon fill="#A80036" points="188.03,331.26,180.2521,325.2181,183.1759,330.0608,178.3333,332.9846,188.03,331.26" style="stroke: #A80036; stroke-width: 1.0;"/><text fill="#000000" font-family="sans-serif" font-size="13" lengthAdjust="spacingAndGlyphs" textLength="118" x="196.185" y="303.5231">Mode3DVPWalking</text><!--MD5=[fa6bcf29513f9a6b646a6120299bb98e]
link ViewController to GameObject--><path d="M137.78,254.43 C134.61,281.69 149.83,310.19 183.44,325.54 " fill="none" id="ViewController-&gt;GameObject-5" style="stroke: #A80036; stroke-width: 1.0;"/><polygon fill="#A80036" points="188.08,327.53,181.3834,320.3081,183.4843,325.5604,178.232,327.6613,188.08,327.53" style="stroke: #A80036; stroke-width: 1.0;"/><text fill="#000000" font-family="sans-serif" font-size="13" lengthAdjust="spacingAndGlyphs" textLength="104" x="76.2743" y="323.2821">Mode3DVPFlight</text><!--MD5=[fa6bcf29513f9a6b646a6120299bb98e]
link ViewController to GameObject--><path d="M163.93,254.43 C162.03,276.19 168.92,298.75 184.61,314.77 " fill="none" id="ViewController-&gt;GameObject-6" style="stroke: #A80036; stroke-width: 1.0;"/><polygon fill="#A80036" points="188.32,318.3,184.5444,309.2036,184.6929,314.8585,179.038,315.007,188.32,318.3" style="stroke: #A80036; stroke-width: 1.0;"/><text fill="#000000" font-family="sans-serif" font-size="13" lengthAdjust="spacingAndGlyphs" textLength="109" x="71.3484" y="313.3743">Mode3DVPDrone</text><!--MD5=[fa6bcf29513f9a6b646a6120299bb98e]
link ViewController to GameObject--><path d="M190.08,254.43 C188.95,273.81 192.47,293.81 200.63,309.27 " fill="none" id="ViewController-&gt;GameObject-7" style="stroke: #A80036; stroke-width: 1.0;"/><polygon fill="#A80036" points="203.32,313.92,202.2826,304.1259,200.8193,309.5903,195.355,308.127,203.32,313.92" style="stroke: #A80036; stroke-width: 1.0;"/><text fill="#000000" font-family="sans-serif" font-size="13" lengthAdjust="spacingAndGlyphs" textLength="101" x="206.2541" y="302.9115">Mode2DWalking</text><!--MD5=[fa6bcf29513f9a6b646a6120299bb98e]
link ViewController to GameObject--><path d="M216.22,254.43 C215.66,273.64 217.39,293.47 221.4,308.87 " fill="none" id="ViewController-&gt;GameObject-8" style="stroke: #A80036; stroke-width: 1.0;"/><polygon fill="#A80036" points="222.84,313.92,224.1945,304.1647,221.457,309.1151,216.5066,306.3776,222.84,313.92" style="stroke: #A80036; stroke-width: 1.0;"/><text fill="#000000" font-family="sans-serif" font-size="13" lengthAdjust="spacingAndGlyphs" textLength="87" x="119.6886" y="302.9115">Mode2DFlight</text><!--MD5=[fa6bcf29513f9a6b646a6120299bb98e]
link ViewController to GameObject--><path d="M242.37,254.43 C242.37,273.64 242.37,293.47 242.37,308.87 " fill="none" id="ViewController-&gt;GameObject-9" style="stroke: #A80036; stroke-width: 1.0;"/><polygon fill="#A80036" points="242.37,313.92,246.37,304.92,242.37,308.92,238.37,304.92,242.37,313.92" style="stroke: #A80036; stroke-width: 1.0;"/><text fill="#000000" font-family="sans-serif" font-size="13" lengthAdjust="spacingAndGlyphs" textLength="92" x="254.1575" y="302.9115">Mode2DDrone</text><!--MD5=[fa6bcf29513f9a6b646a6120299bb98e]
link ViewController to GameObject--><path d="M268.52,254.43 C269.08,273.64 267.35,293.47 263.34,308.87 " fill="none" id="ViewController-&gt;GameObject-10" style="stroke: #A80036; stroke-width: 1.0;"/><polygon fill="#A80036" points="261.9,313.92,268.2334,306.3776,263.283,309.1151,260.5455,304.1647,261.9,313.92" style="stroke: #A80036; stroke-width: 1.0;"/><text fill="#000000" font-family="sans-serif" font-size="13" lengthAdjust="spacingAndGlyphs" textLength="126" x="304.1966" y="317.5237">ModeOculusWalking</text><!--MD5=[fa6bcf29513f9a6b646a6120299bb98e]
link ViewController to GameObject--><path d="M294.67,254.43 C295.79,273.81 292.27,293.81 284.11,309.27 " fill="none" id="ViewController-&gt;GameObject-11" style="stroke: #A80036; stroke-width: 1.0;"/><polygon fill="#A80036" points="281.42,313.92,289.385,308.127,283.9207,309.5903,282.4574,304.1259,281.42,313.92" style="stroke: #A80036; stroke-width: 1.0;"/><text fill="#000000" font-family="sans-serif" font-size="13" lengthAdjust="spacingAndGlyphs" textLength="112" x="304.5884" y="303.3055">ModeOculusFlight</text><!--MD5=[fa6bcf29513f9a6b646a6120299bb98e]
link ViewController to GameObject--><path d="M320.81,254.43 C322.71,276.19 315.82,298.75 300.13,314.77 " fill="none" id="ViewController-&gt;GameObject-12" style="stroke: #A80036; stroke-width: 1.0;"/><polygon fill="#A80036" points="296.42,318.3,305.702,315.007,300.0471,314.8585,300.1956,309.2036,296.42,318.3" style="stroke: #A80036; stroke-width: 1.0;"/><text fill="#000000" font-family="sans-serif" font-size="13" lengthAdjust="spacingAndGlyphs" textLength="117" x="304.3337" y="329.5138">ModeOculusDrone</text><!--MD5=[fa6bcf29513f9a6b646a6120299bb98e]
link ViewController to GameObject--><path d="M346.96,254.43 C350.13,281.69 334.91,310.19 301.3,325.54 " fill="none" id="ViewController-&gt;GameObject-13" style="stroke: #A80036; stroke-width: 1.0;"/><polygon fill="#A80036" points="296.66,327.53,306.508,327.6613,301.2557,325.5604,303.3566,320.3081,296.66,327.53" style="stroke: #A80036; stroke-width: 1.0;"/><text fill="#000000" font-family="sans-serif" font-size="13" lengthAdjust="spacingAndGlyphs" textLength="105" x="304.5024" y="339.3837">OculusTouchLeft</text><!--MD5=[fa6bcf29513f9a6b646a6120299bb98e]
link ViewController to GameObject--><path d="M373.11,254.43 C377.49,284.59 353.73,316.27 301.82,329.99 " fill="none" id="ViewController-&gt;GameObject-14" style="stroke: #A80036; stroke-width: 1.0;"/><polygon fill="#A80036" points="296.71,331.26,306.4067,332.9846,301.5641,330.0608,304.4879,325.2181,296.71,331.26" style="stroke: #A80036; stroke-width: 1.0;"/><text fill="#000000" font-family="sans-serif" font-size="13" lengthAdjust="spacingAndGlyphs" textLength="113" x="304.5034" y="343.385">OculusTouchRight</text><!--MD5=[fa6bcf29513f9a6b646a6120299bb98e]
link ViewController to GameObject--><path d="M399.25,254.43 C404.85,286.47 372.31,320.23 301.66,332.34 " fill="none" id="ViewController-&gt;GameObject-15" style="stroke: #A80036; stroke-width: 1.0;"/><polygon fill="#A80036" points="296.5,333.18,306.0246,335.6863,301.4354,332.3789,304.7428,327.7897,296.5,333.18" style="stroke: #A80036; stroke-width: 1.0;"/><text fill="#000000" font-family="sans-serif" font-size="13" lengthAdjust="spacingAndGlyphs" textLength="47" x="303.1025" y="350.0531">Canvas</text><!--MD5=[fa6bcf29513f9a6b646a6120299bb98e]
link ViewController to GameObject--><path d="M419.11,239.66 C443.47,276.63 404.33,321.25 301.69,333.66 " fill="none" id="ViewController-&gt;GameObject-16" style="stroke: #A80036; stroke-width: 1.0;"/><polygon fill="#A80036" points="296.44,334.26,305.8379,337.2061,301.4073,333.689,304.9244,329.2584,296.44,334.26" style="stroke: #A80036; stroke-width: 1.0;"/><text fill="#000000" font-family="sans-serif" font-size="13" lengthAdjust="spacingAndGlyphs" textLength="54" x="304.4203" y="346.7036">CanvasL</text><!--MD5=[fa6bcf29513f9a6b646a6120299bb98e]
link ViewController to GameObject--><path d="M419.03,218.76 C488.45,258.28 449.46,321.09 302.09,334.45 " fill="none" id="ViewController-&gt;GameObject-17" style="stroke: #A80036; stroke-width: 1.0;"/><polygon fill="#A80036" points="296.8,334.9,306.1095,338.1145,301.7816,334.4718,305.4244,330.1439,296.8,334.9" style="stroke: #A80036; stroke-width: 1.0;"/><text fill="#000000" font-family="sans-serif" font-size="13" lengthAdjust="spacingAndGlyphs" textLength="55" x="305.0855" y="357.4629">CanvasR</text><!--MD5=[fa6bcf29513f9a6b646a6120299bb98e]
link ViewController to GameObject--><path d="M419.1,209.43 C527.25,248.06 488.02,322.16 301.39,335.06 " fill="none" id="ViewController-&gt;GameObject-18" style="stroke: #A80036; stroke-width: 1.0;"/><polygon fill="#A80036" points="296.39,335.39,305.6336,338.7895,301.3792,335.0612,305.1075,330.8068,296.39,335.39" style="stroke: #A80036; stroke-width: 1.0;"/><text fill="#000000" font-family="sans-serif" font-size="13" lengthAdjust="spacingAndGlyphs" textLength="90" x="304.2807" y="347.8519">CanvasOculus</text><!--MD5=[4609493656908dbd848ea36ec2d3c219]
link ViewController to KeyCode--><path d="M430.277,224.8031 C430.277,224.8031 444.28,218.88 450.68,215.54 " fill="none" id="ViewController-KeyCode" style="stroke: #A80036; stroke-width: 1.0;"/><polygon fill="#A80036" points="462.21,209.1,452.402,209.9961,457.8447,211.538,456.3028,216.9807,462.21,209.1" style="stroke: #A80036; stroke-width: 1.0;"/><line style="stroke: #A80036; stroke-width: 1.0;" x1="457.8447" x2="450.86" y1="211.538" y2="215.435"/><polygon fill="#FFFFFF" points="418.98,228.85,425.9775,230.5922,430.277,224.8031,423.2795,223.0609,418.98,228.85" style="stroke: #A80036; stroke-width: 1.0;"/><text fill="#000000" font-family="sans-serif" font-size="13" lengthAdjust="spacingAndGlyphs" textLength="87" x="464.4866" y="228.8856">MODE2D_KEY</text><!--MD5=[4609493656908dbd848ea36ec2d3c219]
link ViewController to KeyCode--><path d="M430.98,185 C430.98,185 437.67,185 440.5,185 " fill="none" id="ViewController-KeyCode-1" style="stroke: #A80036; stroke-width: 1.0;"/><polygon fill="#A80036" points="453.74,185,444.74,181,448.74,185,444.74,189,453.74,185" style="stroke: #A80036; stroke-width: 1.0;"/><line style="stroke: #A80036; stroke-width: 1.0;" x1="448.74" x2="440.74" y1="185" y2="185"/><polygon fill="#FFFFFF" points="418.98,185,424.98,189,430.98,185,424.98,181,418.98,185" style="stroke: #A80036; stroke-width: 1.0;"/><text fill="#000000" font-family="sans-serif" font-size="13" lengthAdjust="spacingAndGlyphs" textLength="104" x="382.5495" y="149.4674">MODE3DVP_KEY</text><!--MD5=[4609493656908dbd848ea36ec2d3c219]
link ViewController to KeyCode--><path d="M430.277,145.1969 C430.277,145.1969 444.28,151.12 450.68,154.46 " fill="none" id="ViewController-KeyCode-2" style="stroke: #A80036; stroke-width: 1.0;"/><polygon fill="#A80036" points="462.21,160.9,456.3028,153.0193,457.8447,158.462,452.402,160.0039,462.21,160.9" style="stroke: #A80036; stroke-width: 1.0;"/><line style="stroke: #A80036; stroke-width: 1.0;" x1="457.8447" x2="450.86" y1="158.462" y2="154.565"/><polygon fill="#FFFFFF" points="418.98,141.15,423.2795,146.9391,430.277,145.1969,425.9775,139.4078,418.98,141.15" style="stroke: #A80036; stroke-width: 1.0;"/><text fill="#000000" font-family="sans-serif" font-size="13" lengthAdjust="spacingAndGlyphs" textLength="124" x="469.344" y="149.8864">MODEOCULUS_KEY</text><!--MD5=[f6aab3f037f033029709167e4c3ed8ab]
@startuml
class ViewController {
    + oculusCanvasDistance : float = 1000.0f
    + oculusCanvasScale : float = 1.0f
    + ExperimentalOculusUI : bool = false
    Start() : void
    Update() : void
    ShowNotification(message:string, delay:float) : IEnumerator
    UpdateStateView() : void
}
MonoBehaviour <|- - ViewController
ViewController - -> "ModeController" GameObject
ViewController - -> "WalkingModeObj" GameObject
ViewController - -> "FlightModeObj" GameObject
ViewController - -> "DroneModeObj" GameObject
ViewController - -> "Mode3DVPWalking" GameObject
ViewController - -> "Mode3DVPFlight" GameObject
ViewController - -> "Mode3DVPDrone" GameObject
ViewController - -> "Mode2DWalking" GameObject
ViewController - -> "Mode2DFlight" GameObject
ViewController - -> "Mode2DDrone" GameObject
ViewController - -> "ModeOculusWalking" GameObject
ViewController - -> "ModeOculusFlight" GameObject
ViewController - -> "ModeOculusDrone" GameObject
ViewController - -> "OculusTouchLeft" GameObject
ViewController - -> "OculusTouchRight" GameObject
ViewController - -> "Canvas" GameObject
ViewController - -> "CanvasL" GameObject
ViewController - -> "CanvasR" GameObject
ViewController - -> "CanvasOculus" GameObject
ViewController o-> "MODE2D_KEY" KeyCode
ViewController o-> "MODE3DVP_KEY" KeyCode
ViewController o-> "MODEOCULUS_KEY" KeyCode
@enduml

PlantUML version 1.2020.02(Sun Mar 01 10:22:07 GMT 2020)
(GPL source distribution)
Java Runtime: OpenJDK Runtime Environment
JVM: OpenJDK 64-Bit Server VM
Java Version: 11.0.9+11-Ubuntu-0ubuntu1
Operating System: Linux
Default Encoding: ANSI_X3.4-1968
Language: en
Country: US
--></g></svg>