<?xml version="1.0" encoding="UTF-8" standalone="no"?><svg xmlns="http://www.w3.org/2000/svg" xmlns:xlink="http://www.w3.org/1999/xlink" contentScriptType="application/ecmascript" contentStyleType="text/css" height="449px" preserveAspectRatio="none" style="width:1735px;height:449px;" version="1.1" viewBox="0 0 1735 449" width="1735px" zoomAndPan="magnify"><defs><filter height="300%" id="f4c8dcijmvmz2" width="300%" x="-1" y="-1"><feGaussianBlur result="blurOut" stdDeviation="2.0"/><feColorMatrix in="blurOut" result="blurOut2" type="matrix" values="0 0 0 0 0 0 0 0 0 0 0 0 0 0 0 0 0 0 .4 0"/><feOffset dx="4.0" dy="4.0" in="blurOut2" result="blurOut3"/><feBlend in="SourceGraphic" in2="blurOut3" mode="normal"/></filter></defs><g><!--MD5=[703f8a064a867d411b06e57804ca367a]
class VirtualMeter--><rect fill="#FEFECE" filter="url(#f4c8dcijmvmz2)" height="214.4609" id="VirtualMeter" style="stroke: #A80036; stroke-width: 1.5;" width="1718" x="6" y="116"/><ellipse cx="822.75" cy="132" fill="#ADD1B2" rx="11" ry="11" style="stroke: #A80036; stroke-width: 1.0;"/><path d="M825.7188,137.6406 Q825.1406,137.9375 824.5,138.0781 Q823.8594,138.2344 823.1563,138.2344 Q820.6563,138.2344 819.3281,136.5938 Q818.0156,134.9375 818.0156,131.8125 Q818.0156,128.6875 819.3281,127.0313 Q820.6563,125.375 823.1563,125.375 Q823.8594,125.375 824.5,125.5313 Q825.1563,125.6875 825.7188,125.9844 L825.7188,128.7031 Q825.0938,128.125 824.5,127.8594 Q823.9063,127.5781 823.2813,127.5781 Q821.9375,127.5781 821.25,128.6563 Q820.5625,129.7188 820.5625,131.8125 Q820.5625,133.9063 821.25,134.9844 Q821.9375,136.0469 823.2813,136.0469 Q823.9063,136.0469 824.5,135.7813 Q825.0938,135.5 825.7188,134.9219 L825.7188,137.6406 Z "/><text fill="#000000" font-family="sans-serif" font-size="12" lengthAdjust="spacingAndGlyphs" textLength="76" x="843.25" y="136.1543">VirtualMeter</text><line style="stroke: #A80036; stroke-width: 1.5;" x1="7" x2="1723" y1="148" y2="148"/><line style="stroke: #A80036; stroke-width: 1.5;" x1="7" x2="1723" y1="156" y2="156"/><text fill="#000000" font-family="sans-serif" font-size="11" lengthAdjust="spacingAndGlyphs" textLength="71" x="26" y="170.2104">Start() : void</text><ellipse cx="17" cy="179.8047" fill="#84BE84" rx="3" ry="3" style="stroke: #038048; stroke-width: 1.0;"/><text fill="#000000" font-family="sans-serif" font-size="11" lengthAdjust="spacingAndGlyphs" text-decoration="underline" textLength="382" x="26" y="183.0151">CalculateHeadingFromPositions(Pos1:Vector3, Pos2:Vector3) : float</text><ellipse cx="17" cy="192.6094" fill="#84BE84" rx="3" ry="3" style="stroke: #038048; stroke-width: 1.0;"/><text fill="#000000" font-family="sans-serif" font-size="11" lengthAdjust="spacingAndGlyphs" text-decoration="underline" textLength="276" x="26" y="195.8198">CalculateHeading(DirectionVector:Vector3) : float</text><ellipse cx="17" cy="205.4141" fill="#84BE84" rx="3" ry="3" style="stroke: #038048; stroke-width: 1.0;"/><text fill="#000000" font-family="sans-serif" font-size="11" lengthAdjust="spacingAndGlyphs" text-decoration="underline" textLength="393" x="26" y="208.6245">CalculateInclinationFromPositions(Pos1:Vector3, Pos2:Vector3) : float</text><ellipse cx="17" cy="218.2188" fill="#84BE84" rx="3" ry="3" style="stroke: #038048; stroke-width: 1.0;"/><text fill="#000000" font-family="sans-serif" font-size="11" lengthAdjust="spacingAndGlyphs" text-decoration="underline" textLength="287" x="26" y="221.4292">CalculateInclination(DirectionVector:Vector3) : float</text><ellipse cx="17" cy="231.0234" fill="#84BE84" rx="3" ry="3" style="stroke: #038048; stroke-width: 1.0;"/><text fill="#000000" font-family="sans-serif" font-size="11" lengthAdjust="spacingAndGlyphs" text-decoration="underline" textLength="345" x="26" y="234.2339">CalculateRealPositionOfPoint(point:Vector3) : Vector3Decimal</text><ellipse cx="17" cy="243.8281" fill="#84BE84" rx="3" ry="3" style="stroke: #038048; stroke-width: 1.0;"/><text fill="#000000" font-family="sans-serif" font-size="11" lengthAdjust="spacingAndGlyphs" text-decoration="underline" textLength="304" x="26" y="247.0386">CalculateGPSPosition(point:Vector3) : Vector3Decimal</text><ellipse cx="17" cy="256.6328" fill="#84BE84" rx="3" ry="3" style="stroke: #038048; stroke-width: 1.0;"/><text fill="#000000" font-family="sans-serif" font-size="11" lengthAdjust="spacingAndGlyphs" text-decoration="underline" textLength="361" x="26" y="259.8433">CalculateRealDistance(point1:Vector3, point2:Vector3) : decimal</text><ellipse cx="17" cy="269.4375" fill="#84BE84" rx="3" ry="3" style="stroke: #038048; stroke-width: 1.0;"/><text fill="#000000" font-family="sans-serif" font-size="11" lengthAdjust="spacingAndGlyphs" text-decoration="underline" textLength="376" x="26" y="272.6479">CalculateRealDistance2D(point1:Vector3, point2:Vector3) : decimal</text><ellipse cx="17" cy="282.2422" fill="#84BE84" rx="3" ry="3" style="stroke: #038048; stroke-width: 1.0;"/><text fill="#000000" font-family="sans-serif" font-size="11" lengthAdjust="spacingAndGlyphs" text-decoration="underline" textLength="451" x="26" y="285.4526">CalculateRealDistance(point1:Vector3Decimal, point2:Vector3Decimal) : decimal</text><ellipse cx="17" cy="295.0469" fill="#84BE84" rx="3" ry="3" style="stroke: #038048; stroke-width: 1.0;"/><text fill="#000000" font-family="sans-serif" font-size="11" lengthAdjust="spacingAndGlyphs" text-decoration="underline" textLength="593" x="26" y="298.2573">CalculateGroundDistance(start:Vector3, end:Vector3, lineRenderer:LineRenderer, maxRays:int) : decimal</text><ellipse cx="17" cy="307.8516" fill="#84BE84" rx="3" ry="3" style="stroke: #038048; stroke-width: 1.0;"/><text fill="#000000" font-family="sans-serif" font-size="11" lengthAdjust="spacingAndGlyphs" text-decoration="underline" textLength="418" x="26" y="311.062">CalculateVerticalRealDistance2D(point1:Vector3, point2:Vector3) : decimal</text><ellipse cx="17" cy="320.6563" fill="#84BE84" rx="3" ry="3" style="stroke: #038048; stroke-width: 1.0;"/><text fill="#000000" font-family="sans-serif" font-size="11" lengthAdjust="spacingAndGlyphs" text-decoration="underline" textLength="1692" x="26" y="323.8667">SetStaticGPSLatLonAltBox(_west_dd:Decimal, _east_dd:Decimal, _south_dd:Decimal, _north_dd:Decimal, _west_uu:Decimal, _east_uu:Decimal, _south_uu:Decimal, _north_uu:Decimal, _alt_min_dd:Decimal, _alt_max_dd:Decimal, _alt_min_uu:Decimal, _alt_max_uu:Decimal, _offset_alt:Decimal) : void</text><!--MD5=[83b3cf3d23d77c6f1e1b5291a241bc2a]
class MonoBehaviour--><rect fill="#FEFECE" filter="url(#f4c8dcijmvmz2)" height="48" id="MonoBehaviour" style="stroke: #A80036; stroke-width: 1.5;" width="128" x="801" y="8"/><ellipse cx="816" cy="24" fill="#ADD1B2" rx="11" ry="11" style="stroke: #A80036; stroke-width: 1.0;"/><path d="M818.9688,29.6406 Q818.3906,29.9375 817.75,30.0781 Q817.1094,30.2344 816.4063,30.2344 Q813.9063,30.2344 812.5781,28.5938 Q811.2656,26.9375 811.2656,23.8125 Q811.2656,20.6875 812.5781,19.0313 Q813.9063,17.375 816.4063,17.375 Q817.1094,17.375 817.75,17.5313 Q818.4063,17.6875 818.9688,17.9844 L818.9688,20.7031 Q818.3438,20.125 817.75,19.8594 Q817.1563,19.5781 816.5313,19.5781 Q815.1875,19.5781 814.5,20.6563 Q813.8125,21.7188 813.8125,23.8125 Q813.8125,25.9063 814.5,26.9844 Q815.1875,28.0469 816.5313,28.0469 Q817.1563,28.0469 817.75,27.7813 Q818.3438,27.5 818.9688,26.9219 L818.9688,29.6406 Z "/><text fill="#000000" font-family="sans-serif" font-size="12" lengthAdjust="spacingAndGlyphs" textLength="96" x="830" y="28.1543">MonoBehaviour</text><line style="stroke: #A80036; stroke-width: 1.5;" x1="802" x2="928" y1="40" y2="40"/><line style="stroke: #A80036; stroke-width: 1.5;" x1="802" x2="928" y1="48" y2="48"/><!--MD5=[064f7a74fee85463ec1a30143664ee17]
class GameObject--><rect fill="#FEFECE" filter="url(#f4c8dcijmvmz2)" height="48" id="GameObject" style="stroke: #A80036; stroke-width: 1.5;" width="108" x="811" y="390"/><ellipse cx="826" cy="406" fill="#ADD1B2" rx="11" ry="11" style="stroke: #A80036; stroke-width: 1.0;"/><path d="M828.9688,411.6406 Q828.3906,411.9375 827.75,412.0781 Q827.1094,412.2344 826.4063,412.2344 Q823.9063,412.2344 822.5781,410.5938 Q821.2656,408.9375 821.2656,405.8125 Q821.2656,402.6875 822.5781,401.0313 Q823.9063,399.375 826.4063,399.375 Q827.1094,399.375 827.75,399.5313 Q828.4063,399.6875 828.9688,399.9844 L828.9688,402.7031 Q828.3438,402.125 827.75,401.8594 Q827.1563,401.5781 826.5313,401.5781 Q825.1875,401.5781 824.5,402.6563 Q823.8125,403.7188 823.8125,405.8125 Q823.8125,407.9063 824.5,408.9844 Q825.1875,410.0469 826.5313,410.0469 Q827.1563,410.0469 827.75,409.7813 Q828.3438,409.5 828.9688,408.9219 L828.9688,411.6406 Z "/><text fill="#000000" font-family="sans-serif" font-size="12" lengthAdjust="spacingAndGlyphs" textLength="76" x="840" y="410.1543">GameObject</text><line style="stroke: #A80036; stroke-width: 1.5;" x1="812" x2="918" y1="422" y2="422"/><line style="stroke: #A80036; stroke-width: 1.5;" x1="812" x2="918" y1="430" y2="430"/><!--MD5=[84c976022824f6e2ad8409ffe41ebd5e]
reverse link MonoBehaviour to VirtualMeter--><path d="M865,76.34 C865,88.3 865,101.83 865,115.71 " fill="none" id="MonoBehaviour&lt;-VirtualMeter" style="stroke: #A80036; stroke-width: 1.0;"/><polygon fill="none" points="858,76.18,865,56.18,872,76.18,858,76.18" style="stroke: #A80036; stroke-width: 1.0;"/><!--MD5=[a50191f5957e8e965a7e98d4b78e4366]
link VirtualMeter to GameObject--><path d="M838.93,330.1 C839.55,350.36 841.8,369.9 845.68,384.91 " fill="none" id="VirtualMeter-&gt;GameObject" style="stroke: #A80036; stroke-width: 1.0;"/><polygon fill="#A80036" points="847.06,389.83,848.468,380.0823,845.7034,385.0176,840.7681,382.2529,847.06,389.83" style="stroke: #A80036; stroke-width: 1.0;"/><text fill="#000000" font-family="sans-serif" font-size="13" lengthAdjust="spacingAndGlyphs" textLength="133" x="692.4223" y="378.7985">WalkingMasterObject</text><!--MD5=[a50191f5957e8e965a7e98d4b78e4366]
link VirtualMeter to GameObject--><path d="M865,330.1 C865,350.19 865,369.56 865,384.52 " fill="none" id="VirtualMeter-&gt;GameObject-1" style="stroke: #A80036; stroke-width: 1.0;"/><polygon fill="#A80036" points="865,389.83,869,380.83,865,384.83,861,380.83,865,389.83" style="stroke: #A80036; stroke-width: 1.0;"/><text fill="#000000" font-family="sans-serif" font-size="13" lengthAdjust="spacingAndGlyphs" textLength="121" x="880.5031" y="378.7985">FlyingMasterObject</text><!--MD5=[a50191f5957e8e965a7e98d4b78e4366]
link VirtualMeter to GameObject--><path d="M891.07,330.1 C890.45,350.36 888.2,369.9 884.32,384.91 " fill="none" id="VirtualMeter-&gt;GameObject-2" style="stroke: #A80036; stroke-width: 1.0;"/><polygon fill="#A80036" points="882.94,389.83,889.2319,382.2529,884.2966,385.0176,881.532,380.0823,882.94,389.83" style="stroke: #A80036; stroke-width: 1.0;"/><text fill="#000000" font-family="sans-serif" font-size="13" lengthAdjust="spacingAndGlyphs" textLength="124" x="927.9063" y="392.5574">DroneMasterObject</text><!--MD5=[4fbab4ed1fd44e6c9af12cc8cbdb4f3f]
@startuml
class VirtualMeter {
    Start() : void
    + {static} CalculateHeadingFromPositions(Pos1:Vector3, Pos2:Vector3) : float
    + {static} CalculateHeading(DirectionVector:Vector3) : float
    + {static} CalculateInclinationFromPositions(Pos1:Vector3, Pos2:Vector3) : float
    + {static} CalculateInclination(DirectionVector:Vector3) : float
    + {static} CalculateRealPositionOfPoint(point:Vector3) : Vector3Decimal
    + {static} CalculateGPSPosition(point:Vector3) : Vector3Decimal
    + {static} CalculateRealDistance(point1:Vector3, point2:Vector3) : decimal
    + {static} CalculateRealDistance2D(point1:Vector3, point2:Vector3) : decimal
    + {static} CalculateRealDistance(point1:Vector3Decimal, point2:Vector3Decimal) : decimal
    + {static} CalculateGroundDistance(start:Vector3, end:Vector3, lineRenderer:LineRenderer, maxRays:int) : decimal
    + {static} CalculateVerticalRealDistance2D(point1:Vector3, point2:Vector3) : decimal
    + {static} SetStaticGPSLatLonAltBox(_west_dd:Decimal, _east_dd:Decimal, _south_dd:Decimal, _north_dd:Decimal, _west_uu:Decimal, _east_uu:Decimal, _south_uu:Decimal, _north_uu:Decimal, _alt_min_dd:Decimal, _alt_max_dd:Decimal, _alt_min_uu:Decimal, _alt_max_uu:Decimal, _offset_alt:Decimal) : void
}
MonoBehaviour <|- - VirtualMeter
VirtualMeter - -> "WalkingMasterObject" GameObject
VirtualMeter - -> "FlyingMasterObject" GameObject
VirtualMeter - -> "DroneMasterObject" GameObject
@enduml

PlantUML version 1.2020.02(Sun Mar 01 10:22:07 GMT 2020)
(GPL source distribution)
Java Runtime: OpenJDK Runtime Environment
JVM: OpenJDK 64-Bit Server VM
Java Version: 11.0.9+11-Ubuntu-0ubuntu1
Operating System: Linux
Default Encoding: ANSI_X3.4-1968
Language: en
Country: US
--></g></svg>