<?xml version="1.0" encoding="UTF-8" standalone="no"?><svg xmlns="http://www.w3.org/2000/svg" xmlns:xlink="http://www.w3.org/1999/xlink" contentScriptType="application/ecmascript" contentStyleType="text/css" height="321px" preserveAspectRatio="none" style="width:182px;height:321px;" version="1.1" viewBox="0 0 182 321" width="182px" zoomAndPan="magnify"><defs><filter height="300%" id="f17bzj8cjipaaj" width="300%" x="-1" y="-1"><feGaussianBlur result="blurOut" stdDeviation="2.0"/><feColorMatrix in="blurOut" result="blurOut2" type="matrix" values="0 0 0 0 0 0 0 0 0 0 0 0 0 0 0 0 0 0 .4 0"/><feOffset dx="4.0" dy="4.0" in="blurOut2" result="blurOut3"/><feBlend in="SourceGraphic" in2="blurOut3" mode="normal"/></filter></defs><g><!--MD5=[f5fe274fc48fb83740a845865bca695b]
class WaypointController--><rect fill="#FEFECE" filter="url(#f17bzj8cjipaaj)" height="86.4141" id="WaypointController" style="stroke: #A80036; stroke-width: 1.5;" width="150" x="21" y="116"/><ellipse cx="36" cy="132" fill="#ADD1B2" rx="11" ry="11" style="stroke: #A80036; stroke-width: 1.0;"/><path d="M38.9688,137.6406 Q38.3906,137.9375 37.75,138.0781 Q37.1094,138.2344 36.4063,138.2344 Q33.9063,138.2344 32.5781,136.5938 Q31.2656,134.9375 31.2656,131.8125 Q31.2656,128.6875 32.5781,127.0313 Q33.9063,125.375 36.4063,125.375 Q37.1094,125.375 37.75,125.5313 Q38.4063,125.6875 38.9688,125.9844 L38.9688,128.7031 Q38.3438,128.125 37.75,127.8594 Q37.1563,127.5781 36.5313,127.5781 Q35.1875,127.5781 34.5,128.6563 Q33.8125,129.7188 33.8125,131.8125 Q33.8125,133.9063 34.5,134.9844 Q35.1875,136.0469 36.5313,136.0469 Q37.1563,136.0469 37.75,135.7813 Q38.3438,135.5 38.9688,134.9219 L38.9688,137.6406 Z "/><text fill="#000000" font-family="sans-serif" font-size="12" lengthAdjust="spacingAndGlyphs" textLength="118" x="50" y="136.1543">WaypointController</text><line style="stroke: #A80036; stroke-width: 1.5;" x1="22" x2="170" y1="148" y2="148"/><line style="stroke: #A80036; stroke-width: 1.5;" x1="22" x2="170" y1="156" y2="156"/><text fill="#000000" font-family="sans-serif" font-size="11" lengthAdjust="spacingAndGlyphs" textLength="71" x="27" y="170.2104">Start() : void</text><text fill="#000000" font-family="sans-serif" font-size="11" lengthAdjust="spacingAndGlyphs" textLength="83" x="27" y="183.0151">Update() : void</text><text fill="#000000" font-family="sans-serif" font-size="11" lengthAdjust="spacingAndGlyphs" textLength="103" x="27" y="195.8198">OnDestroy() : void</text><!--MD5=[83b3cf3d23d77c6f1e1b5291a241bc2a]
class MonoBehaviour--><rect fill="#FEFECE" filter="url(#f17bzj8cjipaaj)" height="48" id="MonoBehaviour" style="stroke: #A80036; stroke-width: 1.5;" width="128" x="32" y="8"/><ellipse cx="47" cy="24" fill="#ADD1B2" rx="11" ry="11" style="stroke: #A80036; stroke-width: 1.0;"/><path d="M49.9688,29.6406 Q49.3906,29.9375 48.75,30.0781 Q48.1094,30.2344 47.4063,30.2344 Q44.9063,30.2344 43.5781,28.5938 Q42.2656,26.9375 42.2656,23.8125 Q42.2656,20.6875 43.5781,19.0313 Q44.9063,17.375 47.4063,17.375 Q48.1094,17.375 48.75,17.5313 Q49.4063,17.6875 49.9688,17.9844 L49.9688,20.7031 Q49.3438,20.125 48.75,19.8594 Q48.1563,19.5781 47.5313,19.5781 Q46.1875,19.5781 45.5,20.6563 Q44.8125,21.7188 44.8125,23.8125 Q44.8125,25.9063 45.5,26.9844 Q46.1875,28.0469 47.5313,28.0469 Q48.1563,28.0469 48.75,27.7813 Q49.3438,27.5 49.9688,26.9219 L49.9688,29.6406 Z "/><text fill="#000000" font-family="sans-serif" font-size="12" lengthAdjust="spacingAndGlyphs" textLength="96" x="61" y="28.1543">MonoBehaviour</text><line style="stroke: #A80036; stroke-width: 1.5;" x1="33" x2="159" y1="40" y2="40"/><line style="stroke: #A80036; stroke-width: 1.5;" x1="33" x2="159" y1="48" y2="48"/><!--MD5=[02a8746eb15ecbb4566dafa16ea4db73]
class Text--><rect fill="#FEFECE" filter="url(#f17bzj8cjipaaj)" height="48" id="Text" style="stroke: #A80036; stroke-width: 1.5;" width="58" x="67" y="262"/><ellipse cx="82" cy="278" fill="#ADD1B2" rx="11" ry="11" style="stroke: #A80036; stroke-width: 1.0;"/><path d="M84.9688,283.6406 Q84.3906,283.9375 83.75,284.0781 Q83.1094,284.2344 82.4063,284.2344 Q79.9063,284.2344 78.5781,282.5938 Q77.2656,280.9375 77.2656,277.8125 Q77.2656,274.6875 78.5781,273.0313 Q79.9063,271.375 82.4063,271.375 Q83.1094,271.375 83.75,271.5313 Q84.4063,271.6875 84.9688,271.9844 L84.9688,274.7031 Q84.3438,274.125 83.75,273.8594 Q83.1563,273.5781 82.5313,273.5781 Q81.1875,273.5781 80.5,274.6563 Q79.8125,275.7188 79.8125,277.8125 Q79.8125,279.9063 80.5,280.9844 Q81.1875,282.0469 82.5313,282.0469 Q83.1563,282.0469 83.75,281.7813 Q84.3438,281.5 84.9688,280.9219 L84.9688,283.6406 Z "/><text fill="#000000" font-family="sans-serif" font-size="12" lengthAdjust="spacingAndGlyphs" textLength="26" x="96" y="282.1543">Text</text><line style="stroke: #A80036; stroke-width: 1.5;" x1="68" x2="124" y1="294" y2="294"/><line style="stroke: #A80036; stroke-width: 1.5;" x1="68" x2="124" y1="302" y2="302"/><!--MD5=[850cce102e8823e76002547b444d580d]
reverse link MonoBehaviour to WaypointController--><path d="M96,76.27 C96,89.12 96,103.17 96,115.94 " fill="none" id="MonoBehaviour&lt;-WaypointController" style="stroke: #A80036; stroke-width: 1.0;"/><polygon fill="none" points="89,76.22,96,56.22,103,76.22,89,76.22" style="stroke: #A80036; stroke-width: 1.0;"/><!--MD5=[100b53a3049c087f427230210e100889]
link WaypointController to Text--><path d="M96,202.32 C96,220.14 96,240.41 96,256.42 " fill="none" id="WaypointController-&gt;Text" style="stroke: #A80036; stroke-width: 1.0;"/><polygon fill="#A80036" points="96,261.67,100,252.67,96,256.67,92,252.67,96,261.67" style="stroke: #A80036; stroke-width: 1.0;"/><text fill="#000000" font-family="sans-serif" font-size="13" lengthAdjust="spacingAndGlyphs" textLength="75" x="11.8594" y="250.9945">NorthingEtc</text><!--MD5=[19e5c98c7684301d0dbf87db291933ec]
@startuml
class WaypointController {
    Start() : void
    Update() : void
    OnDestroy() : void
}
MonoBehaviour <|- - WaypointController
WaypointController - -> "NorthingEtc" Text
@enduml

PlantUML version 1.2020.02(Sun Mar 01 10:22:07 GMT 2020)
(GPL source distribution)
Java Runtime: OpenJDK Runtime Environment
JVM: OpenJDK 64-Bit Server VM
Java Version: 11.0.9+11-Ubuntu-0ubuntu1
Operating System: Linux
Default Encoding: ANSI_X3.4-1968
Language: en
Country: US
--></g></svg>