<?xml version="1.0" encoding="UTF-8" standalone="no"?><svg xmlns="http://www.w3.org/2000/svg" xmlns:xlink="http://www.w3.org/1999/xlink" contentScriptType="application/ecmascript" contentStyleType="text/css" height="578px" preserveAspectRatio="none" style="width:643px;height:578px;" version="1.1" viewBox="0 0 643 578" width="643px" zoomAndPan="magnify"><defs><filter height="300%" id="f1hlg9jxkp2dt1" width="300%" x="-1" y="-1"><feGaussianBlur result="blurOut" stdDeviation="2.0"/><feColorMatrix in="blurOut" result="blurOut2" type="matrix" values="0 0 0 0 0 0 0 0 0 0 0 0 0 0 0 0 0 0 .4 0"/><feOffset dx="4.0" dy="4.0" in="blurOut2" result="blurOut3"/><feBlend in="SourceGraphic" in2="blurOut3" mode="normal"/></filter></defs><g><!--MD5=[563c5de5c75236d0f918330c4f83c9ed]
class SceneLoadingUI--><rect fill="#FEFECE" filter="url(#f1hlg9jxkp2dt1)" height="342.5078" id="SceneLoadingUI" style="stroke: #A80036; stroke-width: 1.5;" width="264" x="117.66" y="116"/><ellipse cx="195.41" cy="132" fill="#ADD1B2" rx="11" ry="11" style="stroke: #A80036; stroke-width: 1.0;"/><path d="M198.3788,137.6406 Q197.8006,137.9375 197.16,138.0781 Q196.5194,138.2344 195.8163,138.2344 Q193.3163,138.2344 191.9881,136.5938 Q190.6756,134.9375 190.6756,131.8125 Q190.6756,128.6875 191.9881,127.0313 Q193.3163,125.375 195.8163,125.375 Q196.5194,125.375 197.16,125.5313 Q197.8163,125.6875 198.3788,125.9844 L198.3788,128.7031 Q197.7538,128.125 197.16,127.8594 Q196.5663,127.5781 195.9413,127.5781 Q194.5975,127.5781 193.91,128.6563 Q193.2225,129.7188 193.2225,131.8125 Q193.2225,133.9063 193.91,134.9844 Q194.5975,136.0469 195.9413,136.0469 Q196.5663,136.0469 197.16,135.7813 Q197.7538,135.5 198.3788,134.9219 L198.3788,137.6406 Z "/><text fill="#000000" font-family="sans-serif" font-size="12" lengthAdjust="spacingAndGlyphs" textLength="100" x="215.91" y="136.1543">SceneLoadingUI</text><line style="stroke: #A80036; stroke-width: 1.5;" x1="118.66" x2="380.66" y1="148" y2="148"/><text fill="#000000" font-family="sans-serif" font-size="11" lengthAdjust="spacingAndGlyphs" textLength="163" x="123.66" y="162.2104">firstFolderPathIndex : int = 0</text><text fill="#000000" font-family="sans-serif" font-size="11" lengthAdjust="spacingAndGlyphs" textLength="139" x="123.66" y="175.0151">selectedFolderIndex : int</text><text fill="#000000" font-family="sans-serif" font-size="11" lengthAdjust="spacingAndGlyphs" textLength="146" x="123.66" y="187.8198">currentScenePath : string</text><line style="stroke: #A80036; stroke-width: 1.5;" x1="118.66" x2="380.66" y1="194.4141" y2="194.4141"/><text fill="#000000" font-family="sans-serif" font-size="11" lengthAdjust="spacingAndGlyphs" textLength="71" x="137.66" y="208.6245">Start() : void</text><text fill="#000000" font-family="sans-serif" font-size="11" lengthAdjust="spacingAndGlyphs" textLength="83" x="137.66" y="221.4292">Update() : void</text><ellipse cx="128.66" cy="231.0234" fill="#84BE84" rx="3" ry="3" style="stroke: #038048; stroke-width: 1.0;"/><text fill="#000000" font-family="sans-serif" font-size="11" lengthAdjust="spacingAndGlyphs" textLength="162" x="137.66" y="234.2339">SetSelection(index:int) : void</text><ellipse cx="128.66" cy="243.8281" fill="#84BE84" rx="3" ry="3" style="stroke: #038048; stroke-width: 1.0;"/><text fill="#000000" font-family="sans-serif" font-size="11" lengthAdjust="spacingAndGlyphs" textLength="145" x="137.66" y="247.0386">SetAndLoadScene() : void</text><text fill="#000000" font-family="sans-serif" font-size="11" lengthAdjust="spacingAndGlyphs" textLength="164" x="137.66" y="259.8433">SceneLoader() : IEnumerator</text><ellipse cx="128.66" cy="269.4375" fill="#84BE84" rx="3" ry="3" style="stroke: #038048; stroke-width: 1.0;"/><text fill="#000000" font-family="sans-serif" font-size="11" lengthAdjust="spacingAndGlyphs" textLength="127" x="137.66" y="272.6479">UpdateButtons() : void</text><ellipse cx="128.66" cy="282.2422" fill="#84BE84" rx="3" ry="3" style="stroke: #038048; stroke-width: 1.0;"/><text fill="#000000" font-family="sans-serif" font-size="11" lengthAdjust="spacingAndGlyphs" textLength="110" x="137.66" y="285.4526">SelectionUp() : void</text><ellipse cx="128.66" cy="295.0469" fill="#84BE84" rx="3" ry="3" style="stroke: #038048; stroke-width: 1.0;"/><text fill="#000000" font-family="sans-serif" font-size="11" lengthAdjust="spacingAndGlyphs" textLength="126" x="137.66" y="298.2573">SelectionDown() : void</text><ellipse cx="128.66" cy="307.8516" fill="#84BE84" rx="3" ry="3" style="stroke: #038048; stroke-width: 1.0;"/><text fill="#000000" font-family="sans-serif" font-size="11" lengthAdjust="spacingAndGlyphs" textLength="148" x="137.66" y="311.062">BrowseFileSystem() : void</text><text fill="#000000" font-family="sans-serif" font-size="11" lengthAdjust="spacingAndGlyphs" textLength="238" x="137.66" y="323.8667">ShowLoadDialogCoroutine() : IEnumerator</text><ellipse cx="128.66" cy="333.4609" fill="#84BE84" rx="3" ry="3" style="stroke: #038048; stroke-width: 1.0;"/><text fill="#000000" font-family="sans-serif" font-size="11" lengthAdjust="spacingAndGlyphs" textLength="158" x="137.66" y="336.6714">PasteFromClipboard() : void</text><ellipse cx="128.66" cy="346.2656" fill="#84BE84" rx="3" ry="3" style="stroke: #038048; stroke-width: 1.0;"/><text fill="#000000" font-family="sans-serif" font-size="11" lengthAdjust="spacingAndGlyphs" textLength="123" x="137.66" y="349.4761">AddNewScene() : void</text><ellipse cx="128.66" cy="359.0703" fill="#84BE84" rx="3" ry="3" style="stroke: #038048; stroke-width: 1.0;"/><text fill="#000000" font-family="sans-serif" font-size="11" lengthAdjust="spacingAndGlyphs" textLength="159" x="137.66" y="362.2808">SaveSceneListToFile() : void</text><ellipse cx="128.66" cy="371.875" fill="#84BE84" rx="3" ry="3" style="stroke: #038048; stroke-width: 1.0;"/><text fill="#000000" font-family="sans-serif" font-size="11" lengthAdjust="spacingAndGlyphs" textLength="173" x="137.66" y="375.0854">LoadSceneListFromFile() : void</text><ellipse cx="128.66" cy="384.6797" fill="#84BE84" rx="3" ry="3" style="stroke: #038048; stroke-width: 1.0;"/><text fill="#000000" font-family="sans-serif" font-size="11" lengthAdjust="spacingAndGlyphs" textLength="151" x="137.66" y="387.8901">ClearIndex(index:int) : void</text><ellipse cx="128.66" cy="397.4844" fill="#84BE84" rx="3" ry="3" style="stroke: #038048; stroke-width: 1.0;"/><text fill="#000000" font-family="sans-serif" font-size="11" lengthAdjust="spacingAndGlyphs" textLength="93" x="137.66" y="400.6948">ClearList() : void</text><ellipse cx="128.66" cy="410.2891" fill="#84BE84" rx="3" ry="3" style="stroke: #038048; stroke-width: 1.0;"/><text fill="#000000" font-family="sans-serif" font-size="11" lengthAdjust="spacingAndGlyphs" textLength="94" x="137.66" y="413.4995">ExitToOS() : void</text><ellipse cx="128.66" cy="423.0938" fill="#84BE84" rx="3" ry="3" style="stroke: #038048; stroke-width: 1.0;"/><text fill="#000000" font-family="sans-serif" font-size="11" lengthAdjust="spacingAndGlyphs" textLength="131" x="137.66" y="426.3042">LoadSceneData() : void</text><ellipse cx="128.66" cy="435.8984" fill="#84BE84" rx="3" ry="3" style="stroke: #038048; stroke-width: 1.0;"/><text fill="#000000" font-family="sans-serif" font-size="11" lengthAdjust="spacingAndGlyphs" textLength="132" x="137.66" y="439.1089">SaveSceneData() : void</text><ellipse cx="128.66" cy="448.7031" fill="#84BE84" rx="3" ry="3" style="stroke: #038048; stroke-width: 1.0;"/><text fill="#000000" font-family="sans-serif" font-size="11" lengthAdjust="spacingAndGlyphs" textLength="134" x="137.66" y="451.9136">ClearSceneData() : void</text><!--MD5=[e644022de7dea015dd09463c37421447]
class List`1--><rect fill="#FEFECE" filter="url(#f1hlg9jxkp2dt1)" height="48" id="List`1" style="stroke: #A80036; stroke-width: 1.5;" width="78" x="416.66" y="263.5"/><ellipse cx="431.66" cy="279.5" fill="#ADD1B2" rx="11" ry="11" style="stroke: #A80036; stroke-width: 1.0;"/><path d="M434.6288,285.1406 Q434.0506,285.4375 433.41,285.5781 Q432.7694,285.7344 432.0663,285.7344 Q429.5663,285.7344 428.2381,284.0938 Q426.9256,282.4375 426.9256,279.3125 Q426.9256,276.1875 428.2381,274.5313 Q429.5663,272.875 432.0663,272.875 Q432.7694,272.875 433.41,273.0313 Q434.0663,273.1875 434.6288,273.4844 L434.6288,276.2031 Q434.0038,275.625 433.41,275.3594 Q432.8163,275.0781 432.1913,275.0781 Q430.8475,275.0781 430.16,276.1563 Q429.4725,277.2188 429.4725,279.3125 Q429.4725,281.4063 430.16,282.4844 Q430.8475,283.5469 432.1913,283.5469 Q432.8163,283.5469 433.41,283.2813 Q434.0038,283 434.6288,282.4219 L434.6288,285.1406 Z "/><text fill="#000000" font-family="sans-serif" font-size="12" lengthAdjust="spacingAndGlyphs" textLength="35" x="445.66" y="283.6543">List`1</text><rect fill="#FFFFFF" height="15.9688" style="stroke: #000000; stroke-width: 1.0; stroke-dasharray: 2.0,2.0;" width="9" x="488.66" y="260.5"/><text fill="#000000" font-family="sans-serif" font-size="12" font-style="italic" lengthAdjust="spacingAndGlyphs" textLength="7" x="489.66" y="272.6387">T</text><line style="stroke: #A80036; stroke-width: 1.5;" x1="417.66" x2="493.66" y1="295.5" y2="295.5"/><line style="stroke: #A80036; stroke-width: 1.5;" x1="417.66" x2="493.66" y1="303.5" y2="303.5"/><!--MD5=[83b3cf3d23d77c6f1e1b5291a241bc2a]
class MonoBehaviour--><rect fill="#FEFECE" filter="url(#f1hlg9jxkp2dt1)" height="48" id="MonoBehaviour" style="stroke: #A80036; stroke-width: 1.5;" width="128" x="185.66" y="8"/><ellipse cx="200.66" cy="24" fill="#ADD1B2" rx="11" ry="11" style="stroke: #A80036; stroke-width: 1.0;"/><path d="M203.6288,29.6406 Q203.0506,29.9375 202.41,30.0781 Q201.7694,30.2344 201.0663,30.2344 Q198.5663,30.2344 197.2381,28.5938 Q195.9256,26.9375 195.9256,23.8125 Q195.9256,20.6875 197.2381,19.0313 Q198.5663,17.375 201.0663,17.375 Q201.7694,17.375 202.41,17.5313 Q203.0663,17.6875 203.6288,17.9844 L203.6288,20.7031 Q203.0038,20.125 202.41,19.8594 Q201.8163,19.5781 201.1913,19.5781 Q199.8475,19.5781 199.16,20.6563 Q198.4725,21.7188 198.4725,23.8125 Q198.4725,25.9063 199.16,26.9844 Q199.8475,28.0469 201.1913,28.0469 Q201.8163,28.0469 202.41,27.7813 Q203.0038,27.5 203.6288,26.9219 L203.6288,29.6406 Z "/><text fill="#000000" font-family="sans-serif" font-size="12" lengthAdjust="spacingAndGlyphs" textLength="96" x="214.66" y="28.1543">MonoBehaviour</text><line style="stroke: #A80036; stroke-width: 1.5;" x1="186.66" x2="312.66" y1="40" y2="40"/><line style="stroke: #A80036; stroke-width: 1.5;" x1="186.66" x2="312.66" y1="48" y2="48"/><!--MD5=[b6b1d61e7c8fa12a02075947dcf1f2e8]
class TerrainLoader--><rect fill="#FEFECE" filter="url(#f1hlg9jxkp2dt1)" height="48" id="TerrainLoader" style="stroke: #A80036; stroke-width: 1.5;" width="119" x="33.16" y="519"/><ellipse cx="48.16" cy="535" fill="#ADD1B2" rx="11" ry="11" style="stroke: #A80036; stroke-width: 1.0;"/><path d="M51.1288,540.6406 Q50.5506,540.9375 49.91,541.0781 Q49.2694,541.2344 48.5663,541.2344 Q46.0663,541.2344 44.7381,539.5938 Q43.4256,537.9375 43.4256,534.8125 Q43.4256,531.6875 44.7381,530.0313 Q46.0663,528.375 48.5663,528.375 Q49.2694,528.375 49.91,528.5313 Q50.5663,528.6875 51.1288,528.9844 L51.1288,531.7031 Q50.5038,531.125 49.91,530.8594 Q49.3163,530.5781 48.6913,530.5781 Q47.3475,530.5781 46.66,531.6563 Q45.9725,532.7188 45.9725,534.8125 Q45.9725,536.9063 46.66,537.9844 Q47.3475,539.0469 48.6913,539.0469 Q49.3163,539.0469 49.91,538.7813 Q50.5038,538.5 51.1288,537.9219 L51.1288,540.6406 Z "/><text fill="#000000" font-family="sans-serif" font-size="12" lengthAdjust="spacingAndGlyphs" textLength="87" x="62.16" y="539.1543">TerrainLoader</text><line style="stroke: #A80036; stroke-width: 1.5;" x1="34.16" x2="151.16" y1="551" y2="551"/><line style="stroke: #A80036; stroke-width: 1.5;" x1="34.16" x2="151.16" y1="559" y2="559"/><!--MD5=[c05919f88dab9d999cd7bd146db477c0]
class TMP_InputField--><rect fill="#FEFECE" filter="url(#f1hlg9jxkp2dt1)" height="48" id="TMP_InputField" style="stroke: #A80036; stroke-width: 1.5;" width="124" x="187.66" y="519"/><ellipse cx="202.66" cy="535" fill="#ADD1B2" rx="11" ry="11" style="stroke: #A80036; stroke-width: 1.0;"/><path d="M205.6288,540.6406 Q205.0506,540.9375 204.41,541.0781 Q203.7694,541.2344 203.0663,541.2344 Q200.5663,541.2344 199.2381,539.5938 Q197.9256,537.9375 197.9256,534.8125 Q197.9256,531.6875 199.2381,530.0313 Q200.5663,528.375 203.0663,528.375 Q203.7694,528.375 204.41,528.5313 Q205.0663,528.6875 205.6288,528.9844 L205.6288,531.7031 Q205.0038,531.125 204.41,530.8594 Q203.8163,530.5781 203.1913,530.5781 Q201.8475,530.5781 201.16,531.6563 Q200.4725,532.7188 200.4725,534.8125 Q200.4725,536.9063 201.16,537.9844 Q201.8475,539.0469 203.1913,539.0469 Q203.8163,539.0469 204.41,538.7813 Q205.0038,538.5 205.6288,537.9219 L205.6288,540.6406 Z "/><text fill="#000000" font-family="sans-serif" font-size="12" lengthAdjust="spacingAndGlyphs" textLength="92" x="216.66" y="539.1543">TMP_InputField</text><line style="stroke: #A80036; stroke-width: 1.5;" x1="188.66" x2="310.66" y1="551" y2="551"/><line style="stroke: #A80036; stroke-width: 1.5;" x1="188.66" x2="310.66" y1="559" y2="559"/><!--MD5=[064f7a74fee85463ec1a30143664ee17]
class GameObject--><rect fill="#FEFECE" filter="url(#f1hlg9jxkp2dt1)" height="48" id="GameObject" style="stroke: #A80036; stroke-width: 1.5;" width="108" x="346.66" y="519"/><ellipse cx="361.66" cy="535" fill="#ADD1B2" rx="11" ry="11" style="stroke: #A80036; stroke-width: 1.0;"/><path d="M364.6288,540.6406 Q364.0506,540.9375 363.41,541.0781 Q362.7694,541.2344 362.0663,541.2344 Q359.5663,541.2344 358.2381,539.5938 Q356.9256,537.9375 356.9256,534.8125 Q356.9256,531.6875 358.2381,530.0313 Q359.5663,528.375 362.0663,528.375 Q362.7694,528.375 363.41,528.5313 Q364.0663,528.6875 364.6288,528.9844 L364.6288,531.7031 Q364.0038,531.125 363.41,530.8594 Q362.8163,530.5781 362.1913,530.5781 Q360.8475,530.5781 360.16,531.6563 Q359.4725,532.7188 359.4725,534.8125 Q359.4725,536.9063 360.16,537.9844 Q360.8475,539.0469 362.1913,539.0469 Q362.8163,539.0469 363.41,538.7813 Q364.0038,538.5 364.6288,537.9219 L364.6288,540.6406 Z "/><text fill="#000000" font-family="sans-serif" font-size="12" lengthAdjust="spacingAndGlyphs" textLength="76" x="375.66" y="539.1543">GameObject</text><line style="stroke: #A80036; stroke-width: 1.5;" x1="347.66" x2="453.66" y1="551" y2="551"/><line style="stroke: #A80036; stroke-width: 1.5;" x1="347.66" x2="453.66" y1="559" y2="559"/><!--MD5=[1387516d1ce8df98c004c4cbf48be092]
reverse link MonoBehaviour to SceneLoadingUI--><path d="M249.66,76.6 C249.66,88.31 249.66,101.72 249.66,115.96 " fill="none" id="MonoBehaviour&lt;-SceneLoadingUI" style="stroke: #A80036; stroke-width: 1.0;"/><polygon fill="none" points="242.66,76.39,249.66,56.39,256.66,76.39,242.66,76.39" style="stroke: #A80036; stroke-width: 1.0;"/><!--MD5=[77ae0ec54c3954866b01fe73c5de72ae]
link SceneLoadingUI to List`1--><path d="M394.03,287.5 C394.03,287.5 400.57,287.5 403.23,287.5 " fill="none" id="SceneLoadingUI-List`1" style="stroke: #A80036; stroke-width: 1.0;"/><polygon fill="#A80036" points="416.55,287.5,407.55,283.5,411.55,287.5,407.55,291.5,416.55,287.5" style="stroke: #A80036; stroke-width: 1.0;"/><line style="stroke: #A80036; stroke-width: 1.0;" x1="411.55" x2="403.55" y1="287.5" y2="287.5"/><polygon fill="#FFFFFF" points="382.03,287.5,388.03,291.5,394.03,287.5,388.03,283.5,382.03,287.5" style="stroke: #A80036; stroke-width: 1.0;"/><text fill="#000000" font-family="sans-serif" font-size="13" lengthAdjust="spacingAndGlyphs" textLength="130" x="501.987" y="260.036">folderPaths&lt;string&gt;</text><!--MD5=[f09943b7b72f587cb62a13d850a20e2f]
link SceneLoadingUI to TerrainLoader--><path d="M143.85,459.35 C130.73,480.54 118.77,499.85 109.71,514.47 " fill="none" id="SceneLoadingUI-&gt;TerrainLoader" style="stroke: #A80036; stroke-width: 1.0;"/><polygon fill="#A80036" points="107,518.85,115.1318,513.2936,109.6269,514.5956,108.3248,509.0907,107,518.85" style="stroke: #A80036; stroke-width: 1.0;"/><text fill="#000000" font-family="sans-serif" font-size="13" lengthAdjust="spacingAndGlyphs" textLength="86" x="13.6559" y="507.8236">terrainLoader</text><!--MD5=[7cf5550b082b79f70d0102acda2bea08]
link SceneLoadingUI to TMP_InputField--><path d="M188.06,459.35 C191.7,480.54 198.07,499.85 207.16,514.47 " fill="none" id="SceneLoadingUI-&gt;TMP_InputField" style="stroke: #A80036; stroke-width: 1.0;"/><polygon fill="#A80036" points="210.07,518.85,208.4444,509.1362,207.313,514.6788,201.7704,513.5474,210.07,518.85" style="stroke: #A80036; stroke-width: 1.0;"/><text fill="#000000" font-family="sans-serif" font-size="13" lengthAdjust="spacingAndGlyphs" textLength="100" x="127.3438" y="507.8236">TMProInputField</text><!--MD5=[7cf5550b082b79f70d0102acda2bea08]
link SceneLoadingUI to TMP_InputField--><path d="M212.84,459.35 C215,480.35 218.76,499.52 224.12,514.09 " fill="none" id="SceneLoadingUI-&gt;TMP_InputField-1" style="stroke: #A80036; stroke-width: 1.0;"/><polygon fill="#A80036" points="226,518.85,226.4237,509.0103,224.1678,514.1978,218.9802,511.9419,226,518.85" style="stroke: #A80036; stroke-width: 1.0;"/><text fill="#000000" font-family="sans-serif" font-size="13" lengthAdjust="spacingAndGlyphs" textLength="109" x="233.9028" y="507.8236">longitudeTextbox</text><!--MD5=[7cf5550b082b79f70d0102acda2bea08]
link SceneLoadingUI to TMP_InputField--><path d="M237.62,459.35 C238.32,480.17 239.54,499.18 241.27,513.71 " fill="none" id="SceneLoadingUI-&gt;TMP_InputField-2" style="stroke: #A80036; stroke-width: 1.0;"/><polygon fill="#A80036" points="241.93,518.85,244.7695,509.4193,241.3028,513.8895,236.8327,510.4228,241.93,518.85" style="stroke: #A80036; stroke-width: 1.0;"/><text fill="#000000" font-family="sans-serif" font-size="13" lengthAdjust="spacingAndGlyphs" textLength="98" x="116.1049" y="507.6053">latitudeTextbox</text><!--MD5=[7cf5550b082b79f70d0102acda2bea08]
link SceneLoadingUI to TMP_InputField--><path d="M262.41,459.35 C261.67,480.17 260.38,499.18 258.55,513.71 " fill="none" id="SceneLoadingUI-&gt;TMP_InputField-3" style="stroke: #A80036; stroke-width: 1.0;"/><polygon fill="#A80036" points="257.85,518.85,263.0218,510.4683,258.5211,513.8952,255.0942,509.3946,257.85,518.85" style="stroke: #A80036; stroke-width: 1.0;"/><text fill="#000000" font-family="sans-serif" font-size="13" lengthAdjust="spacingAndGlyphs" textLength="98" x="314.5807" y="508.0354">altitudeTextbox</text><!--MD5=[7cf5550b082b79f70d0102acda2bea08]
link SceneLoadingUI to TMP_InputField--><path d="M287.19,459.35 C284.99,480.35 281.16,499.52 275.7,514.09 " fill="none" id="SceneLoadingUI-&gt;TMP_InputField-4" style="stroke: #A80036; stroke-width: 1.0;"/><polygon fill="#A80036" points="273.78,518.85,280.8364,511.9793,275.637,514.2076,273.4086,509.0081,273.78,518.85" style="stroke: #A80036; stroke-width: 1.0;"/><text fill="#000000" font-family="sans-serif" font-size="13" lengthAdjust="spacingAndGlyphs" textLength="136" x="297.3858" y="507.8236">altitudeOffsetTextbox</text><!--MD5=[7cf5550b082b79f70d0102acda2bea08]
link SceneLoadingUI to TMP_InputField--><path d="M311.98,459.35 C308.29,480.54 301.85,499.85 292.65,514.47 " fill="none" id="SceneLoadingUI-&gt;TMP_InputField-5" style="stroke: #A80036; stroke-width: 1.0;"/><polygon fill="#A80036" points="289.71,518.85,298.0554,513.6199,292.5032,514.703,291.4201,509.1507,289.71,518.85" style="stroke: #A80036; stroke-width: 1.0;"/><text fill="#000000" font-family="sans-serif" font-size="13" lengthAdjust="spacingAndGlyphs" textLength="125" x="315.9884" y="507.8236">modelScaleTextbox</text><!--MD5=[29cfa379035bf7149e0a3eaadb0fa671]
link SceneLoadingUI to GameObject--><path d="M314.61,459.35 C329.66,480.9 345.24,500.51 359.59,515.22 " fill="none" id="SceneLoadingUI-&gt;GameObject" style="stroke: #A80036; stroke-width: 1.0;"/><polygon fill="#A80036" points="363.21,518.85,359.693,509.6505,359.6816,515.3073,354.0248,515.2959,363.21,518.85" style="stroke: #A80036; stroke-width: 1.0;"/><text fill="#000000" font-family="sans-serif" font-size="13" lengthAdjust="spacingAndGlyphs" textLength="50" x="346.0912" y="508.1145">button1</text><!--MD5=[29cfa379035bf7149e0a3eaadb0fa671]
link SceneLoadingUI to GameObject--><path d="M339.39,459.35 C352.72,480.54 365.47,499.85 375.96,514.47 " fill="none" id="SceneLoadingUI-&gt;GameObject-1" style="stroke: #A80036; stroke-width: 1.0;"/><polygon fill="#A80036" points="379.14,518.85,377.1158,509.2114,376.2136,514.7959,370.6291,513.8937,379.14,518.85" style="stroke: #A80036; stroke-width: 1.0;"/><text fill="#000000" font-family="sans-serif" font-size="13" lengthAdjust="spacingAndGlyphs" textLength="50" x="380.0318" y="507.8236">button2</text><!--MD5=[29cfa379035bf7149e0a3eaadb0fa671]
link SceneLoadingUI to GameObject--><path d="M364.17,459.35 C375.94,480.35 386.05,499.52 392.88,514.09 " fill="none" id="SceneLoadingUI-&gt;GameObject-2" style="stroke: #A80036; stroke-width: 1.0;"/><polygon fill="#A80036" points="395.06,518.85,394.94,509.0019,392.9738,514.306,387.6696,512.3398,395.06,518.85" style="stroke: #A80036; stroke-width: 1.0;"/><text fill="#000000" font-family="sans-serif" font-size="13" lengthAdjust="spacingAndGlyphs" textLength="50" x="421.735" y="508.1145">button3</text><!--MD5=[29cfa379035bf7149e0a3eaadb0fa671]
link SceneLoadingUI to GameObject--><path d="M381.68,445.08 C395.49,471.22 405.84,495.58 409.9,513.33 " fill="none" id="SceneLoadingUI-&gt;GameObject-3" style="stroke: #A80036; stroke-width: 1.0;"/><polygon fill="#A80036" points="410.95,518.62,413.1234,509.014,409.9777,513.7155,405.2762,510.5697,410.95,518.62" style="stroke: #A80036; stroke-width: 1.0;"/><text fill="#000000" font-family="sans-serif" font-size="13" lengthAdjust="spacingAndGlyphs" textLength="59" x="420.6488" y="507.9323">goButton</text><!--MD5=[5ca3278894d6f6b8240c0782b25fe652]
@startuml
class SceneLoadingUI {
    firstFolderPathIndex : int = 0
    selectedFolderIndex : int
    currentScenePath : string
    Start() : void
    Update() : void
    + SetSelection(index:int) : void
    + SetAndLoadScene() : void
    SceneLoader() : IEnumerator
    + UpdateButtons() : void
    + SelectionUp() : void
    + SelectionDown() : void
    + BrowseFileSystem() : void
    ShowLoadDialogCoroutine() : IEnumerator
    + PasteFromClipboard() : void
    + AddNewScene() : void
    + SaveSceneListToFile() : void
    + LoadSceneListFromFile() : void
    + ClearIndex(index:int) : void
    + ClearList() : void
    + ExitToOS() : void
    + LoadSceneData() : void
    + SaveSceneData() : void
    + ClearSceneData() : void
}
class "List`1"<T> {
}
MonoBehaviour <|- - SceneLoadingUI
SceneLoadingUI o-> "folderPaths<string>" "List`1"
SceneLoadingUI - -> "terrainLoader" TerrainLoader
SceneLoadingUI - -> "TMProInputField" TMP_InputField
SceneLoadingUI - -> "button1" GameObject
SceneLoadingUI - -> "button2" GameObject
SceneLoadingUI - -> "button3" GameObject
SceneLoadingUI - -> "goButton" GameObject
SceneLoadingUI - -> "longitudeTextbox" TMP_InputField
SceneLoadingUI - -> "latitudeTextbox" TMP_InputField
SceneLoadingUI - -> "altitudeTextbox" TMP_InputField
SceneLoadingUI - -> "altitudeOffsetTextbox" TMP_InputField
SceneLoadingUI - -> "modelScaleTextbox" TMP_InputField
@enduml

PlantUML version 1.2020.02(Sun Mar 01 10:22:07 GMT 2020)
(GPL source distribution)
Java Runtime: OpenJDK Runtime Environment
JVM: OpenJDK 64-Bit Server VM
Java Version: 11.0.9+11-Ubuntu-0ubuntu1
Operating System: Linux
Default Encoding: ANSI_X3.4-1968
Language: en
Country: US
--></g></svg>