<?xml version="1.0" encoding="UTF-8" standalone="no"?><svg xmlns="http://www.w3.org/2000/svg" xmlns:xlink="http://www.w3.org/1999/xlink" contentScriptType="application/ecmascript" contentStyleType="text/css" height="334px" preserveAspectRatio="none" style="width:381px;height:334px;" version="1.1" viewBox="0 0 381 334" width="381px" zoomAndPan="magnify"><defs><filter height="300%" id="fektnhiodcjru" width="300%" x="-1" y="-1"><feGaussianBlur result="blurOut" stdDeviation="2.0"/><feColorMatrix in="blurOut" result="blurOut2" type="matrix" values="0 0 0 0 0 0 0 0 0 0 0 0 0 0 0 0 0 0 .4 0"/><feOffset dx="4.0" dy="4.0" in="blurOut2" result="blurOut3"/><feBlend in="SourceGraphic" in2="blurOut3" mode="normal"/></filter></defs><g><!--MD5=[2a1de2c1175033d6d9ad0db46bbe0194]
class UIGraphRenderer--><rect fill="#FEFECE" filter="url(#fektnhiodcjru)" height="99.2188" id="UIGraphRenderer" style="stroke: #A80036; stroke-width: 1.5;" width="265" x="6" y="116"/><ellipse cx="80.25" cy="132" fill="#ADD1B2" rx="11" ry="11" style="stroke: #A80036; stroke-width: 1.0;"/><path d="M83.2188,137.6406 Q82.6406,137.9375 82,138.0781 Q81.3594,138.2344 80.6563,138.2344 Q78.1563,138.2344 76.8281,136.5938 Q75.5156,134.9375 75.5156,131.8125 Q75.5156,128.6875 76.8281,127.0313 Q78.1563,125.375 80.6563,125.375 Q81.3594,125.375 82,125.5313 Q82.6563,125.6875 83.2188,125.9844 L83.2188,128.7031 Q82.5938,128.125 82,127.8594 Q81.4063,127.5781 80.7813,127.5781 Q79.4375,127.5781 78.75,128.6563 Q78.0625,129.7188 78.0625,131.8125 Q78.0625,133.9063 78.75,134.9844 Q79.4375,136.0469 80.7813,136.0469 Q81.4063,136.0469 82,135.7813 Q82.5938,135.5 83.2188,134.9219 L83.2188,137.6406 Z "/><text fill="#000000" font-family="sans-serif" font-size="12" lengthAdjust="spacingAndGlyphs" textLength="108" x="100.75" y="136.1543">UIGraphRenderer</text><line style="stroke: #A80036; stroke-width: 1.5;" x1="7" x2="270" y1="148" y2="148"/><ellipse cx="17" cy="159" fill="none" rx="3" ry="3" style="stroke: #038048; stroke-width: 1.0;"/><text fill="#000000" font-family="sans-serif" font-size="11" lengthAdjust="spacingAndGlyphs" textLength="129" x="26" y="162.2104">LineWidth : float = 3.0f</text><ellipse cx="17" cy="171.8047" fill="none" rx="3" ry="3" style="stroke: #038048; stroke-width: 1.0;"/><text fill="#000000" font-family="sans-serif" font-size="11" lengthAdjust="spacingAndGlyphs" textLength="239" x="26" y="175.0151">backgroundLineWorldHeight : float = 10.0f</text><line style="stroke: #A80036; stroke-width: 1.5;" x1="7" x2="270" y1="181.6094" y2="181.6094"/><ellipse cx="17" cy="192.6094" fill="#84BE84" rx="3" ry="3" style="stroke: #038048; stroke-width: 1.0;"/><text fill="#000000" font-family="sans-serif" font-size="11" lengthAdjust="spacingAndGlyphs" textLength="167" x="26" y="195.8198">AddPoint(Point:Vector2) : void</text><ellipse cx="17" cy="205.4141" fill="#84BE84" rx="3" ry="3" style="stroke: #038048; stroke-width: 1.0;"/><text fill="#000000" font-family="sans-serif" font-size="11" lengthAdjust="spacingAndGlyphs" textLength="108" x="26" y="208.6245">ClearPoints() : void</text><!--MD5=[7340ddc93ee3d3f5fef34806a115f504]
class Graphic--><rect fill="#FEFECE" filter="url(#fektnhiodcjru)" height="48" id="Graphic" style="stroke: #A80036; stroke-width: 1.5;" width="80" x="98.5" y="8"/><ellipse cx="113.5" cy="24" fill="#ADD1B2" rx="11" ry="11" style="stroke: #A80036; stroke-width: 1.0;"/><path d="M116.4688,29.6406 Q115.8906,29.9375 115.25,30.0781 Q114.6094,30.2344 113.9063,30.2344 Q111.4063,30.2344 110.0781,28.5938 Q108.7656,26.9375 108.7656,23.8125 Q108.7656,20.6875 110.0781,19.0313 Q111.4063,17.375 113.9063,17.375 Q114.6094,17.375 115.25,17.5313 Q115.9063,17.6875 116.4688,17.9844 L116.4688,20.7031 Q115.8438,20.125 115.25,19.8594 Q114.6563,19.5781 114.0313,19.5781 Q112.6875,19.5781 112,20.6563 Q111.3125,21.7188 111.3125,23.8125 Q111.3125,25.9063 112,26.9844 Q112.6875,28.0469 114.0313,28.0469 Q114.6563,28.0469 115.25,27.7813 Q115.8438,27.5 116.4688,26.9219 L116.4688,29.6406 Z "/><text fill="#000000" font-family="sans-serif" font-size="12" lengthAdjust="spacingAndGlyphs" textLength="48" x="127.5" y="28.1543">Graphic</text><line style="stroke: #A80036; stroke-width: 1.5;" x1="99.5" x2="177.5" y1="40" y2="40"/><line style="stroke: #A80036; stroke-width: 1.5;" x1="99.5" x2="177.5" y1="48" y2="48"/><!--MD5=[02a8746eb15ecbb4566dafa16ea4db73]
class Text--><rect fill="#FEFECE" filter="url(#fektnhiodcjru)" height="48" id="Text" style="stroke: #A80036; stroke-width: 1.5;" width="58" x="109.5" y="275"/><ellipse cx="124.5" cy="291" fill="#ADD1B2" rx="11" ry="11" style="stroke: #A80036; stroke-width: 1.0;"/><path d="M127.4688,296.6406 Q126.8906,296.9375 126.25,297.0781 Q125.6094,297.2344 124.9063,297.2344 Q122.4063,297.2344 121.0781,295.5938 Q119.7656,293.9375 119.7656,290.8125 Q119.7656,287.6875 121.0781,286.0313 Q122.4063,284.375 124.9063,284.375 Q125.6094,284.375 126.25,284.5313 Q126.9063,284.6875 127.4688,284.9844 L127.4688,287.7031 Q126.8438,287.125 126.25,286.8594 Q125.6563,286.5781 125.0313,286.5781 Q123.6875,286.5781 123,287.6563 Q122.3125,288.7188 122.3125,290.8125 Q122.3125,292.9063 123,293.9844 Q123.6875,295.0469 125.0313,295.0469 Q125.6563,295.0469 126.25,294.7813 Q126.8438,294.5 127.4688,293.9219 L127.4688,296.6406 Z "/><text fill="#000000" font-family="sans-serif" font-size="12" lengthAdjust="spacingAndGlyphs" textLength="26" x="138.5" y="295.1543">Text</text><line style="stroke: #A80036; stroke-width: 1.5;" x1="110.5" x2="166.5" y1="307" y2="307"/><line style="stroke: #A80036; stroke-width: 1.5;" x1="110.5" x2="166.5" y1="315" y2="315"/><!--MD5=[18eee71c88ab61f27581b8cbdd3ef5ee]
class Color--><rect fill="#FEFECE" filter="url(#fektnhiodcjru)" height="48" id="Color" style="stroke: #A80036; stroke-width: 1.5;" width="64" x="306.5" y="141.5"/><ellipse cx="321.5" cy="157.5" fill="#ADD1B2" rx="11" ry="11" style="stroke: #A80036; stroke-width: 1.0;"/><path d="M324.4688,163.1406 Q323.8906,163.4375 323.25,163.5781 Q322.6094,163.7344 321.9063,163.7344 Q319.4063,163.7344 318.0781,162.0938 Q316.7656,160.4375 316.7656,157.3125 Q316.7656,154.1875 318.0781,152.5313 Q319.4063,150.875 321.9063,150.875 Q322.6094,150.875 323.25,151.0313 Q323.9063,151.1875 324.4688,151.4844 L324.4688,154.2031 Q323.8438,153.625 323.25,153.3594 Q322.6563,153.0781 322.0313,153.0781 Q320.6875,153.0781 320,154.1563 Q319.3125,155.2188 319.3125,157.3125 Q319.3125,159.4063 320,160.4844 Q320.6875,161.5469 322.0313,161.5469 Q322.6563,161.5469 323.25,161.2813 Q323.8438,161 324.4688,160.4219 L324.4688,163.1406 Z "/><text fill="#000000" font-family="sans-serif" font-size="12" lengthAdjust="spacingAndGlyphs" textLength="32" x="335.5" y="161.6543">Color</text><line style="stroke: #A80036; stroke-width: 1.5;" x1="307.5" x2="369.5" y1="173.5" y2="173.5"/><line style="stroke: #A80036; stroke-width: 1.5;" x1="307.5" x2="369.5" y1="181.5" y2="181.5"/><!--MD5=[ce290b2bbc2a89cde5820c329af83a24]
reverse link Graphic to UIGraphRenderer--><path d="M138.5,76.51 C138.5,89.14 138.5,103.01 138.5,115.93 " fill="none" id="Graphic&lt;-UIGraphRenderer" style="stroke: #A80036; stroke-width: 1.0;"/><polygon fill="none" points="131.5,76.21,138.5,56.21,145.5,76.21,131.5,76.21" style="stroke: #A80036; stroke-width: 1.0;"/><!--MD5=[d20898044fdded66c7de3f6525405073]
link UIGraphRenderer to Text--><path d="M100.71,215.09 C97.89,234.72 100.01,256.54 107.06,272.86 " fill="none" id="UIGraphRenderer-&gt;Text" style="stroke: #A80036; stroke-width: 1.0;"/><polygon fill="#A80036" points="109.41,277.75,109.1134,267.9056,107.2426,273.2442,101.9041,271.3734,109.41,277.75" style="stroke: #A80036; stroke-width: 1.0;"/><text fill="#000000" font-family="sans-serif" font-size="13" lengthAdjust="spacingAndGlyphs" textLength="59" x="42.537" y="270.9625">xAxisMax</text><!--MD5=[d20898044fdded66c7de3f6525405073]
link UIGraphRenderer to Text--><path d="M126.14,215.09 C125.28,233.5 125.84,253.83 127.81,269.75 " fill="none" id="UIGraphRenderer-&gt;Text-1" style="stroke: #A80036; stroke-width: 1.0;"/><polygon fill="#A80036" points="128.53,274.98,131.2591,265.5168,127.8449,270.0272,123.3345,266.613,128.53,274.98" style="stroke: #A80036; stroke-width: 1.0;"/><text fill="#000000" font-family="sans-serif" font-size="13" lengthAdjust="spacingAndGlyphs" textLength="59" x="133.5346" y="263.9869">yAxisMax</text><!--MD5=[d20898044fdded66c7de3f6525405073]
link UIGraphRenderer to Text--><path d="M151.58,215.09 C152.5,233.5 151.91,253.83 149.82,269.75 " fill="none" id="UIGraphRenderer-&gt;Text-2" style="stroke: #A80036; stroke-width: 1.0;"/><polygon fill="#A80036" points="149.05,274.98,154.2961,266.6446,149.7651,270.0314,146.3783,265.5004,149.05,274.98" style="stroke: #A80036; stroke-width: 1.0;"/><text fill="#000000" font-family="sans-serif" font-size="13" lengthAdjust="spacingAndGlyphs" textLength="55" x="175.2094" y="275.735">xAxisMin</text><!--MD5=[d20898044fdded66c7de3f6525405073]
link UIGraphRenderer to Text--><path d="M177.02,215.09 C179.97,235.29 177.6,257.81 169.91,274.27 " fill="none" id="UIGraphRenderer-&gt;Text-3" style="stroke: #A80036; stroke-width: 1.0;"/><polygon fill="#A80036" points="167.59,278.75,175.2798,272.5964,169.8887,274.3097,168.1754,268.9186,167.59,278.75" style="stroke: #A80036; stroke-width: 1.0;"/><text fill="#000000" font-family="sans-serif" font-size="13" lengthAdjust="spacingAndGlyphs" textLength="55" x="175.548" y="289.0333">yAxisMin</text><!--MD5=[5fedf374b82e7664657f7818007ffc43]
link UIGraphRenderer to Color--><path d="M283.31,165.5 C283.31,165.5 290.45,165.5 293.43,165.5 " fill="none" id="UIGraphRenderer-Color" style="stroke: #A80036; stroke-width: 1.0;"/><polygon fill="#A80036" points="306.48,165.5,297.48,161.5,301.48,165.5,297.48,169.5,306.48,165.5" style="stroke: #A80036; stroke-width: 1.0;"/><line style="stroke: #A80036; stroke-width: 1.0;" x1="301.48" x2="293.48" y1="165.5" y2="165.5"/><polygon fill="#FFFFFF" points="271.31,165.5,277.31,169.5,283.31,165.5,277.31,161.5,271.31,165.5" style="stroke: #A80036; stroke-width: 1.0;"/><text fill="#000000" font-family="sans-serif" font-size="13" lengthAdjust="spacingAndGlyphs" textLength="71" x="227.7671" y="194.9724">axesColour</text><!--MD5=[fd9f3105ebe47c5ce0e8099ce88b9014]
@startuml
class UIGraphRenderer {
    + LineWidth : float = 3.0f
    + backgroundLineWorldHeight : float = 10.0f
    + AddPoint(Point:Vector2) : void
    + ClearPoints() : void
}
Graphic <|- - UIGraphRenderer
UIGraphRenderer - -> "xAxisMax" Text
UIGraphRenderer - -> "yAxisMax" Text
UIGraphRenderer - -> "xAxisMin" Text
UIGraphRenderer - -> "yAxisMin" Text
UIGraphRenderer o-> "axesColour" Color
@enduml

PlantUML version 1.2020.02(Sun Mar 01 10:22:07 GMT 2020)
(GPL source distribution)
Java Runtime: OpenJDK Runtime Environment
JVM: OpenJDK 64-Bit Server VM
Java Version: 11.0.9+11-Ubuntu-0ubuntu1
Operating System: Linux
Default Encoding: ANSI_X3.4-1968
Language: en
Country: US
--></g></svg>