<?xml version="1.0" encoding="UTF-8" standalone="no"?><svg xmlns="http://www.w3.org/2000/svg" xmlns:xlink="http://www.w3.org/1999/xlink" contentScriptType="application/ecmascript" contentStyleType="text/css" height="264px" preserveAspectRatio="none" style="width:635px;height:264px;" version="1.1" viewBox="0 0 635 264" width="635px" zoomAndPan="magnify"><defs><filter height="300%" id="f13fuvk2xyoiq2" width="300%" x="-1" y="-1"><feGaussianBlur result="blurOut" stdDeviation="2.0"/><feColorMatrix in="blurOut" result="blurOut2" type="matrix" values="0 0 0 0 0 0 0 0 0 0 0 0 0 0 0 0 0 0 .4 0"/><feOffset dx="4.0" dy="4.0" in="blurOut2" result="blurOut3"/><feBlend in="SourceGraphic" in2="blurOut3" mode="normal"/></filter></defs><g><!--MD5=[cb807a296066336e07dbf4b629c54c85]
class DistanceBasedTerrainLoader--><rect fill="#FEFECE" filter="url(#f13fuvk2xyoiq2)" height="137.6328" id="DistanceBasedTerrainLoader" style="stroke: #A80036; stroke-width: 1.5;" width="244" x="6" y="116"/><ellipse cx="34.95" cy="132" fill="#ADD1B2" rx="11" ry="11" style="stroke: #A80036; stroke-width: 1.0;"/><path d="M37.9188,137.6406 Q37.3406,137.9375 36.7,138.0781 Q36.0594,138.2344 35.3563,138.2344 Q32.8563,138.2344 31.5281,136.5938 Q30.2156,134.9375 30.2156,131.8125 Q30.2156,128.6875 31.5281,127.0313 Q32.8563,125.375 35.3563,125.375 Q36.0594,125.375 36.7,125.5313 Q37.3563,125.6875 37.9188,125.9844 L37.9188,128.7031 Q37.2938,128.125 36.7,127.8594 Q36.1063,127.5781 35.4813,127.5781 Q34.1375,127.5781 33.45,128.6563 Q32.7625,129.7188 32.7625,131.8125 Q32.7625,133.9063 33.45,134.9844 Q34.1375,136.0469 35.4813,136.0469 Q36.1063,136.0469 36.7,135.7813 Q37.2938,135.5 37.9188,134.9219 L37.9188,137.6406 Z "/><text fill="#000000" font-family="sans-serif" font-size="12" lengthAdjust="spacingAndGlyphs" textLength="181" x="52.05" y="136.1543">DistanceBasedTerrainLoader</text><line style="stroke: #A80036; stroke-width: 1.5;" x1="7" x2="249" y1="148" y2="148"/><ellipse cx="17" cy="159" fill="none" rx="3" ry="3" style="stroke: #038048; stroke-width: 1.0;"/><text fill="#000000" font-family="sans-serif" font-size="11" lengthAdjust="spacingAndGlyphs" textLength="113" x="26" y="162.2104">isLow : bool = false</text><ellipse cx="17" cy="171.8047" fill="none" rx="3" ry="3" style="stroke: #038048; stroke-width: 1.0;"/><text fill="#000000" font-family="sans-serif" font-size="11" lengthAdjust="spacingAndGlyphs" textLength="141" x="26" y="175.0151">shouldLoop : bool = true</text><text fill="#000000" font-family="sans-serif" font-size="11" lengthAdjust="spacingAndGlyphs" text-decoration="underline" textLength="115" x="26" y="187.8198">modelIndex : int = 0</text><line style="stroke: #A80036; stroke-width: 1.5;" x1="7" x2="249" y1="194.4141" y2="194.4141"/><ellipse cx="17" cy="205.4141" fill="#84BE84" rx="3" ry="3" style="stroke: #038048; stroke-width: 1.0;"/><text fill="#000000" font-family="sans-serif" font-size="11" lengthAdjust="spacingAndGlyphs" textLength="64" x="26" y="208.6245">Run() : void</text><ellipse cx="17" cy="218.2188" fill="#84BE84" rx="3" ry="3" style="stroke: #038048; stroke-width: 1.0;"/><text fill="#000000" font-family="sans-serif" font-size="11" lengthAdjust="spacingAndGlyphs" textLength="155" x="26" y="221.4292">ClearAllLoadedOBJS() : void</text><ellipse cx="17" cy="231.0234" fill="#84BE84" rx="3" ry="3" style="stroke: #038048; stroke-width: 1.0;"/><text fill="#000000" font-family="sans-serif" font-size="11" lengthAdjust="spacingAndGlyphs" textLength="218" x="26" y="234.2339">CheckCellExists(cellHash:string) : bool</text><ellipse cx="17" cy="243.8281" fill="#84BE84" rx="3" ry="3" style="stroke: #038048; stroke-width: 1.0;"/><text fill="#000000" font-family="sans-serif" font-size="11" lengthAdjust="spacingAndGlyphs" textLength="172" x="26" y="247.0386">Run_Coroutine() : IEnumerator</text><!--MD5=[83b3cf3d23d77c6f1e1b5291a241bc2a]
class MonoBehaviour--><rect fill="#FEFECE" filter="url(#f13fuvk2xyoiq2)" height="48" id="MonoBehaviour" style="stroke: #A80036; stroke-width: 1.5;" width="128" x="64" y="8"/><ellipse cx="79" cy="24" fill="#ADD1B2" rx="11" ry="11" style="stroke: #A80036; stroke-width: 1.0;"/><path d="M81.9688,29.6406 Q81.3906,29.9375 80.75,30.0781 Q80.1094,30.2344 79.4063,30.2344 Q76.9063,30.2344 75.5781,28.5938 Q74.2656,26.9375 74.2656,23.8125 Q74.2656,20.6875 75.5781,19.0313 Q76.9063,17.375 79.4063,17.375 Q80.1094,17.375 80.75,17.5313 Q81.4063,17.6875 81.9688,17.9844 L81.9688,20.7031 Q81.3438,20.125 80.75,19.8594 Q80.1563,19.5781 79.5313,19.5781 Q78.1875,19.5781 77.5,20.6563 Q76.8125,21.7188 76.8125,23.8125 Q76.8125,25.9063 77.5,26.9844 Q78.1875,28.0469 79.5313,28.0469 Q80.1563,28.0469 80.75,27.7813 Q81.3438,27.5 81.9688,26.9219 L81.9688,29.6406 Z "/><text fill="#000000" font-family="sans-serif" font-size="12" lengthAdjust="spacingAndGlyphs" textLength="96" x="93" y="28.1543">MonoBehaviour</text><line style="stroke: #A80036; stroke-width: 1.5;" x1="65" x2="191" y1="40" y2="40"/><line style="stroke: #A80036; stroke-width: 1.5;" x1="65" x2="191" y1="48" y2="48"/><!--MD5=[b6b1d61e7c8fa12a02075947dcf1f2e8]
class TerrainLoader--><rect fill="#FEFECE" filter="url(#f13fuvk2xyoiq2)" height="48" id="TerrainLoader" style="stroke: #A80036; stroke-width: 1.5;" width="119" x="505.5" y="161"/><ellipse cx="520.5" cy="177" fill="#ADD1B2" rx="11" ry="11" style="stroke: #A80036; stroke-width: 1.0;"/><path d="M523.4688,182.6406 Q522.8906,182.9375 522.25,183.0781 Q521.6094,183.2344 520.9063,183.2344 Q518.4063,183.2344 517.0781,181.5938 Q515.7656,179.9375 515.7656,176.8125 Q515.7656,173.6875 517.0781,172.0313 Q518.4063,170.375 520.9063,170.375 Q521.6094,170.375 522.25,170.5313 Q522.9063,170.6875 523.4688,170.9844 L523.4688,173.7031 Q522.8438,173.125 522.25,172.8594 Q521.6563,172.5781 521.0313,172.5781 Q519.6875,172.5781 519,173.6563 Q518.3125,174.7188 518.3125,176.8125 Q518.3125,178.9063 519,179.9844 Q519.6875,181.0469 521.0313,181.0469 Q521.6563,181.0469 522.25,180.7813 Q522.8438,180.5 523.4688,179.9219 L523.4688,182.6406 Z "/><text fill="#000000" font-family="sans-serif" font-size="12" lengthAdjust="spacingAndGlyphs" textLength="87" x="534.5" y="181.1543">TerrainLoader</text><line style="stroke: #A80036; stroke-width: 1.5;" x1="506.5" x2="623.5" y1="193" y2="193"/><line style="stroke: #A80036; stroke-width: 1.5;" x1="506.5" x2="623.5" y1="201" y2="201"/><!--MD5=[efb50b9bc6755e275c620c80f9ee8f25]
class StreamedTerrainData--><rect fill="#FEFECE" filter="url(#f13fuvk2xyoiq2)" height="48" id="StreamedTerrainData" style="stroke: #A80036; stroke-width: 1.5;" width="167" x="303.5" y="161"/><ellipse cx="318.5" cy="177" fill="#ADD1B2" rx="11" ry="11" style="stroke: #A80036; stroke-width: 1.0;"/><path d="M321.4688,182.6406 Q320.8906,182.9375 320.25,183.0781 Q319.6094,183.2344 318.9063,183.2344 Q316.4063,183.2344 315.0781,181.5938 Q313.7656,179.9375 313.7656,176.8125 Q313.7656,173.6875 315.0781,172.0313 Q316.4063,170.375 318.9063,170.375 Q319.6094,170.375 320.25,170.5313 Q320.9063,170.6875 321.4688,170.9844 L321.4688,173.7031 Q320.8438,173.125 320.25,172.8594 Q319.6563,172.5781 319.0313,172.5781 Q317.6875,172.5781 317,173.6563 Q316.3125,174.7188 316.3125,176.8125 Q316.3125,178.9063 317,179.9844 Q317.6875,181.0469 319.0313,181.0469 Q319.6563,181.0469 320.25,180.7813 Q320.8438,180.5 321.4688,179.9219 L321.4688,182.6406 Z "/><text fill="#000000" font-family="sans-serif" font-size="12" lengthAdjust="spacingAndGlyphs" textLength="135" x="332.5" y="181.1543">StreamedTerrainData</text><line style="stroke: #A80036; stroke-width: 1.5;" x1="304.5" x2="469.5" y1="193" y2="193"/><line style="stroke: #A80036; stroke-width: 1.5;" x1="304.5" x2="469.5" y1="201" y2="201"/><!--MD5=[056461d8ea59bed00a1d267fba8edfe5]
reverse link MonoBehaviour to DistanceBasedTerrainLoader--><path d="M128,76.56 C128,88.87 128,102.57 128,115.96 " fill="none" id="MonoBehaviour&lt;-DistanceBasedTerrainLoader" style="stroke: #A80036; stroke-width: 1.0;"/><polygon fill="none" points="121,76.26,128,56.26,135,76.26,121,76.26" style="stroke: #A80036; stroke-width: 1.0;"/><!--MD5=[d06d027e37625ae604e48b5151d627fd]
link DistanceBasedTerrainLoader to TerrainLoader--><path d="M241.1645,110.2678 C241.1645,110.2678 282.81,91.43 303.5,86 C375.29,67.15 402.26,56.8 470.5,86 C500.91,99.01 526.19,127.15 542.93,150.12 " fill="none" id="DistanceBasedTerrainLoader-TerrainLoader" style="stroke: #A80036; stroke-width: 1.0;"/><polygon fill="#A80036" points="550.45,160.88,548.5762,151.211,547.5871,156.7807,542.0174,155.7916,550.45,160.88" style="stroke: #A80036; stroke-width: 1.0;"/><line style="stroke: #A80036; stroke-width: 1.0;" x1="547.5871" x2="543.01" y1="156.7807" y2="150.225"/><polygon fill="#FFFFFF" points="230.49,115.75,237.6547,116.5671,241.1645,110.2678,233.9999,109.4507,230.49,115.75" style="stroke: #A80036; stroke-width: 1.0;"/><text fill="#000000" font-family="sans-serif" font-size="13" lengthAdjust="spacingAndGlyphs" textLength="86" x="449.7028" y="149.8613">terrainLoader</text><!--MD5=[5caa6847b78e30fca1485462f8aa5209]
link DistanceBasedTerrainLoader to StreamedTerrainData--><path d="M262.17,185 C262.17,185 281.33,185 290.26,185 " fill="none" id="DistanceBasedTerrainLoader-StreamedTerrainData" style="stroke: #A80036; stroke-width: 1.0;"/><polygon fill="#A80036" points="303.35,185,294.35,181,298.35,185,294.35,189,303.35,185" style="stroke: #A80036; stroke-width: 1.0;"/><line style="stroke: #A80036; stroke-width: 1.0;" x1="298.35" x2="290.35" y1="185" y2="185"/><polygon fill="#FFFFFF" points="250.17,185,256.17,189,262.17,185,256.17,181,250.17,185" style="stroke: #A80036; stroke-width: 1.0;"/><text fill="#000000" font-family="sans-serif" font-size="13" lengthAdjust="spacingAndGlyphs" textLength="73" x="222.3008" y="177.2613">terrainData</text><!--MD5=[6b95676703d70f7abf8dda8c4f5c6a45]
link DistanceBasedTerrainLoader to DistanceBasedTerrainLoader--><path d="M261.7408,161.4038 C261.7408,161.4038 285,174.15 285,185 C285,195.85 276.47,203.6 263.06,208.26 " fill="none" id="DistanceBasedTerrainLoader-DistanceBasedTerrainLoader" style="stroke: #A80036; stroke-width: 1.0;"/><polygon fill="#A80036" points="250.11,211.55,259.8177,213.2115,254.9562,210.3192,257.8485,205.4577,250.11,211.55" style="stroke: #A80036; stroke-width: 1.0;"/><line style="stroke: #A80036; stroke-width: 1.0;" x1="254.9562" x2="262.71" y1="210.3192" y2="208.34"/><polygon fill="#FFFFFF" points="250.11,158.45,254.9408,163.8038,261.7408,161.4038,256.91,156.05,250.11,158.45" style="stroke: #A80036; stroke-width: 1.0;"/><text fill="#000000" font-family="sans-serif" font-size="13" lengthAdjust="spacingAndGlyphs" textLength="79" x="248.7019" y="228.9679">sisterLoader</text><!--MD5=[8b23b10cee341fe87ee539fa9b41f02f]
@startuml
class DistanceBasedTerrainLoader {
    + isLow : bool = false
    + shouldLoop : bool = true
    {static} modelIndex : int = 0
    + Run() : void
    + ClearAllLoadedOBJS() : void
    + CheckCellExists(cellHash:string) : bool
    + Run_Coroutine() : IEnumerator
}
MonoBehaviour <|- - DistanceBasedTerrainLoader
DistanceBasedTerrainLoader o-> "terrainLoader" TerrainLoader
DistanceBasedTerrainLoader o-> "terrainData" StreamedTerrainData
DistanceBasedTerrainLoader o-> "sisterLoader" DistanceBasedTerrainLoader
@enduml

PlantUML version 1.2020.02(Sun Mar 01 10:22:07 GMT 2020)
(GPL source distribution)
Java Runtime: OpenJDK Runtime Environment
JVM: OpenJDK 64-Bit Server VM
Java Version: 11.0.9+11-Ubuntu-0ubuntu1
Operating System: Linux
Default Encoding: ANSI_X3.4-1968
Language: en
Country: US
--></g></svg>