<?xml version="1.0" encoding="UTF-8" standalone="no"?><svg xmlns="http://www.w3.org/2000/svg" xmlns:xlink="http://www.w3.org/1999/xlink" contentScriptType="application/ecmascript" contentStyleType="text/css" height="252px" preserveAspectRatio="none" style="width:451px;height:252px;" version="1.1" viewBox="0 0 451 252" width="451px" zoomAndPan="magnify"><defs><filter height="300%" id="f1jspz9rsyyn8w" width="300%" x="-1" y="-1"><feGaussianBlur result="blurOut" stdDeviation="2.0"/><feColorMatrix in="blurOut" result="blurOut2" type="matrix" values="0 0 0 0 0 0 0 0 0 0 0 0 0 0 0 0 0 0 .4 0"/><feOffset dx="4.0" dy="4.0" in="blurOut2" result="blurOut3"/><feBlend in="SourceGraphic" in2="blurOut3" mode="normal"/></filter></defs><g><!--MD5=[14ca8bc066c96f6d5e6cde6c06cb5934]
class StreamedObjData--><rect fill="#FEFECE" filter="url(#f1jspz9rsyyn8w)" height="124.8281" id="StreamedObjData" style="stroke: #A80036; stroke-width: 1.5;" width="196" x="91.01" y="8"/><ellipse cx="129.86" cy="24" fill="#ADD1B2" rx="11" ry="11" style="stroke: #A80036; stroke-width: 1.0;"/><path d="M132.8288,29.6406 Q132.2506,29.9375 131.61,30.0781 Q130.9694,30.2344 130.2663,30.2344 Q127.7663,30.2344 126.4381,28.5938 Q125.1256,26.9375 125.1256,23.8125 Q125.1256,20.6875 126.4381,19.0313 Q127.7663,17.375 130.2663,17.375 Q130.9694,17.375 131.61,17.5313 Q132.2663,17.6875 132.8288,17.9844 L132.8288,20.7031 Q132.2038,20.125 131.61,19.8594 Q131.0163,19.5781 130.3913,19.5781 Q129.0475,19.5781 128.36,20.6563 Q127.6725,21.7188 127.6725,23.8125 Q127.6725,25.9063 128.36,26.9844 Q129.0475,28.0469 130.3913,28.0469 Q131.0163,28.0469 131.61,27.7813 Q132.2038,27.5 132.8288,26.9219 L132.8288,29.6406 Z "/><text fill="#000000" font-family="sans-serif" font-size="12" lengthAdjust="spacingAndGlyphs" textLength="111" x="149.16" y="28.1543">StreamedObjData</text><line style="stroke: #A80036; stroke-width: 1.5;" x1="92.01" x2="286.01" y1="40" y2="40"/><ellipse cx="102.01" cy="51" fill="none" rx="3" ry="3" style="stroke: #038048; stroke-width: 1.0;"/><text fill="#000000" font-family="sans-serif" font-size="11" lengthAdjust="spacingAndGlyphs" textLength="134" x="111.01" y="54.2104">name : string = "Mesh"</text><ellipse cx="102.01" cy="63.8047" fill="none" rx="3" ry="3" style="stroke: #038048; stroke-width: 1.0;"/><text fill="#000000" font-family="sans-serif" font-size="11" lengthAdjust="spacingAndGlyphs" textLength="110" x="111.01" y="67.0151">texturePath : string</text><ellipse cx="102.01" cy="76.6094" fill="none" rx="3" ry="3" style="stroke: #038048; stroke-width: 1.0;"/><text fill="#000000" font-family="sans-serif" font-size="11" lengthAdjust="spacingAndGlyphs" textLength="96" x="111.01" y="79.8198">textureWidth : int</text><ellipse cx="102.01" cy="89.4141" fill="none" rx="3" ry="3" style="stroke: #038048; stroke-width: 1.0;"/><text fill="#000000" font-family="sans-serif" font-size="11" lengthAdjust="spacingAndGlyphs" textLength="102" x="111.01" y="92.6245">textureHeight : int</text><ellipse cx="102.01" cy="102.2188" fill="none" rx="3" ry="3" style="stroke: #038048; stroke-width: 1.0;"/><text fill="#000000" font-family="sans-serif" font-size="11" lengthAdjust="spacingAndGlyphs" textLength="170" x="111.01" y="105.4292">generateCollider : bool = true</text><line style="stroke: #A80036; stroke-width: 1.5;" x1="92.01" x2="286.01" y1="112.0234" y2="112.0234"/><ellipse cx="102.01" cy="123.0234" fill="#84BE84" rx="3" ry="3" style="stroke: #038048; stroke-width: 1.0;"/><text fill="#000000" font-family="sans-serif" font-size="11" lengthAdjust="spacingAndGlyphs" textLength="109" x="111.01" y="126.2339">StreamedObjData()</text><!--MD5=[e644022de7dea015dd09463c37421447]
class List`1--><rect fill="#FEFECE" filter="url(#f1jspz9rsyyn8w)" height="48" id="List`1" style="stroke: #A80036; stroke-width: 1.5;" width="78" x="150.01" y="193"/><ellipse cx="165.01" cy="209" fill="#ADD1B2" rx="11" ry="11" style="stroke: #A80036; stroke-width: 1.0;"/><path d="M167.9788,214.6406 Q167.4006,214.9375 166.76,215.0781 Q166.1194,215.2344 165.4163,215.2344 Q162.9163,215.2344 161.5881,213.5938 Q160.2756,211.9375 160.2756,208.8125 Q160.2756,205.6875 161.5881,204.0313 Q162.9163,202.375 165.4163,202.375 Q166.1194,202.375 166.76,202.5313 Q167.4163,202.6875 167.9788,202.9844 L167.9788,205.7031 Q167.3538,205.125 166.76,204.8594 Q166.1663,204.5781 165.5413,204.5781 Q164.1975,204.5781 163.51,205.6563 Q162.8225,206.7188 162.8225,208.8125 Q162.8225,210.9063 163.51,211.9844 Q164.1975,213.0469 165.5413,213.0469 Q166.1663,213.0469 166.76,212.7813 Q167.3538,212.5 167.9788,211.9219 L167.9788,214.6406 Z "/><text fill="#000000" font-family="sans-serif" font-size="12" lengthAdjust="spacingAndGlyphs" textLength="35" x="179.01" y="213.1543">List`1</text><rect fill="#FFFFFF" height="15.9688" style="stroke: #000000; stroke-width: 1.0; stroke-dasharray: 2.0,2.0;" width="9" x="222.01" y="190"/><text fill="#000000" font-family="sans-serif" font-size="12" font-style="italic" lengthAdjust="spacingAndGlyphs" textLength="7" x="223.01" y="202.1387">T</text><line style="stroke: #A80036; stroke-width: 1.5;" x1="151.01" x2="227.01" y1="225" y2="225"/><line style="stroke: #A80036; stroke-width: 1.5;" x1="151.01" x2="227.01" y1="233" y2="233"/><!--MD5=[65d619c042c23702cef2ca07d67b1cf6]
class Vector3--><rect fill="#FEFECE" filter="url(#f1jspz9rsyyn8w)" height="48" id="Vector3" style="stroke: #A80036; stroke-width: 1.5;" width="81" x="263.51" y="193"/><ellipse cx="278.51" cy="209" fill="#ADD1B2" rx="11" ry="11" style="stroke: #A80036; stroke-width: 1.0;"/><path d="M281.4788,214.6406 Q280.9006,214.9375 280.26,215.0781 Q279.6194,215.2344 278.9163,215.2344 Q276.4163,215.2344 275.0881,213.5938 Q273.7756,211.9375 273.7756,208.8125 Q273.7756,205.6875 275.0881,204.0313 Q276.4163,202.375 278.9163,202.375 Q279.6194,202.375 280.26,202.5313 Q280.9163,202.6875 281.4788,202.9844 L281.4788,205.7031 Q280.8538,205.125 280.26,204.8594 Q279.6663,204.5781 279.0413,204.5781 Q277.6975,204.5781 277.01,205.6563 Q276.3225,206.7188 276.3225,208.8125 Q276.3225,210.9063 277.01,211.9844 Q277.6975,213.0469 279.0413,213.0469 Q279.6663,213.0469 280.26,212.7813 Q280.8538,212.5 281.4788,211.9219 L281.4788,214.6406 Z "/><text fill="#000000" font-family="sans-serif" font-size="12" lengthAdjust="spacingAndGlyphs" textLength="49" x="292.51" y="213.1543">Vector3</text><line style="stroke: #A80036; stroke-width: 1.5;" x1="264.51" x2="343.51" y1="225" y2="225"/><line style="stroke: #A80036; stroke-width: 1.5;" x1="264.51" x2="343.51" y1="233" y2="233"/><!--MD5=[a9c97dc2d52e1850be43261c8fc54103]
link StreamedObjData to Vector3--><path d="M238.11,133.2 C253.51,152.55 269.74,172.94 282.23,188.64 " fill="none" id="StreamedObjData-&gt;Vector3" style="stroke: #A80036; stroke-width: 1.0;"/><polygon fill="#A80036" points="285.65,192.94,283.1767,183.4067,282.537,189.0273,276.9164,188.3876,285.65,192.94" style="stroke: #A80036; stroke-width: 1.0;"/><text fill="#000000" font-family="sans-serif" font-size="13" lengthAdjust="spacingAndGlyphs" textLength="68" x="289.6577" y="181.9367">translation</text><!--MD5=[5bb4f8985950d3e4b4636640bbe978f8]
link StreamedObjData to List`1--><path d="M137.01,133.2 C135.12,152.97 138.58,173.82 147.38,189.65 " fill="none" id="StreamedObjData-&gt;List`1" style="stroke: #A80036; stroke-width: 1.0;"/><polygon fill="#A80036" points="150,193.98,148.7611,184.2094,147.4107,189.7027,141.9174,188.3522,150,193.98" style="stroke: #A80036; stroke-width: 1.0;"/><text fill="#000000" font-family="sans-serif" font-size="13" lengthAdjust="spacingAndGlyphs" textLength="129" x="13.075" y="188.7153">positions&lt;Vector3&gt;</text><!--MD5=[5bb4f8985950d3e4b4636640bbe978f8]
link StreamedObjData to List`1--><path d="M163.01,133.2 C162.1,152.22 163.67,172.24 167.7,187.83 " fill="none" id="StreamedObjData-&gt;List`1-1" style="stroke: #A80036; stroke-width: 1.0;"/><polygon fill="#A80036" points="169.17,192.94,170.5436,183.1874,167.7964,188.1324,162.8514,185.3852,169.17,192.94" style="stroke: #A80036; stroke-width: 1.0;"/><text fill="#000000" font-family="sans-serif" font-size="13" lengthAdjust="spacingAndGlyphs" textLength="135" x="181.2967" y="181.8748">texcoords&lt;Vector2&gt;</text><!--MD5=[5bb4f8985950d3e4b4636640bbe978f8]
link StreamedObjData to List`1--><path d="M189.01,133.2 C189.01,152.22 189.01,172.24 189.01,187.83 " fill="none" id="StreamedObjData-&gt;List`1-2" style="stroke: #A80036; stroke-width: 1.0;"/><polygon fill="#A80036" points="189.01,192.94,193.01,183.94,189.01,187.94,185.01,183.94,189.01,192.94" style="stroke: #A80036; stroke-width: 1.0;"/><text fill="#000000" font-family="sans-serif" font-size="13" lengthAdjust="spacingAndGlyphs" textLength="93" x="48.3475" y="188.101">triangles&lt;int&gt;</text><!--MD5=[5bb4f8985950d3e4b4636640bbe978f8]
link StreamedObjData to List`1--><path d="M215.01,133.2 C215.92,152.22 214.35,172.24 210.32,187.83 " fill="none" id="StreamedObjData-&gt;List`1-3" style="stroke: #A80036; stroke-width: 1.0;"/><polygon fill="#A80036" points="208.85,192.94,215.1686,185.3852,210.2236,188.1324,207.4764,183.1874,208.85,192.94" style="stroke: #A80036; stroke-width: 1.0;"/><text fill="#000000" font-family="sans-serif" font-size="13" lengthAdjust="spacingAndGlyphs" textLength="203" x="236.3693" y="181.9782">physPositions&lt;List&lt;Vector3&gt;&gt;</text><!--MD5=[5bb4f8985950d3e4b4636640bbe978f8]
link StreamedObjData to List`1--><path d="M241.01,133.2 C242.9,152.97 239.44,173.82 230.64,189.65 " fill="none" id="StreamedObjData-&gt;List`1-4" style="stroke: #A80036; stroke-width: 1.0;"/><polygon fill="#A80036" points="228.02,193.98,236.1026,188.3522,230.6093,189.7027,229.2589,184.2094,228.02,193.98" style="stroke: #A80036; stroke-width: 1.0;"/><text fill="#000000" font-family="sans-serif" font-size="13" lengthAdjust="spacingAndGlyphs" textLength="169" x="259.3342" y="181.6248">physTriangles&lt;List&lt;int&gt;&gt;</text><!--MD5=[d5594869cf73c81350447bec9bbf0d45]
@startuml
class StreamedObjData {
    + name : string = "Mesh"
    + texturePath : string
    + textureWidth : int
    + textureHeight : int
    + generateCollider : bool = true
    + StreamedObjData()
}
class "List`1"<T> {
}
StreamedObjData - -> "translation" Vector3
StreamedObjData - -> "positions<Vector3>" "List`1"
StreamedObjData - -> "texcoords<Vector2>" "List`1"
StreamedObjData - -> "triangles<int>" "List`1"
StreamedObjData - -> "physPositions<List<Vector3>>" "List`1"
StreamedObjData - -> "physTriangles<List<int>>" "List`1"
@enduml

PlantUML version 1.2020.02(Sun Mar 01 10:22:07 GMT 2020)
(GPL source distribution)
Java Runtime: OpenJDK Runtime Environment
JVM: OpenJDK 64-Bit Server VM
Java Version: 11.0.9+11-Ubuntu-0ubuntu1
Operating System: Linux
Default Encoding: ANSI_X3.4-1968
Language: en
Country: US
--></g></svg>