<?xml version="1.0" encoding="UTF-8" standalone="no"?><svg xmlns="http://www.w3.org/2000/svg" xmlns:xlink="http://www.w3.org/1999/xlink" contentScriptType="application/ecmascript" contentStyleType="text/css" height="398px" preserveAspectRatio="none" style="width:874px;height:398px;" version="1.1" viewBox="0 0 874 398" width="874px" zoomAndPan="magnify"><defs><filter height="300%" id="f1n9b0izrkvi4u" width="300%" x="-1" y="-1"><feGaussianBlur result="blurOut" stdDeviation="2.0"/><feColorMatrix in="blurOut" result="blurOut2" type="matrix" values="0 0 0 0 0 0 0 0 0 0 0 0 0 0 0 0 0 0 .4 0"/><feOffset dx="4.0" dy="4.0" in="blurOut2" result="blurOut3"/><feBlend in="SourceGraphic" in2="blurOut3" mode="normal"/></filter></defs><g><!--MD5=[4d6283830b034e45e9dc07560bccbe0e]
class StreamedTerrainCellData--><rect fill="#FEFECE" filter="url(#f1n9b0izrkvi4u)" height="117.9609" id="StreamedTerrainCellData" style="stroke: #A80036; stroke-width: 1.5;" width="189" x="427.5" y="8"/><ellipse cx="442.5" cy="26.9688" fill="#ADD1B2" rx="11" ry="11" style="stroke: #A80036; stroke-width: 1.0;"/><path d="M445.4688,32.6094 Q444.8906,32.9063 444.25,33.0469 Q443.6094,33.2031 442.9063,33.2031 Q440.4063,33.2031 439.0781,31.5625 Q437.7656,29.9063 437.7656,26.7813 Q437.7656,23.6563 439.0781,22 Q440.4063,20.3438 442.9063,20.3438 Q443.6094,20.3438 444.25,20.5 Q444.9063,20.6563 445.4688,20.9531 L445.4688,23.6719 Q444.8438,23.0938 444.25,22.8281 Q443.6563,22.5469 443.0313,22.5469 Q441.6875,22.5469 441,23.625 Q440.3125,24.6875 440.3125,26.7813 Q440.3125,28.875 441,29.9531 Q441.6875,31.0156 443.0313,31.0156 Q443.6563,31.0156 444.25,30.75 Q444.8438,30.4688 445.4688,29.8906 L445.4688,32.6094 Z "/><text fill="#000000" font-family="sans-serif" font-size="12" font-style="italic" lengthAdjust="spacingAndGlyphs" textLength="50" x="510" y="24.1387">«struct»</text><text fill="#000000" font-family="sans-serif" font-size="12" lengthAdjust="spacingAndGlyphs" textLength="157" x="456.5" y="38.1074">StreamedTerrainCellData</text><line style="stroke: #A80036; stroke-width: 1.5;" x1="428.5" x2="615.5" y1="45.9375" y2="45.9375"/><ellipse cx="438.5" cy="56.9375" fill="none" rx="3" ry="3" style="stroke: #038048; stroke-width: 1.0;"/><text fill="#000000" font-family="sans-serif" font-size="11" lengthAdjust="spacingAndGlyphs" textLength="78" x="447.5" y="60.1479">Name : string</text><ellipse cx="438.5" cy="69.7422" fill="none" rx="3" ry="3" style="stroke: #038048; stroke-width: 1.0;"/><text fill="#000000" font-family="sans-serif" font-size="11" lengthAdjust="spacingAndGlyphs" textLength="74" x="447.5" y="72.9526">Hash : string</text><ellipse cx="438.5" cy="82.5469" fill="none" rx="3" ry="3" style="stroke: #038048; stroke-width: 1.0;"/><text fill="#000000" font-family="sans-serif" font-size="11" lengthAdjust="spacingAndGlyphs" textLength="70" x="447.5" y="85.7573">Path : string</text><ellipse cx="438.5" cy="95.3516" fill="none" rx="3" ry="3" style="stroke: #038048; stroke-width: 1.0;"/><text fill="#000000" font-family="sans-serif" font-size="11" lengthAdjust="spacingAndGlyphs" textLength="87" x="447.5" y="98.562">isLoaded : bool</text><ellipse cx="438.5" cy="108.1563" fill="none" rx="3" ry="3" style="stroke: #038048; stroke-width: 1.0;"/><text fill="#000000" font-family="sans-serif" font-size="11" lengthAdjust="spacingAndGlyphs" textLength="90" x="447.5" y="111.3667">isLoading : bool</text><line style="stroke: #A80036; stroke-width: 1.5;" x1="428.5" x2="615.5" y1="117.9609" y2="117.9609"/><!--MD5=[efb50b9bc6755e275c620c80f9ee8f25]
class StreamedTerrainData--><rect fill="#FEFECE" filter="url(#f1n9b0izrkvi4u)" height="201.6563" id="StreamedTerrainData" style="stroke: #A80036; stroke-width: 1.5;" width="440" x="6" y="186"/><ellipse cx="154.25" cy="202" fill="#ADD1B2" rx="11" ry="11" style="stroke: #A80036; stroke-width: 1.0;"/><path d="M157.2188,207.6406 Q156.6406,207.9375 156,208.0781 Q155.3594,208.2344 154.6563,208.2344 Q152.1563,208.2344 150.8281,206.5938 Q149.5156,204.9375 149.5156,201.8125 Q149.5156,198.6875 150.8281,197.0313 Q152.1563,195.375 154.6563,195.375 Q155.3594,195.375 156,195.5313 Q156.6563,195.6875 157.2188,195.9844 L157.2188,198.7031 Q156.5938,198.125 156,197.8594 Q155.4063,197.5781 154.7813,197.5781 Q153.4375,197.5781 152.75,198.6563 Q152.0625,199.7188 152.0625,201.8125 Q152.0625,203.9063 152.75,204.9844 Q153.4375,206.0469 154.7813,206.0469 Q155.4063,206.0469 156,205.7813 Q156.5938,205.5 157.2188,204.9219 L157.2188,207.6406 Z "/><text fill="#000000" font-family="sans-serif" font-size="12" lengthAdjust="spacingAndGlyphs" textLength="135" x="174.75" y="206.1543">StreamedTerrainData</text><line style="stroke: #A80036; stroke-width: 1.5;" x1="7" x2="445" y1="218" y2="218"/><ellipse cx="17" cy="229" fill="none" rx="3" ry="3" style="stroke: #038048; stroke-width: 1.0;"/><text fill="#000000" font-family="sans-serif" font-size="11" lengthAdjust="spacingAndGlyphs" textLength="120" x="26" y="232.2104">gridSize : float = 512</text><line style="stroke: #A80036; stroke-width: 1.5;" x1="7" x2="445" y1="238.8047" y2="238.8047"/><ellipse cx="17" cy="249.8047" fill="#84BE84" rx="3" ry="3" style="stroke: #038048; stroke-width: 1.0;"/><text fill="#000000" font-family="sans-serif" font-size="11" lengthAdjust="spacingAndGlyphs" textLength="169" x="26" y="253.0151">IsUsingLegacyLoading() : bool</text><ellipse cx="17" cy="262.6094" fill="#84BE84" rx="3" ry="3" style="stroke: #038048; stroke-width: 1.0;"/><text fill="#000000" font-family="sans-serif" font-size="11" lengthAdjust="spacingAndGlyphs" textLength="220" x="26" y="265.8198">GetDeepCopy() : StreamedTerrainData</text><ellipse cx="17" cy="275.4141" fill="#84BE84" rx="3" ry="3" style="stroke: #038048; stroke-width: 1.0;"/><text fill="#000000" font-family="sans-serif" font-size="11" lengthAdjust="spacingAndGlyphs" textLength="234" x="26" y="278.6245">LoadDocKML(importLocation:string) : void</text><ellipse cx="17" cy="288.2188" fill="#84BE84" rx="3" ry="3" style="stroke: #038048; stroke-width: 1.0;"/><text fill="#000000" font-family="sans-serif" font-size="11" lengthAdjust="spacingAndGlyphs" textLength="240" x="26" y="291.4292">LoadTilesXML(importLocation:string) : void</text><ellipse cx="17" cy="301.0234" fill="#84BE84" rx="3" ry="3" style="stroke: #038048; stroke-width: 1.0;"/><text fill="#000000" font-family="sans-serif" font-size="11" lengthAdjust="spacingAndGlyphs" textLength="342" x="26" y="304.2339">LoadSceneXML(importLocation:string, filename:string) : void</text><ellipse cx="17" cy="313.8281" fill="#84BE84" rx="3" ry="3" style="stroke: #038048; stroke-width: 1.0;"/><text fill="#000000" font-family="sans-serif" font-size="11" lengthAdjust="spacingAndGlyphs" textLength="211" x="26" y="317.0386">UpdateStaticGPSLatLonAltBox() : void</text><ellipse cx="17" cy="326.6328" fill="#84BE84" rx="3" ry="3" style="stroke: #038048; stroke-width: 1.0;"/><text fill="#000000" font-family="sans-serif" font-size="11" lengthAdjust="spacingAndGlyphs" textLength="238" x="26" y="329.8433">SetLoaded(index:int, isLoaded:bool) : void</text><ellipse cx="17" cy="339.4375" fill="#84BE84" rx="3" ry="3" style="stroke: #038048; stroke-width: 1.0;"/><text fill="#000000" font-family="sans-serif" font-size="11" lengthAdjust="spacingAndGlyphs" textLength="244" x="26" y="342.6479">SetLoading(index:int, isLoading:bool) : void</text><ellipse cx="17" cy="352.2422" fill="#84BE84" rx="3" ry="3" style="stroke: #038048; stroke-width: 1.0;"/><text fill="#000000" font-family="sans-serif" font-size="11" lengthAdjust="spacingAndGlyphs" textLength="219" x="26" y="355.4526">SortCellList(centrePoint:Vector3) : void</text><ellipse cx="17" cy="365.0469" fill="#84BE84" rx="3" ry="3" style="stroke: #038048; stroke-width: 1.0;"/><text fill="#000000" font-family="sans-serif" font-size="11" lengthAdjust="spacingAndGlyphs" textLength="237" x="26" y="368.2573">StaticGPSLatLonAltDebugMessage() : void</text><ellipse cx="17" cy="377.8516" fill="#84BE84" rx="3" ry="3" style="stroke: #038048; stroke-width: 1.0;"/><text fill="#000000" font-family="sans-serif" font-size="11" lengthAdjust="spacingAndGlyphs" text-decoration="underline" textLength="414" x="26" y="381.062">LoadStreamedTerrainData(importLocation:string) : StreamedTerrainData</text><!--MD5=[e644022de7dea015dd09463c37421447]
class List`1--><rect fill="#FEFECE" filter="url(#f1n9b0izrkvi4u)" height="48" id="List`1" style="stroke: #A80036; stroke-width: 1.5;" width="78" x="598" y="263"/><ellipse cx="613" cy="279" fill="#ADD1B2" rx="11" ry="11" style="stroke: #A80036; stroke-width: 1.0;"/><path d="M615.9688,284.6406 Q615.3906,284.9375 614.75,285.0781 Q614.1094,285.2344 613.4063,285.2344 Q610.9063,285.2344 609.5781,283.5938 Q608.2656,281.9375 608.2656,278.8125 Q608.2656,275.6875 609.5781,274.0313 Q610.9063,272.375 613.4063,272.375 Q614.1094,272.375 614.75,272.5313 Q615.4063,272.6875 615.9688,272.9844 L615.9688,275.7031 Q615.3438,275.125 614.75,274.8594 Q614.1563,274.5781 613.5313,274.5781 Q612.1875,274.5781 611.5,275.6563 Q610.8125,276.7188 610.8125,278.8125 Q610.8125,280.9063 611.5,281.9844 Q612.1875,283.0469 613.5313,283.0469 Q614.1563,283.0469 614.75,282.7813 Q615.3438,282.5 615.9688,281.9219 L615.9688,284.6406 Z "/><text fill="#000000" font-family="sans-serif" font-size="12" lengthAdjust="spacingAndGlyphs" textLength="35" x="627" y="283.1543">List`1</text><rect fill="#FFFFFF" height="15.9688" style="stroke: #000000; stroke-width: 1.0; stroke-dasharray: 2.0,2.0;" width="9" x="670" y="260"/><text fill="#000000" font-family="sans-serif" font-size="12" font-style="italic" lengthAdjust="spacingAndGlyphs" textLength="7" x="671" y="272.1387">T</text><line style="stroke: #A80036; stroke-width: 1.5;" x1="599" x2="675" y1="295" y2="295"/><line style="stroke: #A80036; stroke-width: 1.5;" x1="599" x2="675" y1="303" y2="303"/><!--MD5=[65d619c042c23702cef2ca07d67b1cf6]
class Vector3--><rect fill="#FEFECE" filter="url(#f1n9b0izrkvi4u)" height="48" id="Vector3" style="stroke: #A80036; stroke-width: 1.5;" width="81" x="481.5" y="263"/><ellipse cx="496.5" cy="279" fill="#ADD1B2" rx="11" ry="11" style="stroke: #A80036; stroke-width: 1.0;"/><path d="M499.4688,284.6406 Q498.8906,284.9375 498.25,285.0781 Q497.6094,285.2344 496.9063,285.2344 Q494.4063,285.2344 493.0781,283.5938 Q491.7656,281.9375 491.7656,278.8125 Q491.7656,275.6875 493.0781,274.0313 Q494.4063,272.375 496.9063,272.375 Q497.6094,272.375 498.25,272.5313 Q498.9063,272.6875 499.4688,272.9844 L499.4688,275.7031 Q498.8438,275.125 498.25,274.8594 Q497.6563,274.5781 497.0313,274.5781 Q495.6875,274.5781 495,275.6563 Q494.3125,276.7188 494.3125,278.8125 Q494.3125,280.9063 495,281.9844 Q495.6875,283.0469 497.0313,283.0469 Q497.6563,283.0469 498.25,282.7813 Q498.8438,282.5 499.4688,281.9219 L499.4688,284.6406 Z "/><text fill="#000000" font-family="sans-serif" font-size="12" lengthAdjust="spacingAndGlyphs" textLength="49" x="510.5" y="283.1543">Vector3</text><line style="stroke: #A80036; stroke-width: 1.5;" x1="482.5" x2="561.5" y1="295" y2="295"/><line style="stroke: #A80036; stroke-width: 1.5;" x1="482.5" x2="561.5" y1="303" y2="303"/><!--MD5=[dfae7763528d99b773d80d7bc728c99f]
class Decimal--><rect fill="#FEFECE" filter="url(#f1n9b0izrkvi4u)" height="48" id="Decimal" style="stroke: #A80036; stroke-width: 1.5;" width="81" x="711.5" y="263"/><ellipse cx="726.5" cy="279" fill="#ADD1B2" rx="11" ry="11" style="stroke: #A80036; stroke-width: 1.0;"/><path d="M729.4688,284.6406 Q728.8906,284.9375 728.25,285.0781 Q727.6094,285.2344 726.9063,285.2344 Q724.4063,285.2344 723.0781,283.5938 Q721.7656,281.9375 721.7656,278.8125 Q721.7656,275.6875 723.0781,274.0313 Q724.4063,272.375 726.9063,272.375 Q727.6094,272.375 728.25,272.5313 Q728.9063,272.6875 729.4688,272.9844 L729.4688,275.7031 Q728.8438,275.125 728.25,274.8594 Q727.6563,274.5781 727.0313,274.5781 Q725.6875,274.5781 725,275.6563 Q724.3125,276.7188 724.3125,278.8125 Q724.3125,280.9063 725,281.9844 Q725.6875,283.0469 727.0313,283.0469 Q727.6563,283.0469 728.25,282.7813 Q728.8438,282.5 729.4688,281.9219 L729.4688,284.6406 Z "/><text fill="#000000" font-family="sans-serif" font-size="12" lengthAdjust="spacingAndGlyphs" textLength="49" x="740.5" y="283.1543">Decimal</text><line style="stroke: #A80036; stroke-width: 1.5;" x1="712.5" x2="791.5" y1="295" y2="295"/><line style="stroke: #A80036; stroke-width: 1.5;" x1="712.5" x2="791.5" y1="303" y2="303"/><!--MD5=[d2491180a85e7190450fc5dfacab8062]
link StreamedTerrainCellData to Vector3--><path d="M522,126.13 C522,168.64 522,224.44 522,257.63 " fill="none" id="StreamedTerrainCellData-&gt;Vector3" style="stroke: #A80036; stroke-width: 1.0;"/><polygon fill="#A80036" points="522,262.75,526,253.75,522,257.75,518,253.75,522,262.75" style="stroke: #A80036; stroke-width: 1.0;"/><text fill="#000000" font-family="sans-serif" font-size="13" lengthAdjust="spacingAndGlyphs" textLength="50" x="556.375" y="251.877">Position</text><!--MD5=[c623afa1cf7d9220ded82dfaec424eb0]
link StreamedTerrainData to Decimal--><path d="M457.981,183.6068 C457.981,183.6068 463.99,182.24 466.5,181.71 C478.73,179.15 680.66,175.49 691.5,181.71 C716.91,196.31 732.57,226.1 741.57,250.28 " fill="none" id="StreamedTerrainData-Decimal" style="stroke: #A80036; stroke-width: 1.0;"/><polygon fill="#A80036" points="745.79,262.65,746.6706,252.8406,744.176,257.9177,739.0989,255.4231,745.79,262.65" style="stroke: #A80036; stroke-width: 1.0;"/><line style="stroke: #A80036; stroke-width: 1.0;" x1="744.176" x2="741.59" y1="257.9177" y2="250.35"/><polygon fill="#FFFFFF" points="446.33,186.48,453.1132,188.9271,457.981,183.6068,451.1977,181.1597,446.33,186.48" style="stroke: #A80036; stroke-width: 1.0;"/><text fill="#000000" font-family="sans-serif" font-size="13" lengthAdjust="spacingAndGlyphs" textLength="52" x="685.9388" y="251.9696">west_dd</text><!--MD5=[c623afa1cf7d9220ded82dfaec424eb0]
link StreamedTerrainData to Decimal--><path d="M447.4418,182.7055 C447.4418,182.7055 462.23,178.88 469,177.43 C480.95,174.86 678.4,171.34 689,177.43 C715.9,192.88 732.3,224.67 741.6,250.05 " fill="none" id="StreamedTerrainData-Decimal-1" style="stroke: #A80036; stroke-width: 1.0;"/><polygon fill="#A80036" points="745.83,262.62,746.7514,252.8143,744.2357,257.881,739.169,255.3653,745.83,262.62" style="stroke: #A80036; stroke-width: 1.0;"/><line style="stroke: #A80036; stroke-width: 1.0;" x1="744.2357" x2="741.68" y1="257.881" y2="250.3"/><polygon fill="#FFFFFF" points="435.9,185.99,442.7657,188.195,447.4418,182.7055,440.5761,180.5005,435.9,185.99" style="stroke: #A80036; stroke-width: 1.0;"/><text fill="#000000" font-family="sans-serif" font-size="13" lengthAdjust="spacingAndGlyphs" textLength="51" x="750.5417" y="251.9323">east_dd</text><!--MD5=[c623afa1cf7d9220ded82dfaec424eb0]
link StreamedTerrainData to Decimal--><path d="M437.2769,182.266 C437.2769,182.266 460.5,175.57 471.5,173.14 C483.16,170.57 676.14,167.19 686.5,173.14 C715.05,189.54 732.23,223.66 741.78,250.29 " fill="none" id="StreamedTerrainData-Decimal-2" style="stroke: #A80036; stroke-width: 1.0;"/><polygon fill="#A80036" points="745.88,262.65,746.8491,252.8489,744.3088,257.9033,739.2544,255.3629,745.88,262.65" style="stroke: #A80036; stroke-width: 1.0;"/><line style="stroke: #A80036; stroke-width: 1.0;" x1="744.3088" x2="741.79" y1="257.9033" y2="250.31"/><polygon fill="#FFFFFF" points="425.85,185.93,432.7848,187.907,437.2769,182.266,430.3421,180.289,425.85,185.93" style="stroke: #A80036; stroke-width: 1.0;"/><text fill="#000000" font-family="sans-serif" font-size="13" lengthAdjust="spacingAndGlyphs" textLength="59" x="645.0265" y="254.9962">south_dd</text><!--MD5=[c623afa1cf7d9220ded82dfaec424eb0]
link StreamedTerrainData to Decimal--><path d="M428.2552,181.9741 C428.2552,181.9741 459.19,172.2 474,168.86 C485.38,166.29 673.88,163.05 684,168.86 C714.12,186.16 732.05,222.45 741.87,250.27 " fill="none" id="StreamedTerrainData-Decimal-3" style="stroke: #A80036; stroke-width: 1.0;"/><polygon fill="#A80036" points="745.95,262.74,746.9532,252.9424,744.3953,257.9879,739.3498,255.43,745.95,262.74" style="stroke: #A80036; stroke-width: 1.0;"/><line style="stroke: #A80036; stroke-width: 1.0;" x1="744.3953" x2="741.915" y1="257.9879" y2="250.385"/><polygon fill="#FFFFFF" points="416.94,185.97,423.9295,187.7438,428.2552,181.9741,421.2656,180.2003,416.94,185.97" style="stroke: #A80036; stroke-width: 1.0;"/><text fill="#000000" font-family="sans-serif" font-size="13" lengthAdjust="spacingAndGlyphs" textLength="57" x="776.8188" y="251.8532">north_dd</text><!--MD5=[c623afa1cf7d9220ded82dfaec424eb0]
link StreamedTerrainData to Decimal--><path d="M420.4586,181.6744 C420.4586,181.6744 458.21,168.8 476.5,164.57 C487.6,162 671.62,158.9 681.5,164.57 C713.22,182.79 731.91,221.34 741.99,250.35 " fill="none" id="StreamedTerrainData-Decimal-4" style="stroke: #A80036; stroke-width: 1.0;"/><polygon fill="#A80036" points="746.03,262.89,747.0774,253.097,744.4968,258.1309,739.4629,255.5502,746.03,262.89" style="stroke: #A80036; stroke-width: 1.0;"/><line style="stroke: #A80036; stroke-width: 1.0;" x1="744.4968" x2="742.04" y1="258.1309" y2="250.515"/><polygon fill="#FFFFFF" points="409.25,185.96,416.2829,187.5534,420.4586,181.6744,413.4258,180.081,409.25,185.96" style="stroke: #A80036; stroke-width: 1.0;"/><text fill="#000000" font-family="sans-serif" font-size="13" lengthAdjust="spacingAndGlyphs" textLength="52" x="751.1627" y="251.8738">west_uu</text><!--MD5=[c623afa1cf7d9220ded82dfaec424eb0]
link StreamedTerrainData to Decimal--><path d="M413.5705,181.3962 C413.5705,181.3962 457.52,165.36 479,160.29 C489.81,157.73 669.37,154.75 679,160.29 C712.27,179.4 731.7,220.11 742.04,250.25 " fill="none" id="StreamedTerrainData-Decimal-5" style="stroke: #A80036; stroke-width: 1.0;"/><polygon fill="#A80036" points="746.04,262.84,747.1247,253.0511,744.5249,258.0751,739.5009,255.4752,746.04,262.84" style="stroke: #A80036; stroke-width: 1.0;"/><line style="stroke: #A80036; stroke-width: 1.0;" x1="744.5249" x2="742.1" y1="258.0751" y2="250.45"/><polygon fill="#FFFFFF" points="402.46,185.93,409.5266,187.3666,413.5705,181.3962,406.504,179.9596,402.46,185.93" style="stroke: #A80036; stroke-width: 1.0;"/><text fill="#000000" font-family="sans-serif" font-size="13" lengthAdjust="spacingAndGlyphs" textLength="51" x="772.9075" y="252.0907">east_uu</text><!--MD5=[c623afa1cf7d9220ded82dfaec424eb0]
link StreamedTerrainData to Decimal--><path d="M407.2599,181.1569 C407.2599,181.1569 457.04,161.9 481.5,156 C492.03,153.46 667.11,150.6 676.5,156 C711.35,176.02 731.53,218.96 742.11,250.24 " fill="none" id="StreamedTerrainData-Decimal-6" style="stroke: #A80036; stroke-width: 1.0;"/><polygon fill="#A80036" points="746.07,262.83,747.1855,253.0445,744.5699,258.0603,739.554,255.4447,746.07,262.83" style="stroke: #A80036; stroke-width: 1.0;"/><line style="stroke: #A80036; stroke-width: 1.0;" x1="744.5699" x2="742.17" y1="258.0603" y2="250.425"/><polygon fill="#FFFFFF" points="396.25,185.93,403.346,187.2134,407.2599,181.1569,400.1639,179.8735,396.25,185.93" style="stroke: #A80036; stroke-width: 1.0;"/><text fill="#000000" font-family="sans-serif" font-size="13" lengthAdjust="spacingAndGlyphs" textLength="59" x="752.1098" y="251.7985">south_uu</text><!--MD5=[c623afa1cf7d9220ded82dfaec424eb0]
link StreamedTerrainData to Decimal--><path d="M401.5613,180.9156 C401.5613,180.9156 456.74,158.43 484,151.71 C494.25,149.19 664.85,146.46 674,151.71 C710.47,172.66 731.38,217.9 742.2,250.3 " fill="none" id="StreamedTerrainData-Decimal-7" style="stroke: #A80036; stroke-width: 1.0;"/><polygon fill="#A80036" points="746.11,262.86,747.2492,253.0773,744.6214,258.0867,739.612,255.4589,746.11,262.86" style="stroke: #A80036; stroke-width: 1.0;"/><line style="stroke: #A80036; stroke-width: 1.0;" x1="744.6214" x2="742.245" y1="258.0867" y2="250.445"/><polygon fill="#FFFFFF" points="390.65,185.91,397.7704,187.0499,401.5613,180.9156,394.4408,179.7757,390.65,185.91" style="stroke: #A80036; stroke-width: 1.0;"/><text fill="#000000" font-family="sans-serif" font-size="13" lengthAdjust="spacingAndGlyphs" textLength="57" x="680.2976" y="251.8362">north_uu</text><!--MD5=[c623afa1cf7d9220ded82dfaec424eb0]
link StreamedTerrainData to Decimal--><path d="M396.4811,180.6222 C396.4811,180.6222 456.54,154.95 486.5,147.43 C496.47,144.93 662.59,142.31 671.5,147.43 C709.62,169.32 731.27,216.93 742.31,250.43 " fill="none" id="StreamedTerrainData-Decimal-8" style="stroke: #A80036; stroke-width: 1.0;"/><polygon fill="#A80036" points="746.16,262.93,747.33,253.1509,744.6865,258.1521,739.6853,255.5085,746.16,262.93" style="stroke: #A80036; stroke-width: 1.0;"/><line style="stroke: #A80036; stroke-width: 1.0;" x1="744.6865" x2="742.335" y1="258.1521" y2="250.51"/><polygon fill="#FFFFFF" points="385.67,185.83,392.8115,186.8298,396.4811,180.6222,389.3396,179.6224,385.67,185.83" style="stroke: #A80036; stroke-width: 1.0;"/><text fill="#000000" font-family="sans-serif" font-size="13" lengthAdjust="spacingAndGlyphs" textLength="70" x="644.8069" y="251.9035">alt_min_dd</text><!--MD5=[c623afa1cf7d9220ded82dfaec424eb0]
link StreamedTerrainData to Decimal--><path d="M391.3299,180.5971 C391.3299,180.5971 456.36,151.49 489,143.14 C498.69,140.67 660.33,138.16 669,143.14 C708.51,165.84 730.87,215.33 742.2,249.89 " fill="none" id="StreamedTerrainData-Decimal-9" style="stroke: #A80036; stroke-width: 1.0;"/><polygon fill="#A80036" points="746.14,262.76,747.3337,252.9838,744.6781,257.9785,739.6833,255.3228,746.14,262.76" style="stroke: #A80036; stroke-width: 1.0;"/><line style="stroke: #A80036; stroke-width: 1.0;" x1="744.6781" x2="742.33" y1="257.9785" y2="250.33"/><polygon fill="#FFFFFF" points="380.61,185.99,387.7676,186.8668,391.3299,180.5971,384.1723,179.7202,380.61,185.99" style="stroke: #A80036; stroke-width: 1.0;"/><text fill="#000000" font-family="sans-serif" font-size="13" lengthAdjust="spacingAndGlyphs" textLength="74" x="788.9575" y="251.9007">alt_max_dd</text><!--MD5=[c623afa1cf7d9220ded82dfaec424eb0]
link StreamedTerrainData to Decimal--><path d="M387.1756,180.2435 C387.1756,180.2435 456.43,147.98 491.5,138.86 C500.91,136.41 658.07,134.01 666.5,138.86 C707.71,162.53 730.81,214.51 742.34,250.15 " fill="none" id="StreamedTerrainData-Decimal-10" style="stroke: #A80036; stroke-width: 1.0;"/><polygon fill="#A80036" points="746.2,262.91,747.4174,253.1367,744.7497,258.125,739.7614,255.4572,746.2,262.91" style="stroke: #A80036; stroke-width: 1.0;"/><line style="stroke: #A80036; stroke-width: 1.0;" x1="744.7497" x2="742.435" y1="258.125" y2="250.47"/><polygon fill="#FFFFFF" points="376.55,185.82,383.7216,186.5736,387.1756,180.2435,380.004,179.4899,376.55,185.82" style="stroke: #A80036; stroke-width: 1.0;"/><text fill="#000000" font-family="sans-serif" font-size="13" lengthAdjust="spacingAndGlyphs" textLength="70" x="679.1904" y="251.8359">alt_min_uu</text><!--MD5=[c623afa1cf7d9220ded82dfaec424eb0]
link StreamedTerrainData to Decimal--><path d="M382.9637,180.0919 C382.9637,180.0919 456.57,144.47 494,134.57 C503.13,132.16 655.81,129.87 664,134.57 C706.83,159.17 730.66,213.48 742.4,250.17 " fill="none" id="StreamedTerrainData-Decimal-11" style="stroke: #A80036; stroke-width: 1.0;"/><polygon fill="#A80036" points="746.2,262.8,747.4411,253.0296,744.7612,258.0115,739.7794,255.3317,746.2,262.8" style="stroke: #A80036; stroke-width: 1.0;"/><line style="stroke: #A80036; stroke-width: 1.0;" x1="744.7612" x2="742.46" y1="258.0115" y2="250.35"/><polygon fill="#FFFFFF" points="372.43,185.84,379.6129,186.4772,382.9637,180.0919,375.7808,179.4547,372.43,185.84" style="stroke: #A80036; stroke-width: 1.0;"/><text fill="#000000" font-family="sans-serif" font-size="13" lengthAdjust="spacingAndGlyphs" textLength="74" x="754.195" y="251.7608">alt_max_uu</text><!--MD5=[c623afa1cf7d9220ded82dfaec424eb0]
link StreamedTerrainData to Decimal--><path d="M379.0736,179.9675 C379.0736,179.9675 456.77,140.96 496.5,130.29 C505.35,127.91 653.55,125.72 661.5,130.29 C705.98,155.83 730.53,212.53 742.48,250.25 " fill="none" id="StreamedTerrainData-Decimal-12" style="stroke: #A80036; stroke-width: 1.0;"/><polygon fill="#A80036" points="746.2,262.73,747.4616,252.9623,744.7713,257.9385,739.7952,255.2482,746.2,262.73" style="stroke: #A80036; stroke-width: 1.0;"/><line style="stroke: #A80036; stroke-width: 1.0;" x1="744.7713" x2="742.49" y1="257.9385" y2="250.27"/><polygon fill="#FFFFFF" points="368.62,185.86,375.811,186.3983,379.0736,179.9675,371.8826,179.4292,368.62,185.86" style="stroke: #A80036; stroke-width: 1.0;"/><text fill="#000000" font-family="sans-serif" font-size="13" lengthAdjust="spacingAndGlyphs" textLength="59" x="643.9575" y="254.335">offset_alt</text><!--MD5=[65c3066faa03fec9a567cb4fd36f894f]
link StreamedTerrainData to List`1--><path d="M407.2599,181.1569 C407.2599,181.1569 457.04,161.9 481.5,156 C516.49,147.55 531.28,138.07 562.5,156 C597.24,175.95 617.08,218.91 627.41,250.2 " fill="none" id="StreamedTerrainData-List`1" style="stroke: #A80036; stroke-width: 1.0;"/><polygon fill="#A80036" points="631.27,262.8,632.4535,253.0225,629.803,258.02,624.8055,255.3696,631.27,262.8" style="stroke: #A80036; stroke-width: 1.0;"/><line style="stroke: #A80036; stroke-width: 1.0;" x1="629.803" x2="627.46" y1="258.02" y2="250.375"/><polygon fill="#FFFFFF" points="396.25,185.93,403.346,187.2134,407.2599,181.1569,400.1639,179.8735,396.25,185.93" style="stroke: #A80036; stroke-width: 1.0;"/><text fill="#000000" font-family="sans-serif" font-size="13" lengthAdjust="spacingAndGlyphs" textLength="229" x="449.6792" y="251.8772">CellList&lt;StreamedTerrainCellData&gt;</text><!--MD5=[a4ca1ccbe089130ad8190a0a2fe3b5e6]
link StreamedTerrainData to Vector3--><path d="M458.27,287 C458.27,287 465.43,287 468.41,287 " fill="none" id="StreamedTerrainData-Vector3" style="stroke: #A80036; stroke-width: 1.0;"/><polygon fill="#A80036" points="481.47,287,472.47,283,476.47,287,472.47,291,481.47,287" style="stroke: #A80036; stroke-width: 1.0;"/><line style="stroke: #A80036; stroke-width: 1.0;" x1="476.47" x2="468.47" y1="287" y2="287"/><polygon fill="#FFFFFF" points="446.27,287,452.27,291,458.27,287,452.27,283,446.27,287" style="stroke: #A80036; stroke-width: 1.0;"/><text fill="#000000" font-family="sans-serif" font-size="13" lengthAdjust="spacingAndGlyphs" textLength="80" x="393.7711" y="262.509">startPosition</text><!--MD5=[1ce101def92a240491e3749ef992af7b]
@startuml
class StreamedTerrainCellData <<struct>> {
    + Name : string
    + Hash : string
    + Path : string
    + isLoaded : bool
    + isLoading : bool
}
class StreamedTerrainData {
    + gridSize : float = 512
    + IsUsingLegacyLoading() : bool
    + GetDeepCopy() : StreamedTerrainData
    + LoadDocKML(importLocation:string) : void
    + LoadTilesXML(importLocation:string) : void
    + LoadSceneXML(importLocation:string, filename:string) : void
    + UpdateStaticGPSLatLonAltBox() : void
    + SetLoaded(index:int, isLoaded:bool) : void
    + SetLoading(index:int, isLoading:bool) : void
    + SortCellList(centrePoint:Vector3) : void
    + StaticGPSLatLonAltDebugMessage() : void
    + {static} LoadStreamedTerrainData(importLocation:string) : StreamedTerrainData
}
class "List`1"<T> {
}
StreamedTerrainCellData - -> "Position" Vector3
StreamedTerrainData o-> "west_dd" Decimal
StreamedTerrainData o-> "east_dd" Decimal
StreamedTerrainData o-> "south_dd" Decimal
StreamedTerrainData o-> "north_dd" Decimal
StreamedTerrainData o-> "west_uu" Decimal
StreamedTerrainData o-> "east_uu" Decimal
StreamedTerrainData o-> "south_uu" Decimal
StreamedTerrainData o-> "north_uu" Decimal
StreamedTerrainData o-> "alt_min_dd" Decimal
StreamedTerrainData o-> "alt_max_dd" Decimal
StreamedTerrainData o-> "alt_min_uu" Decimal
StreamedTerrainData o-> "alt_max_uu" Decimal
StreamedTerrainData o-> "offset_alt" Decimal
StreamedTerrainData o-> "CellList<StreamedTerrainCellData>" "List`1"
StreamedTerrainData o-> "startPosition" Vector3
@enduml

PlantUML version 1.2020.02(Sun Mar 01 10:22:07 GMT 2020)
(GPL source distribution)
Java Runtime: OpenJDK Runtime Environment
JVM: OpenJDK 64-Bit Server VM
Java Version: 11.0.9+11-Ubuntu-0ubuntu1
Operating System: Linux
Default Encoding: ANSI_X3.4-1968
Language: en
Country: US
--></g></svg>