<?xml version="1.0" encoding="UTF-8" standalone="no"?><svg xmlns="http://www.w3.org/2000/svg" xmlns:xlink="http://www.w3.org/1999/xlink" contentScriptType="application/ecmascript" contentStyleType="text/css" height="526px" preserveAspectRatio="none" style="width:858px;height:526px;" version="1.1" viewBox="0 0 858 526" width="858px" zoomAndPan="magnify"><defs><filter height="300%" id="f1s2vsfao27qsf" width="300%" x="-1" y="-1"><feGaussianBlur result="blurOut" stdDeviation="2.0"/><feColorMatrix in="blurOut" result="blurOut2" type="matrix" values="0 0 0 0 0 0 0 0 0 0 0 0 0 0 0 0 0 0 .4 0"/><feOffset dx="4.0" dy="4.0" in="blurOut2" result="blurOut3"/><feBlend in="SourceGraphic" in2="blurOut3" mode="normal"/></filter></defs><g><!--MD5=[b6b1d61e7c8fa12a02075947dcf1f2e8]
class TerrainLoader--><rect fill="#FEFECE" filter="url(#f1s2vsfao27qsf)" height="291.2891" id="TerrainLoader" style="stroke: #A80036; stroke-width: 1.5;" width="328" x="55.22" y="116"/><ellipse cx="171.47" cy="132" fill="#ADD1B2" rx="11" ry="11" style="stroke: #A80036; stroke-width: 1.0;"/><path d="M174.4388,137.6406 Q173.8606,137.9375 173.22,138.0781 Q172.5794,138.2344 171.8763,138.2344 Q169.3763,138.2344 168.0481,136.5938 Q166.7356,134.9375 166.7356,131.8125 Q166.7356,128.6875 168.0481,127.0313 Q169.3763,125.375 171.8763,125.375 Q172.5794,125.375 173.22,125.5313 Q173.8763,125.6875 174.4388,125.9844 L174.4388,128.7031 Q173.8138,128.125 173.22,127.8594 Q172.6263,127.5781 172.0013,127.5781 Q170.6575,127.5781 169.97,128.6563 Q169.2825,129.7188 169.2825,131.8125 Q169.2825,133.9063 169.97,134.9844 Q170.6575,136.0469 172.0013,136.0469 Q172.6263,136.0469 173.22,135.7813 Q173.8138,135.5 174.4388,134.9219 L174.4388,137.6406 Z "/><text fill="#000000" font-family="sans-serif" font-size="12" lengthAdjust="spacingAndGlyphs" textLength="87" x="191.97" y="136.1543">TerrainLoader</text><line style="stroke: #A80036; stroke-width: 1.5;" x1="56.22" x2="382.22" y1="148" y2="148"/><ellipse cx="66.22" cy="159" fill="none" rx="3" ry="3" style="stroke: #038048; stroke-width: 1.0;"/><text fill="#000000" font-family="sans-serif" font-size="11" lengthAdjust="spacingAndGlyphs" textLength="144" x="75.22" y="162.2104">importFolder : string = ""</text><ellipse cx="66.22" cy="171.8047" fill="none" rx="3" ry="3" style="stroke: #038048; stroke-width: 1.0;"/><text fill="#000000" font-family="sans-serif" font-size="11" lengthAdjust="spacingAndGlyphs" text-decoration="underline" textLength="156" x="75.22" y="175.0151">importLocation : string = ""</text><ellipse cx="66.22" cy="184.6094" fill="none" rx="3" ry="3" style="stroke: #038048; stroke-width: 1.0;"/><text fill="#000000" font-family="sans-serif" font-size="11" lengthAdjust="spacingAndGlyphs" textLength="130" x="75.22" y="187.8198">numberOfThreads : int</text><ellipse cx="66.22" cy="197.4141" fill="none" rx="3" ry="3" style="stroke: #038048; stroke-width: 1.0;"/><text fill="#000000" font-family="sans-serif" font-size="11" lengthAdjust="spacingAndGlyphs" textLength="127" x="75.22" y="200.6245">autoRun : bool = false</text><ellipse cx="66.22" cy="210.2188" fill="none" rx="3" ry="3" style="stroke: #038048; stroke-width: 1.0;"/><text fill="#000000" font-family="sans-serif" font-size="11" lengthAdjust="spacingAndGlyphs" textLength="182" x="75.22" y="213.4292">generateColliders : bool = false</text><ellipse cx="66.22" cy="223.0234" fill="none" rx="3" ry="3" style="stroke: #038048; stroke-width: 1.0;"/><text fill="#000000" font-family="sans-serif" font-size="11" lengthAdjust="spacingAndGlyphs" textLength="246" x="75.22" y="226.2339">onlyGenerateSimpleColliders : bool = false</text><ellipse cx="66.22" cy="235.8281" fill="none" rx="3" ry="3" style="stroke: #038048; stroke-width: 1.0;"/><text fill="#000000" font-family="sans-serif" font-size="11" lengthAdjust="spacingAndGlyphs" textLength="153" x="75.22" y="239.0386">blockOnLoad : bool = false</text><ellipse cx="66.22" cy="248.6328" fill="none" rx="3" ry="3" style="stroke: #038048; stroke-width: 1.0;"/><text fill="#000000" font-family="sans-serif" font-size="11" lengthAdjust="spacingAndGlyphs" textLength="180" x="75.22" y="251.8433">hideBoxOnAwaken : bool = true</text><ellipse cx="66.22" cy="261.4375" fill="none" rx="3" ry="3" style="stroke: #038048; stroke-width: 1.0;"/><text fill="#000000" font-family="sans-serif" font-size="11" lengthAdjust="spacingAndGlyphs" textLength="161" x="75.22" y="264.6479">loadedGridDistance : int = 5</text><ellipse cx="66.22" cy="274.2422" fill="none" rx="3" ry="3" style="stroke: #038048; stroke-width: 1.0;"/><text fill="#000000" font-family="sans-serif" font-size="11" lengthAdjust="spacingAndGlyphs" textLength="102" x="75.22" y="277.4526">runCount : int = 0</text><line style="stroke: #A80036; stroke-width: 1.5;" x1="56.22" x2="382.22" y1="284.0469" y2="284.0469"/><text fill="#000000" font-family="sans-serif" font-size="11" lengthAdjust="spacingAndGlyphs" textLength="79" x="75.22" y="298.2573">Awake() : void</text><text fill="#000000" font-family="sans-serif" font-size="11" lengthAdjust="spacingAndGlyphs" textLength="103" x="75.22" y="311.062">applyLODs() : void</text><ellipse cx="66.22" cy="320.6563" fill="#84BE84" rx="3" ry="3" style="stroke: #038048; stroke-width: 1.0;"/><text fill="#000000" font-family="sans-serif" font-size="11" lengthAdjust="spacingAndGlyphs" textLength="170" x="75.22" y="323.8667">CalculateAvailableCores() : int</text><text fill="#000000" font-family="sans-serif" font-size="11" lengthAdjust="spacingAndGlyphs" textLength="108" x="75.22" y="336.6714">PlacePlayer() : void</text><text fill="#000000" font-family="sans-serif" font-size="11" lengthAdjust="spacingAndGlyphs" textLength="257" x="75.22" y="349.4761">OBJLoaded(loader:ThreadedOBJLoader) : void</text><text fill="#000000" font-family="sans-serif" font-size="11" lengthAdjust="spacingAndGlyphs" textLength="302" x="75.22" y="362.2808">OBJLoaded_Legacy(loader:ThreadedOBJLoader) : void</text><ellipse cx="66.22" cy="371.875" fill="#84BE84" rx="3" ry="3" style="stroke: #038048; stroke-width: 1.0;"/><text fill="#000000" font-family="sans-serif" font-size="11" lengthAdjust="spacingAndGlyphs" textLength="64" x="75.22" y="375.0854">Run() : void</text><ellipse cx="66.22" cy="384.6797" fill="#84BE84" rx="3" ry="3" style="stroke: #038048; stroke-width: 1.0;"/><text fill="#000000" font-family="sans-serif" font-size="11" lengthAdjust="spacingAndGlyphs" textLength="155" x="75.22" y="387.8901">ClearAllLoadedOBJS() : void</text><ellipse cx="66.22" cy="397.4844" fill="#84BE84" rx="3" ry="3" style="stroke: #038048; stroke-width: 1.0;"/><text fill="#000000" font-family="sans-serif" font-size="11" lengthAdjust="spacingAndGlyphs" textLength="187" x="75.22" y="400.6948">DoRun_Coroutine() : IEnumerator</text><!--MD5=[da8c3974d335aac350241f92734c9c19]
class Queue`1--><rect fill="#FEFECE" filter="url(#f1s2vsfao27qsf)" height="48" id="Queue`1" style="stroke: #A80036; stroke-width: 1.5;" width="98" x="421.22" y="237.5"/><ellipse cx="436.22" cy="253.5" fill="#ADD1B2" rx="11" ry="11" style="stroke: #A80036; stroke-width: 1.0;"/><path d="M439.1888,259.1406 Q438.6106,259.4375 437.97,259.5781 Q437.3294,259.7344 436.6263,259.7344 Q434.1263,259.7344 432.7981,258.0938 Q431.4856,256.4375 431.4856,253.3125 Q431.4856,250.1875 432.7981,248.5313 Q434.1263,246.875 436.6263,246.875 Q437.3294,246.875 437.97,247.0313 Q438.6263,247.1875 439.1888,247.4844 L439.1888,250.2031 Q438.5638,249.625 437.97,249.3594 Q437.3763,249.0781 436.7513,249.0781 Q435.4075,249.0781 434.72,250.1563 Q434.0325,251.2188 434.0325,253.3125 Q434.0325,255.4063 434.72,256.4844 Q435.4075,257.5469 436.7513,257.5469 Q437.3763,257.5469 437.97,257.2813 Q438.5638,257 439.1888,256.4219 L439.1888,259.1406 Z "/><text fill="#000000" font-family="sans-serif" font-size="12" lengthAdjust="spacingAndGlyphs" textLength="55" x="450.22" y="257.6543">Queue`1</text><rect fill="#FFFFFF" height="15.9688" style="stroke: #000000; stroke-width: 1.0; stroke-dasharray: 2.0,2.0;" width="9" x="513.22" y="234.5"/><text fill="#000000" font-family="sans-serif" font-size="12" font-style="italic" lengthAdjust="spacingAndGlyphs" textLength="7" x="514.22" y="246.6387">T</text><line style="stroke: #A80036; stroke-width: 1.5;" x1="422.22" x2="518.22" y1="269.5" y2="269.5"/><line style="stroke: #A80036; stroke-width: 1.5;" x1="422.22" x2="518.22" y1="277.5" y2="277.5"/><!--MD5=[83b3cf3d23d77c6f1e1b5291a241bc2a]
class MonoBehaviour--><rect fill="#FEFECE" filter="url(#f1s2vsfao27qsf)" height="48" id="MonoBehaviour" style="stroke: #A80036; stroke-width: 1.5;" width="128" x="155.22" y="8"/><ellipse cx="170.22" cy="24" fill="#ADD1B2" rx="11" ry="11" style="stroke: #A80036; stroke-width: 1.0;"/><path d="M173.1888,29.6406 Q172.6106,29.9375 171.97,30.0781 Q171.3294,30.2344 170.6263,30.2344 Q168.1263,30.2344 166.7981,28.5938 Q165.4856,26.9375 165.4856,23.8125 Q165.4856,20.6875 166.7981,19.0313 Q168.1263,17.375 170.6263,17.375 Q171.3294,17.375 171.97,17.5313 Q172.6263,17.6875 173.1888,17.9844 L173.1888,20.7031 Q172.5638,20.125 171.97,19.8594 Q171.3763,19.5781 170.7513,19.5781 Q169.4075,19.5781 168.72,20.6563 Q168.0325,21.7188 168.0325,23.8125 Q168.0325,25.9063 168.72,26.9844 Q169.4075,28.0469 170.7513,28.0469 Q171.3763,28.0469 171.97,27.7813 Q172.5638,27.5 173.1888,26.9219 L173.1888,29.6406 Z "/><text fill="#000000" font-family="sans-serif" font-size="12" lengthAdjust="spacingAndGlyphs" textLength="96" x="184.22" y="28.1543">MonoBehaviour</text><line style="stroke: #A80036; stroke-width: 1.5;" x1="156.22" x2="282.22" y1="40" y2="40"/><line style="stroke: #A80036; stroke-width: 1.5;" x1="156.22" x2="282.22" y1="48" y2="48"/><!--MD5=[a5060deb6d59cc61592f8ab03ae49efc]
class PositionController--><rect fill="#FEFECE" filter="url(#f1s2vsfao27qsf)" height="48" id="PositionController" style="stroke: #A80036; stroke-width: 1.5;" width="143" x="51.72" y="467"/><ellipse cx="66.72" cy="483" fill="#ADD1B2" rx="11" ry="11" style="stroke: #A80036; stroke-width: 1.0;"/><path d="M69.6888,488.6406 Q69.1106,488.9375 68.47,489.0781 Q67.8294,489.2344 67.1263,489.2344 Q64.6263,489.2344 63.2981,487.5938 Q61.9856,485.9375 61.9856,482.8125 Q61.9856,479.6875 63.2981,478.0313 Q64.6263,476.375 67.1263,476.375 Q67.8294,476.375 68.47,476.5313 Q69.1263,476.6875 69.6888,476.9844 L69.6888,479.7031 Q69.0638,479.125 68.47,478.8594 Q67.8763,478.5781 67.2513,478.5781 Q65.9075,478.5781 65.22,479.6563 Q64.5325,480.7188 64.5325,482.8125 Q64.5325,484.9063 65.22,485.9844 Q65.9075,487.0469 67.2513,487.0469 Q67.8763,487.0469 68.47,486.7813 Q69.0638,486.5 69.6888,485.9219 L69.6888,488.6406 Z "/><text fill="#000000" font-family="sans-serif" font-size="12" lengthAdjust="spacingAndGlyphs" textLength="111" x="80.72" y="487.1543">PositionController</text><line style="stroke: #A80036; stroke-width: 1.5;" x1="52.72" x2="193.72" y1="499" y2="499"/><line style="stroke: #A80036; stroke-width: 1.5;" x1="52.72" x2="193.72" y1="507" y2="507"/><!--MD5=[064f7a74fee85463ec1a30143664ee17]
class GameObject--><rect fill="#FEFECE" filter="url(#f1s2vsfao27qsf)" height="48" id="GameObject" style="stroke: #A80036; stroke-width: 1.5;" width="108" x="677.22" y="237.5"/><ellipse cx="692.22" cy="253.5" fill="#ADD1B2" rx="11" ry="11" style="stroke: #A80036; stroke-width: 1.0;"/><path d="M695.1888,259.1406 Q694.6106,259.4375 693.97,259.5781 Q693.3294,259.7344 692.6263,259.7344 Q690.1263,259.7344 688.7981,258.0938 Q687.4856,256.4375 687.4856,253.3125 Q687.4856,250.1875 688.7981,248.5313 Q690.1263,246.875 692.6263,246.875 Q693.3294,246.875 693.97,247.0313 Q694.6263,247.1875 695.1888,247.4844 L695.1888,250.2031 Q694.5638,249.625 693.97,249.3594 Q693.3763,249.0781 692.7513,249.0781 Q691.4075,249.0781 690.72,250.1563 Q690.0325,251.2188 690.0325,253.3125 Q690.0325,255.4063 690.72,256.4844 Q691.4075,257.5469 692.7513,257.5469 Q693.3763,257.5469 693.97,257.2813 Q694.5638,257 695.1888,256.4219 L695.1888,259.1406 Z "/><text fill="#000000" font-family="sans-serif" font-size="12" lengthAdjust="spacingAndGlyphs" textLength="76" x="706.22" y="257.6543">GameObject</text><line style="stroke: #A80036; stroke-width: 1.5;" x1="678.22" x2="784.22" y1="269.5" y2="269.5"/><line style="stroke: #A80036; stroke-width: 1.5;" x1="678.22" x2="784.22" y1="277.5" y2="277.5"/><!--MD5=[65d619c042c23702cef2ca07d67b1cf6]
class Vector3--><rect fill="#FEFECE" filter="url(#f1s2vsfao27qsf)" height="48" id="Vector3" style="stroke: #A80036; stroke-width: 1.5;" width="81" x="557.72" y="237.5"/><ellipse cx="572.72" cy="253.5" fill="#ADD1B2" rx="11" ry="11" style="stroke: #A80036; stroke-width: 1.0;"/><path d="M575.6888,259.1406 Q575.1106,259.4375 574.47,259.5781 Q573.8294,259.7344 573.1263,259.7344 Q570.6263,259.7344 569.2981,258.0938 Q567.9856,256.4375 567.9856,253.3125 Q567.9856,250.1875 569.2981,248.5313 Q570.6263,246.875 573.1263,246.875 Q573.8294,246.875 574.47,247.0313 Q575.1263,247.1875 575.6888,247.4844 L575.6888,250.2031 Q575.0638,249.625 574.47,249.3594 Q573.8763,249.0781 573.2513,249.0781 Q571.9075,249.0781 571.22,250.1563 Q570.5325,251.2188 570.5325,253.3125 Q570.5325,255.4063 571.22,256.4844 Q571.9075,257.5469 573.2513,257.5469 Q573.8763,257.5469 574.47,257.2813 Q575.0638,257 575.6888,256.4219 L575.6888,259.1406 Z "/><text fill="#000000" font-family="sans-serif" font-size="12" lengthAdjust="spacingAndGlyphs" textLength="49" x="586.72" y="257.6543">Vector3</text><line style="stroke: #A80036; stroke-width: 1.5;" x1="558.72" x2="637.72" y1="269.5" y2="269.5"/><line style="stroke: #A80036; stroke-width: 1.5;" x1="558.72" x2="637.72" y1="277.5" y2="277.5"/><!--MD5=[efb50b9bc6755e275c620c80f9ee8f25]
class StreamedTerrainData--><rect fill="#FEFECE" filter="url(#f1s2vsfao27qsf)" height="48" id="StreamedTerrainData" style="stroke: #A80036; stroke-width: 1.5;" width="167" x="232.72" y="467"/><ellipse cx="247.72" cy="483" fill="#ADD1B2" rx="11" ry="11" style="stroke: #A80036; stroke-width: 1.0;"/><path d="M250.6888,488.6406 Q250.1106,488.9375 249.47,489.0781 Q248.8294,489.2344 248.1263,489.2344 Q245.6263,489.2344 244.2981,487.5938 Q242.9856,485.9375 242.9856,482.8125 Q242.9856,479.6875 244.2981,478.0313 Q245.6263,476.375 248.1263,476.375 Q248.8294,476.375 249.47,476.5313 Q250.1263,476.6875 250.6888,476.9844 L250.6888,479.7031 Q250.0638,479.125 249.47,478.8594 Q248.8763,478.5781 248.2513,478.5781 Q246.9075,478.5781 246.22,479.6563 Q245.5325,480.7188 245.5325,482.8125 Q245.5325,484.9063 246.22,485.9844 Q246.9075,487.0469 248.2513,487.0469 Q248.8763,487.0469 249.47,486.7813 Q250.0638,486.5 250.6888,485.9219 L250.6888,488.6406 Z "/><text fill="#000000" font-family="sans-serif" font-size="12" lengthAdjust="spacingAndGlyphs" textLength="135" x="261.72" y="487.1543">StreamedTerrainData</text><line style="stroke: #A80036; stroke-width: 1.5;" x1="233.72" x2="398.72" y1="499" y2="499"/><line style="stroke: #A80036; stroke-width: 1.5;" x1="233.72" x2="398.72" y1="507" y2="507"/><!--MD5=[92649f85fda386a3188099083fcdb2ea]
reverse link MonoBehaviour to TerrainLoader--><path d="M219.22,76.42 C219.22,88.2 219.22,101.63 219.22,115.76 " fill="none" id="MonoBehaviour&lt;-TerrainLoader" style="stroke: #A80036; stroke-width: 1.0;"/><polygon fill="none" points="212.23,76.07,219.22,56.07,226.23,76.07,212.23,76.07" style="stroke: #A80036; stroke-width: 1.0;"/><!--MD5=[49260b0e34051e8149596284a97195be]
link TerrainLoader to PositionController--><path d="M158.15,407.22 C149.38,428.01 141.24,447.3 135.03,462.02 " fill="none" id="TerrainLoader-&gt;PositionController" style="stroke: #A80036; stroke-width: 1.0;"/><polygon fill="#A80036" points="133,466.84,140.1791,460.0975,134.9403,462.2318,132.806,456.9931,133,466.84" style="stroke: #A80036; stroke-width: 1.0;"/><text fill="#000000" font-family="sans-serif" font-size="13" lengthAdjust="spacingAndGlyphs" textLength="112" x="9.1561" y="455.811">positionController</text><!--MD5=[14a1b6797631826388d04519ab8507e0]
link TerrainLoader to GameObject--><path d="M383.6067,110.0746 C383.6067,110.0746 404.61,99.77 414.89,96 C463.02,78.37 600.65,71.29 645.56,96 C692.8,122 714.84,184.29 724.47,224.6 " fill="none" id="TerrainLoader-GameObject" style="stroke: #A80036; stroke-width: 1.0;"/><polygon fill="#A80036" points="727.28,237.34,729.2485,227.6899,726.2035,232.4573,721.4361,229.4123,727.28,237.34" style="stroke: #A80036; stroke-width: 1.0;"/><line style="stroke: #A80036; stroke-width: 1.0;" x1="726.2035" x2="724.475" y1="232.4573" y2="224.65"/><polygon fill="#FFFFFF" points="373.11,115.89,380.2968,116.4812,383.6067,110.0746,376.4199,109.4834,373.11,115.89" style="stroke: #A80036; stroke-width: 1.0;"/><text fill="#000000" font-family="sans-serif" font-size="13" lengthAdjust="spacingAndGlyphs" textLength="39" x="731.2673" y="226.311">player</text><!--MD5=[14a1b6797631826388d04519ab8507e0]
link TerrainLoader to GameObject--><path d="M366.0003,109.0451 C366.0003,109.0451 406.46,84.03 427.56,76 C470.2,59.77 592.92,54 632.89,76 C687.73,106.18 713.25,179.35 724.1,224.25 " fill="none" id="TerrainLoader-GameObject-1" style="stroke: #A80036; stroke-width: 1.0;"/><polygon fill="#A80036" points="727.02,237.19,728.9448,227.5311,725.9214,232.3122,721.1403,229.2888,727.02,237.19" style="stroke: #A80036; stroke-width: 1.0;"/><line style="stroke: #A80036; stroke-width: 1.0;" x1="725.9214" x2="724.16" y1="232.3122" y2="224.51"/><polygon fill="#FFFFFF" points="356.2,115.97,363.4084,115.7743,366.0003,109.0451,358.7919,109.2408,356.2,115.97" style="stroke: #A80036; stroke-width: 1.0;"/><text fill="#000000" font-family="sans-serif" font-size="13" lengthAdjust="spacingAndGlyphs" textLength="76" x="640.8596" y="226.4577">LoadingIcon</text><!--MD5=[fea40e376ede45a2d8869dc8e0b9c1a5]
link TerrainLoader to Vector3--><path d="M364.4571,109.079 C364.4571,109.079 468.73,58.21 519.22,86 C568.88,113.33 587.42,181.5 594.27,224.39 " fill="none" id="TerrainLoader-Vector3" style="stroke: #A80036; stroke-width: 1.0;"/><polygon fill="#A80036" points="596.11,237.34,598.8044,227.8669,595.4067,232.3897,590.8839,228.9921,596.11,237.34" style="stroke: #A80036; stroke-width: 1.0;"/><line style="stroke: #A80036; stroke-width: 1.0;" x1="595.4067" x2="594.285" y1="232.3897" y2="224.47"/><polygon fill="#FFFFFF" points="354.64,115.98,361.8489,115.8019,364.4571,109.079,357.2482,109.2571,354.64,115.98" style="stroke: #A80036; stroke-width: 1.0;"/><text fill="#000000" font-family="sans-serif" font-size="13" lengthAdjust="spacingAndGlyphs" textLength="71" x="519.4648" y="226.5933">playerStart</text><!--MD5=[3f32cc541eb898a140ada1443e4fac57]
link TerrainLoader to Queue`1--><path d="M393.6753,353.9497 C393.6753,353.9497 430.32,322.06 448.12,296.55 " fill="none" id="TerrainLoader-Queue`1" style="stroke: #A80036; stroke-width: 1.0;"/><polygon fill="#A80036" points="455.48,285.63,447.1323,290.8565,452.685,289.7758,453.7657,295.3285,455.48,285.63" style="stroke: #A80036; stroke-width: 1.0;"/><line style="stroke: #A80036; stroke-width: 1.0;" x1="452.685" x2="448.215" y1="289.7758" y2="296.415"/><polygon fill="#FFFFFF" points="383.45,360.23,390.6561,360.4983,393.6753,353.9497,386.4692,353.6814,383.45,360.23" style="stroke: #A80036; stroke-width: 1.0;"/><text fill="#000000" font-family="sans-serif" font-size="13" lengthAdjust="spacingAndGlyphs" textLength="352" x="494.5038" y="305.6077">threadedOBJLoadersHighPriority&lt;ThreadedOBJLoader&gt;</text><!--MD5=[3f32cc541eb898a140ada1443e4fac57]
link TerrainLoader to Queue`1--><path d="M393.6753,169.0503 C393.6753,169.0503 430.32,200.94 448.12,226.45 " fill="none" id="TerrainLoader-Queue`1-1" style="stroke: #A80036; stroke-width: 1.0;"/><polygon fill="#A80036" points="455.48,237.37,453.7657,227.6715,452.685,233.2242,447.1323,232.1435,455.48,237.37" style="stroke: #A80036; stroke-width: 1.0;"/><line style="stroke: #A80036; stroke-width: 1.0;" x1="452.685" x2="448.215" y1="233.2242" y2="226.585"/><polygon fill="#FFFFFF" points="383.45,162.77,386.4692,169.3186,393.6753,169.0503,390.6561,162.5017,383.45,162.77" style="stroke: #A80036; stroke-width: 1.0;"/><text fill="#000000" font-family="sans-serif" font-size="13" lengthAdjust="spacingAndGlyphs" textLength="347" x="496.1623" y="226.3487">threadedOBJLoadersLowPriority&lt;ThreadedOBJLoader&gt;</text><!--MD5=[84463a8f740a9a4e5eba8680ca9abb24]
link TerrainLoader to StreamedTerrainData--><path d="M280.93,407.22 C289.79,428.01 298.02,447.3 304.3,462.02 " fill="none" id="TerrainLoader-&gt;StreamedTerrainData" style="stroke: #A80036; stroke-width: 1.0;"/><polygon fill="#A80036" points="306.35,466.84,306.5072,456.9924,304.3925,462.2391,299.1458,460.1244,306.35,466.84" style="stroke: #A80036; stroke-width: 1.0;"/><text fill="#000000" font-family="sans-serif" font-size="13" lengthAdjust="spacingAndGlyphs" textLength="73" x="221.4677" y="455.811">terrainData</text><!--MD5=[a245fa50b4dc05a3ceb4fe0792efaa97]
@startuml
class TerrainLoader {
    + importFolder : string = ""
    + {static} importLocation : string = ""
    + numberOfThreads : int
    + autoRun : bool = false
    + generateColliders : bool = false
    + onlyGenerateSimpleColliders : bool = false
    + blockOnLoad : bool = false
    + hideBoxOnAwaken : bool = true
    + loadedGridDistance : int = 5
    + runCount : int = 0
    Awake() : void
    applyLODs() : void
    + CalculateAvailableCores() : int
    PlacePlayer() : void
    OBJLoaded(loader:ThreadedOBJLoader) : void
    OBJLoaded_Legacy(loader:ThreadedOBJLoader) : void
    + Run() : void
    + ClearAllLoadedOBJS() : void
    + DoRun_Coroutine() : IEnumerator
}
class "Queue`1"<T> {
}
MonoBehaviour <|- - TerrainLoader
TerrainLoader - -> "positionController" PositionController
TerrainLoader o-> "player" GameObject
TerrainLoader o-> "LoadingIcon" GameObject
TerrainLoader o-> "playerStart" Vector3
TerrainLoader o-> "threadedOBJLoadersHighPriority<ThreadedOBJLoader>" "Queue`1"
TerrainLoader o-> "threadedOBJLoadersLowPriority<ThreadedOBJLoader>" "Queue`1"
TerrainLoader - -> "terrainData" StreamedTerrainData
@enduml

PlantUML version 1.2020.02(Sun Mar 01 10:22:07 GMT 2020)
(GPL source distribution)
Java Runtime: OpenJDK Runtime Environment
JVM: OpenJDK 64-Bit Server VM
Java Version: 11.0.9+11-Ubuntu-0ubuntu1
Operating System: Linux
Default Encoding: ANSI_X3.4-1968
Language: en
Country: US
--></g></svg>