<?xml version="1.0" encoding="UTF-8" standalone="no"?><svg xmlns="http://www.w3.org/2000/svg" xmlns:xlink="http://www.w3.org/1999/xlink" contentScriptType="application/ecmascript" contentStyleType="text/css" height="405px" preserveAspectRatio="none" style="width:753px;height:405px;" version="1.1" viewBox="0 0 753 405" width="753px" zoomAndPan="magnify"><defs><filter height="300%" id="frtvlp754h3lb" width="300%" x="-1" y="-1"><feGaussianBlur result="blurOut" stdDeviation="2.0"/><feColorMatrix in="blurOut" result="blurOut2" type="matrix" values="0 0 0 0 0 0 0 0 0 0 0 0 0 0 0 0 0 0 .4 0"/><feOffset dx="4.0" dy="4.0" in="blurOut2" result="blurOut3"/><feBlend in="SourceGraphic" in2="blurOut3" mode="normal"/></filter></defs><g><!--MD5=[b55a963843cfd90e561fb1869fa993a9]
class ThreadedOBJLoader--><rect fill="#FEFECE" filter="url(#frtvlp754h3lb)" height="278.4844" id="ThreadedOBJLoader" style="stroke: #A80036; stroke-width: 1.5;" width="466" x="6" y="116"/><ellipse cx="173.25" cy="132" fill="#ADD1B2" rx="11" ry="11" style="stroke: #A80036; stroke-width: 1.0;"/><path d="M176.2188,137.6406 Q175.6406,137.9375 175,138.0781 Q174.3594,138.2344 173.6563,138.2344 Q171.1563,138.2344 169.8281,136.5938 Q168.5156,134.9375 168.5156,131.8125 Q168.5156,128.6875 169.8281,127.0313 Q171.1563,125.375 173.6563,125.375 Q174.3594,125.375 175,125.5313 Q175.6563,125.6875 176.2188,125.9844 L176.2188,128.7031 Q175.5938,128.125 175,127.8594 Q174.4063,127.5781 173.7813,127.5781 Q172.4375,127.5781 171.75,128.6563 Q171.0625,129.7188 171.0625,131.8125 Q171.0625,133.9063 171.75,134.9844 Q172.4375,136.0469 173.7813,136.0469 Q174.4063,136.0469 175,135.7813 Q175.5938,135.5 176.2188,134.9219 L176.2188,137.6406 Z "/><text fill="#000000" font-family="sans-serif" font-size="12" lengthAdjust="spacingAndGlyphs" textLength="123" x="193.75" y="136.1543">ThreadedOBJLoader</text><line style="stroke: #A80036; stroke-width: 1.5;" x1="7" x2="471" y1="148" y2="148"/><ellipse cx="17" cy="159" fill="none" rx="3" ry="3" style="stroke: #038048; stroke-width: 1.0;"/><text fill="#000000" font-family="sans-serif" font-size="11" lengthAdjust="spacingAndGlyphs" textLength="183" x="26" y="162.2104">loadingCompleted : bool = false</text><ellipse cx="17" cy="171.8047" fill="none" rx="3" ry="3" style="stroke: #038048; stroke-width: 1.0;"/><text fill="#000000" font-family="sans-serif" font-size="11" lengthAdjust="spacingAndGlyphs" textLength="114" x="26" y="175.0151">filePath : string = ""</text><ellipse cx="17" cy="184.6094" fill="none" rx="3" ry="3" style="stroke: #038048; stroke-width: 1.0;"/><text fill="#000000" font-family="sans-serif" font-size="11" lengthAdjust="spacingAndGlyphs" textLength="127" x="26" y="187.8198">autoRun : bool = false</text><ellipse cx="17" cy="197.4141" fill="none" rx="3" ry="3" style="stroke: #038048; stroke-width: 1.0;"/><text fill="#000000" font-family="sans-serif" font-size="11" lengthAdjust="spacingAndGlyphs" textLength="182" x="26" y="200.6245">generateColliders : bool = false</text><ellipse cx="17" cy="210.2188" fill="none" rx="3" ry="3" style="stroke: #038048; stroke-width: 1.0;"/><text fill="#000000" font-family="sans-serif" font-size="11" lengthAdjust="spacingAndGlyphs" textLength="153" x="26" y="213.4292">blockOnLoad : bool = false</text><ellipse cx="17" cy="223.0234" fill="none" rx="3" ry="3" style="stroke: #038048; stroke-width: 1.0;"/><text fill="#000000" font-family="sans-serif" font-size="11" lengthAdjust="spacingAndGlyphs" textLength="156" x="26" y="226.2339">ShouldDelete : bool = false</text><ellipse cx="17" cy="235.8281" fill="none" rx="3" ry="3" style="stroke: #038048; stroke-width: 1.0;"/><text fill="#000000" font-family="sans-serif" font-size="11" lengthAdjust="spacingAndGlyphs" textLength="96" x="26" y="239.0386">lodLevel : int = 0</text><ellipse cx="17" cy="248.6328" fill="none" rx="3" ry="3" style="stroke: #038048; stroke-width: 1.0;"/><text fill="#000000" font-family="sans-serif" font-size="11" lengthAdjust="spacingAndGlyphs" textLength="115" x="26" y="251.8433">modelIndex : int = 0</text><ellipse cx="17" cy="261.4375" fill="none" rx="3" ry="3" style="stroke: #038048; stroke-width: 1.0;"/><text fill="#000000" font-family="sans-serif" font-size="11" lengthAdjust="spacingAndGlyphs" textLength="318" x="26" y="264.6479">«event» OBJLoadedEvent : Action&lt;ThreadedOBJLoader&gt;</text><line style="stroke: #A80036; stroke-width: 1.5;" x1="7" x2="471" y1="271.2422" y2="271.2422"/><text fill="#000000" font-family="sans-serif" font-size="11" lengthAdjust="spacingAndGlyphs" textLength="71" x="26" y="285.4526">Start() : void</text><text fill="#000000" font-family="sans-serif" font-size="11" lengthAdjust="spacingAndGlyphs" textLength="83" x="26" y="298.2573">Update() : void</text><ellipse cx="17" cy="307.8516" fill="#84BE84" rx="3" ry="3" style="stroke: #038048; stroke-width: 1.0;"/><text fill="#000000" font-family="sans-serif" font-size="11" lengthAdjust="spacingAndGlyphs" textLength="81" x="26" y="311.062">IsValid() : bool</text><ellipse cx="17" cy="320.6563" fill="#84BE84" rx="3" ry="3" style="stroke: #038048; stroke-width: 1.0;"/><text fill="#000000" font-family="sans-serif" font-size="11" lengthAdjust="spacingAndGlyphs" textLength="127" x="26" y="323.8667">DestroyLoader() : bool</text><ellipse cx="17" cy="333.4609" fill="#84BE84" rx="3" ry="3" style="stroke: #038048; stroke-width: 1.0;"/><text fill="#000000" font-family="sans-serif" font-size="11" lengthAdjust="spacingAndGlyphs" textLength="64" x="26" y="336.6714">Run() : void</text><ellipse cx="17" cy="346.2656" fill="#84BE84" rx="3" ry="3" style="stroke: #038048; stroke-width: 1.0;"/><text fill="#000000" font-family="sans-serif" font-size="11" lengthAdjust="spacingAndGlyphs" textLength="172" x="26" y="349.4761">LoadDataFromSOBJFile() : void</text><ellipse cx="17" cy="359.0703" fill="#84BE84" rx="3" ry="3" style="stroke: #038048; stroke-width: 1.0;"/><text fill="#000000" font-family="sans-serif" font-size="11" lengthAdjust="spacingAndGlyphs" textLength="440" x="26" y="362.2808">LoadTextureFromFile(DiffuseTextureMapName:string, folderPath:string) : void</text><ellipse cx="17" cy="371.875" fill="#84BE84" rx="3" ry="3" style="stroke: #038048; stroke-width: 1.0;"/><text fill="#000000" font-family="sans-serif" font-size="11" lengthAdjust="spacingAndGlyphs" textLength="360" x="26" y="375.0854">CreateGameObjectsFromDataLegacy_Coroutine() : IEnumerator</text><ellipse cx="17" cy="384.6797" fill="#84BE84" rx="3" ry="3" style="stroke: #038048; stroke-width: 1.0;"/><text fill="#000000" font-family="sans-serif" font-size="11" lengthAdjust="spacingAndGlyphs" textLength="321" x="26" y="387.8901">CreateGameObjectsFromData_Coroutine() : IEnumerator</text><!--MD5=[e644022de7dea015dd09463c37421447]
class List`1--><rect fill="#FEFECE" filter="url(#frtvlp754h3lb)" height="48" id="List`1" style="stroke: #A80036; stroke-width: 1.5;" width="78" x="507" y="231"/><ellipse cx="522" cy="247" fill="#ADD1B2" rx="11" ry="11" style="stroke: #A80036; stroke-width: 1.0;"/><path d="M524.9688,252.6406 Q524.3906,252.9375 523.75,253.0781 Q523.1094,253.2344 522.4063,253.2344 Q519.9063,253.2344 518.5781,251.5938 Q517.2656,249.9375 517.2656,246.8125 Q517.2656,243.6875 518.5781,242.0313 Q519.9063,240.375 522.4063,240.375 Q523.1094,240.375 523.75,240.5313 Q524.4063,240.6875 524.9688,240.9844 L524.9688,243.7031 Q524.3438,243.125 523.75,242.8594 Q523.1563,242.5781 522.5313,242.5781 Q521.1875,242.5781 520.5,243.6563 Q519.8125,244.7188 519.8125,246.8125 Q519.8125,248.9063 520.5,249.9844 Q521.1875,251.0469 522.5313,251.0469 Q523.1563,251.0469 523.75,250.7813 Q524.3438,250.5 524.9688,249.9219 L524.9688,252.6406 Z "/><text fill="#000000" font-family="sans-serif" font-size="12" lengthAdjust="spacingAndGlyphs" textLength="35" x="536" y="251.1543">List`1</text><rect fill="#FFFFFF" height="15.9688" style="stroke: #000000; stroke-width: 1.0; stroke-dasharray: 2.0,2.0;" width="9" x="579" y="228"/><text fill="#000000" font-family="sans-serif" font-size="12" font-style="italic" lengthAdjust="spacingAndGlyphs" textLength="7" x="580" y="240.1387">T</text><line style="stroke: #A80036; stroke-width: 1.5;" x1="508" x2="584" y1="263" y2="263"/><line style="stroke: #A80036; stroke-width: 1.5;" x1="508" x2="584" y1="271" y2="271"/><!--MD5=[83b3cf3d23d77c6f1e1b5291a241bc2a]
class MonoBehaviour--><rect fill="#FEFECE" filter="url(#frtvlp754h3lb)" height="48" id="MonoBehaviour" style="stroke: #A80036; stroke-width: 1.5;" width="128" x="175" y="8"/><ellipse cx="190" cy="24" fill="#ADD1B2" rx="11" ry="11" style="stroke: #A80036; stroke-width: 1.0;"/><path d="M192.9688,29.6406 Q192.3906,29.9375 191.75,30.0781 Q191.1094,30.2344 190.4063,30.2344 Q187.9063,30.2344 186.5781,28.5938 Q185.2656,26.9375 185.2656,23.8125 Q185.2656,20.6875 186.5781,19.0313 Q187.9063,17.375 190.4063,17.375 Q191.1094,17.375 191.75,17.5313 Q192.4063,17.6875 192.9688,17.9844 L192.9688,20.7031 Q192.3438,20.125 191.75,19.8594 Q191.1563,19.5781 190.5313,19.5781 Q189.1875,19.5781 188.5,20.6563 Q187.8125,21.7188 187.8125,23.8125 Q187.8125,25.9063 188.5,26.9844 Q189.1875,28.0469 190.5313,28.0469 Q191.1563,28.0469 191.75,27.7813 Q192.3438,27.5 192.9688,26.9219 L192.9688,29.6406 Z "/><text fill="#000000" font-family="sans-serif" font-size="12" lengthAdjust="spacingAndGlyphs" textLength="96" x="204" y="28.1543">MonoBehaviour</text><line style="stroke: #A80036; stroke-width: 1.5;" x1="176" x2="302" y1="40" y2="40"/><line style="stroke: #A80036; stroke-width: 1.5;" x1="176" x2="302" y1="48" y2="48"/><!--MD5=[ada6d357b64ded6bb5859628e0cd8a92]
reverse link MonoBehaviour to ThreadedOBJLoader--><path d="M239,76.61 C239,88.39 239,101.78 239,115.82 " fill="none" id="MonoBehaviour&lt;-ThreadedOBJLoader" style="stroke: #A80036; stroke-width: 1.0;"/><polygon fill="none" points="232,76.23,239,56.23,246,76.23,232,76.23" style="stroke: #A80036; stroke-width: 1.0;"/><!--MD5=[b8b022156c01af92dbefc42d0877cca2]
link ThreadedOBJLoader to List`1--><path d="M481.8389,323.8952 C481.8389,323.8952 506.57,302.3 518.38,289.14 " fill="none" id="ThreadedOBJLoader-List`1" style="stroke: #A80036; stroke-width: 1.0;"/><polygon fill="#A80036" points="526.99,279.23,518.0673,283.3996,523.7103,283.0041,524.1059,288.6471,526.99,279.23" style="stroke: #A80036; stroke-width: 1.0;"/><line style="stroke: #A80036; stroke-width: 1.0;" x1="523.7103" x2="518.465" y1="283.0041" y2="289.045"/><polygon fill="#FFFFFF" points="472.25,331.11,479.4494,330.6989,481.8389,323.8952,474.6395,324.3063,472.25,331.11" style="stroke: #A80036; stroke-width: 1.0;"/><text fill="#000000" font-family="sans-serif" font-size="13" lengthAdjust="spacingAndGlyphs" textLength="186" x="545.0251" y="299.0473">meshObjects&lt;GameObject&gt;</text><!--MD5=[b8b022156c01af92dbefc42d0877cca2]
link ThreadedOBJLoader to List`1--><path d="M481.8389,186.1048 C481.8389,186.1048 506.57,207.7 518.38,220.86 " fill="none" id="ThreadedOBJLoader-List`1-1" style="stroke: #A80036; stroke-width: 1.0;"/><polygon fill="#A80036" points="526.99,230.77,524.1059,221.3529,523.7103,226.9959,518.0673,226.6004,526.99,230.77" style="stroke: #A80036; stroke-width: 1.0;"/><line style="stroke: #A80036; stroke-width: 1.0;" x1="523.7103" x2="518.465" y1="226.9959" y2="220.955"/><polygon fill="#FFFFFF" points="472.25,178.89,474.6395,185.6937,481.8389,186.1048,479.4494,179.3011,472.25,178.89" style="stroke: #A80036; stroke-width: 1.0;"/><text fill="#000000" font-family="sans-serif" font-size="13" lengthAdjust="spacingAndGlyphs" textLength="195" x="546.1219" y="220.1189">colliderObjects&lt;GameObject&gt;</text><!--MD5=[783f9a572a75a66900c6cb05173fdbb6]
@startuml
class ThreadedOBJLoader {
    + loadingCompleted : bool = false
    + filePath : string = ""
    + autoRun : bool = false
    + generateColliders : bool = false
    + blockOnLoad : bool = false
    + ShouldDelete : bool = false
    + lodLevel : int = 0
    + modelIndex : int = 0
    +  <<event>> OBJLoadedEvent : Action<ThreadedOBJLoader> 
    Start() : void
    Update() : void
    + IsValid() : bool
    + DestroyLoader() : bool
    + Run() : void
    + LoadDataFromSOBJFile() : void
    + LoadTextureFromFile(DiffuseTextureMapName:string, folderPath:string) : void
    + CreateGameObjectsFromDataLegacy_Coroutine() : IEnumerator
    + CreateGameObjectsFromData_Coroutine() : IEnumerator
}
class "List`1"<T> {
}
MonoBehaviour <|- - ThreadedOBJLoader
ThreadedOBJLoader o-> "meshObjects<GameObject>" "List`1"
ThreadedOBJLoader o-> "colliderObjects<GameObject>" "List`1"
@enduml

PlantUML version 1.2020.02(Sun Mar 01 10:22:07 GMT 2020)
(GPL source distribution)
Java Runtime: OpenJDK Runtime Environment
JVM: OpenJDK 64-Bit Server VM
Java Version: 11.0.9+11-Ubuntu-0ubuntu1
Operating System: Linux
Default Encoding: ANSI_X3.4-1968
Language: en
Country: US
--></g></svg>