<?xml version="1.0" encoding="UTF-8" standalone="no"?><svg xmlns="http://www.w3.org/2000/svg" xmlns:xlink="http://www.w3.org/1999/xlink" contentScriptType="application/ecmascript" contentStyleType="text/css" height="200px" preserveAspectRatio="none" style="width:431px;height:200px;" version="1.1" viewBox="0 0 431 200" width="431px" zoomAndPan="magnify"><defs><filter height="300%" id="f9dairnxjcris" width="300%" x="-1" y="-1"><feGaussianBlur result="blurOut" stdDeviation="2.0"/><feColorMatrix in="blurOut" result="blurOut2" type="matrix" values="0 0 0 0 0 0 0 0 0 0 0 0 0 0 0 0 0 0 .4 0"/><feOffset dx="4.0" dy="4.0" in="blurOut2" result="blurOut3"/><feBlend in="SourceGraphic" in2="blurOut3" mode="normal"/></filter></defs><g><!--MD5=[baa576803484c10f55e19ac63046ce69]
class WorldRebaser--><rect fill="#FEFECE" filter="url(#f9dairnxjcris)" height="73.6094" id="WorldRebaser" style="stroke: #A80036; stroke-width: 1.5;" width="172" x="6" y="116"/><ellipse cx="44.85" cy="132" fill="#ADD1B2" rx="11" ry="11" style="stroke: #A80036; stroke-width: 1.0;"/><path d="M47.8188,137.6406 Q47.2406,137.9375 46.6,138.0781 Q45.9594,138.2344 45.2563,138.2344 Q42.7563,138.2344 41.4281,136.5938 Q40.1156,134.9375 40.1156,131.8125 Q40.1156,128.6875 41.4281,127.0313 Q42.7563,125.375 45.2563,125.375 Q45.9594,125.375 46.6,125.5313 Q47.2563,125.6875 47.8188,125.9844 L47.8188,128.7031 Q47.1938,128.125 46.6,127.8594 Q46.0063,127.5781 45.3813,127.5781 Q44.0375,127.5781 43.35,128.6563 Q42.6625,129.7188 42.6625,131.8125 Q42.6625,133.9063 43.35,134.9844 Q44.0375,136.0469 45.3813,136.0469 Q46.0063,136.0469 46.6,135.7813 Q47.1938,135.5 47.8188,134.9219 L47.8188,137.6406 Z "/><text fill="#000000" font-family="sans-serif" font-size="12" lengthAdjust="spacingAndGlyphs" textLength="87" x="64.15" y="136.1543">WorldRebaser</text><line style="stroke: #A80036; stroke-width: 1.5;" x1="7" x2="177" y1="148" y2="148"/><ellipse cx="17" cy="159" fill="none" rx="3" ry="3" style="stroke: #038048; stroke-width: 1.0;"/><text fill="#000000" font-family="sans-serif" font-size="11" lengthAdjust="spacingAndGlyphs" textLength="146" x="26" y="162.2104">bounds : float = 16384.0f</text><line style="stroke: #A80036; stroke-width: 1.5;" x1="7" x2="177" y1="168.8047" y2="168.8047"/><text fill="#000000" font-family="sans-serif" font-size="11" lengthAdjust="spacingAndGlyphs" textLength="83" x="12" y="183.0151">Update() : void</text><!--MD5=[83b3cf3d23d77c6f1e1b5291a241bc2a]
class MonoBehaviour--><rect fill="#FEFECE" filter="url(#f9dairnxjcris)" height="48" id="MonoBehaviour" style="stroke: #A80036; stroke-width: 1.5;" width="128" x="28" y="8"/><ellipse cx="43" cy="24" fill="#ADD1B2" rx="11" ry="11" style="stroke: #A80036; stroke-width: 1.0;"/><path d="M45.9688,29.6406 Q45.3906,29.9375 44.75,30.0781 Q44.1094,30.2344 43.4063,30.2344 Q40.9063,30.2344 39.5781,28.5938 Q38.2656,26.9375 38.2656,23.8125 Q38.2656,20.6875 39.5781,19.0313 Q40.9063,17.375 43.4063,17.375 Q44.1094,17.375 44.75,17.5313 Q45.4063,17.6875 45.9688,17.9844 L45.9688,20.7031 Q45.3438,20.125 44.75,19.8594 Q44.1563,19.5781 43.5313,19.5781 Q42.1875,19.5781 41.5,20.6563 Q40.8125,21.7188 40.8125,23.8125 Q40.8125,25.9063 41.5,26.9844 Q42.1875,28.0469 43.5313,28.0469 Q44.1563,28.0469 44.75,27.7813 Q45.3438,27.5 45.9688,26.9219 L45.9688,29.6406 Z "/><text fill="#000000" font-family="sans-serif" font-size="12" lengthAdjust="spacingAndGlyphs" textLength="96" x="57" y="28.1543">MonoBehaviour</text><line style="stroke: #A80036; stroke-width: 1.5;" x1="29" x2="155" y1="40" y2="40"/><line style="stroke: #A80036; stroke-width: 1.5;" x1="29" x2="155" y1="48" y2="48"/><!--MD5=[65d619c042c23702cef2ca07d67b1cf6]
class Vector3--><rect fill="#FEFECE" filter="url(#f9dairnxjcris)" height="48" id="Vector3" style="stroke: #A80036; stroke-width: 1.5;" width="81" x="213.5" y="129"/><ellipse cx="228.5" cy="145" fill="#ADD1B2" rx="11" ry="11" style="stroke: #A80036; stroke-width: 1.0;"/><path d="M231.4688,150.6406 Q230.8906,150.9375 230.25,151.0781 Q229.6094,151.2344 228.9063,151.2344 Q226.4063,151.2344 225.0781,149.5938 Q223.7656,147.9375 223.7656,144.8125 Q223.7656,141.6875 225.0781,140.0313 Q226.4063,138.375 228.9063,138.375 Q229.6094,138.375 230.25,138.5313 Q230.9063,138.6875 231.4688,138.9844 L231.4688,141.7031 Q230.8438,141.125 230.25,140.8594 Q229.6563,140.5781 229.0313,140.5781 Q227.6875,140.5781 227,141.6563 Q226.3125,142.7188 226.3125,144.8125 Q226.3125,146.9063 227,147.9844 Q227.6875,149.0469 229.0313,149.0469 Q229.6563,149.0469 230.25,148.7813 Q230.8438,148.5 231.4688,147.9219 L231.4688,150.6406 Z "/><text fill="#000000" font-family="sans-serif" font-size="12" lengthAdjust="spacingAndGlyphs" textLength="49" x="242.5" y="149.1543">Vector3</text><line style="stroke: #A80036; stroke-width: 1.5;" x1="214.5" x2="293.5" y1="161" y2="161"/><line style="stroke: #A80036; stroke-width: 1.5;" x1="214.5" x2="293.5" y1="169" y2="169"/><!--MD5=[080b5f04d3facef6b34131d2ceb8e15c]
reverse link MonoBehaviour to WorldRebaser--><path d="M92,76.43 C92,89.33 92,103.32 92,115.71 " fill="none" id="MonoBehaviour&lt;-WorldRebaser" style="stroke: #A80036; stroke-width: 1.0;"/><polygon fill="none" points="85,76.23,92,56.23,99,76.23,85,76.23" style="stroke: #A80036; stroke-width: 1.0;"/><!--MD5=[a21c44a6e7935c21b75170196742a6aa]
link WorldRebaser to Vector3--><path d="M190.06,153 C190.06,153 197.27,153 200.26,153 " fill="none" id="WorldRebaser-Vector3" style="stroke: #A80036; stroke-width: 1.0;"/><polygon fill="#A80036" points="213.36,153,204.36,149,208.36,153,204.36,157,213.36,153" style="stroke: #A80036; stroke-width: 1.0;"/><line style="stroke: #A80036; stroke-width: 1.0;" x1="208.36" x2="200.36" y1="153" y2="153"/><polygon fill="#FFFFFF" points="178.06,153,184.06,157,190.06,153,184.06,149,178.06,153" style="stroke: #A80036; stroke-width: 1.0;"/><text fill="#000000" font-family="sans-serif" font-size="13" lengthAdjust="spacingAndGlyphs" textLength="121" x="298.758" y="118.1024">accumulatedOffset</text><!--MD5=[d2ac518f345b54bf6cd3047b54eab5e3]
@startuml
class WorldRebaser {
    + bounds : float = 16384.0f
    Update() : void
}
MonoBehaviour <|- - WorldRebaser
WorldRebaser o-> "accumulatedOffset" Vector3
@enduml

PlantUML version 1.2020.02(Sun Mar 01 10:22:07 GMT 2020)
(GPL source distribution)
Java Runtime: OpenJDK Runtime Environment
JVM: OpenJDK 64-Bit Server VM
Java Version: 11.0.9+11-Ubuntu-0ubuntu1
Operating System: Linux
Default Encoding: ANSI_X3.4-1968
Language: en
Country: US
--></g></svg>