<?xml version="1.0" encoding="UTF-8" standalone="no"?><svg xmlns="http://www.w3.org/2000/svg" xmlns:xlink="http://www.w3.org/1999/xlink" contentScriptType="application/ecmascript" contentStyleType="text/css" height="565px" preserveAspectRatio="none" style="width:384px;height:565px;" version="1.1" viewBox="0 0 384 565" width="384px" zoomAndPan="magnify"><defs><filter height="300%" id="fvdxpkj80yquf" width="300%" x="-1" y="-1"><feGaussianBlur result="blurOut" stdDeviation="2.0"/><feColorMatrix in="blurOut" result="blurOut2" type="matrix" values="0 0 0 0 0 0 0 0 0 0 0 0 0 0 0 0 0 0 .4 0"/><feOffset dx="4.0" dy="4.0" in="blurOut2" result="blurOut3"/><feBlend in="SourceGraphic" in2="blurOut3" mode="normal"/></filter></defs><g><!--MD5=[7475fc3eb7bfef37dd05d9c532adbd62]
class CameraControllerTool--><rect fill="#FEFECE" filter="url(#fvdxpkj80yquf)" height="329.7031" id="CameraControllerTool" style="stroke: #A80036; stroke-width: 1.5;" width="367" x="6" y="116"/><ellipse cx="117.75" cy="132" fill="#ADD1B2" rx="11" ry="11" style="stroke: #A80036; stroke-width: 1.0;"/><path d="M120.7188,137.6406 Q120.1406,137.9375 119.5,138.0781 Q118.8594,138.2344 118.1563,138.2344 Q115.6563,138.2344 114.3281,136.5938 Q113.0156,134.9375 113.0156,131.8125 Q113.0156,128.6875 114.3281,127.0313 Q115.6563,125.375 118.1563,125.375 Q118.8594,125.375 119.5,125.5313 Q120.1563,125.6875 120.7188,125.9844 L120.7188,128.7031 Q120.0938,128.125 119.5,127.8594 Q118.9063,127.5781 118.2813,127.5781 Q116.9375,127.5781 116.25,128.6563 Q115.5625,129.7188 115.5625,131.8125 Q115.5625,133.9063 116.25,134.9844 Q116.9375,136.0469 118.2813,136.0469 Q118.9063,136.0469 119.5,135.7813 Q120.0938,135.5 120.7188,134.9219 L120.7188,137.6406 Z "/><text fill="#000000" font-family="sans-serif" font-size="12" lengthAdjust="spacingAndGlyphs" textLength="135" x="138.25" y="136.1543">CameraControllerTool</text><line style="stroke: #A80036; stroke-width: 1.5;" x1="7" x2="372" y1="148" y2="148"/><text fill="#000000" font-family="sans-serif" font-size="11" lengthAdjust="spacingAndGlyphs" textLength="100" x="12" y="162.2104">isPlayVideo : bool</text><text fill="#000000" font-family="sans-serif" font-size="11" lengthAdjust="spacingAndGlyphs" textLength="56" x="12" y="175.0151">width : int</text><text fill="#000000" font-family="sans-serif" font-size="11" lengthAdjust="spacingAndGlyphs" textLength="61" x="12" y="187.8198">height : int</text><line style="stroke: #A80036; stroke-width: 1.5;" x1="7" x2="372" y1="194.4141" y2="194.4141"/><ellipse cx="17" cy="205.4141" fill="#84BE84" rx="3" ry="3" style="stroke: #038048; stroke-width: 1.0;"/><text fill="#000000" font-family="sans-serif" font-size="11" lengthAdjust="spacingAndGlyphs" textLength="234" x="26" y="208.6245">«override» ToolCoroutine() : IEnumerator</text><ellipse cx="17" cy="218.2188" fill="#84BE84" rx="3" ry="3" style="stroke: #038048; stroke-width: 1.0;"/><text fill="#000000" font-family="sans-serif" font-size="11" lengthAdjust="spacingAndGlyphs" textLength="118" x="26" y="221.4292">CancelButton() : void</text><ellipse cx="17" cy="231.0234" fill="#84BE84" rx="3" ry="3" style="stroke: #038048; stroke-width: 1.0;"/><text fill="#000000" font-family="sans-serif" font-size="11" lengthAdjust="spacingAndGlyphs" textLength="168" x="26" y="234.2339">CancelButtonStopTool() : void</text><ellipse cx="17" cy="243.8281" fill="#84BE84" rx="3" ry="3" style="stroke: #038048; stroke-width: 1.0;"/><text fill="#000000" font-family="sans-serif" font-size="11" lengthAdjust="spacingAndGlyphs" textLength="176" x="26" y="247.0386">CancelButtonPhotoView() : void</text><ellipse cx="17" cy="256.6328" fill="#84BE84" rx="3" ry="3" style="stroke: #038048; stroke-width: 1.0;"/><text fill="#000000" font-family="sans-serif" font-size="11" lengthAdjust="spacingAndGlyphs" textLength="126" x="26" y="259.8433">ViewNextPhoto() : void</text><ellipse cx="17" cy="269.4375" fill="#84BE84" rx="3" ry="3" style="stroke: #038048; stroke-width: 1.0;"/><text fill="#000000" font-family="sans-serif" font-size="11" lengthAdjust="spacingAndGlyphs" textLength="150" x="26" y="272.6479">ViewPreviousPhoto() : void</text><ellipse cx="17" cy="282.2422" fill="#84BE84" rx="3" ry="3" style="stroke: #038048; stroke-width: 1.0;"/><text fill="#000000" font-family="sans-serif" font-size="11" lengthAdjust="spacingAndGlyphs" textLength="128" x="26" y="285.4526">ScreenCapture() : void</text><ellipse cx="17" cy="295.0469" fill="#84BE84" rx="3" ry="3" style="stroke: #038048; stroke-width: 1.0;"/><text fill="#000000" font-family="sans-serif" font-size="11" lengthAdjust="spacingAndGlyphs" textLength="102" x="26" y="298.2573">TakePhoto() : void</text><ellipse cx="17" cy="307.8516" fill="#84BE84" rx="3" ry="3" style="stroke: #038048; stroke-width: 1.0;"/><text fill="#000000" font-family="sans-serif" font-size="11" lengthAdjust="spacingAndGlyphs" textLength="170" x="26" y="311.062">TakePhotoForWaypoint() : void</text><text fill="#000000" font-family="sans-serif" font-size="11" lengthAdjust="spacingAndGlyphs" textLength="254" x="26" y="323.8667">makeScreenshotForWaypoint() : IEnumerator</text><text fill="#000000" font-family="sans-serif" font-size="11" lengthAdjust="spacingAndGlyphs" textLength="186" x="26" y="336.6714">makeScreenshot() : IEnumerator</text><text fill="#000000" font-family="sans-serif" font-size="11" lengthAdjust="spacingAndGlyphs" textLength="341" x="26" y="349.4761">ShowNotification(message:string, delay:float) : IEnumerator</text><ellipse cx="17" cy="359.0703" fill="#84BE84" rx="3" ry="3" style="stroke: #038048; stroke-width: 1.0;"/><text fill="#000000" font-family="sans-serif" font-size="11" lengthAdjust="spacingAndGlyphs" textLength="162" x="26" y="362.2808">SavePhotoNoteToFile() : void</text><ellipse cx="17" cy="371.875" fill="#84BE84" rx="3" ry="3" style="stroke: #038048; stroke-width: 1.0;"/><text fill="#000000" font-family="sans-serif" font-size="11" lengthAdjust="spacingAndGlyphs" textLength="219" x="26" y="375.0854">ViewPhoto(lastPhoto:PhotoEntry) : void</text><ellipse cx="17" cy="384.6797" fill="#84BE84" rx="3" ry="3" style="stroke: #038048; stroke-width: 1.0;"/><text fill="#000000" font-family="sans-serif" font-size="11" lengthAdjust="spacingAndGlyphs" textLength="125" x="26" y="387.8901">ActivateViewer() : void</text><ellipse cx="17" cy="397.4844" fill="#84BE84" rx="3" ry="3" style="stroke: #038048; stroke-width: 1.0;"/><text fill="#000000" font-family="sans-serif" font-size="11" lengthAdjust="spacingAndGlyphs" textLength="125" x="26" y="400.6948">UpdateCSVFile() : void</text><ellipse cx="17" cy="410.2891" fill="#84BE84" rx="3" ry="3" style="stroke: #038048; stroke-width: 1.0;"/><text fill="#000000" font-family="sans-serif" font-size="11" lengthAdjust="spacingAndGlyphs" textLength="146" x="26" y="413.4995">DeleteSinglePhoto() : void</text><ellipse cx="17" cy="423.0938" fill="#84BE84" rx="3" ry="3" style="stroke: #038048; stroke-width: 1.0;"/><text fill="#000000" font-family="sans-serif" font-size="11" lengthAdjust="spacingAndGlyphs" textLength="86" x="26" y="426.3042">ClearAll() : void</text><ellipse cx="17" cy="435.8984" fill="#84BE84" rx="3" ry="3" style="stroke: #038048; stroke-width: 1.0;"/><text fill="#000000" font-family="sans-serif" font-size="11" lengthAdjust="spacingAndGlyphs" textLength="325" x="26" y="439.1089">LoadPNG(filePath:string, width:int, height:int) : Texture2D</text><!--MD5=[5910e465cccb2cec379e83a41f7f6503]
class Tool--><rect fill="#FEFECE" filter="url(#fvdxpkj80yquf)" height="48" id="Tool" style="stroke: #A80036; stroke-width: 1.5;" width="58" x="160.5" y="8"/><ellipse cx="175.5" cy="24" fill="#ADD1B2" rx="11" ry="11" style="stroke: #A80036; stroke-width: 1.0;"/><path d="M178.4688,29.6406 Q177.8906,29.9375 177.25,30.0781 Q176.6094,30.2344 175.9063,30.2344 Q173.4063,30.2344 172.0781,28.5938 Q170.7656,26.9375 170.7656,23.8125 Q170.7656,20.6875 172.0781,19.0313 Q173.4063,17.375 175.9063,17.375 Q176.6094,17.375 177.25,17.5313 Q177.9063,17.6875 178.4688,17.9844 L178.4688,20.7031 Q177.8438,20.125 177.25,19.8594 Q176.6563,19.5781 176.0313,19.5781 Q174.6875,19.5781 174,20.6563 Q173.3125,21.7188 173.3125,23.8125 Q173.3125,25.9063 174,26.9844 Q174.6875,28.0469 176.0313,28.0469 Q176.6563,28.0469 177.25,27.7813 Q177.8438,27.5 178.4688,26.9219 L178.4688,29.6406 Z "/><text fill="#000000" font-family="sans-serif" font-size="12" lengthAdjust="spacingAndGlyphs" textLength="26" x="189.5" y="28.1543">Tool</text><line style="stroke: #A80036; stroke-width: 1.5;" x1="161.5" x2="217.5" y1="40" y2="40"/><line style="stroke: #A80036; stroke-width: 1.5;" x1="161.5" x2="217.5" y1="48" y2="48"/><!--MD5=[65d619c042c23702cef2ca07d67b1cf6]
class Vector3--><rect fill="#FEFECE" filter="url(#fvdxpkj80yquf)" height="48" id="Vector3" style="stroke: #A80036; stroke-width: 1.5;" width="81" x="149" y="506"/><ellipse cx="164" cy="522" fill="#ADD1B2" rx="11" ry="11" style="stroke: #A80036; stroke-width: 1.0;"/><path d="M166.9688,527.6406 Q166.3906,527.9375 165.75,528.0781 Q165.1094,528.2344 164.4063,528.2344 Q161.9063,528.2344 160.5781,526.5938 Q159.2656,524.9375 159.2656,521.8125 Q159.2656,518.6875 160.5781,517.0313 Q161.9063,515.375 164.4063,515.375 Q165.1094,515.375 165.75,515.5313 Q166.4063,515.6875 166.9688,515.9844 L166.9688,518.7031 Q166.3438,518.125 165.75,517.8594 Q165.1563,517.5781 164.5313,517.5781 Q163.1875,517.5781 162.5,518.6563 Q161.8125,519.7188 161.8125,521.8125 Q161.8125,523.9063 162.5,524.9844 Q163.1875,526.0469 164.5313,526.0469 Q165.1563,526.0469 165.75,525.7813 Q166.3438,525.5 166.9688,524.9219 L166.9688,527.6406 Z "/><text fill="#000000" font-family="sans-serif" font-size="12" lengthAdjust="spacingAndGlyphs" textLength="49" x="178" y="526.1543">Vector3</text><line style="stroke: #A80036; stroke-width: 1.5;" x1="150" x2="229" y1="538" y2="538"/><line style="stroke: #A80036; stroke-width: 1.5;" x1="150" x2="229" y1="546" y2="546"/><!--MD5=[8b3c1e59247cebbe8d097c469f6fb59f]
reverse link Tool to CameraControllerTool--><path d="M189.5,76.44 C189.5,88.15 189.5,101.54 189.5,115.74 " fill="none" id="Tool&lt;-CameraControllerTool" style="stroke: #A80036; stroke-width: 1.0;"/><polygon fill="none" points="182.5,76.24,189.5,56.24,196.5,76.24,182.5,76.24" style="stroke: #A80036; stroke-width: 1.0;"/><!--MD5=[123351850a878490f8557bbf3957dd27]
link CameraControllerTool to Vector3--><path d="M177.38,446.07 C178.05,466.86 179.26,485.92 180.99,500.52 " fill="none" id="CameraControllerTool-&gt;Vector3" style="stroke: #A80036; stroke-width: 1.0;"/><polygon fill="#A80036" points="181.66,505.69,184.4961,496.2583,181.031,500.7297,176.5596,497.2647,181.66,505.69" style="stroke: #A80036; stroke-width: 1.0;"/><text fill="#000000" font-family="sans-serif" font-size="13" lengthAdjust="spacingAndGlyphs" textLength="76" x="94.4865" y="495.0194">oldpositionL</text><!--MD5=[123351850a878490f8557bbf3957dd27]
link CameraControllerTool to Vector3--><path d="M202.33,446.07 C201.62,466.86 200.35,485.92 198.51,500.52 " fill="none" id="CameraControllerTool-&gt;Vector3-1" style="stroke: #A80036; stroke-width: 1.0;"/><polygon fill="#A80036" points="197.8,505.69,202.9718,497.3083,198.4711,500.7352,195.0442,496.2346,197.8,505.69" style="stroke: #A80036; stroke-width: 1.0;"/><text fill="#000000" font-family="sans-serif" font-size="13" lengthAdjust="spacingAndGlyphs" textLength="77" x="209.2075" y="495.0194">oldpositionR</text><!--MD5=[610c6b69a0c019c86a9a3b53d3a2f07a]
@startuml
class CameraControllerTool {
    isPlayVideo : bool
    width : int
    height : int
    + <<override>> ToolCoroutine() : IEnumerator
    + CancelButton() : void
    + CancelButtonStopTool() : void
    + CancelButtonPhotoView() : void
    + ViewNextPhoto() : void
    + ViewPreviousPhoto() : void
    + ScreenCapture() : void
    + TakePhoto() : void
    + TakePhotoForWaypoint() : void
    makeScreenshotForWaypoint() : IEnumerator
    makeScreenshot() : IEnumerator
    ShowNotification(message:string, delay:float) : IEnumerator
    + SavePhotoNoteToFile() : void
    + ViewPhoto(lastPhoto:PhotoEntry) : void
    + ActivateViewer() : void
    + UpdateCSVFile() : void
    + DeleteSinglePhoto() : void
    + ClearAll() : void
    + LoadPNG(filePath:string, width:int, height:int) : Texture2D
}
Tool <|- - CameraControllerTool
CameraControllerTool - -> "oldpositionL" Vector3
CameraControllerTool - -> "oldpositionR" Vector3
@enduml

PlantUML version 1.2020.02(Sun Mar 01 10:22:07 GMT 2020)
(GPL source distribution)
Java Runtime: OpenJDK Runtime Environment
JVM: OpenJDK 64-Bit Server VM
Java Version: 11.0.9+11-Ubuntu-0ubuntu1
Operating System: Linux
Default Encoding: ANSI_X3.4-1968
Language: en
Country: US
--></g></svg>