<?xml version="1.0" encoding="UTF-8" standalone="no"?><svg xmlns="http://www.w3.org/2000/svg" xmlns:xlink="http://www.w3.org/1999/xlink" contentScriptType="application/ecmascript" contentStyleType="text/css" height="315px" preserveAspectRatio="none" style="width:694px;height:315px;" version="1.1" viewBox="0 0 694 315" width="694px" zoomAndPan="magnify"><defs><filter height="300%" id="f1vh1l55wxt0se" width="300%" x="-1" y="-1"><feGaussianBlur result="blurOut" stdDeviation="2.0"/><feColorMatrix in="blurOut" result="blurOut2" type="matrix" values="0 0 0 0 0 0 0 0 0 0 0 0 0 0 0 0 0 0 .4 0"/><feOffset dx="4.0" dy="4.0" in="blurOut2" result="blurOut3"/><feBlend in="SourceGraphic" in2="blurOut3" mode="normal"/></filter></defs><g><!--MD5=[d1c4d65e67b4be036fff3cca165b018e]
class FieldNotes--><rect fill="#FEFECE" filter="url(#f1vh1l55wxt0se)" height="188.8516" id="FieldNotes" style="stroke: #A80036; stroke-width: 1.5;" width="301" x="6" y="116"/><ellipse cx="119.25" cy="132" fill="#ADD1B2" rx="11" ry="11" style="stroke: #A80036; stroke-width: 1.0;"/><path d="M122.2188,137.6406 Q121.6406,137.9375 121,138.0781 Q120.3594,138.2344 119.6563,138.2344 Q117.1563,138.2344 115.8281,136.5938 Q114.5156,134.9375 114.5156,131.8125 Q114.5156,128.6875 115.8281,127.0313 Q117.1563,125.375 119.6563,125.375 Q120.3594,125.375 121,125.5313 Q121.6563,125.6875 122.2188,125.9844 L122.2188,128.7031 Q121.5938,128.125 121,127.8594 Q120.4063,127.5781 119.7813,127.5781 Q118.4375,127.5781 117.75,128.6563 Q117.0625,129.7188 117.0625,131.8125 Q117.0625,133.9063 117.75,134.9844 Q118.4375,136.0469 119.7813,136.0469 Q120.4063,136.0469 121,135.7813 Q121.5938,135.5 122.2188,134.9219 L122.2188,137.6406 Z "/><text fill="#000000" font-family="sans-serif" font-size="12" lengthAdjust="spacingAndGlyphs" textLength="66" x="139.75" y="136.1543">FieldNotes</text><line style="stroke: #A80036; stroke-width: 1.5;" x1="7" x2="306" y1="148" y2="148"/><ellipse cx="17" cy="159" fill="none" rx="3" ry="3" style="stroke: #038048; stroke-width: 1.0;"/><text fill="#000000" font-family="sans-serif" font-size="11" lengthAdjust="spacingAndGlyphs" textLength="152" x="26" y="162.2104">outputString : string = null</text><line style="stroke: #A80036; stroke-width: 1.5;" x1="7" x2="306" y1="168.8047" y2="168.8047"/><ellipse cx="17" cy="179.8047" fill="#84BE84" rx="3" ry="3" style="stroke: #038048; stroke-width: 1.0;"/><text fill="#000000" font-family="sans-serif" font-size="11" lengthAdjust="spacingAndGlyphs" textLength="245" x="26" y="183.0151">setOutputField(outputField:InputField) : void</text><ellipse cx="17" cy="192.6094" fill="#84BE84" rx="3" ry="3" style="stroke: #038048; stroke-width: 1.0;"/><text fill="#000000" font-family="sans-serif" font-size="11" lengthAdjust="spacingAndGlyphs" textLength="240" x="26" y="195.8198">setOutputString(outputString:string) : void</text><ellipse cx="17" cy="205.4141" fill="#84BE84" rx="3" ry="3" style="stroke: #038048; stroke-width: 1.0;"/><text fill="#000000" font-family="sans-serif" font-size="11" lengthAdjust="spacingAndGlyphs" textLength="275" x="26" y="208.6245">setMenuToHide(menuToHide:GameObject) : void</text><ellipse cx="17" cy="218.2188" fill="#84BE84" rx="3" ry="3" style="stroke: #038048; stroke-width: 1.0;"/><text fill="#000000" font-family="sans-serif" font-size="11" lengthAdjust="spacingAndGlyphs" textLength="155" x="26" y="221.4292">«new» OnDirectUse() : void</text><ellipse cx="17" cy="231.0234" fill="#84BE84" rx="3" ry="3" style="stroke: #038048; stroke-width: 1.0;"/><text fill="#000000" font-family="sans-serif" font-size="11" lengthAdjust="spacingAndGlyphs" textLength="122" x="26" y="234.2339">«new» OnUse() : void</text><ellipse cx="17" cy="243.8281" fill="#84BE84" rx="3" ry="3" style="stroke: #038048; stroke-width: 1.0;"/><text fill="#000000" font-family="sans-serif" font-size="11" lengthAdjust="spacingAndGlyphs" textLength="91" x="26" y="247.0386">OnClose() : void</text><ellipse cx="17" cy="256.6328" fill="#84BE84" rx="3" ry="3" style="stroke: #038048; stroke-width: 1.0;"/><text fill="#000000" font-family="sans-serif" font-size="11" lengthAdjust="spacingAndGlyphs" textLength="232" x="26" y="259.8433">OnUpdateString(_newNotes:string) : void</text><ellipse cx="17" cy="269.4375" fill="#84BE84" rx="3" ry="3" style="stroke: #038048; stroke-width: 1.0;"/><text fill="#000000" font-family="sans-serif" font-size="11" lengthAdjust="spacingAndGlyphs" textLength="147" x="26" y="272.6479">sendTextToOutput() : void</text><ellipse cx="17" cy="282.2422" fill="#84BE84" rx="3" ry="3" style="stroke: #038048; stroke-width: 1.0;"/><text fill="#000000" font-family="sans-serif" font-size="11" lengthAdjust="spacingAndGlyphs" textLength="139" x="26" y="285.4526">SaveNotesToTXT() : void</text><ellipse cx="17" cy="295.0469" fill="#84BE84" rx="3" ry="3" style="stroke: #038048; stroke-width: 1.0;"/><text fill="#000000" font-family="sans-serif" font-size="11" lengthAdjust="spacingAndGlyphs" textLength="175" x="26" y="298.2573">MenuCoroutine() : IEnumerator</text><!--MD5=[5910e465cccb2cec379e83a41f7f6503]
class Tool--><rect fill="#FEFECE" filter="url(#f1vh1l55wxt0se)" height="48" id="Tool" style="stroke: #A80036; stroke-width: 1.5;" width="58" x="127.5" y="8"/><ellipse cx="142.5" cy="24" fill="#ADD1B2" rx="11" ry="11" style="stroke: #A80036; stroke-width: 1.0;"/><path d="M145.4688,29.6406 Q144.8906,29.9375 144.25,30.0781 Q143.6094,30.2344 142.9063,30.2344 Q140.4063,30.2344 139.0781,28.5938 Q137.7656,26.9375 137.7656,23.8125 Q137.7656,20.6875 139.0781,19.0313 Q140.4063,17.375 142.9063,17.375 Q143.6094,17.375 144.25,17.5313 Q144.9063,17.6875 145.4688,17.9844 L145.4688,20.7031 Q144.8438,20.125 144.25,19.8594 Q143.6563,19.5781 143.0313,19.5781 Q141.6875,19.5781 141,20.6563 Q140.3125,21.7188 140.3125,23.8125 Q140.3125,25.9063 141,26.9844 Q141.6875,28.0469 143.0313,28.0469 Q143.6563,28.0469 144.25,27.7813 Q144.8438,27.5 145.4688,26.9219 L145.4688,29.6406 Z "/><text fill="#000000" font-family="sans-serif" font-size="12" lengthAdjust="spacingAndGlyphs" textLength="26" x="156.5" y="28.1543">Tool</text><line style="stroke: #A80036; stroke-width: 1.5;" x1="128.5" x2="184.5" y1="40" y2="40"/><line style="stroke: #A80036; stroke-width: 1.5;" x1="128.5" x2="184.5" y1="48" y2="48"/><!--MD5=[9df70cf33be424c1b8543b3f439cae89]
class String--><rect fill="#FEFECE" filter="url(#f1vh1l55wxt0se)" height="48" id="String" style="stroke: #A80036; stroke-width: 1.5;" width="69" x="614" y="186.5"/><ellipse cx="629" cy="202.5" fill="#ADD1B2" rx="11" ry="11" style="stroke: #A80036; stroke-width: 1.0;"/><path d="M631.9688,208.1406 Q631.3906,208.4375 630.75,208.5781 Q630.1094,208.7344 629.4063,208.7344 Q626.9063,208.7344 625.5781,207.0938 Q624.2656,205.4375 624.2656,202.3125 Q624.2656,199.1875 625.5781,197.5313 Q626.9063,195.875 629.4063,195.875 Q630.1094,195.875 630.75,196.0313 Q631.4063,196.1875 631.9688,196.4844 L631.9688,199.2031 Q631.3438,198.625 630.75,198.3594 Q630.1563,198.0781 629.5313,198.0781 Q628.1875,198.0781 627.5,199.1563 Q626.8125,200.2188 626.8125,202.3125 Q626.8125,204.4063 627.5,205.4844 Q628.1875,206.5469 629.5313,206.5469 Q630.1563,206.5469 630.75,206.2813 Q631.3438,206 631.9688,205.4219 L631.9688,208.1406 Z "/><text fill="#000000" font-family="sans-serif" font-size="12" lengthAdjust="spacingAndGlyphs" textLength="37" x="643" y="206.6543">String</text><line style="stroke: #A80036; stroke-width: 1.5;" x1="615" x2="682" y1="218.5" y2="218.5"/><line style="stroke: #A80036; stroke-width: 1.5;" x1="615" x2="682" y1="226.5" y2="226.5"/><!--MD5=[db453f91a253a2358c4d376fa3bf4942]
class InputField--><rect fill="#FEFECE" filter="url(#f1vh1l55wxt0se)" height="48" id="InputField" style="stroke: #A80036; stroke-width: 1.5;" width="93" x="486" y="186.5"/><ellipse cx="501" cy="202.5" fill="#ADD1B2" rx="11" ry="11" style="stroke: #A80036; stroke-width: 1.0;"/><path d="M503.9688,208.1406 Q503.3906,208.4375 502.75,208.5781 Q502.1094,208.7344 501.4063,208.7344 Q498.9063,208.7344 497.5781,207.0938 Q496.2656,205.4375 496.2656,202.3125 Q496.2656,199.1875 497.5781,197.5313 Q498.9063,195.875 501.4063,195.875 Q502.1094,195.875 502.75,196.0313 Q503.4063,196.1875 503.9688,196.4844 L503.9688,199.2031 Q503.3438,198.625 502.75,198.3594 Q502.1563,198.0781 501.5313,198.0781 Q500.1875,198.0781 499.5,199.1563 Q498.8125,200.2188 498.8125,202.3125 Q498.8125,204.4063 499.5,205.4844 Q500.1875,206.5469 501.5313,206.5469 Q502.1563,206.5469 502.75,206.2813 Q503.3438,206 503.9688,205.4219 L503.9688,208.1406 Z "/><text fill="#000000" font-family="sans-serif" font-size="12" lengthAdjust="spacingAndGlyphs" textLength="61" x="515" y="206.6543">InputField</text><line style="stroke: #A80036; stroke-width: 1.5;" x1="487" x2="578" y1="218.5" y2="218.5"/><line style="stroke: #A80036; stroke-width: 1.5;" x1="487" x2="578" y1="226.5" y2="226.5"/><!--MD5=[064f7a74fee85463ec1a30143664ee17]
class GameObject--><rect fill="#FEFECE" filter="url(#f1vh1l55wxt0se)" height="48" id="GameObject" style="stroke: #A80036; stroke-width: 1.5;" width="108" x="342.5" y="186.5"/><ellipse cx="357.5" cy="202.5" fill="#ADD1B2" rx="11" ry="11" style="stroke: #A80036; stroke-width: 1.0;"/><path d="M360.4688,208.1406 Q359.8906,208.4375 359.25,208.5781 Q358.6094,208.7344 357.9063,208.7344 Q355.4063,208.7344 354.0781,207.0938 Q352.7656,205.4375 352.7656,202.3125 Q352.7656,199.1875 354.0781,197.5313 Q355.4063,195.875 357.9063,195.875 Q358.6094,195.875 359.25,196.0313 Q359.9063,196.1875 360.4688,196.4844 L360.4688,199.2031 Q359.8438,198.625 359.25,198.3594 Q358.6563,198.0781 358.0313,198.0781 Q356.6875,198.0781 356,199.1563 Q355.3125,200.2188 355.3125,202.3125 Q355.3125,204.4063 356,205.4844 Q356.6875,206.5469 358.0313,206.5469 Q358.6563,206.5469 359.25,206.2813 Q359.8438,206 360.4688,205.4219 L360.4688,208.1406 Z "/><text fill="#000000" font-family="sans-serif" font-size="12" lengthAdjust="spacingAndGlyphs" textLength="76" x="371.5" y="206.6543">GameObject</text><line style="stroke: #A80036; stroke-width: 1.5;" x1="343.5" x2="449.5" y1="218.5" y2="218.5"/><line style="stroke: #A80036; stroke-width: 1.5;" x1="343.5" x2="449.5" y1="226.5" y2="226.5"/><!--MD5=[fd766ad44a6b2ac92a9ff529806fac5a]
reverse link Tool to FieldNotes--><path d="M156.5,76.38 C156.5,88.4 156.5,101.93 156.5,115.65 " fill="none" id="Tool&lt;-FieldNotes" style="stroke: #A80036; stroke-width: 1.0;"/><polygon fill="none" points="149.5,76.07,156.5,56.07,163.5,76.07,149.5,76.07" style="stroke: #A80036; stroke-width: 1.0;"/><!--MD5=[b8f8e42b6f8f484cfe139cd7e908859d]
link FieldNotes to String--><path d="M286.928,110.1131 C286.928,110.1131 324.28,91.67 343,86 C393.19,70.79 533.52,59.88 579,86 C611.2,104.5 629.53,144.07 639.19,173.67 " fill="none" id="FieldNotes-String" style="stroke: #A80036; stroke-width: 1.0;"/><polygon fill="#A80036" points="643.03,186.45,644.268,176.6793,641.5897,181.6619,636.6071,178.9837,643.03,186.45" style="stroke: #A80036; stroke-width: 1.0;"/><line style="stroke: #A80036; stroke-width: 1.0;" x1="641.5897" x2="639.285" y1="181.6619" y2="174"/><polygon fill="#FFFFFF" points="276.46,115.98,283.6496,116.5359,286.928,110.1131,279.7384,109.5572,276.46,115.98" style="stroke: #A80036; stroke-width: 1.0;"/><text fill="#000000" font-family="sans-serif" font-size="13" lengthAdjust="spacingAndGlyphs" textLength="38" x="598.7596" y="175.4492">Notes</text><!--MD5=[4ff35bc8f6c4b3b23158beae0cb00ecb]
link FieldNotes to InputField--><path d="M286.928,110.1131 C286.928,110.1131 324.28,91.67 343,86 C388.94,72.08 408.77,63.17 451,86 C485.25,104.51 507.42,144.37 519.86,174.03 " fill="none" id="FieldNotes-InputField" style="stroke: #A80036; stroke-width: 1.0;"/><polygon fill="#A80036" points="524.75,186.43,525.1555,176.5895,522.9092,181.7812,517.7175,179.5348,524.75,186.43" style="stroke: #A80036; stroke-width: 1.0;"/><line style="stroke: #A80036; stroke-width: 1.0;" x1="522.9092" x2="519.98" y1="181.7812" y2="174.335"/><polygon fill="#FFFFFF" points="276.46,115.98,283.6496,116.5359,286.928,110.1131,279.7384,109.5572,276.46,115.98" style="stroke: #A80036; stroke-width: 1.0;"/><text fill="#000000" font-family="sans-serif" font-size="13" lengthAdjust="spacingAndGlyphs" textLength="71" x="442.6672" y="175.4241">outputField</text><!--MD5=[5030ba8c2bdb60c818afa18893c1d0f6]
link FieldNotes to GameObject--><path d="M319.44,210.5 C319.44,210.5 326.15,210.5 328.98,210.5 " fill="none" id="FieldNotes-GameObject" style="stroke: #A80036; stroke-width: 1.0;"/><polygon fill="#A80036" points="342.23,210.5,333.23,206.5,337.23,210.5,333.23,214.5,342.23,210.5" style="stroke: #A80036; stroke-width: 1.0;"/><line style="stroke: #A80036; stroke-width: 1.0;" x1="337.23" x2="329.23" y1="210.5" y2="210.5"/><polygon fill="#FFFFFF" points="307.44,210.5,313.44,214.5,319.44,210.5,313.44,206.5,307.44,210.5" style="stroke: #A80036; stroke-width: 1.0;"/><text fill="#000000" font-family="sans-serif" font-size="13" lengthAdjust="spacingAndGlyphs" textLength="81" x="254.0159" y="238.0848">menuToHide</text><!--MD5=[cf1897d8d24b171377392b4849b392b7]
@startuml
class FieldNotes {
    + outputString : string = null
    + setOutputField(outputField:InputField) : void
    + setOutputString(outputString:string) : void
    + setMenuToHide(menuToHide:GameObject) : void
    + <<new>> OnDirectUse() : void
    + <<new>> OnUse() : void
    + OnClose() : void
    + OnUpdateString(_newNotes:string) : void
    + sendTextToOutput() : void
    + SaveNotesToTXT() : void
    + MenuCoroutine() : IEnumerator
}
Tool <|- - FieldNotes
FieldNotes o-> "Notes" String
FieldNotes o-> "outputField" InputField
FieldNotes o-> "menuToHide" GameObject
@enduml

PlantUML version 1.2020.02(Sun Mar 01 10:22:07 GMT 2020)
(GPL source distribution)
Java Runtime: OpenJDK Runtime Environment
JVM: OpenJDK 64-Bit Server VM
Java Version: 11.0.9+11-Ubuntu-0ubuntu1
Operating System: Linux
Default Encoding: ANSI_X3.4-1968
Language: en
Country: US
--></g></svg>