<?xml version="1.0" encoding="UTF-8" standalone="no"?><svg xmlns="http://www.w3.org/2000/svg" xmlns:xlink="http://www.w3.org/1999/xlink" contentScriptType="application/ecmascript" contentStyleType="text/css" height="213px" preserveAspectRatio="none" style="width:384px;height:213px;" version="1.1" viewBox="0 0 384 213" width="384px" zoomAndPan="magnify"><defs><filter height="300%" id="fdez1hkkfpjhw" width="300%" x="-1" y="-1"><feGaussianBlur result="blurOut" stdDeviation="2.0"/><feColorMatrix in="blurOut" result="blurOut2" type="matrix" values="0 0 0 0 0 0 0 0 0 0 0 0 0 0 0 0 0 0 .4 0"/><feOffset dx="4.0" dy="4.0" in="blurOut2" result="blurOut3"/><feBlend in="SourceGraphic" in2="blurOut3" mode="normal"/></filter></defs><g><!--MD5=[2446fcb39202bef68c6faadb6789d8f0]
class GPSInfoTool--><rect fill="#FEFECE" filter="url(#fdez1hkkfpjhw)" height="86.4141" id="GPSInfoTool" style="stroke: #A80036; stroke-width: 1.5;" width="367" x="6" y="116"/><ellipse cx="148.25" cy="132" fill="#ADD1B2" rx="11" ry="11" style="stroke: #A80036; stroke-width: 1.0;"/><path d="M151.2188,137.6406 Q150.6406,137.9375 150,138.0781 Q149.3594,138.2344 148.6563,138.2344 Q146.1563,138.2344 144.8281,136.5938 Q143.5156,134.9375 143.5156,131.8125 Q143.5156,128.6875 144.8281,127.0313 Q146.1563,125.375 148.6563,125.375 Q149.3594,125.375 150,125.5313 Q150.6563,125.6875 151.2188,125.9844 L151.2188,128.7031 Q150.5938,128.125 150,127.8594 Q149.4063,127.5781 148.7813,127.5781 Q147.4375,127.5781 146.75,128.6563 Q146.0625,129.7188 146.0625,131.8125 Q146.0625,133.9063 146.75,134.9844 Q147.4375,136.0469 148.7813,136.0469 Q149.4063,136.0469 150,135.7813 Q150.5938,135.5 151.2188,134.9219 L151.2188,137.6406 Z "/><text fill="#000000" font-family="sans-serif" font-size="12" lengthAdjust="spacingAndGlyphs" textLength="74" x="168.75" y="136.1543">GPSInfoTool</text><line style="stroke: #A80036; stroke-width: 1.5;" x1="7" x2="372" y1="148" y2="148"/><line style="stroke: #A80036; stroke-width: 1.5;" x1="7" x2="372" y1="156" y2="156"/><ellipse cx="17" cy="167" fill="#84BE84" rx="3" ry="3" style="stroke: #038048; stroke-width: 1.0;"/><text fill="#000000" font-family="sans-serif" font-size="11" lengthAdjust="spacingAndGlyphs" textLength="234" x="26" y="170.2104">«override» ToolCoroutine() : IEnumerator</text><ellipse cx="17" cy="179.8047" fill="#84BE84" rx="3" ry="3" style="stroke: #038048; stroke-width: 1.0;"/><text fill="#000000" font-family="sans-serif" font-size="11" lengthAdjust="spacingAndGlyphs" textLength="118" x="26" y="183.0151">CancelButton() : void</text><text fill="#000000" font-family="sans-serif" font-size="11" lengthAdjust="spacingAndGlyphs" textLength="341" x="26" y="195.8198">ShowNotification(message:string, delay:float) : IEnumerator</text><!--MD5=[5910e465cccb2cec379e83a41f7f6503]
class Tool--><rect fill="#FEFECE" filter="url(#fdez1hkkfpjhw)" height="48" id="Tool" style="stroke: #A80036; stroke-width: 1.5;" width="58" x="160.5" y="8"/><ellipse cx="175.5" cy="24" fill="#ADD1B2" rx="11" ry="11" style="stroke: #A80036; stroke-width: 1.0;"/><path d="M178.4688,29.6406 Q177.8906,29.9375 177.25,30.0781 Q176.6094,30.2344 175.9063,30.2344 Q173.4063,30.2344 172.0781,28.5938 Q170.7656,26.9375 170.7656,23.8125 Q170.7656,20.6875 172.0781,19.0313 Q173.4063,17.375 175.9063,17.375 Q176.6094,17.375 177.25,17.5313 Q177.9063,17.6875 178.4688,17.9844 L178.4688,20.7031 Q177.8438,20.125 177.25,19.8594 Q176.6563,19.5781 176.0313,19.5781 Q174.6875,19.5781 174,20.6563 Q173.3125,21.7188 173.3125,23.8125 Q173.3125,25.9063 174,26.9844 Q174.6875,28.0469 176.0313,28.0469 Q176.6563,28.0469 177.25,27.7813 Q177.8438,27.5 178.4688,26.9219 L178.4688,29.6406 Z "/><text fill="#000000" font-family="sans-serif" font-size="12" lengthAdjust="spacingAndGlyphs" textLength="26" x="189.5" y="28.1543">Tool</text><line style="stroke: #A80036; stroke-width: 1.5;" x1="161.5" x2="217.5" y1="40" y2="40"/><line style="stroke: #A80036; stroke-width: 1.5;" x1="161.5" x2="217.5" y1="48" y2="48"/><!--MD5=[ca38966e0a6872a92c0e23b37133a76f]
reverse link Tool to GPSInfoTool--><path d="M189.5,76.27 C189.5,89.12 189.5,103.17 189.5,115.94 " fill="none" id="Tool&lt;-GPSInfoTool" style="stroke: #A80036; stroke-width: 1.0;"/><polygon fill="none" points="182.5,76.22,189.5,56.22,196.5,76.22,182.5,76.22" style="stroke: #A80036; stroke-width: 1.0;"/><!--MD5=[b8507844309a03d3907b3fdb62895612]
@startuml
class GPSInfoTool {
    + <<override>> ToolCoroutine() : IEnumerator
    + CancelButton() : void
    ShowNotification(message:string, delay:float) : IEnumerator
}
Tool <|- - GPSInfoTool
@enduml

PlantUML version 1.2020.02(Sun Mar 01 10:22:07 GMT 2020)
(GPL source distribution)
Java Runtime: OpenJDK Runtime Environment
JVM: OpenJDK 64-Bit Server VM
Java Version: 11.0.9+11-Ubuntu-0ubuntu1
Operating System: Linux
Default Encoding: ANSI_X3.4-1968
Language: en
Country: US
--></g></svg>