<?xml version="1.0" encoding="UTF-8" standalone="no"?><svg xmlns="http://www.w3.org/2000/svg" xmlns:xlink="http://www.w3.org/1999/xlink" contentScriptType="application/ecmascript" contentStyleType="text/css" height="264px" preserveAspectRatio="none" style="width:384px;height:264px;" version="1.1" viewBox="0 0 384 264" width="384px" zoomAndPan="magnify"><defs><filter height="300%" id="flufoh60jiaog" width="300%" x="-1" y="-1"><feGaussianBlur result="blurOut" stdDeviation="2.0"/><feColorMatrix in="blurOut" result="blurOut2" type="matrix" values="0 0 0 0 0 0 0 0 0 0 0 0 0 0 0 0 0 0 .4 0"/><feOffset dx="4.0" dy="4.0" in="blurOut2" result="blurOut3"/><feBlend in="SourceGraphic" in2="blurOut3" mode="normal"/></filter></defs><g><!--MD5=[36890c8c0fac0adf90d471953b3f5d3e]
class GpsTrackTool--><rect fill="#FEFECE" filter="url(#flufoh60jiaog)" height="137.6328" id="GpsTrackTool" style="stroke: #A80036; stroke-width: 1.5;" width="367" x="6" y="116"/><ellipse cx="143.25" cy="132" fill="#ADD1B2" rx="11" ry="11" style="stroke: #A80036; stroke-width: 1.0;"/><path d="M146.2188,137.6406 Q145.6406,137.9375 145,138.0781 Q144.3594,138.2344 143.6563,138.2344 Q141.1563,138.2344 139.8281,136.5938 Q138.5156,134.9375 138.5156,131.8125 Q138.5156,128.6875 139.8281,127.0313 Q141.1563,125.375 143.6563,125.375 Q144.3594,125.375 145,125.5313 Q145.6563,125.6875 146.2188,125.9844 L146.2188,128.7031 Q145.5938,128.125 145,127.8594 Q144.4063,127.5781 143.7813,127.5781 Q142.4375,127.5781 141.75,128.6563 Q141.0625,129.7188 141.0625,131.8125 Q141.0625,133.9063 141.75,134.9844 Q142.4375,136.0469 143.7813,136.0469 Q144.4063,136.0469 145,135.7813 Q145.5938,135.5 146.2188,134.9219 L146.2188,137.6406 Z "/><text fill="#000000" font-family="sans-serif" font-size="12" lengthAdjust="spacingAndGlyphs" textLength="84" x="163.75" y="136.1543">GpsTrackTool</text><line style="stroke: #A80036; stroke-width: 1.5;" x1="7" x2="372" y1="148" y2="148"/><ellipse cx="17" cy="159" fill="none" rx="3" ry="3" style="stroke: #038048; stroke-width: 1.0;"/><text fill="#000000" font-family="sans-serif" font-size="11" lengthAdjust="spacingAndGlyphs" text-decoration="underline" textLength="141" x="26" y="162.2104">shouldStopStoring : bool</text><line style="stroke: #A80036; stroke-width: 1.5;" x1="7" x2="372" y1="168.8047" y2="168.8047"/><ellipse cx="17" cy="179.8047" fill="#84BE84" rx="3" ry="3" style="stroke: #038048; stroke-width: 1.0;"/><text fill="#000000" font-family="sans-serif" font-size="11" lengthAdjust="spacingAndGlyphs" textLength="234" x="26" y="183.0151">«override» ToolCoroutine() : IEnumerator</text><ellipse cx="17" cy="192.6094" fill="#84BE84" rx="3" ry="3" style="stroke: #038048; stroke-width: 1.0;"/><text fill="#000000" font-family="sans-serif" font-size="11" lengthAdjust="spacingAndGlyphs" textLength="200" x="26" y="195.8198">StopGPSTracking(notify:bool) : void</text><ellipse cx="17" cy="205.4141" fill="#84BE84" rx="3" ry="3" style="stroke: #038048; stroke-width: 1.0;"/><text fill="#000000" font-family="sans-serif" font-size="11" lengthAdjust="spacingAndGlyphs" textLength="118" x="26" y="208.6245">CancelButton() : void</text><ellipse cx="17" cy="218.2188" fill="#84BE84" rx="3" ry="3" style="stroke: #038048; stroke-width: 1.0;"/><text fill="#000000" font-family="sans-serif" font-size="11" lengthAdjust="spacingAndGlyphs" textLength="143" x="26" y="221.4292">StartGPSTracking() : void</text><text fill="#000000" font-family="sans-serif" font-size="11" lengthAdjust="spacingAndGlyphs" textLength="142" x="26" y="234.2339">trackGPS() : IEnumerator</text><text fill="#000000" font-family="sans-serif" font-size="11" lengthAdjust="spacingAndGlyphs" textLength="341" x="26" y="247.0386">ShowNotification(message:string, delay:float) : IEnumerator</text><!--MD5=[5910e465cccb2cec379e83a41f7f6503]
class Tool--><rect fill="#FEFECE" filter="url(#flufoh60jiaog)" height="48" id="Tool" style="stroke: #A80036; stroke-width: 1.5;" width="58" x="160.5" y="8"/><ellipse cx="175.5" cy="24" fill="#ADD1B2" rx="11" ry="11" style="stroke: #A80036; stroke-width: 1.0;"/><path d="M178.4688,29.6406 Q177.8906,29.9375 177.25,30.0781 Q176.6094,30.2344 175.9063,30.2344 Q173.4063,30.2344 172.0781,28.5938 Q170.7656,26.9375 170.7656,23.8125 Q170.7656,20.6875 172.0781,19.0313 Q173.4063,17.375 175.9063,17.375 Q176.6094,17.375 177.25,17.5313 Q177.9063,17.6875 178.4688,17.9844 L178.4688,20.7031 Q177.8438,20.125 177.25,19.8594 Q176.6563,19.5781 176.0313,19.5781 Q174.6875,19.5781 174,20.6563 Q173.3125,21.7188 173.3125,23.8125 Q173.3125,25.9063 174,26.9844 Q174.6875,28.0469 176.0313,28.0469 Q176.6563,28.0469 177.25,27.7813 Q177.8438,27.5 178.4688,26.9219 L178.4688,29.6406 Z "/><text fill="#000000" font-family="sans-serif" font-size="12" lengthAdjust="spacingAndGlyphs" textLength="26" x="189.5" y="28.1543">Tool</text><line style="stroke: #A80036; stroke-width: 1.5;" x1="161.5" x2="217.5" y1="40" y2="40"/><line style="stroke: #A80036; stroke-width: 1.5;" x1="161.5" x2="217.5" y1="48" y2="48"/><!--MD5=[1e4387a58f24fe2fa28085ce51980ff8]
reverse link Tool to GpsTrackTool--><path d="M189.5,76.56 C189.5,88.87 189.5,102.57 189.5,115.96 " fill="none" id="Tool&lt;-GpsTrackTool" style="stroke: #A80036; stroke-width: 1.0;"/><polygon fill="none" points="182.5,76.26,189.5,56.26,196.5,76.26,182.5,76.26" style="stroke: #A80036; stroke-width: 1.0;"/><!--MD5=[5730b736c12e958b53889a43a0c33526]
@startuml
class GpsTrackTool {
    + {static} shouldStopStoring : bool
    + <<override>> ToolCoroutine() : IEnumerator
    + StopGPSTracking(notify:bool) : void
    + CancelButton() : void
    + StartGPSTracking() : void
    trackGPS() : IEnumerator
    ShowNotification(message:string, delay:float) : IEnumerator
}
Tool <|- - GpsTrackTool
@enduml

PlantUML version 1.2020.02(Sun Mar 01 10:22:07 GMT 2020)
(GPL source distribution)
Java Runtime: OpenJDK Runtime Environment
JVM: OpenJDK 64-Bit Server VM
Java Version: 11.0.9+11-Ubuntu-0ubuntu1
Operating System: Linux
Default Encoding: ANSI_X3.4-1968
Language: en
Country: US
--></g></svg>