<?xml version="1.0" encoding="UTF-8" standalone="no"?><svg xmlns="http://www.w3.org/2000/svg" xmlns:xlink="http://www.w3.org/1999/xlink" contentScriptType="application/ecmascript" contentStyleType="text/css" height="226px" preserveAspectRatio="none" style="width:277px;height:226px;" version="1.1" viewBox="0 0 277 226" width="277px" zoomAndPan="magnify"><defs><filter height="300%" id="fg5rgg662twkh" width="300%" x="-1" y="-1"><feGaussianBlur result="blurOut" stdDeviation="2.0"/><feColorMatrix in="blurOut" result="blurOut2" type="matrix" values="0 0 0 0 0 0 0 0 0 0 0 0 0 0 0 0 0 0 .4 0"/><feOffset dx="4.0" dy="4.0" in="blurOut2" result="blurOut3"/><feBlend in="SourceGraphic" in2="blurOut3" mode="normal"/></filter></defs><g><!--MD5=[6c1f85f7b2a0e127305762cfb850b269]
class Location_on_mapTool--><rect fill="#FEFECE" filter="url(#fg5rgg662twkh)" height="99.2188" id="Location_on_mapTool" style="stroke: #A80036; stroke-width: 1.5;" width="260" x="6" y="116"/><ellipse cx="64.75" cy="132" fill="#ADD1B2" rx="11" ry="11" style="stroke: #A80036; stroke-width: 1.0;"/><path d="M67.7188,137.6406 Q67.1406,137.9375 66.5,138.0781 Q65.8594,138.2344 65.1563,138.2344 Q62.6563,138.2344 61.3281,136.5938 Q60.0156,134.9375 60.0156,131.8125 Q60.0156,128.6875 61.3281,127.0313 Q62.6563,125.375 65.1563,125.375 Q65.8594,125.375 66.5,125.5313 Q67.1563,125.6875 67.7188,125.9844 L67.7188,128.7031 Q67.0938,128.125 66.5,127.8594 Q65.9063,127.5781 65.2813,127.5781 Q63.9375,127.5781 63.25,128.6563 Q62.5625,129.7188 62.5625,131.8125 Q62.5625,133.9063 63.25,134.9844 Q63.9375,136.0469 65.2813,136.0469 Q65.9063,136.0469 66.5,135.7813 Q67.0938,135.5 67.7188,134.9219 L67.7188,137.6406 Z "/><text fill="#000000" font-family="sans-serif" font-size="12" lengthAdjust="spacingAndGlyphs" textLength="134" x="85.25" y="136.1543">Location_on_mapTool</text><line style="stroke: #A80036; stroke-width: 1.5;" x1="7" x2="265" y1="148" y2="148"/><line style="stroke: #A80036; stroke-width: 1.5;" x1="7" x2="265" y1="156" y2="156"/><ellipse cx="17" cy="167" fill="#84BE84" rx="3" ry="3" style="stroke: #038048; stroke-width: 1.0;"/><text fill="#000000" font-family="sans-serif" font-size="11" lengthAdjust="spacingAndGlyphs" textLength="234" x="26" y="170.2104">«override» ToolCoroutine() : IEnumerator</text><ellipse cx="17" cy="179.8047" fill="#84BE84" rx="3" ry="3" style="stroke: #038048; stroke-width: 1.0;"/><text fill="#000000" font-family="sans-serif" font-size="11" lengthAdjust="spacingAndGlyphs" textLength="118" x="26" y="183.0151">CancelButton() : void</text><ellipse cx="17" cy="192.6094" fill="#84BE84" rx="3" ry="3" style="stroke: #038048; stroke-width: 1.0;"/><text fill="#000000" font-family="sans-serif" font-size="11" lengthAdjust="spacingAndGlyphs" textLength="87" x="26" y="195.8198">ZoomIn() : void</text><ellipse cx="17" cy="205.4141" fill="#84BE84" rx="3" ry="3" style="stroke: #038048; stroke-width: 1.0;"/><text fill="#000000" font-family="sans-serif" font-size="11" lengthAdjust="spacingAndGlyphs" textLength="97" x="26" y="208.6245">ZoomOut() : void</text><!--MD5=[5910e465cccb2cec379e83a41f7f6503]
class Tool--><rect fill="#FEFECE" filter="url(#fg5rgg662twkh)" height="48" id="Tool" style="stroke: #A80036; stroke-width: 1.5;" width="58" x="107" y="8"/><ellipse cx="122" cy="24" fill="#ADD1B2" rx="11" ry="11" style="stroke: #A80036; stroke-width: 1.0;"/><path d="M124.9688,29.6406 Q124.3906,29.9375 123.75,30.0781 Q123.1094,30.2344 122.4063,30.2344 Q119.9063,30.2344 118.5781,28.5938 Q117.2656,26.9375 117.2656,23.8125 Q117.2656,20.6875 118.5781,19.0313 Q119.9063,17.375 122.4063,17.375 Q123.1094,17.375 123.75,17.5313 Q124.4063,17.6875 124.9688,17.9844 L124.9688,20.7031 Q124.3438,20.125 123.75,19.8594 Q123.1563,19.5781 122.5313,19.5781 Q121.1875,19.5781 120.5,20.6563 Q119.8125,21.7188 119.8125,23.8125 Q119.8125,25.9063 120.5,26.9844 Q121.1875,28.0469 122.5313,28.0469 Q123.1563,28.0469 123.75,27.7813 Q124.3438,27.5 124.9688,26.9219 L124.9688,29.6406 Z "/><text fill="#000000" font-family="sans-serif" font-size="12" lengthAdjust="spacingAndGlyphs" textLength="26" x="136" y="28.1543">Tool</text><line style="stroke: #A80036; stroke-width: 1.5;" x1="108" x2="164" y1="40" y2="40"/><line style="stroke: #A80036; stroke-width: 1.5;" x1="108" x2="164" y1="48" y2="48"/><!--MD5=[c5341f8ff5dc948e7a7873ff94c6d2d1]
reverse link Tool to Location_on_mapTool--><path d="M136,76.51 C136,89.14 136,103.01 136,115.93 " fill="none" id="Tool&lt;-Location_on_mapTool" style="stroke: #A80036; stroke-width: 1.0;"/><polygon fill="none" points="129,76.21,136,56.21,143,76.21,129,76.21" style="stroke: #A80036; stroke-width: 1.0;"/><!--MD5=[bb76daf69b9cba811f8e7e012547d14f]
@startuml
class Location_on_mapTool {
    + <<override>> ToolCoroutine() : IEnumerator
    + CancelButton() : void
    + ZoomIn() : void
    + ZoomOut() : void
}
Tool <|- - Location_on_mapTool
@enduml

PlantUML version 1.2020.02(Sun Mar 01 10:22:07 GMT 2020)
(GPL source distribution)
Java Runtime: OpenJDK Runtime Environment
JVM: OpenJDK 64-Bit Server VM
Java Version: 11.0.9+11-Ubuntu-0ubuntu1
Operating System: Linux
Default Encoding: ANSI_X3.4-1968
Language: en
Country: US
--></g></svg>