<?xml version="1.0" encoding="UTF-8" standalone="no"?><svg xmlns="http://www.w3.org/2000/svg" xmlns:xlink="http://www.w3.org/1999/xlink" contentScriptType="application/ecmascript" contentStyleType="text/css" height="213px" preserveAspectRatio="none" style="width:669px;height:213px;" version="1.1" viewBox="0 0 669 213" width="669px" zoomAndPan="magnify"><defs><filter height="300%" id="f19xeyk4mpjsu9" width="300%" x="-1" y="-1"><feGaussianBlur result="blurOut" stdDeviation="2.0"/><feColorMatrix in="blurOut" result="blurOut2" type="matrix" values="0 0 0 0 0 0 0 0 0 0 0 0 0 0 0 0 0 0 .4 0"/><feOffset dx="4.0" dy="4.0" in="blurOut2" result="blurOut3"/><feBlend in="SourceGraphic" in2="blurOut3" mode="normal"/></filter></defs><g><!--MD5=[14502587e0e7f7a070b7ae79d6685b70]
class PhotoVisualizerTool--><rect fill="#FEFECE" filter="url(#f19xeyk4mpjsu9)" height="86.4141" id="PhotoVisualizerTool" style="stroke: #A80036; stroke-width: 1.5;" width="351" x="6" y="116"/><ellipse cx="116.75" cy="132" fill="#ADD1B2" rx="11" ry="11" style="stroke: #A80036; stroke-width: 1.0;"/><path d="M119.7188,137.6406 Q119.1406,137.9375 118.5,138.0781 Q117.8594,138.2344 117.1563,138.2344 Q114.6563,138.2344 113.3281,136.5938 Q112.0156,134.9375 112.0156,131.8125 Q112.0156,128.6875 113.3281,127.0313 Q114.6563,125.375 117.1563,125.375 Q117.8594,125.375 118.5,125.5313 Q119.1563,125.6875 119.7188,125.9844 L119.7188,128.7031 Q119.0938,128.125 118.5,127.8594 Q117.9063,127.5781 117.2813,127.5781 Q115.9375,127.5781 115.25,128.6563 Q114.5625,129.7188 114.5625,131.8125 Q114.5625,133.9063 115.25,134.9844 Q115.9375,136.0469 117.2813,136.0469 Q117.9063,136.0469 118.5,135.7813 Q119.0938,135.5 119.7188,134.9219 L119.7188,137.6406 Z "/><text fill="#000000" font-family="sans-serif" font-size="12" lengthAdjust="spacingAndGlyphs" textLength="121" x="137.25" y="136.1543">PhotoVisualizerTool</text><line style="stroke: #A80036; stroke-width: 1.5;" x1="7" x2="356" y1="148" y2="148"/><line style="stroke: #A80036; stroke-width: 1.5;" x1="7" x2="356" y1="156" y2="156"/><ellipse cx="17" cy="167" fill="#84BE84" rx="3" ry="3" style="stroke: #038048; stroke-width: 1.0;"/><text fill="#000000" font-family="sans-serif" font-size="11" lengthAdjust="spacingAndGlyphs" textLength="234" x="26" y="170.2104">«override» ToolCoroutine() : IEnumerator</text><ellipse cx="17" cy="179.8047" fill="#84BE84" rx="3" ry="3" style="stroke: #038048; stroke-width: 1.0;"/><text fill="#000000" font-family="sans-serif" font-size="11" lengthAdjust="spacingAndGlyphs" textLength="118" x="26" y="183.0151">CancelButton() : void</text><ellipse cx="17" cy="192.6094" fill="#84BE84" rx="3" ry="3" style="stroke: #038048; stroke-width: 1.0;"/><text fill="#000000" font-family="sans-serif" font-size="11" lengthAdjust="spacingAndGlyphs" textLength="325" x="26" y="195.8198">LoadPNG(filePath:string, width:int, height:int) : Texture2D</text><!--MD5=[e644022de7dea015dd09463c37421447]
class List`1--><rect fill="#FEFECE" filter="url(#f19xeyk4mpjsu9)" height="48" id="List`1" style="stroke: #A80036; stroke-width: 1.5;" width="78" x="392.5" y="135"/><ellipse cx="407.5" cy="151" fill="#ADD1B2" rx="11" ry="11" style="stroke: #A80036; stroke-width: 1.0;"/><path d="M410.4688,156.6406 Q409.8906,156.9375 409.25,157.0781 Q408.6094,157.2344 407.9063,157.2344 Q405.4063,157.2344 404.0781,155.5938 Q402.7656,153.9375 402.7656,150.8125 Q402.7656,147.6875 404.0781,146.0313 Q405.4063,144.375 407.9063,144.375 Q408.6094,144.375 409.25,144.5313 Q409.9063,144.6875 410.4688,144.9844 L410.4688,147.7031 Q409.8438,147.125 409.25,146.8594 Q408.6563,146.5781 408.0313,146.5781 Q406.6875,146.5781 406,147.6563 Q405.3125,148.7188 405.3125,150.8125 Q405.3125,152.9063 406,153.9844 Q406.6875,155.0469 408.0313,155.0469 Q408.6563,155.0469 409.25,154.7813 Q409.8438,154.5 410.4688,153.9219 L410.4688,156.6406 Z "/><text fill="#000000" font-family="sans-serif" font-size="12" lengthAdjust="spacingAndGlyphs" textLength="35" x="421.5" y="155.1543">List`1</text><rect fill="#FFFFFF" height="15.9688" style="stroke: #000000; stroke-width: 1.0; stroke-dasharray: 2.0,2.0;" width="9" x="464.5" y="132"/><text fill="#000000" font-family="sans-serif" font-size="12" font-style="italic" lengthAdjust="spacingAndGlyphs" textLength="7" x="465.5" y="144.1387">T</text><line style="stroke: #A80036; stroke-width: 1.5;" x1="393.5" x2="469.5" y1="167" y2="167"/><line style="stroke: #A80036; stroke-width: 1.5;" x1="393.5" x2="469.5" y1="175" y2="175"/><!--MD5=[5910e465cccb2cec379e83a41f7f6503]
class Tool--><rect fill="#FEFECE" filter="url(#f19xeyk4mpjsu9)" height="48" id="Tool" style="stroke: #A80036; stroke-width: 1.5;" width="58" x="152.5" y="8"/><ellipse cx="167.5" cy="24" fill="#ADD1B2" rx="11" ry="11" style="stroke: #A80036; stroke-width: 1.0;"/><path d="M170.4688,29.6406 Q169.8906,29.9375 169.25,30.0781 Q168.6094,30.2344 167.9063,30.2344 Q165.4063,30.2344 164.0781,28.5938 Q162.7656,26.9375 162.7656,23.8125 Q162.7656,20.6875 164.0781,19.0313 Q165.4063,17.375 167.9063,17.375 Q168.6094,17.375 169.25,17.5313 Q169.9063,17.6875 170.4688,17.9844 L170.4688,20.7031 Q169.8438,20.125 169.25,19.8594 Q168.6563,19.5781 168.0313,19.5781 Q166.6875,19.5781 166,20.6563 Q165.3125,21.7188 165.3125,23.8125 Q165.3125,25.9063 166,26.9844 Q166.6875,28.0469 168.0313,28.0469 Q168.6563,28.0469 169.25,27.7813 Q169.8438,27.5 170.4688,26.9219 L170.4688,29.6406 Z "/><text fill="#000000" font-family="sans-serif" font-size="12" lengthAdjust="spacingAndGlyphs" textLength="26" x="181.5" y="28.1543">Tool</text><line style="stroke: #A80036; stroke-width: 1.5;" x1="153.5" x2="209.5" y1="40" y2="40"/><line style="stroke: #A80036; stroke-width: 1.5;" x1="153.5" x2="209.5" y1="48" y2="48"/><!--MD5=[4d78d3a1854efb848ee272e61653137e]
reverse link Tool to PhotoVisualizerTool--><path d="M181.5,76.27 C181.5,89.12 181.5,103.17 181.5,115.94 " fill="none" id="Tool&lt;-PhotoVisualizerTool" style="stroke: #A80036; stroke-width: 1.0;"/><polygon fill="none" points="174.5,76.22,181.5,56.22,188.5,76.22,174.5,76.22" style="stroke: #A80036; stroke-width: 1.0;"/><!--MD5=[9ef178359f10c8513cca96e2b455513b]
link PhotoVisualizerTool to List`1--><path d="M369.28,159 C369.28,159 376.37,159 379.34,159 " fill="none" id="PhotoVisualizerTool-List`1" style="stroke: #A80036; stroke-width: 1.0;"/><polygon fill="#A80036" points="392.36,159,383.36,155,387.36,159,383.36,163,392.36,159" style="stroke: #A80036; stroke-width: 1.0;"/><line style="stroke: #A80036; stroke-width: 1.0;" x1="387.36" x2="379.36" y1="159" y2="159"/><polygon fill="#FFFFFF" points="357.28,159,363.28,163,369.28,159,363.28,155,357.28,159" style="stroke: #A80036; stroke-width: 1.0;"/><text fill="#000000" font-family="sans-serif" font-size="13" lengthAdjust="spacingAndGlyphs" textLength="178" x="479.615" y="143.0581">instanceList&lt;GameObject&gt;</text><!--MD5=[90f7e89726a4d0e93a4a30c7f36a7108]
@startuml
class PhotoVisualizerTool {
    + <<override>> ToolCoroutine() : IEnumerator
    + CancelButton() : void
    + LoadPNG(filePath:string, width:int, height:int) : Texture2D
}
class "List`1"<T> {
}
Tool <|- - PhotoVisualizerTool
PhotoVisualizerTool o-> "instanceList<GameObject>" "List`1"
@enduml

PlantUML version 1.2020.02(Sun Mar 01 10:22:07 GMT 2020)
(GPL source distribution)
Java Runtime: OpenJDK Runtime Environment
JVM: OpenJDK 64-Bit Server VM
Java Version: 11.0.9+11-Ubuntu-0ubuntu1
Operating System: Linux
Default Encoding: ANSI_X3.4-1968
Language: en
Country: US
--></g></svg>