<?xml version="1.0" encoding="UTF-8" standalone="no"?><svg xmlns="http://www.w3.org/2000/svg" xmlns:xlink="http://www.w3.org/1999/xlink" contentScriptType="application/ecmascript" contentStyleType="text/css" height="354px" preserveAspectRatio="none" style="width:605px;height:354px;" version="1.1" viewBox="0 0 605 354" width="605px" zoomAndPan="magnify"><defs><filter height="300%" id="fwnx9ogf72i88" width="300%" x="-1" y="-1"><feGaussianBlur result="blurOut" stdDeviation="2.0"/><feColorMatrix in="blurOut" result="blurOut2" type="matrix" values="0 0 0 0 0 0 0 0 0 0 0 0 0 0 0 0 0 0 .4 0"/><feOffset dx="4.0" dy="4.0" in="blurOut2" result="blurOut3"/><feBlend in="SourceGraphic" in2="blurOut3" mode="normal"/></filter></defs><g><!--MD5=[a9961042d1a1518745b79a47f2e91864]
class PlacemarkTool--><rect fill="#FEFECE" filter="url(#fwnx9ogf72i88)" height="227.2656" id="PlacemarkTool" style="stroke: #A80036; stroke-width: 1.5;" width="337" x="6" y="116"/><ellipse cx="124.75" cy="132" fill="#ADD1B2" rx="11" ry="11" style="stroke: #A80036; stroke-width: 1.0;"/><path d="M127.7188,137.6406 Q127.1406,137.9375 126.5,138.0781 Q125.8594,138.2344 125.1563,138.2344 Q122.6563,138.2344 121.3281,136.5938 Q120.0156,134.9375 120.0156,131.8125 Q120.0156,128.6875 121.3281,127.0313 Q122.6563,125.375 125.1563,125.375 Q125.8594,125.375 126.5,125.5313 Q127.1563,125.6875 127.7188,125.9844 L127.7188,128.7031 Q127.0938,128.125 126.5,127.8594 Q125.9063,127.5781 125.2813,127.5781 Q123.9375,127.5781 123.25,128.6563 Q122.5625,129.7188 122.5625,131.8125 Q122.5625,133.9063 123.25,134.9844 Q123.9375,136.0469 125.2813,136.0469 Q125.9063,136.0469 126.5,135.7813 Q127.0938,135.5 127.7188,134.9219 L127.7188,137.6406 Z "/><text fill="#000000" font-family="sans-serif" font-size="12" lengthAdjust="spacingAndGlyphs" textLength="91" x="145.25" y="136.1543">PlacemarkTool</text><line style="stroke: #A80036; stroke-width: 1.5;" x1="7" x2="342" y1="148" y2="148"/><ellipse cx="17" cy="159" fill="none" rx="3" ry="3" style="stroke: #038048; stroke-width: 1.0;"/><text fill="#000000" font-family="sans-serif" font-size="11" lengthAdjust="spacingAndGlyphs" text-decoration="underline" textLength="87" x="26" y="162.2104">localID : int = 0</text><text fill="#000000" font-family="sans-serif" font-size="11" lengthAdjust="spacingAndGlyphs" textLength="115" x="26" y="175.0151">oldNote : string = ""</text><line style="stroke: #A80036; stroke-width: 1.5;" x1="7" x2="342" y1="181.6094" y2="181.6094"/><ellipse cx="17" cy="192.6094" fill="#84BE84" rx="3" ry="3" style="stroke: #038048; stroke-width: 1.0;"/><text fill="#000000" font-family="sans-serif" font-size="11" lengthAdjust="spacingAndGlyphs" textLength="234" x="26" y="195.8198">«override» ToolCoroutine() : IEnumerator</text><ellipse cx="17" cy="205.4141" fill="#84BE84" rx="3" ry="3" style="stroke: #038048; stroke-width: 1.0;"/><text fill="#000000" font-family="sans-serif" font-size="11" lengthAdjust="spacingAndGlyphs" textLength="144" x="26" y="208.6245">startToolInterface() : void</text><ellipse cx="17" cy="218.2188" fill="#84BE84" rx="3" ry="3" style="stroke: #038048; stroke-width: 1.0;"/><text fill="#000000" font-family="sans-serif" font-size="11" lengthAdjust="spacingAndGlyphs" textLength="143" x="26" y="221.4292">GetInsertedNotes() : void</text><ellipse cx="17" cy="231.0234" fill="#84BE84" rx="3" ry="3" style="stroke: #038048; stroke-width: 1.0;"/><text fill="#000000" font-family="sans-serif" font-size="11" lengthAdjust="spacingAndGlyphs" textLength="118" x="26" y="234.2339">CancelButton() : void</text><ellipse cx="17" cy="243.8281" fill="#84BE84" rx="3" ry="3" style="stroke: #038048; stroke-width: 1.0;"/><text fill="#000000" font-family="sans-serif" font-size="11" lengthAdjust="spacingAndGlyphs" textLength="106" x="26" y="247.0386">ImportData() : void</text><ellipse cx="17" cy="256.6328" fill="#84BE84" rx="3" ry="3" style="stroke: #038048; stroke-width: 1.0;"/><text fill="#000000" font-family="sans-serif" font-size="11" lengthAdjust="spacingAndGlyphs" textLength="311" x="26" y="259.8433">«override» LoadFromFile(FilePath:string) : GameObject</text><ellipse cx="17" cy="269.4375" fill="#84BE84" rx="3" ry="3" style="stroke: #038048; stroke-width: 1.0;"/><text fill="#000000" font-family="sans-serif" font-size="11" lengthAdjust="spacingAndGlyphs" text-decoration="underline" textLength="278" x="26" y="272.6479">SaveSingleInstance(instance:ToolInstance) : void</text><ellipse cx="17" cy="282.2422" fill="#84BE84" rx="3" ry="3" style="stroke: #038048; stroke-width: 1.0;"/><text fill="#000000" font-family="sans-serif" font-size="11" lengthAdjust="spacingAndGlyphs" textLength="145" x="26" y="285.4526">SaveMultiInstance() : void</text><ellipse cx="17" cy="295.0469" fill="#84BE84" rx="3" ry="3" style="stroke: #038048; stroke-width: 1.0;"/><text fill="#000000" font-family="sans-serif" font-size="11" lengthAdjust="spacingAndGlyphs" textLength="147" x="26" y="298.2573">DeleteAllInstances() : void</text><ellipse cx="17" cy="307.8516" fill="#84BE84" rx="3" ry="3" style="stroke: #038048; stroke-width: 1.0;"/><text fill="#000000" font-family="sans-serif" font-size="11" lengthAdjust="spacingAndGlyphs" textLength="99" x="26" y="311.062">ShowHide() : void</text><ellipse cx="17" cy="320.6563" fill="#84BE84" rx="3" ry="3" style="stroke: #038048; stroke-width: 1.0;"/><text fill="#000000" font-family="sans-serif" font-size="11" lengthAdjust="spacingAndGlyphs" textLength="119" x="26" y="323.8667">OnPointerExit() : void</text><ellipse cx="17" cy="333.4609" fill="#84BE84" rx="3" ry="3" style="stroke: #038048; stroke-width: 1.0;"/><text fill="#000000" font-family="sans-serif" font-size="11" lengthAdjust="spacingAndGlyphs" textLength="129" x="26" y="336.6714">OnPointerEnter() : void</text><!--MD5=[e644022de7dea015dd09463c37421447]
class List`1--><rect fill="#FEFECE" filter="url(#fwnx9ogf72i88)" height="48" id="List`1" style="stroke: #A80036; stroke-width: 1.5;" width="78" x="378.5" y="205.5"/><ellipse cx="393.5" cy="221.5" fill="#ADD1B2" rx="11" ry="11" style="stroke: #A80036; stroke-width: 1.0;"/><path d="M396.4688,227.1406 Q395.8906,227.4375 395.25,227.5781 Q394.6094,227.7344 393.9063,227.7344 Q391.4063,227.7344 390.0781,226.0938 Q388.7656,224.4375 388.7656,221.3125 Q388.7656,218.1875 390.0781,216.5313 Q391.4063,214.875 393.9063,214.875 Q394.6094,214.875 395.25,215.0313 Q395.9063,215.1875 396.4688,215.4844 L396.4688,218.2031 Q395.8438,217.625 395.25,217.3594 Q394.6563,217.0781 394.0313,217.0781 Q392.6875,217.0781 392,218.1563 Q391.3125,219.2188 391.3125,221.3125 Q391.3125,223.4063 392,224.4844 Q392.6875,225.5469 394.0313,225.5469 Q394.6563,225.5469 395.25,225.2813 Q395.8438,225 396.4688,224.4219 L396.4688,227.1406 Z "/><text fill="#000000" font-family="sans-serif" font-size="12" lengthAdjust="spacingAndGlyphs" textLength="35" x="407.5" y="225.6543">List`1</text><rect fill="#FFFFFF" height="15.9688" style="stroke: #000000; stroke-width: 1.0; stroke-dasharray: 2.0,2.0;" width="9" x="450.5" y="202.5"/><text fill="#000000" font-family="sans-serif" font-size="12" font-style="italic" lengthAdjust="spacingAndGlyphs" textLength="7" x="451.5" y="214.6387">T</text><line style="stroke: #A80036; stroke-width: 1.5;" x1="379.5" x2="455.5" y1="237.5" y2="237.5"/><line style="stroke: #A80036; stroke-width: 1.5;" x1="379.5" x2="455.5" y1="245.5" y2="245.5"/><!--MD5=[5910e465cccb2cec379e83a41f7f6503]
class Tool--><rect fill="#FEFECE" filter="url(#fwnx9ogf72i88)" height="48" id="Tool" style="stroke: #A80036; stroke-width: 1.5;" width="58" x="145.5" y="8"/><ellipse cx="160.5" cy="24" fill="#ADD1B2" rx="11" ry="11" style="stroke: #A80036; stroke-width: 1.0;"/><path d="M163.4688,29.6406 Q162.8906,29.9375 162.25,30.0781 Q161.6094,30.2344 160.9063,30.2344 Q158.4063,30.2344 157.0781,28.5938 Q155.7656,26.9375 155.7656,23.8125 Q155.7656,20.6875 157.0781,19.0313 Q158.4063,17.375 160.9063,17.375 Q161.6094,17.375 162.25,17.5313 Q162.9063,17.6875 163.4688,17.9844 L163.4688,20.7031 Q162.8438,20.125 162.25,19.8594 Q161.6563,19.5781 161.0313,19.5781 Q159.6875,19.5781 159,20.6563 Q158.3125,21.7188 158.3125,23.8125 Q158.3125,25.9063 159,26.9844 Q159.6875,28.0469 161.0313,28.0469 Q161.6563,28.0469 162.25,27.7813 Q162.8438,27.5 163.4688,26.9219 L163.4688,29.6406 Z "/><text fill="#000000" font-family="sans-serif" font-size="12" lengthAdjust="spacingAndGlyphs" textLength="26" x="174.5" y="28.1543">Tool</text><line style="stroke: #A80036; stroke-width: 1.5;" x1="146.5" x2="202.5" y1="40" y2="40"/><line style="stroke: #A80036; stroke-width: 1.5;" x1="146.5" x2="202.5" y1="48" y2="48"/><!--MD5=[bad6f4fe9edb226b3cbae3c8cccf57df]
reverse link Tool to PlacemarkTool--><path d="M174.5,76.38 C174.5,88.38 174.5,101.97 174.5,115.98 " fill="none" id="Tool&lt;-PlacemarkTool" style="stroke: #A80036; stroke-width: 1.0;"/><polygon fill="none" points="167.5,76.19,174.5,56.19,181.5,76.19,167.5,76.19" style="stroke: #A80036; stroke-width: 1.0;"/><!--MD5=[15766051f0284fe9d6ba3fbbc90e606b]
link PlacemarkTool to List`1--><path d="M353.6948,295.3751 C353.6948,295.3751 378.3,276.38 390.1,263.56 " fill="none" id="PlacemarkTool-List`1" style="stroke: #A80036; stroke-width: 1.0;"/><polygon fill="#A80036" points="398.7,253.8,389.7482,257.9068,395.3939,257.551,395.7498,263.1966,398.7,253.8" style="stroke: #A80036; stroke-width: 1.0;"/><line style="stroke: #A80036; stroke-width: 1.0;" x1="395.3939" x2="390.105" y1="257.551" y2="263.56"/><polygon fill="#FFFFFF" points="343.46,301.64,350.6657,301.9192,353.6948,295.3751,346.4891,295.096,343.46,301.64" style="stroke: #A80036; stroke-width: 1.0;"/><text fill="#000000" font-family="sans-serif" font-size="13" lengthAdjust="spacingAndGlyphs" textLength="178" x="415.8113" y="273.6343">instanceList&lt;GameObject&gt;</text><!--MD5=[15766051f0284fe9d6ba3fbbc90e606b]
link PlacemarkTool to List`1--><path d="M353.6948,163.6249 C353.6948,163.6249 378.3,182.62 390.1,195.44 " fill="none" id="PlacemarkTool-List`1-1" style="stroke: #A80036; stroke-width: 1.0;"/><polygon fill="#A80036" points="398.7,205.2,395.7498,195.8034,395.3939,201.449,389.7482,201.0932,398.7,205.2" style="stroke: #A80036; stroke-width: 1.0;"/><line style="stroke: #A80036; stroke-width: 1.0;" x1="395.3939" x2="390.105" y1="201.449" y2="195.44"/><polygon fill="#FFFFFF" points="343.46,157.36,346.4891,163.904,353.6948,163.6249,350.6657,157.0808,343.46,157.36" style="stroke: #A80036; stroke-width: 1.0;"/><text fill="#000000" font-family="sans-serif" font-size="13" lengthAdjust="spacingAndGlyphs" textLength="152" x="412.6425" y="194.5318">PlacemarkMap&lt;string&gt;</text><!--MD5=[20c25330ec68daa55e8691d48a14457f]
@startuml
class PlacemarkTool {
    + {static} localID : int = 0
    oldNote : string = ""
    + <<override>> ToolCoroutine() : IEnumerator
    + startToolInterface() : void
    + GetInsertedNotes() : void
    + CancelButton() : void
    + ImportData() : void
    + <<override>> LoadFromFile(FilePath:string) : GameObject
    + {static} SaveSingleInstance(instance:ToolInstance) : void
    + SaveMultiInstance() : void
    + DeleteAllInstances() : void
    + ShowHide() : void
    + OnPointerExit() : void
    + OnPointerEnter() : void
}
class "List`1"<T> {
}
Tool <|- - PlacemarkTool
PlacemarkTool o-> "instanceList<GameObject>" "List`1"
PlacemarkTool o-> "PlacemarkMap<string>" "List`1"
@enduml

PlantUML version 1.2020.02(Sun Mar 01 10:22:07 GMT 2020)
(GPL source distribution)
Java Runtime: OpenJDK Runtime Environment
JVM: OpenJDK 64-Bit Server VM
Java Version: 11.0.9+11-Ubuntu-0ubuntu1
Operating System: Linux
Default Encoding: ANSI_X3.4-1968
Language: en
Country: US
--></g></svg>