<?xml version="1.0" encoding="UTF-8" standalone="no"?><svg xmlns="http://www.w3.org/2000/svg" xmlns:xlink="http://www.w3.org/1999/xlink" contentScriptType="application/ecmascript" contentStyleType="text/css" height="367px" preserveAspectRatio="none" style="width:666px;height:367px;" version="1.1" viewBox="0 0 666 367" width="666px" zoomAndPan="magnify"><defs><filter height="300%" id="f1tv0vwnjjpxm5" width="300%" x="-1" y="-1"><feGaussianBlur result="blurOut" stdDeviation="2.0"/><feColorMatrix in="blurOut" result="blurOut2" type="matrix" values="0 0 0 0 0 0 0 0 0 0 0 0 0 0 0 0 0 0 .4 0"/><feOffset dx="4.0" dy="4.0" in="blurOut2" result="blurOut3"/><feBlend in="SourceGraphic" in2="blurOut3" mode="normal"/></filter></defs><g><!--MD5=[00b0db798da45c24ab93df5956a29d20]
class PolygonTool--><rect fill="#FEFECE" filter="url(#f1tv0vwnjjpxm5)" height="240.0703" id="PolygonTool" style="stroke: #A80036; stroke-width: 1.5;" width="400" x="6" y="116"/><ellipse cx="164.25" cy="132" fill="#ADD1B2" rx="11" ry="11" style="stroke: #A80036; stroke-width: 1.0;"/><path d="M167.2188,137.6406 Q166.6406,137.9375 166,138.0781 Q165.3594,138.2344 164.6563,138.2344 Q162.1563,138.2344 160.8281,136.5938 Q159.5156,134.9375 159.5156,131.8125 Q159.5156,128.6875 160.8281,127.0313 Q162.1563,125.375 164.6563,125.375 Q165.3594,125.375 166,125.5313 Q166.6563,125.6875 167.2188,125.9844 L167.2188,128.7031 Q166.5938,128.125 166,127.8594 Q165.4063,127.5781 164.7813,127.5781 Q163.4375,127.5781 162.75,128.6563 Q162.0625,129.7188 162.0625,131.8125 Q162.0625,133.9063 162.75,134.9844 Q163.4375,136.0469 164.7813,136.0469 Q165.4063,136.0469 166,135.7813 Q166.5938,135.5 167.2188,134.9219 L167.2188,137.6406 Z "/><text fill="#000000" font-family="sans-serif" font-size="12" lengthAdjust="spacingAndGlyphs" textLength="75" x="184.75" y="136.1543">PolygonTool</text><line style="stroke: #A80036; stroke-width: 1.5;" x1="7" x2="405" y1="148" y2="148"/><ellipse cx="17" cy="159" fill="none" rx="3" ry="3" style="stroke: #038048; stroke-width: 1.0;"/><text fill="#000000" font-family="sans-serif" font-size="11" lengthAdjust="spacingAndGlyphs" text-decoration="underline" textLength="87" x="26" y="162.2104">localID : int = 0</text><text fill="#000000" font-family="sans-serif" font-size="11" lengthAdjust="spacingAndGlyphs" textLength="115" x="26" y="175.0151">oldNote : string = ""</text><line style="stroke: #A80036; stroke-width: 1.5;" x1="7" x2="405" y1="181.6094" y2="181.6094"/><text fill="#000000" font-family="sans-serif" font-size="11" lengthAdjust="spacingAndGlyphs" text-decoration="underline" textLength="374" x="26" y="195.8198">TriangulatePlacemarkLine(placemarks:List&lt;GameObject&gt;) : Mesh</text><ellipse cx="17" cy="205.4141" fill="#84BE84" rx="3" ry="3" style="stroke: #038048; stroke-width: 1.0;"/><text fill="#000000" font-family="sans-serif" font-size="11" lengthAdjust="spacingAndGlyphs" textLength="234" x="26" y="208.6245">«override» ToolCoroutine() : IEnumerator</text><ellipse cx="17" cy="218.2188" fill="#84BE84" rx="3" ry="3" style="stroke: #038048; stroke-width: 1.0;"/><text fill="#000000" font-family="sans-serif" font-size="11" lengthAdjust="spacingAndGlyphs" textLength="144" x="26" y="221.4292">startToolInterface() : void</text><ellipse cx="17" cy="231.0234" fill="#84BE84" rx="3" ry="3" style="stroke: #038048; stroke-width: 1.0;"/><text fill="#000000" font-family="sans-serif" font-size="11" lengthAdjust="spacingAndGlyphs" textLength="143" x="26" y="234.2339">GetInsertedNotes() : void</text><ellipse cx="17" cy="243.8281" fill="#84BE84" rx="3" ry="3" style="stroke: #038048; stroke-width: 1.0;"/><text fill="#000000" font-family="sans-serif" font-size="11" lengthAdjust="spacingAndGlyphs" textLength="118" x="26" y="247.0386">CancelButton() : void</text><ellipse cx="17" cy="256.6328" fill="#84BE84" rx="3" ry="3" style="stroke: #038048; stroke-width: 1.0;"/><text fill="#000000" font-family="sans-serif" font-size="11" lengthAdjust="spacingAndGlyphs" textLength="106" x="26" y="259.8433">ImportData() : void</text><ellipse cx="17" cy="269.4375" fill="#84BE84" rx="3" ry="3" style="stroke: #038048; stroke-width: 1.0;"/><text fill="#000000" font-family="sans-serif" font-size="11" lengthAdjust="spacingAndGlyphs" textLength="311" x="26" y="272.6479">«override» LoadFromFile(FilePath:string) : GameObject</text><ellipse cx="17" cy="282.2422" fill="#84BE84" rx="3" ry="3" style="stroke: #038048; stroke-width: 1.0;"/><text fill="#000000" font-family="sans-serif" font-size="11" lengthAdjust="spacingAndGlyphs" text-decoration="underline" textLength="278" x="26" y="285.4526">SaveSingleInstance(instance:ToolInstance) : void</text><ellipse cx="17" cy="295.0469" fill="#84BE84" rx="3" ry="3" style="stroke: #038048; stroke-width: 1.0;"/><text fill="#000000" font-family="sans-serif" font-size="11" lengthAdjust="spacingAndGlyphs" textLength="145" x="26" y="298.2573">SaveMultiInstance() : void</text><ellipse cx="17" cy="307.8516" fill="#84BE84" rx="3" ry="3" style="stroke: #038048; stroke-width: 1.0;"/><text fill="#000000" font-family="sans-serif" font-size="11" lengthAdjust="spacingAndGlyphs" textLength="147" x="26" y="311.062">DeleteAllInstances() : void</text><ellipse cx="17" cy="320.6563" fill="#84BE84" rx="3" ry="3" style="stroke: #038048; stroke-width: 1.0;"/><text fill="#000000" font-family="sans-serif" font-size="11" lengthAdjust="spacingAndGlyphs" textLength="99" x="26" y="323.8667">ShowHide() : void</text><ellipse cx="17" cy="333.4609" fill="#84BE84" rx="3" ry="3" style="stroke: #038048; stroke-width: 1.0;"/><text fill="#000000" font-family="sans-serif" font-size="11" lengthAdjust="spacingAndGlyphs" textLength="119" x="26" y="336.6714">OnPointerExit() : void</text><ellipse cx="17" cy="346.2656" fill="#84BE84" rx="3" ry="3" style="stroke: #038048; stroke-width: 1.0;"/><text fill="#000000" font-family="sans-serif" font-size="11" lengthAdjust="spacingAndGlyphs" textLength="129" x="26" y="349.4761">OnPointerEnter() : void</text><!--MD5=[e644022de7dea015dd09463c37421447]
class List`1--><rect fill="#FEFECE" filter="url(#f1tv0vwnjjpxm5)" height="48" id="List`1" style="stroke: #A80036; stroke-width: 1.5;" width="78" x="441" y="212"/><ellipse cx="456" cy="228" fill="#ADD1B2" rx="11" ry="11" style="stroke: #A80036; stroke-width: 1.0;"/><path d="M458.9688,233.6406 Q458.3906,233.9375 457.75,234.0781 Q457.1094,234.2344 456.4063,234.2344 Q453.9063,234.2344 452.5781,232.5938 Q451.2656,230.9375 451.2656,227.8125 Q451.2656,224.6875 452.5781,223.0313 Q453.9063,221.375 456.4063,221.375 Q457.1094,221.375 457.75,221.5313 Q458.4063,221.6875 458.9688,221.9844 L458.9688,224.7031 Q458.3438,224.125 457.75,223.8594 Q457.1563,223.5781 456.5313,223.5781 Q455.1875,223.5781 454.5,224.6563 Q453.8125,225.7188 453.8125,227.8125 Q453.8125,229.9063 454.5,230.9844 Q455.1875,232.0469 456.5313,232.0469 Q457.1563,232.0469 457.75,231.7813 Q458.3438,231.5 458.9688,230.9219 L458.9688,233.6406 Z "/><text fill="#000000" font-family="sans-serif" font-size="12" lengthAdjust="spacingAndGlyphs" textLength="35" x="470" y="232.1543">List`1</text><rect fill="#FFFFFF" height="15.9688" style="stroke: #000000; stroke-width: 1.0; stroke-dasharray: 2.0,2.0;" width="9" x="513" y="209"/><text fill="#000000" font-family="sans-serif" font-size="12" font-style="italic" lengthAdjust="spacingAndGlyphs" textLength="7" x="514" y="221.1387">T</text><line style="stroke: #A80036; stroke-width: 1.5;" x1="442" x2="518" y1="244" y2="244"/><line style="stroke: #A80036; stroke-width: 1.5;" x1="442" x2="518" y1="252" y2="252"/><!--MD5=[5910e465cccb2cec379e83a41f7f6503]
class Tool--><rect fill="#FEFECE" filter="url(#f1tv0vwnjjpxm5)" height="48" id="Tool" style="stroke: #A80036; stroke-width: 1.5;" width="58" x="177" y="8"/><ellipse cx="192" cy="24" fill="#ADD1B2" rx="11" ry="11" style="stroke: #A80036; stroke-width: 1.0;"/><path d="M194.9688,29.6406 Q194.3906,29.9375 193.75,30.0781 Q193.1094,30.2344 192.4063,30.2344 Q189.9063,30.2344 188.5781,28.5938 Q187.2656,26.9375 187.2656,23.8125 Q187.2656,20.6875 188.5781,19.0313 Q189.9063,17.375 192.4063,17.375 Q193.1094,17.375 193.75,17.5313 Q194.4063,17.6875 194.9688,17.9844 L194.9688,20.7031 Q194.3438,20.125 193.75,19.8594 Q193.1563,19.5781 192.5313,19.5781 Q191.1875,19.5781 190.5,20.6563 Q189.8125,21.7188 189.8125,23.8125 Q189.8125,25.9063 190.5,26.9844 Q191.1875,28.0469 192.5313,28.0469 Q193.1563,28.0469 193.75,27.7813 Q194.3438,27.5 194.9688,26.9219 L194.9688,29.6406 Z "/><text fill="#000000" font-family="sans-serif" font-size="12" lengthAdjust="spacingAndGlyphs" textLength="26" x="206" y="28.1543">Tool</text><line style="stroke: #A80036; stroke-width: 1.5;" x1="178" x2="234" y1="40" y2="40"/><line style="stroke: #A80036; stroke-width: 1.5;" x1="178" x2="234" y1="48" y2="48"/><!--MD5=[f2da4aab4c45afca5ae6d84f40002faf]
reverse link Tool to PolygonTool--><path d="M206,76.19 C206,88.09 206,101.61 206,115.62 " fill="none" id="Tool&lt;-PolygonTool" style="stroke: #A80036; stroke-width: 1.0;"/><polygon fill="none" points="199,76.17,206,56.17,213,76.17,199,76.17" style="stroke: #A80036; stroke-width: 1.0;"/><!--MD5=[a74887908d93ec8317c16c4559db6ece]
link PolygonTool to List`1--><path d="M416.175,300.2846 C416.175,300.2846 439.72,281.76 451.03,270.04 " fill="none" id="PolygonTool-List`1" style="stroke: #A80036; stroke-width: 1.0;"/><polygon fill="#A80036" points="460.09,260.25,451.0419,264.14,456.6945,263.9202,456.9143,269.5728,460.09,260.25" style="stroke: #A80036; stroke-width: 1.0;"/><line style="stroke: #A80036; stroke-width: 1.0;" x1="456.6945" x2="451.26" y1="263.9202" y2="269.79"/><polygon fill="#FFFFFF" points="406.15,306.88,413.361,306.924,416.175,300.2846,408.964,300.2406,406.15,306.88" style="stroke: #A80036; stroke-width: 1.0;"/><text fill="#000000" font-family="sans-serif" font-size="13" lengthAdjust="spacingAndGlyphs" textLength="178" x="476.9307" y="280.0721">instanceList&lt;GameObject&gt;</text><!--MD5=[a74887908d93ec8317c16c4559db6ece]
link PolygonTool to List`1--><path d="M416.175,171.7154 C416.175,171.7154 439.72,190.24 451.03,201.96 " fill="none" id="PolygonTool-List`1-1" style="stroke: #A80036; stroke-width: 1.0;"/><polygon fill="#A80036" points="460.09,211.75,456.9143,202.4272,456.6945,208.0798,451.0419,207.86,460.09,211.75" style="stroke: #A80036; stroke-width: 1.0;"/><line style="stroke: #A80036; stroke-width: 1.0;" x1="456.6945" x2="451.26" y1="208.0798" y2="202.21"/><polygon fill="#FFFFFF" points="406.15,165.12,408.964,171.7594,416.175,171.7154,413.361,165.076,406.15,165.12" style="stroke: #A80036; stroke-width: 1.0;"/><text fill="#000000" font-family="sans-serif" font-size="13" lengthAdjust="spacingAndGlyphs" textLength="135" x="471.6901" y="201.094">PolygonMap&lt;string&gt;</text><!--MD5=[905deb0e1dbdaa2343f0c377b6e8834b]
@startuml
class PolygonTool {
    + {static} localID : int = 0
    oldNote : string = ""
    {static} TriangulatePlacemarkLine(placemarks:List<GameObject>) : Mesh
    + <<override>> ToolCoroutine() : IEnumerator
    + startToolInterface() : void
    + GetInsertedNotes() : void
    + CancelButton() : void
    + ImportData() : void
    + <<override>> LoadFromFile(FilePath:string) : GameObject
    + {static} SaveSingleInstance(instance:ToolInstance) : void
    + SaveMultiInstance() : void
    + DeleteAllInstances() : void
    + ShowHide() : void
    + OnPointerExit() : void
    + OnPointerEnter() : void
}
class "List`1"<T> {
}
Tool <|- - PolygonTool
PolygonTool o-> "instanceList<GameObject>" "List`1"
PolygonTool o-> "PolygonMap<string>" "List`1"
@enduml

PlantUML version 1.2020.02(Sun Mar 01 10:22:07 GMT 2020)
(GPL source distribution)
Java Runtime: OpenJDK Runtime Environment
JVM: OpenJDK 64-Bit Server VM
Java Version: 11.0.9+11-Ubuntu-0ubuntu1
Operating System: Linux
Default Encoding: ANSI_X3.4-1968
Language: en
Country: US
--></g></svg>