<?xml version="1.0" encoding="UTF-8" standalone="no"?><svg xmlns="http://www.w3.org/2000/svg" xmlns:xlink="http://www.w3.org/1999/xlink" contentScriptType="application/ecmascript" contentStyleType="text/css" height="462px" preserveAspectRatio="none" style="width:626px;height:462px;" version="1.1" viewBox="0 0 626 462" width="626px" zoomAndPan="magnify"><defs><filter height="300%" id="f1etybjez39x10" width="300%" x="-1" y="-1"><feGaussianBlur result="blurOut" stdDeviation="2.0"/><feColorMatrix in="blurOut" result="blurOut2" type="matrix" values="0 0 0 0 0 0 0 0 0 0 0 0 0 0 0 0 0 0 .4 0"/><feOffset dx="4.0" dy="4.0" in="blurOut2" result="blurOut3"/><feBlend in="SourceGraphic" in2="blurOut3" mode="normal"/></filter></defs><g><!--MD5=[2fae21accd8590cf8f43cbcb6f1e756e]
class RulerTool--><rect fill="#FEFECE" filter="url(#f1etybjez39x10)" height="227.2656" id="RulerTool" style="stroke: #A80036; stroke-width: 1.5;" width="337" x="26.5" y="116"/><ellipse cx="161.75" cy="132" fill="#ADD1B2" rx="11" ry="11" style="stroke: #A80036; stroke-width: 1.0;"/><path d="M164.7188,137.6406 Q164.1406,137.9375 163.5,138.0781 Q162.8594,138.2344 162.1563,138.2344 Q159.6563,138.2344 158.3281,136.5938 Q157.0156,134.9375 157.0156,131.8125 Q157.0156,128.6875 158.3281,127.0313 Q159.6563,125.375 162.1563,125.375 Q162.8594,125.375 163.5,125.5313 Q164.1563,125.6875 164.7188,125.9844 L164.7188,128.7031 Q164.0938,128.125 163.5,127.8594 Q162.9063,127.5781 162.2813,127.5781 Q160.9375,127.5781 160.25,128.6563 Q159.5625,129.7188 159.5625,131.8125 Q159.5625,133.9063 160.25,134.9844 Q160.9375,136.0469 162.2813,136.0469 Q162.9063,136.0469 163.5,135.7813 Q164.0938,135.5 164.7188,134.9219 L164.7188,137.6406 Z "/><text fill="#000000" font-family="sans-serif" font-size="12" lengthAdjust="spacingAndGlyphs" textLength="58" x="182.25" y="136.1543">RulerTool</text><line style="stroke: #A80036; stroke-width: 1.5;" x1="27.5" x2="362.5" y1="148" y2="148"/><ellipse cx="37.5" cy="159" fill="none" rx="3" ry="3" style="stroke: #038048; stroke-width: 1.0;"/><text fill="#000000" font-family="sans-serif" font-size="11" lengthAdjust="spacingAndGlyphs" text-decoration="underline" textLength="87" x="46.5" y="162.2104">localID : int = 0</text><text fill="#000000" font-family="sans-serif" font-size="11" lengthAdjust="spacingAndGlyphs" textLength="115" x="46.5" y="175.0151">oldNote : string = ""</text><line style="stroke: #A80036; stroke-width: 1.5;" x1="27.5" x2="362.5" y1="181.6094" y2="181.6094"/><ellipse cx="37.5" cy="192.6094" fill="#84BE84" rx="3" ry="3" style="stroke: #038048; stroke-width: 1.0;"/><text fill="#000000" font-family="sans-serif" font-size="11" lengthAdjust="spacingAndGlyphs" textLength="234" x="46.5" y="195.8198">«override» ToolCoroutine() : IEnumerator</text><ellipse cx="37.5" cy="205.4141" fill="#84BE84" rx="3" ry="3" style="stroke: #038048; stroke-width: 1.0;"/><text fill="#000000" font-family="sans-serif" font-size="11" lengthAdjust="spacingAndGlyphs" textLength="144" x="46.5" y="208.6245">startToolInterface() : void</text><ellipse cx="37.5" cy="218.2188" fill="#84BE84" rx="3" ry="3" style="stroke: #038048; stroke-width: 1.0;"/><text fill="#000000" font-family="sans-serif" font-size="11" lengthAdjust="spacingAndGlyphs" textLength="143" x="46.5" y="221.4292">GetInsertedNotes() : void</text><ellipse cx="37.5" cy="231.0234" fill="#84BE84" rx="3" ry="3" style="stroke: #038048; stroke-width: 1.0;"/><text fill="#000000" font-family="sans-serif" font-size="11" lengthAdjust="spacingAndGlyphs" textLength="118" x="46.5" y="234.2339">CancelButton() : void</text><ellipse cx="37.5" cy="243.8281" fill="#84BE84" rx="3" ry="3" style="stroke: #038048; stroke-width: 1.0;"/><text fill="#000000" font-family="sans-serif" font-size="11" lengthAdjust="spacingAndGlyphs" textLength="106" x="46.5" y="247.0386">ImportData() : void</text><ellipse cx="37.5" cy="256.6328" fill="#84BE84" rx="3" ry="3" style="stroke: #038048; stroke-width: 1.0;"/><text fill="#000000" font-family="sans-serif" font-size="11" lengthAdjust="spacingAndGlyphs" textLength="311" x="46.5" y="259.8433">«override» LoadFromFile(FilePath:string) : GameObject</text><ellipse cx="37.5" cy="269.4375" fill="#84BE84" rx="3" ry="3" style="stroke: #038048; stroke-width: 1.0;"/><text fill="#000000" font-family="sans-serif" font-size="11" lengthAdjust="spacingAndGlyphs" textLength="147" x="46.5" y="272.6479">DeleteAllInstances() : void</text><ellipse cx="37.5" cy="282.2422" fill="#84BE84" rx="3" ry="3" style="stroke: #038048; stroke-width: 1.0;"/><text fill="#000000" font-family="sans-serif" font-size="11" lengthAdjust="spacingAndGlyphs" text-decoration="underline" textLength="278" x="46.5" y="285.4526">SaveSingleInstance(instance:ToolInstance) : void</text><ellipse cx="37.5" cy="295.0469" fill="#84BE84" rx="3" ry="3" style="stroke: #038048; stroke-width: 1.0;"/><text fill="#000000" font-family="sans-serif" font-size="11" lengthAdjust="spacingAndGlyphs" textLength="145" x="46.5" y="298.2573">SaveMultiInstance() : void</text><ellipse cx="37.5" cy="307.8516" fill="#84BE84" rx="3" ry="3" style="stroke: #038048; stroke-width: 1.0;"/><text fill="#000000" font-family="sans-serif" font-size="11" lengthAdjust="spacingAndGlyphs" textLength="99" x="46.5" y="311.062">ShowHide() : void</text><ellipse cx="37.5" cy="320.6563" fill="#84BE84" rx="3" ry="3" style="stroke: #038048; stroke-width: 1.0;"/><text fill="#000000" font-family="sans-serif" font-size="11" lengthAdjust="spacingAndGlyphs" textLength="119" x="46.5" y="323.8667">OnPointerExit() : void</text><ellipse cx="37.5" cy="333.4609" fill="#84BE84" rx="3" ry="3" style="stroke: #038048; stroke-width: 1.0;"/><text fill="#000000" font-family="sans-serif" font-size="11" lengthAdjust="spacingAndGlyphs" textLength="129" x="46.5" y="336.6714">OnPointerEnter() : void</text><!--MD5=[2e1ff885372daab8d802f213ced6c836]
class Dictionary`2--><rect fill="#FEFECE" filter="url(#f1etybjez39x10)" height="48" id="Dictionary`2" style="stroke: #A80036; stroke-width: 1.5;" width="146" x="122" y="403"/><ellipse cx="137" cy="419" fill="#ADD1B2" rx="11" ry="11" style="stroke: #A80036; stroke-width: 1.0;"/><path d="M139.9688,424.6406 Q139.3906,424.9375 138.75,425.0781 Q138.1094,425.2344 137.4063,425.2344 Q134.9063,425.2344 133.5781,423.5938 Q132.2656,421.9375 132.2656,418.8125 Q132.2656,415.6875 133.5781,414.0313 Q134.9063,412.375 137.4063,412.375 Q138.1094,412.375 138.75,412.5313 Q139.4063,412.6875 139.9688,412.9844 L139.9688,415.7031 Q139.3438,415.125 138.75,414.8594 Q138.1563,414.5781 137.5313,414.5781 Q136.1875,414.5781 135.5,415.6563 Q134.8125,416.7188 134.8125,418.8125 Q134.8125,420.9063 135.5,421.9844 Q136.1875,423.0469 137.5313,423.0469 Q138.1563,423.0469 138.75,422.7813 Q139.3438,422.5 139.9688,421.9219 L139.9688,424.6406 Z "/><text fill="#000000" font-family="sans-serif" font-size="12" lengthAdjust="spacingAndGlyphs" textLength="76" x="151" y="423.1543">Dictionary`2</text><rect fill="#FFFFFF" height="15.9688" style="stroke: #000000; stroke-width: 1.0; stroke-dasharray: 2.0,2.0;" width="36" x="235" y="400"/><text fill="#000000" font-family="sans-serif" font-size="12" font-style="italic" lengthAdjust="spacingAndGlyphs" textLength="34" x="236" y="412.1387">T1,T2</text><line style="stroke: #A80036; stroke-width: 1.5;" x1="123" x2="267" y1="435" y2="435"/><line style="stroke: #A80036; stroke-width: 1.5;" x1="123" x2="267" y1="443" y2="443"/><!--MD5=[e644022de7dea015dd09463c37421447]
class List`1--><rect fill="#FEFECE" filter="url(#f1etybjez39x10)" height="48" id="List`1" style="stroke: #A80036; stroke-width: 1.5;" width="78" x="399" y="205.5"/><ellipse cx="414" cy="221.5" fill="#ADD1B2" rx="11" ry="11" style="stroke: #A80036; stroke-width: 1.0;"/><path d="M416.9688,227.1406 Q416.3906,227.4375 415.75,227.5781 Q415.1094,227.7344 414.4063,227.7344 Q411.9063,227.7344 410.5781,226.0938 Q409.2656,224.4375 409.2656,221.3125 Q409.2656,218.1875 410.5781,216.5313 Q411.9063,214.875 414.4063,214.875 Q415.1094,214.875 415.75,215.0313 Q416.4063,215.1875 416.9688,215.4844 L416.9688,218.2031 Q416.3438,217.625 415.75,217.3594 Q415.1563,217.0781 414.5313,217.0781 Q413.1875,217.0781 412.5,218.1563 Q411.8125,219.2188 411.8125,221.3125 Q411.8125,223.4063 412.5,224.4844 Q413.1875,225.5469 414.5313,225.5469 Q415.1563,225.5469 415.75,225.2813 Q416.3438,225 416.9688,224.4219 L416.9688,227.1406 Z "/><text fill="#000000" font-family="sans-serif" font-size="12" lengthAdjust="spacingAndGlyphs" textLength="35" x="428" y="225.6543">List`1</text><rect fill="#FFFFFF" height="15.9688" style="stroke: #000000; stroke-width: 1.0; stroke-dasharray: 2.0,2.0;" width="9" x="471" y="202.5"/><text fill="#000000" font-family="sans-serif" font-size="12" font-style="italic" lengthAdjust="spacingAndGlyphs" textLength="7" x="472" y="214.6387">T</text><line style="stroke: #A80036; stroke-width: 1.5;" x1="400" x2="476" y1="237.5" y2="237.5"/><line style="stroke: #A80036; stroke-width: 1.5;" x1="400" x2="476" y1="245.5" y2="245.5"/><!--MD5=[5910e465cccb2cec379e83a41f7f6503]
class Tool--><rect fill="#FEFECE" filter="url(#f1etybjez39x10)" height="48" id="Tool" style="stroke: #A80036; stroke-width: 1.5;" width="58" x="166" y="8"/><ellipse cx="181" cy="24" fill="#ADD1B2" rx="11" ry="11" style="stroke: #A80036; stroke-width: 1.0;"/><path d="M183.9688,29.6406 Q183.3906,29.9375 182.75,30.0781 Q182.1094,30.2344 181.4063,30.2344 Q178.9063,30.2344 177.5781,28.5938 Q176.2656,26.9375 176.2656,23.8125 Q176.2656,20.6875 177.5781,19.0313 Q178.9063,17.375 181.4063,17.375 Q182.1094,17.375 182.75,17.5313 Q183.4063,17.6875 183.9688,17.9844 L183.9688,20.7031 Q183.3438,20.125 182.75,19.8594 Q182.1563,19.5781 181.5313,19.5781 Q180.1875,19.5781 179.5,20.6563 Q178.8125,21.7188 178.8125,23.8125 Q178.8125,25.9063 179.5,26.9844 Q180.1875,28.0469 181.5313,28.0469 Q182.1563,28.0469 182.75,27.7813 Q183.3438,27.5 183.9688,26.9219 L183.9688,29.6406 Z "/><text fill="#000000" font-family="sans-serif" font-size="12" lengthAdjust="spacingAndGlyphs" textLength="26" x="195" y="28.1543">Tool</text><line style="stroke: #A80036; stroke-width: 1.5;" x1="167" x2="223" y1="40" y2="40"/><line style="stroke: #A80036; stroke-width: 1.5;" x1="167" x2="223" y1="48" y2="48"/><!--MD5=[d47abfdc72fafa89695ae968e2e28139]
reverse link Tool to RulerTool--><path d="M195,76.38 C195,88.38 195,101.97 195,115.98 " fill="none" id="Tool&lt;-RulerTool" style="stroke: #A80036; stroke-width: 1.0;"/><polygon fill="none" points="188,76.19,195,56.19,202,76.19,188,76.19" style="stroke: #A80036; stroke-width: 1.0;"/><!--MD5=[29e6dbf85cd169bf7b396900b25a45db]
link RulerTool to Dictionary`2--><path d="M195,343.09 C195,363.35 195,382.74 195,397.67 " fill="none" id="RulerTool-&gt;Dictionary`2" style="stroke: #A80036; stroke-width: 1.0;"/><polygon fill="#A80036" points="195,402.96,199,393.96,195,397.96,191,393.96,195,402.96" style="stroke: #A80036; stroke-width: 1.0;"/><text fill="#000000" font-family="sans-serif" font-size="13" lengthAdjust="spacingAndGlyphs" textLength="174" x="-1.2937" y="391.9618">dictionary&lt;string,decimal&gt;</text><!--MD5=[ba9fd7dbd6b1ddf145ec4c44f62999f6]
link RulerTool to List`1--><path d="M374.1948,295.3751 C374.1948,295.3751 398.8,276.38 410.6,263.56 " fill="none" id="RulerTool-List`1" style="stroke: #A80036; stroke-width: 1.0;"/><polygon fill="#A80036" points="419.2,253.8,410.2482,257.9068,415.8939,257.551,416.2498,263.1966,419.2,253.8" style="stroke: #A80036; stroke-width: 1.0;"/><line style="stroke: #A80036; stroke-width: 1.0;" x1="415.8939" x2="410.605" y1="257.551" y2="263.56"/><polygon fill="#FFFFFF" points="363.96,301.64,371.1657,301.9192,374.1948,295.3751,366.9891,295.096,363.96,301.64" style="stroke: #A80036; stroke-width: 1.0;"/><text fill="#000000" font-family="sans-serif" font-size="13" lengthAdjust="spacingAndGlyphs" textLength="178" x="436.3113" y="273.6343">instanceList&lt;GameObject&gt;</text><!--MD5=[ba9fd7dbd6b1ddf145ec4c44f62999f6]
link RulerTool to List`1--><path d="M374.1948,163.6249 C374.1948,163.6249 398.8,182.62 410.6,195.44 " fill="none" id="RulerTool-List`1-1" style="stroke: #A80036; stroke-width: 1.0;"/><polygon fill="#A80036" points="419.2,205.2,416.2498,195.8034,415.8939,201.449,410.2482,201.0932,419.2,205.2" style="stroke: #A80036; stroke-width: 1.0;"/><line style="stroke: #A80036; stroke-width: 1.0;" x1="415.8939" x2="410.605" y1="201.449" y2="195.44"/><polygon fill="#FFFFFF" points="363.96,157.36,366.9891,163.904,374.1948,163.6249,371.1657,157.0808,363.96,157.36" style="stroke: #A80036; stroke-width: 1.0;"/><text fill="#000000" font-family="sans-serif" font-size="13" lengthAdjust="spacingAndGlyphs" textLength="117" x="428.8769" y="194.5318">RulerMap&lt;string&gt;</text><!--MD5=[d9b6742972682c23671dd78fe4d527aa]
@startuml
class RulerTool {
    + {static} localID : int = 0
    oldNote : string = ""
    + <<override>> ToolCoroutine() : IEnumerator
    + startToolInterface() : void
    + GetInsertedNotes() : void
    + CancelButton() : void
    + ImportData() : void
    + <<override>> LoadFromFile(FilePath:string) : GameObject
    + DeleteAllInstances() : void
    + {static} SaveSingleInstance(instance:ToolInstance) : void
    + SaveMultiInstance() : void
    + ShowHide() : void
    + OnPointerExit() : void
    + OnPointerEnter() : void
}
class "Dictionary`2"<T1,T2> {
}
class "List`1"<T> {
}
Tool <|- - RulerTool
RulerTool - -> "dictionary<string,decimal>" "Dictionary`2"
RulerTool o-> "instanceList<GameObject>" "List`1"
RulerTool o-> "RulerMap<string>" "List`1"
@enduml

PlantUML version 1.2020.02(Sun Mar 01 10:22:07 GMT 2020)
(GPL source distribution)
Java Runtime: OpenJDK Runtime Environment
JVM: OpenJDK 64-Bit Server VM
Java Version: 11.0.9+11-Ubuntu-0ubuntu1
Operating System: Linux
Default Encoding: ANSI_X3.4-1968
Language: en
Country: US
--></g></svg>