<?xml version="1.0" encoding="UTF-8" standalone="no"?><svg xmlns="http://www.w3.org/2000/svg" xmlns:xlink="http://www.w3.org/1999/xlink" contentScriptType="application/ecmascript" contentStyleType="text/css" height="590px" preserveAspectRatio="none" style="width:1876px;height:590px;" version="1.1" viewBox="0 0 1876 590" width="1876px" zoomAndPan="magnify"><defs><filter height="300%" id="fdmeogxz95k5t" width="300%" x="-1" y="-1"><feGaussianBlur result="blurOut" stdDeviation="2.0"/><feColorMatrix in="blurOut" result="blurOut2" type="matrix" values="0 0 0 0 0 0 0 0 0 0 0 0 0 0 0 0 0 0 .4 0"/><feOffset dx="4.0" dy="4.0" in="blurOut2" result="blurOut3"/><feBlend in="SourceGraphic" in2="blurOut3" mode="normal"/></filter></defs><g><!--MD5=[d7f3020ff86c4808354a00d400ceb0ee]
class ToolInstance--><rect fill="#FEFECE" filter="url(#fdmeogxz95k5t)" height="355.3125" id="ToolInstance" style="stroke: #A80036; stroke-width: 1.5;" width="1859" x="6" y="116"/><ellipse cx="891.25" cy="132" fill="#ADD1B2" rx="11" ry="11" style="stroke: #A80036; stroke-width: 1.0;"/><path d="M894.2188,137.6406 Q893.6406,137.9375 893,138.0781 Q892.3594,138.2344 891.6563,138.2344 Q889.1563,138.2344 887.8281,136.5938 Q886.5156,134.9375 886.5156,131.8125 Q886.5156,128.6875 887.8281,127.0313 Q889.1563,125.375 891.6563,125.375 Q892.3594,125.375 893,125.5313 Q893.6563,125.6875 894.2188,125.9844 L894.2188,128.7031 Q893.5938,128.125 893,127.8594 Q892.4063,127.5781 891.7813,127.5781 Q890.4375,127.5781 889.75,128.6563 Q889.0625,129.7188 889.0625,131.8125 Q889.0625,133.9063 889.75,134.9844 Q890.4375,136.0469 891.7813,136.0469 Q892.4063,136.0469 893,135.7813 Q893.5938,135.5 894.2188,134.9219 L894.2188,137.6406 Z "/><text fill="#000000" font-family="sans-serif" font-size="12" lengthAdjust="spacingAndGlyphs" textLength="80" x="911.75" y="136.1543">ToolInstance</text><line style="stroke: #A80036; stroke-width: 1.5;" x1="7" x2="1864" y1="148" y2="148"/><ellipse cx="17" cy="159" fill="none" rx="3" ry="3" style="stroke: #038048; stroke-width: 1.0;"/><text fill="#000000" font-family="sans-serif" font-size="11" lengthAdjust="spacingAndGlyphs" text-decoration="underline" textLength="93" x="26" y="162.2104">StaticID : int = 1</text><ellipse cx="17" cy="171.8047" fill="none" rx="3" ry="3" style="stroke: #038048; stroke-width: 1.0;"/><text fill="#000000" font-family="sans-serif" font-size="11" lengthAdjust="spacingAndGlyphs" textLength="56" x="26" y="175.0151">ID : string</text><ellipse cx="17" cy="184.6094" fill="none" rx="3" ry="3" style="stroke: #038048; stroke-width: 1.0;"/><text fill="#000000" font-family="sans-serif" font-size="11" lengthAdjust="spacingAndGlyphs" textLength="78" x="26" y="187.8198">Notes : string</text><ellipse cx="17" cy="197.4141" fill="none" rx="3" ry="3" style="stroke: #038048; stroke-width: 1.0;"/><text fill="#000000" font-family="sans-serif" font-size="11" lengthAdjust="spacingAndGlyphs" textLength="93" x="26" y="200.6245">ToolTitle : string</text><ellipse cx="17" cy="210.2188" fill="none" rx="3" ry="3" style="stroke: #038048; stroke-width: 1.0;"/><text fill="#000000" font-family="sans-serif" font-size="11" lengthAdjust="spacingAndGlyphs" textLength="93" x="26" y="213.4292">ToolText : string</text><ellipse cx="17" cy="223.0234" fill="none" rx="3" ry="3" style="stroke: #038048; stroke-width: 1.0;"/><text fill="#000000" font-family="sans-serif" font-size="11" lengthAdjust="spacingAndGlyphs" textLength="106" x="26" y="226.2339">CustomTxt : string</text><ellipse cx="17" cy="235.8281" fill="none" rx="3" ry="3" style="stroke: #038048; stroke-width: 1.0;"/><text fill="#000000" font-family="sans-serif" font-size="11" lengthAdjust="spacingAndGlyphs" textLength="212" x="26" y="239.0386">ShouldDestroyOnClose : bool = false</text><ellipse cx="17" cy="248.6328" fill="none" rx="3" ry="3" style="stroke: #038048; stroke-width: 1.0;"/><text fill="#000000" font-family="sans-serif" font-size="11" lengthAdjust="spacingAndGlyphs" textLength="207" x="26" y="251.8433">ShouldShowWorldMenu : bool = true</text><line style="stroke: #A80036; stroke-width: 1.5;" x1="7" x2="1864" y1="258.4375" y2="258.4375"/><text fill="#000000" font-family="sans-serif" font-size="11" lengthAdjust="spacingAndGlyphs" textLength="71" x="26" y="272.6479">Start() : void</text><ellipse cx="17" cy="282.2422" fill="#84BE84" rx="3" ry="3" style="stroke: #038048; stroke-width: 1.0;"/><text fill="#000000" font-family="sans-serif" font-size="11" lengthAdjust="spacingAndGlyphs" textLength="1833" x="26" y="285.4526">PostStart(_toolController:ToolController, _Title:string, _Text:string, _Desc:string, _ToolType:Tool.toolType, Values:Dictionary&lt;string, decimal&gt;, Placemarks:List&lt;GameObject&gt;, _creationDate:DateTime, DestroyOnClose:bool, hasGraph:bool, ShowWorldMenu:bool, localID:int, globalID:string, showToolSummaryUI:bool) : void</text><ellipse cx="17" cy="295.0469" fill="#84BE84" rx="3" ry="3" style="stroke: #038048; stroke-width: 1.0;"/><text fill="#000000" font-family="sans-serif" font-size="11" lengthAdjust="spacingAndGlyphs" textLength="84" x="26" y="298.2573">GetID() : string</text><ellipse cx="17" cy="307.8516" fill="#84BE84" rx="3" ry="3" style="stroke: #038048; stroke-width: 1.0;"/><text fill="#000000" font-family="sans-serif" font-size="11" lengthAdjust="spacingAndGlyphs" textLength="212" x="26" y="311.062">UpdateGraphs(lr:LineRenderer) : void</text><ellipse cx="17" cy="320.6563" fill="#84BE84" rx="3" ry="3" style="stroke: #038048; stroke-width: 1.0;"/><text fill="#000000" font-family="sans-serif" font-size="11" lengthAdjust="spacingAndGlyphs" textLength="232" x="26" y="323.8667">OnUpdateString(_newNotes:string) : void</text><ellipse cx="17" cy="333.4609" fill="#84BE84" rx="3" ry="3" style="stroke: #038048; stroke-width: 1.0;"/><text fill="#000000" font-family="sans-serif" font-size="11" lengthAdjust="spacingAndGlyphs" textLength="114" x="26" y="336.6714">enableNotes() : void</text><ellipse cx="17" cy="346.2656" fill="#84BE84" rx="3" ry="3" style="stroke: #038048; stroke-width: 1.0;"/><text fill="#000000" font-family="sans-serif" font-size="11" lengthAdjust="spacingAndGlyphs" textLength="107" x="26" y="349.4761">ShowNotes() : void</text><ellipse cx="17" cy="359.0703" fill="#84BE84" rx="3" ry="3" style="stroke: #038048; stroke-width: 1.0;"/><text fill="#000000" font-family="sans-serif" font-size="11" lengthAdjust="spacingAndGlyphs" textLength="101" x="26" y="362.2808">HideNotes() : void</text><ellipse cx="17" cy="371.875" fill="#84BE84" rx="3" ry="3" style="stroke: #038048; stroke-width: 1.0;"/><text fill="#000000" font-family="sans-serif" font-size="11" lengthAdjust="spacingAndGlyphs" textLength="109" x="26" y="375.0854">SaveOutput() : void</text><ellipse cx="17" cy="384.6797" fill="#84BE84" rx="3" ry="3" style="stroke: #038048; stroke-width: 1.0;"/><text fill="#000000" font-family="sans-serif" font-size="11" lengthAdjust="spacingAndGlyphs" textLength="213" x="26" y="387.8901">SaveTopographicGraphToCSV() : void</text><ellipse cx="17" cy="397.4844" fill="#84BE84" rx="3" ry="3" style="stroke: #038048; stroke-width: 1.0;"/><text fill="#000000" font-family="sans-serif" font-size="11" lengthAdjust="spacingAndGlyphs" textLength="139" x="26" y="400.6948">SaveNotesToTXT() : void</text><ellipse cx="17" cy="410.2891" fill="#84BE84" rx="3" ry="3" style="stroke: #038048; stroke-width: 1.0;"/><text fill="#000000" font-family="sans-serif" font-size="11" lengthAdjust="spacingAndGlyphs" textLength="170" x="26" y="413.4995">DestroySingleInstance() : void</text><ellipse cx="17" cy="423.0938" fill="#84BE84" rx="3" ry="3" style="stroke: #038048; stroke-width: 1.0;"/><text fill="#000000" font-family="sans-serif" font-size="11" lengthAdjust="spacingAndGlyphs" textLength="135" x="26" y="426.3042">DestroyInstance() : void</text><ellipse cx="17" cy="435.8984" fill="#84BE84" rx="3" ry="3" style="stroke: #038048; stroke-width: 1.0;"/><text fill="#000000" font-family="sans-serif" font-size="11" lengthAdjust="spacingAndGlyphs" textLength="137" x="26" y="439.1089">ConfirmMeasure() : void</text><ellipse cx="17" cy="448.7031" fill="#84BE84" rx="3" ry="3" style="stroke: #038048; stroke-width: 1.0;"/><text fill="#000000" font-family="sans-serif" font-size="11" lengthAdjust="spacingAndGlyphs" textLength="175" x="26" y="451.9136">MenuCoroutine() : IEnumerator</text><text fill="#000000" font-family="sans-serif" font-size="11" lengthAdjust="spacingAndGlyphs" textLength="381" x="26" y="464.7183">ShowNotificationInLabel(message:string, delay:float) : IEnumerator</text><!--MD5=[e644022de7dea015dd09463c37421447]
class List`1--><rect fill="#FEFECE" filter="url(#fdmeogxz95k5t)" height="48" id="List`1" style="stroke: #A80036; stroke-width: 1.5;" width="78" x="823.5" y="531"/><ellipse cx="838.5" cy="547" fill="#ADD1B2" rx="11" ry="11" style="stroke: #A80036; stroke-width: 1.0;"/><path d="M841.4688,552.6406 Q840.8906,552.9375 840.25,553.0781 Q839.6094,553.2344 838.9063,553.2344 Q836.4063,553.2344 835.0781,551.5938 Q833.7656,549.9375 833.7656,546.8125 Q833.7656,543.6875 835.0781,542.0313 Q836.4063,540.375 838.9063,540.375 Q839.6094,540.375 840.25,540.5313 Q840.9063,540.6875 841.4688,540.9844 L841.4688,543.7031 Q840.8438,543.125 840.25,542.8594 Q839.6563,542.5781 839.0313,542.5781 Q837.6875,542.5781 837,543.6563 Q836.3125,544.7188 836.3125,546.8125 Q836.3125,548.9063 837,549.9844 Q837.6875,551.0469 839.0313,551.0469 Q839.6563,551.0469 840.25,550.7813 Q840.8438,550.5 841.4688,549.9219 L841.4688,552.6406 Z "/><text fill="#000000" font-family="sans-serif" font-size="12" lengthAdjust="spacingAndGlyphs" textLength="35" x="852.5" y="551.1543">List`1</text><rect fill="#FFFFFF" height="15.9688" style="stroke: #000000; stroke-width: 1.0; stroke-dasharray: 2.0,2.0;" width="9" x="895.5" y="528"/><text fill="#000000" font-family="sans-serif" font-size="12" font-style="italic" lengthAdjust="spacingAndGlyphs" textLength="7" x="896.5" y="540.1387">T</text><line style="stroke: #A80036; stroke-width: 1.5;" x1="824.5" x2="900.5" y1="563" y2="563"/><line style="stroke: #A80036; stroke-width: 1.5;" x1="824.5" x2="900.5" y1="571" y2="571"/><!--MD5=[2e1ff885372daab8d802f213ced6c836]
class Dictionary`2--><rect fill="#FEFECE" filter="url(#fdmeogxz95k5t)" height="48" id="Dictionary`2" style="stroke: #A80036; stroke-width: 1.5;" width="146" x="936.5" y="531"/><ellipse cx="951.5" cy="547" fill="#ADD1B2" rx="11" ry="11" style="stroke: #A80036; stroke-width: 1.0;"/><path d="M954.4688,552.6406 Q953.8906,552.9375 953.25,553.0781 Q952.6094,553.2344 951.9063,553.2344 Q949.4063,553.2344 948.0781,551.5938 Q946.7656,549.9375 946.7656,546.8125 Q946.7656,543.6875 948.0781,542.0313 Q949.4063,540.375 951.9063,540.375 Q952.6094,540.375 953.25,540.5313 Q953.9063,540.6875 954.4688,540.9844 L954.4688,543.7031 Q953.8438,543.125 953.25,542.8594 Q952.6563,542.5781 952.0313,542.5781 Q950.6875,542.5781 950,543.6563 Q949.3125,544.7188 949.3125,546.8125 Q949.3125,548.9063 950,549.9844 Q950.6875,551.0469 952.0313,551.0469 Q952.6563,551.0469 953.25,550.7813 Q953.8438,550.5 954.4688,549.9219 L954.4688,552.6406 Z "/><text fill="#000000" font-family="sans-serif" font-size="12" lengthAdjust="spacingAndGlyphs" textLength="76" x="965.5" y="551.1543">Dictionary`2</text><rect fill="#FFFFFF" height="15.9688" style="stroke: #000000; stroke-width: 1.0; stroke-dasharray: 2.0,2.0;" width="36" x="1049.5" y="528"/><text fill="#000000" font-family="sans-serif" font-size="12" font-style="italic" lengthAdjust="spacingAndGlyphs" textLength="34" x="1050.5" y="540.1387">T1,T2</text><line style="stroke: #A80036; stroke-width: 1.5;" x1="937.5" x2="1081.5" y1="563" y2="563"/><line style="stroke: #A80036; stroke-width: 1.5;" x1="937.5" x2="1081.5" y1="571" y2="571"/><!--MD5=[83b3cf3d23d77c6f1e1b5291a241bc2a]
class MonoBehaviour--><rect fill="#FEFECE" filter="url(#fdmeogxz95k5t)" height="48" id="MonoBehaviour" style="stroke: #A80036; stroke-width: 1.5;" width="128" x="871.5" y="8"/><ellipse cx="886.5" cy="24" fill="#ADD1B2" rx="11" ry="11" style="stroke: #A80036; stroke-width: 1.0;"/><path d="M889.4688,29.6406 Q888.8906,29.9375 888.25,30.0781 Q887.6094,30.2344 886.9063,30.2344 Q884.4063,30.2344 883.0781,28.5938 Q881.7656,26.9375 881.7656,23.8125 Q881.7656,20.6875 883.0781,19.0313 Q884.4063,17.375 886.9063,17.375 Q887.6094,17.375 888.25,17.5313 Q888.9063,17.6875 889.4688,17.9844 L889.4688,20.7031 Q888.8438,20.125 888.25,19.8594 Q887.6563,19.5781 887.0313,19.5781 Q885.6875,19.5781 885,20.6563 Q884.3125,21.7188 884.3125,23.8125 Q884.3125,25.9063 885,26.9844 Q885.6875,28.0469 887.0313,28.0469 Q887.6563,28.0469 888.25,27.7813 Q888.8438,27.5 889.4688,26.9219 L889.4688,29.6406 Z "/><text fill="#000000" font-family="sans-serif" font-size="12" lengthAdjust="spacingAndGlyphs" textLength="96" x="900.5" y="28.1543">MonoBehaviour</text><line style="stroke: #A80036; stroke-width: 1.5;" x1="872.5" x2="998.5" y1="40" y2="40"/><line style="stroke: #A80036; stroke-width: 1.5;" x1="872.5" x2="998.5" y1="48" y2="48"/><!--MD5=[064f7a74fee85463ec1a30143664ee17]
class GameObject--><rect fill="#FEFECE" filter="url(#fdmeogxz95k5t)" height="48" id="GameObject" style="stroke: #A80036; stroke-width: 1.5;" width="108" x="1117.5" y="531"/><ellipse cx="1132.5" cy="547" fill="#ADD1B2" rx="11" ry="11" style="stroke: #A80036; stroke-width: 1.0;"/><path d="M1135.4688,552.6406 Q1134.8906,552.9375 1134.25,553.0781 Q1133.6094,553.2344 1132.9063,553.2344 Q1130.4063,553.2344 1129.0781,551.5938 Q1127.7656,549.9375 1127.7656,546.8125 Q1127.7656,543.6875 1129.0781,542.0313 Q1130.4063,540.375 1132.9063,540.375 Q1133.6094,540.375 1134.25,540.5313 Q1134.9063,540.6875 1135.4688,540.9844 L1135.4688,543.7031 Q1134.8438,543.125 1134.25,542.8594 Q1133.6563,542.5781 1133.0313,542.5781 Q1131.6875,542.5781 1131,543.6563 Q1130.3125,544.7188 1130.3125,546.8125 Q1130.3125,548.9063 1131,549.9844 Q1131.6875,551.0469 1133.0313,551.0469 Q1133.6563,551.0469 1134.25,550.7813 Q1134.8438,550.5 1135.4688,549.9219 L1135.4688,552.6406 Z "/><text fill="#000000" font-family="sans-serif" font-size="12" lengthAdjust="spacingAndGlyphs" textLength="76" x="1146.5" y="551.1543">GameObject</text><line style="stroke: #A80036; stroke-width: 1.5;" x1="1118.5" x2="1224.5" y1="563" y2="563"/><line style="stroke: #A80036; stroke-width: 1.5;" x1="1118.5" x2="1224.5" y1="571" y2="571"/><!--MD5=[20ddef7090025b04fb973268620c0974]
class DateTime--><rect fill="#FEFECE" filter="url(#fdmeogxz95k5t)" height="48" id="DateTime" style="stroke: #A80036; stroke-width: 1.5;" width="91" x="1261" y="531"/><ellipse cx="1276" cy="547" fill="#ADD1B2" rx="11" ry="11" style="stroke: #A80036; stroke-width: 1.0;"/><path d="M1278.9688,552.6406 Q1278.3906,552.9375 1277.75,553.0781 Q1277.1094,553.2344 1276.4063,553.2344 Q1273.9063,553.2344 1272.5781,551.5938 Q1271.2656,549.9375 1271.2656,546.8125 Q1271.2656,543.6875 1272.5781,542.0313 Q1273.9063,540.375 1276.4063,540.375 Q1277.1094,540.375 1277.75,540.5313 Q1278.4063,540.6875 1278.9688,540.9844 L1278.9688,543.7031 Q1278.3438,543.125 1277.75,542.8594 Q1277.1563,542.5781 1276.5313,542.5781 Q1275.1875,542.5781 1274.5,543.6563 Q1273.8125,544.7188 1273.8125,546.8125 Q1273.8125,548.9063 1274.5,549.9844 Q1275.1875,551.0469 1276.5313,551.0469 Q1277.1563,551.0469 1277.75,550.7813 Q1278.3438,550.5 1278.9688,549.9219 L1278.9688,552.6406 Z "/><text fill="#000000" font-family="sans-serif" font-size="12" lengthAdjust="spacingAndGlyphs" textLength="59" x="1290" y="551.1543">DateTime</text><line style="stroke: #A80036; stroke-width: 1.5;" x1="1262" x2="1351" y1="563" y2="563"/><line style="stroke: #A80036; stroke-width: 1.5;" x1="1262" x2="1351" y1="571" y2="571"/><!--MD5=[0cd0086f12ad78c007a1061f5cd5776f]
reverse link MonoBehaviour to ToolInstance--><path d="M935.5,76.29 C935.5,88.05 935.5,101.56 935.5,115.96 " fill="none" id="MonoBehaviour&lt;-ToolInstance" style="stroke: #A80036; stroke-width: 1.0;"/><polygon fill="none" points="928.5,76.03,935.5,56.03,942.5,76.03,928.5,76.03" style="stroke: #A80036; stroke-width: 1.0;"/><!--MD5=[2f286fd60f435a4af2318b31e7a0df7c]
link ToolInstance to List`1--><path d="M824.5,471.18 C822.27,492.3 823.19,511.51 828.02,526.1 " fill="none" id="ToolInstance-&gt;List`1" style="stroke: #A80036; stroke-width: 1.0;"/><polygon fill="#A80036" points="829.81,530.86,830.3853,521.028,828.0497,526.1801,822.8975,523.8445,829.81,530.86" style="stroke: #A80036; stroke-width: 1.0;"/><text fill="#000000" font-family="sans-serif" font-size="13" lengthAdjust="spacingAndGlyphs" textLength="191" x="624.7892" y="524.4735">PlacemarkList&lt;GameObject&gt;</text><!--MD5=[2f286fd60f435a4af2318b31e7a0df7c]
link ToolInstance to List`1--><path d="M849.16,471.18 C845.47,492.12 843.84,511.18 845.02,525.71 " fill="none" id="ToolInstance-&gt;List`1-1" style="stroke: #A80036; stroke-width: 1.0;"/><polygon fill="#A80036" points="845.58,530.86,848.5794,521.479,845.0372,525.8895,840.6267,522.3474,845.58,530.86" style="stroke: #A80036; stroke-width: 1.0;"/><text fill="#000000" font-family="sans-serif" font-size="13" lengthAdjust="spacingAndGlyphs" textLength="172" x="863.2818" y="519.8362">PolylineList&lt;GameObject&gt;</text><!--MD5=[2f286fd60f435a4af2318b31e7a0df7c]
link ToolInstance to List`1--><path d="M873.82,471.18 C868.65,492.12 864.51,511.18 862.14,525.71 " fill="none" id="ToolInstance-&gt;List`1-2" style="stroke: #A80036; stroke-width: 1.0;"/><polygon fill="#A80036" points="861.35,530.86,866.69,522.5845,862.121,525.9198,858.7857,521.3508,861.35,530.86" style="stroke: #A80036; stroke-width: 1.0;"/><text fill="#000000" font-family="sans-serif" font-size="13" lengthAdjust="spacingAndGlyphs" textLength="174" x="642.1731" y="534.4329">PolygonList&lt;GameObject&gt;</text><!--MD5=[2f286fd60f435a4af2318b31e7a0df7c]
link ToolInstance to List`1--><path d="M898.48,471.18 C891.77,492.3 885.06,511.51 879.11,526.1 " fill="none" id="ToolInstance-&gt;List`1-3" style="stroke: #A80036; stroke-width: 1.0;"/><polygon fill="#A80036" points="877.12,530.86,884.2813,524.0986,879.0481,526.2467,876.9,521.0136,877.12,530.86" style="stroke: #A80036; stroke-width: 1.0;"/><text fill="#000000" font-family="sans-serif" font-size="13" lengthAdjust="spacingAndGlyphs" textLength="156" x="891.2064" y="519.6915">RulerList&lt;GameObject&gt;</text><!--MD5=[2f286fd60f435a4af2318b31e7a0df7c]
link ToolInstance to List`1--><path d="M923.14,471.18 C914.87,492.49 905.52,511.84 895.89,526.48 " fill="none" id="ToolInstance-&gt;List`1-4" style="stroke: #A80036; stroke-width: 1.0;"/><polygon fill="#A80036" points="892.89,530.86,901.2644,525.6764,895.7062,526.7286,894.6541,521.1704,892.89,530.86" style="stroke: #A80036; stroke-width: 1.0;"/><text fill="#000000" font-family="sans-serif" font-size="13" lengthAdjust="spacingAndGlyphs" textLength="163" x="907.6021" y="519.9513">ProfileList&lt;GameObject&gt;</text><!--MD5=[2f286fd60f435a4af2318b31e7a0df7c]
link ToolInstance to List`1--><path d="M947.8,471.18 C936.33,496.16 921.92,518.47 905.83,533.61 " fill="none" id="ToolInstance-&gt;List`1-5" style="stroke: #A80036; stroke-width: 1.0;"/><polygon fill="#A80036" points="901.7,537.31,911.0777,534.3003,905.4299,533.9802,905.7501,528.3324,901.7,537.31" style="stroke: #A80036; stroke-width: 1.0;"/><text fill="#000000" font-family="sans-serif" font-size="13" lengthAdjust="spacingAndGlyphs" textLength="173" x="873.2134" y="520.2977">SurfaceList&lt;GameObject&gt;</text><!--MD5=[5a2ce05d85bcebbd84a107bee1d50a09]
link ToolInstance to Dictionary`2--><path d="M985.88,471.18 C991.85,492.12 997.29,511.18 1001.43,525.71 " fill="none" id="ToolInstance-&gt;Dictionary`2" style="stroke: #A80036; stroke-width: 1.0;"/><polygon fill="#A80036" points="1002.9,530.86,1004.2736,521.1074,1001.5264,526.0524,996.5814,523.3052,1002.9,530.86" style="stroke: #A80036; stroke-width: 1.0;"/><text fill="#000000" font-family="sans-serif" font-size="13" lengthAdjust="spacingAndGlyphs" textLength="173" x="1023.3744" y="519.8362">ValueDict&lt;string,decimal&gt;</text><!--MD5=[2024f188ee5549950e0acb66fb4ef5e5]
link ToolInstance to GameObject--><path d="M1059.54,471.18 C1081.72,493.04 1103.69,512.84 1122.76,527.6 " fill="none" id="ToolInstance-&gt;GameObject" style="stroke: #A80036; stroke-width: 1.0;"/><polygon fill="#A80036" points="1127.03,530.86,1122.3187,522.2111,1123.061,527.819,1117.4531,528.5614,1127.03,530.86" style="stroke: #A80036; stroke-width: 1.0;"/><text fill="#000000" font-family="sans-serif" font-size="13" lengthAdjust="spacingAndGlyphs" textLength="70" x="1039.7778" y="523.4529">WorldMenu</text><!--MD5=[2024f188ee5549950e0acb66fb4ef5e5]
link ToolInstance to GameObject--><path d="M1084.2,471.18 C1104.66,492.85 1123.82,512.51 1139.02,527.23 " fill="none" id="ToolInstance-&gt;GameObject-1" style="stroke: #A80036; stroke-width: 1.0;"/><polygon fill="#A80036" points="1142.8,530.86,1139.0979,521.7334,1139.2008,527.3893,1133.5449,527.4922,1142.8,530.86" style="stroke: #A80036; stroke-width: 1.0;"/><text fill="#000000" font-family="sans-serif" font-size="13" lengthAdjust="spacingAndGlyphs" textLength="78" x="1145.4394" y="519.8362">OculusMenu</text><!--MD5=[2024f188ee5549950e0acb66fb4ef5e5]
link ToolInstance to GameObject--><path d="M1108.86,471.18 C1127.63,492.67 1144.03,512.18 1155.47,526.85 " fill="none" id="ToolInstance-&gt;GameObject-2" style="stroke: #A80036; stroke-width: 1.0;"/><polygon fill="#A80036" points="1158.57,530.86,1156.2548,521.2871,1155.5221,526.8963,1149.9129,526.1637,1158.57,530.86" style="stroke: #A80036; stroke-width: 1.0;"/><text fill="#000000" font-family="sans-serif" font-size="13" lengthAdjust="spacingAndGlyphs" textLength="58" x="1089.8254" y="519.8362">GUIMenu</text><!--MD5=[2024f188ee5549950e0acb66fb4ef5e5]
link ToolInstance to GameObject--><path d="M1133.52,471.18 C1150.47,492.3 1164.09,511.51 1171.91,526.1 " fill="none" id="ToolInstance-&gt;GameObject-3" style="stroke: #A80036; stroke-width: 1.0;"/><polygon fill="#A80036" points="1174.34,530.86,1173.8174,521.025,1172.0697,526.4051,1166.6896,524.6574,1174.34,530.86" style="stroke: #A80036; stroke-width: 1.0;"/><text fill="#000000" font-family="sans-serif" font-size="13" lengthAdjust="spacingAndGlyphs" textLength="73" x="1228.2377" y="519.9537">NotesMenu</text><!--MD5=[82ae909a43b53b9a44cc14434fd143d4]
link ToolInstance to DateTime--><path d="M1187.84,471 C1219.41,493.08 1248,513.08 1269.2,527.91 " fill="none" id="ToolInstance-&gt;DateTime" style="stroke: #A80036; stroke-width: 1.0;"/><polygon fill="#A80036" points="1273.34,530.81,1268.2766,522.3624,1269.2492,527.935,1263.6766,528.9076,1273.34,530.81" style="stroke: #A80036; stroke-width: 1.0;"/><text fill="#000000" font-family="sans-serif" font-size="13" lengthAdjust="spacingAndGlyphs" textLength="83" x="1275.4771" y="519.7733">creationDate</text><!--MD5=[813ffe94f3fe7954361380fe4cc51ffc]
@startuml
class ToolInstance {
    + {static} StaticID : int = 1
    + ID : string
    + Notes : string
    + ToolTitle : string
    + ToolText : string
    + CustomTxt : string
    + ShouldDestroyOnClose : bool = false
    + ShouldShowWorldMenu : bool = true
    Start() : void
    + PostStart(_toolController:ToolController, _Title:string, _Text:string, _Desc:string, _ToolType:Tool.toolType, Values:Dictionary<string, decimal>, Placemarks:List<GameObject>, _creationDate:DateTime, DestroyOnClose:bool, hasGraph:bool, ShowWorldMenu:bool, localID:int, globalID:string, showToolSummaryUI:bool) : void
    + GetID() : string
    + UpdateGraphs(lr:LineRenderer) : void
    + OnUpdateString(_newNotes:string) : void
    + enableNotes() : void
    + ShowNotes() : void
    + HideNotes() : void
    + SaveOutput() : void
    + SaveTopographicGraphToCSV() : void
    + SaveNotesToTXT() : void
    + DestroySingleInstance() : void
    + DestroyInstance() : void
    + ConfirmMeasure() : void
    + MenuCoroutine() : IEnumerator
    ShowNotificationInLabel(message:string, delay:float) : IEnumerator
}
class "List`1"<T> {
}
class "Dictionary`2"<T1,T2> {
}
MonoBehaviour <|- - ToolInstance
ToolInstance - -> "PlacemarkList<GameObject>" "List`1"
ToolInstance - -> "PolylineList<GameObject>" "List`1"
ToolInstance - -> "PolygonList<GameObject>" "List`1"
ToolInstance - -> "RulerList<GameObject>" "List`1"
ToolInstance - -> "ProfileList<GameObject>" "List`1"
ToolInstance - -> "SurfaceList<GameObject>" "List`1"
ToolInstance - -> "ValueDict<string,decimal>" "Dictionary`2"
ToolInstance - -> "WorldMenu" GameObject
ToolInstance - -> "OculusMenu" GameObject
ToolInstance - -> "GUIMenu" GameObject
ToolInstance - -> "NotesMenu" GameObject
ToolInstance - -> "creationDate" DateTime
@enduml

PlantUML version 1.2020.02(Sun Mar 01 10:22:07 GMT 2020)
(GPL source distribution)
Java Runtime: OpenJDK Runtime Environment
JVM: OpenJDK 64-Bit Server VM
Java Version: 11.0.9+11-Ubuntu-0ubuntu1
Operating System: Linux
Default Encoding: ANSI_X3.4-1968
Language: en
Country: US
--></g></svg>