<?xml version="1.0" encoding="UTF-8" standalone="no"?><svg xmlns="http://www.w3.org/2000/svg" xmlns:xlink="http://www.w3.org/1999/xlink" contentScriptType="application/ecmascript" contentStyleType="text/css" height="513px" preserveAspectRatio="none" style="width:494px;height:513px;" version="1.1" viewBox="0 0 494 513" width="494px" zoomAndPan="magnify"><defs><filter height="300%" id="fjdl1atjmf1om" width="300%" x="-1" y="-1"><feGaussianBlur result="blurOut" stdDeviation="2.0"/><feColorMatrix in="blurOut" result="blurOut2" type="matrix" values="0 0 0 0 0 0 0 0 0 0 0 0 0 0 0 0 0 0 .4 0"/><feOffset dx="4.0" dy="4.0" in="blurOut2" result="blurOut3"/><feBlend in="SourceGraphic" in2="blurOut3" mode="normal"/></filter></defs><g><!--MD5=[5910e465cccb2cec379e83a41f7f6503]
class Tool--><rect fill="#FEFECE" filter="url(#fjdl1atjmf1om)" height="188.8516" id="Tool" style="stroke: #A80036; stroke-width: 1.5;" width="467" x="16" y="116"/><ellipse cx="232.25" cy="132" fill="#ADD1B2" rx="11" ry="11" style="stroke: #A80036; stroke-width: 1.0;"/><path d="M235.2188,137.6406 Q234.6406,137.9375 234,138.0781 Q233.3594,138.2344 232.6563,138.2344 Q230.1563,138.2344 228.8281,136.5938 Q227.5156,134.9375 227.5156,131.8125 Q227.5156,128.6875 228.8281,127.0313 Q230.1563,125.375 232.6563,125.375 Q233.3594,125.375 234,125.5313 Q234.6563,125.6875 235.2188,125.9844 L235.2188,128.7031 Q234.5938,128.125 234,127.8594 Q233.4063,127.5781 232.7813,127.5781 Q231.4375,127.5781 230.75,128.6563 Q230.0625,129.7188 230.0625,131.8125 Q230.0625,133.9063 230.75,134.9844 Q231.4375,136.0469 232.7813,136.0469 Q233.4063,136.0469 234,135.7813 Q234.5938,135.5 235.2188,134.9219 L235.2188,137.6406 Z "/><text fill="#000000" font-family="sans-serif" font-size="12" lengthAdjust="spacingAndGlyphs" textLength="26" x="252.75" y="136.1543">Tool</text><line style="stroke: #A80036; stroke-width: 1.5;" x1="17" x2="482" y1="148" y2="148"/><ellipse cx="27" cy="159" fill="none" rx="3" ry="3" style="stroke: #038048; stroke-width: 1.0;"/><text fill="#000000" font-family="sans-serif" font-size="11" lengthAdjust="spacingAndGlyphs" textLength="140" x="36" y="162.2104">isImporter : bool = false</text><line style="stroke: #A80036; stroke-width: 1.5;" x1="17" x2="482" y1="168.8047" y2="168.8047"/><text fill="#000000" font-family="sans-serif" font-size="11" lengthAdjust="spacingAndGlyphs" textLength="71" x="36" y="183.0151">Start() : void</text><ellipse cx="27" cy="192.6094" fill="#84BE84" rx="3" ry="3" style="stroke: #038048; stroke-width: 1.0;"/><text fill="#000000" font-family="sans-serif" font-size="11" lengthAdjust="spacingAndGlyphs" textLength="81" x="36" y="195.8198">OnUse() : void</text><ellipse cx="27" cy="205.4141" fill="#84BE84" rx="3" ry="3" style="stroke: #038048; stroke-width: 1.0;"/><text fill="#000000" font-family="sans-serif" font-size="11" lengthAdjust="spacingAndGlyphs" textLength="222" x="36" y="208.6245">«virtual» ToolCoroutine() : IEnumerator</text><ellipse cx="27" cy="218.2188" fill="#84BE84" rx="3" ry="3" style="stroke: #038048; stroke-width: 1.0;"/><text fill="#000000" font-family="sans-serif" font-size="11" lengthAdjust="spacingAndGlyphs" text-decoration="underline" textLength="169" x="36" y="221.4292">checkIfToolShouldQuit() : bool</text><ellipse cx="27" cy="231.0234" fill="#84BE84" rx="3" ry="3" style="stroke: #038048; stroke-width: 1.0;"/><text fill="#000000" font-family="sans-serif" font-size="11" lengthAdjust="spacingAndGlyphs" textLength="299" x="36" y="234.2339">«virtual» LoadFromFile(FilePath:string) : GameObject</text><ellipse cx="27" cy="243.8281" fill="#84BE84" rx="3" ry="3" style="stroke: #038048; stroke-width: 1.0;"/><text fill="#000000" font-family="sans-serif" font-size="11" lengthAdjust="spacingAndGlyphs" text-decoration="underline" textLength="278" x="36" y="247.0386">SaveSingleInstance(instance:ToolInstance) : void</text><ellipse cx="27" cy="256.6328" fill="#84BE84" rx="3" ry="3" style="stroke: #038048; stroke-width: 1.0;"/><text fill="#000000" font-family="sans-serif" font-size="11" lengthAdjust="spacingAndGlyphs" text-decoration="underline" textLength="145" x="36" y="259.8433">SaveMultiInstance() : void</text><ellipse cx="27" cy="269.4375" fill="#84BE84" rx="3" ry="3" style="stroke: #038048; stroke-width: 1.0;"/><text fill="#000000" font-family="sans-serif" font-size="11" lengthAdjust="spacingAndGlyphs" text-decoration="underline" textLength="147" x="36" y="272.6479">DeleteAllInstances() : void</text><ellipse cx="27" cy="282.2422" fill="#84BE84" rx="3" ry="3" style="stroke: #038048; stroke-width: 1.0;"/><text fill="#000000" font-family="sans-serif" font-size="11" lengthAdjust="spacingAndGlyphs" text-decoration="underline" textLength="341" x="36" y="285.4526">ShowNotification(message:string, delay:float) : IEnumerator</text><ellipse cx="27" cy="295.0469" fill="#84BE84" rx="3" ry="3" style="stroke: #038048; stroke-width: 1.0;"/><text fill="#000000" font-family="sans-serif" font-size="11" lengthAdjust="spacingAndGlyphs" text-decoration="underline" textLength="441" x="36" y="298.2573">ShowNotificationLabelForMesuring(message:string, delay:float) : IEnumerator</text><!--MD5=[afd0895091f33271204cf7761349bf9e]
class toolType--><rect fill="#FEFECE" filter="url(#fjdl1atjmf1om)" height="137.6328" id="toolType" style="stroke: #A80036; stroke-width: 1.5;" width="85" x="6" y="365"/><ellipse cx="21" cy="381" fill="#EB937F" rx="11" ry="11" style="stroke: #A80036; stroke-width: 1.0;"/><path d="M25.1094,387 L17.3906,387 L17.3906,374.6094 L25.1094,374.6094 L25.1094,376.7656 L19.8438,376.7656 L19.8438,379.4375 L24.6094,379.4375 L24.6094,381.5938 L19.8438,381.5938 L19.8438,384.8438 L25.1094,384.8438 L25.1094,387 Z "/><text fill="#000000" font-family="sans-serif" font-size="12" lengthAdjust="spacingAndGlyphs" textLength="53" x="35" y="385.1543">toolType</text><line style="stroke: #A80036; stroke-width: 1.5;" x1="7" x2="90" y1="397" y2="397"/><text fill="#000000" font-family="sans-serif" font-size="11" lengthAdjust="spacingAndGlyphs" textLength="69" x="12" y="411.2104">PLACEMARK,</text><text fill="#000000" font-family="sans-serif" font-size="11" lengthAdjust="spacingAndGlyphs" textLength="59" x="12" y="424.0151">POLYGON,</text><text fill="#000000" font-family="sans-serif" font-size="11" lengthAdjust="spacingAndGlyphs" textLength="28" x="12" y="436.8198">LINE,</text><text fill="#000000" font-family="sans-serif" font-size="11" lengthAdjust="spacingAndGlyphs" textLength="49" x="12" y="449.6245">PROFILE,</text><text fill="#000000" font-family="sans-serif" font-size="11" lengthAdjust="spacingAndGlyphs" textLength="39" x="12" y="462.4292">RULER,</text><text fill="#000000" font-family="sans-serif" font-size="11" lengthAdjust="spacingAndGlyphs" textLength="55" x="12" y="475.2339">SURFACE,</text><text fill="#000000" font-family="sans-serif" font-size="11" lengthAdjust="spacingAndGlyphs" textLength="42" x="12" y="488.0386">OTHER,</text><line style="stroke: #A80036; stroke-width: 1.5;" x1="7" x2="90" y1="494.6328" y2="494.6328"/><!--MD5=[83b3cf3d23d77c6f1e1b5291a241bc2a]
class MonoBehaviour--><rect fill="#FEFECE" filter="url(#fjdl1atjmf1om)" height="48" id="MonoBehaviour" style="stroke: #A80036; stroke-width: 1.5;" width="128" x="185.5" y="8"/><ellipse cx="200.5" cy="24" fill="#ADD1B2" rx="11" ry="11" style="stroke: #A80036; stroke-width: 1.0;"/><path d="M203.4688,29.6406 Q202.8906,29.9375 202.25,30.0781 Q201.6094,30.2344 200.9063,30.2344 Q198.4063,30.2344 197.0781,28.5938 Q195.7656,26.9375 195.7656,23.8125 Q195.7656,20.6875 197.0781,19.0313 Q198.4063,17.375 200.9063,17.375 Q201.6094,17.375 202.25,17.5313 Q202.9063,17.6875 203.4688,17.9844 L203.4688,20.7031 Q202.8438,20.125 202.25,19.8594 Q201.6563,19.5781 201.0313,19.5781 Q199.6875,19.5781 199,20.6563 Q198.3125,21.7188 198.3125,23.8125 Q198.3125,25.9063 199,26.9844 Q199.6875,28.0469 201.0313,28.0469 Q201.6563,28.0469 202.25,27.7813 Q202.8438,27.5 203.4688,26.9219 L203.4688,29.6406 Z "/><text fill="#000000" font-family="sans-serif" font-size="12" lengthAdjust="spacingAndGlyphs" textLength="96" x="214.5" y="28.1543">MonoBehaviour</text><line style="stroke: #A80036; stroke-width: 1.5;" x1="186.5" x2="312.5" y1="40" y2="40"/><line style="stroke: #A80036; stroke-width: 1.5;" x1="186.5" x2="312.5" y1="48" y2="48"/><!--MD5=[064f7a74fee85463ec1a30143664ee17]
class GameObject--><rect fill="#FEFECE" filter="url(#fjdl1atjmf1om)" height="48" id="GameObject" style="stroke: #A80036; stroke-width: 1.5;" width="108" x="126.5" y="410"/><ellipse cx="141.5" cy="426" fill="#ADD1B2" rx="11" ry="11" style="stroke: #A80036; stroke-width: 1.0;"/><path d="M144.4688,431.6406 Q143.8906,431.9375 143.25,432.0781 Q142.6094,432.2344 141.9063,432.2344 Q139.4063,432.2344 138.0781,430.5938 Q136.7656,428.9375 136.7656,425.8125 Q136.7656,422.6875 138.0781,421.0313 Q139.4063,419.375 141.9063,419.375 Q142.6094,419.375 143.25,419.5313 Q143.9063,419.6875 144.4688,419.9844 L144.4688,422.7031 Q143.8438,422.125 143.25,421.8594 Q142.6563,421.5781 142.0313,421.5781 Q140.6875,421.5781 140,422.6563 Q139.3125,423.7188 139.3125,425.8125 Q139.3125,427.9063 140,428.9844 Q140.6875,430.0469 142.0313,430.0469 Q142.6563,430.0469 143.25,429.7813 Q143.8438,429.5 144.4688,428.9219 L144.4688,431.6406 Z "/><text fill="#000000" font-family="sans-serif" font-size="12" lengthAdjust="spacingAndGlyphs" textLength="76" x="155.5" y="430.1543">GameObject</text><line style="stroke: #A80036; stroke-width: 1.5;" x1="127.5" x2="233.5" y1="442" y2="442"/><line style="stroke: #A80036; stroke-width: 1.5;" x1="127.5" x2="233.5" y1="450" y2="450"/><!--MD5=[3ead63e7a6dbaeb1466e3b865cfef6ea]
class UnityEvent--><rect fill="#FEFECE" filter="url(#fjdl1atjmf1om)" height="48" id="UnityEvent" style="stroke: #A80036; stroke-width: 1.5;" width="98" x="269.5" y="410"/><ellipse cx="284.5" cy="426" fill="#ADD1B2" rx="11" ry="11" style="stroke: #A80036; stroke-width: 1.0;"/><path d="M287.4688,431.6406 Q286.8906,431.9375 286.25,432.0781 Q285.6094,432.2344 284.9063,432.2344 Q282.4063,432.2344 281.0781,430.5938 Q279.7656,428.9375 279.7656,425.8125 Q279.7656,422.6875 281.0781,421.0313 Q282.4063,419.375 284.9063,419.375 Q285.6094,419.375 286.25,419.5313 Q286.9063,419.6875 287.4688,419.9844 L287.4688,422.7031 Q286.8438,422.125 286.25,421.8594 Q285.6563,421.5781 285.0313,421.5781 Q283.6875,421.5781 283,422.6563 Q282.3125,423.7188 282.3125,425.8125 Q282.3125,427.9063 283,428.9844 Q283.6875,430.0469 285.0313,430.0469 Q285.6563,430.0469 286.25,429.7813 Q286.8438,429.5 287.4688,428.9219 L287.4688,431.6406 Z "/><text fill="#000000" font-family="sans-serif" font-size="12" lengthAdjust="spacingAndGlyphs" textLength="66" x="298.5" y="430.1543">UnityEvent</text><line style="stroke: #A80036; stroke-width: 1.5;" x1="270.5" x2="366.5" y1="442" y2="442"/><line style="stroke: #A80036; stroke-width: 1.5;" x1="270.5" x2="366.5" y1="450" y2="450"/><!--MD5=[f5f22d3119cf5033eb753d3274df0529]
reverse link MonoBehaviour to Tool--><path d="M249.5,76.38 C249.5,88.4 249.5,101.93 249.5,115.65 " fill="none" id="MonoBehaviour&lt;-Tool" style="stroke: #A80036; stroke-width: 1.0;"/><polygon fill="none" points="242.5,76.07,249.5,56.07,256.5,76.07,242.5,76.07" style="stroke: #A80036; stroke-width: 1.0;"/><!--MD5=[81a8f76d30d688368e0339a0975053e0]
link Tool to GameObject--><path d="M220.34,305.11 C209.1,341.2 197.08,379.77 189.22,405.01 " fill="none" id="Tool-&gt;GameObject" style="stroke: #A80036; stroke-width: 1.0;"/><polygon fill="#A80036" points="187.71,409.87,194.2048,402.4661,189.1965,405.0961,186.5665,400.0877,187.71,409.87" style="stroke: #A80036; stroke-width: 1.0;"/><text fill="#000000" font-family="sans-serif" font-size="13" lengthAdjust="spacingAndGlyphs" textLength="86" x="92.5388" y="398.8487">toolController</text><!--MD5=[c3aa0773e484fd76610bf94a9bed03f5]
link Tool to UnityEvent--><path d="M266.05,305.11 C276.71,341.2 289.99,379.77 300.96,405.01 " fill="none" id="Tool-&gt;UnityEvent" style="stroke: #A80036; stroke-width: 1.0;"/><polygon fill="#A80036" points="303.12,409.87,303.1257,400.0211,301.092,405.2998,295.8133,403.266,303.12,409.87" style="stroke: #A80036; stroke-width: 1.0;"/><text fill="#000000" font-family="sans-serif" font-size="13" lengthAdjust="spacingAndGlyphs" textLength="125" x="315.1945" y="398.8487">OculusTouchTrigger</text><!--MD5=[c3aa0773e484fd76610bf94a9bed03f5]
link Tool to UnityEvent--><path d="M292.02,305.11 C303.82,341.05 314.46,379.45 319.06,404.69 " fill="none" id="Tool-&gt;UnityEvent-1" style="stroke: #A80036; stroke-width: 1.0;"/><polygon fill="#A80036" points="319.95,409.87,322.3757,400.3245,319.1072,404.9415,314.4901,401.6731,319.95,409.87" style="stroke: #A80036; stroke-width: 1.0;"/><text fill="#000000" font-family="sans-serif" font-size="13" lengthAdjust="spacingAndGlyphs" textLength="143" x="194.3622" y="398.8487">OculusTouchTriggerOn</text><!--MD5=[b2f74db6ba2419b031b383710a90bd31]
reverse link Tool to toolType--><path d="M152.51,316.53 C137.72,332.71 122.66,349.27 108.5,365 C102.92,371.2 97.07,377.75 91.32,384.24 " fill="none" id="Tool&lt;-toolType" style="stroke: #A80036; stroke-width: 1.0;"/><ellipse cx="157.3001" cy="311.3026" fill="#FFFFFF" rx="8" ry="8" style="stroke: #A80036; stroke-width: 1.0;"/><line style="stroke: #A80036; stroke-width: 1.0;" x1="151.9001" x2="162.7" y1="317.2052" y2="305.4"/><line style="stroke: #A80036; stroke-width: 1.0;" x1="151.3975" x2="163.2027" y1="305.9027" y2="316.7025"/><!--MD5=[3e41b2c809ce24f1b37e164cba7b2dfa]
@startuml
class Tool {
    + isImporter : bool = false
    Start() : void
    + OnUse() : void
    + <<virtual>> ToolCoroutine() : IEnumerator
    + {static} checkIfToolShouldQuit() : bool
    + <<virtual>> LoadFromFile(FilePath:string) : GameObject
    + {static} SaveSingleInstance(instance:ToolInstance) : void
    + {static} SaveMultiInstance() : void
    + {static} DeleteAllInstances() : void
    + {static} ShowNotification(message:string, delay:float) : IEnumerator
    + {static} ShowNotificationLabelForMesuring(message:string, delay:float) : IEnumerator
}
enum toolType {
    PLACEMARK,
    POLYGON,
    LINE,
    PROFILE,
    RULER,
    SURFACE,
    OTHER,
}
MonoBehaviour <|- - Tool
Tool - -> "toolController" GameObject
Tool - -> "OculusTouchTrigger" UnityEvent
Tool - -> "OculusTouchTriggerOn" UnityEvent
Tool +- - toolType
@enduml

PlantUML version 1.2020.02(Sun Mar 01 10:22:07 GMT 2020)
(GPL source distribution)
Java Runtime: OpenJDK Runtime Environment
JVM: OpenJDK 64-Bit Server VM
Java Version: 11.0.9+11-Ubuntu-0ubuntu1
Operating System: Linux
Default Encoding: ANSI_X3.4-1968
Language: en
Country: US
--></g></svg>