<?xml version="1.0" encoding="UTF-8" standalone="no"?><svg xmlns="http://www.w3.org/2000/svg" xmlns:xlink="http://www.w3.org/1999/xlink" contentScriptType="application/ecmascript" contentStyleType="text/css" height="226px" preserveAspectRatio="none" style="width:693px;height:226px;" version="1.1" viewBox="0 0 693 226" width="693px" zoomAndPan="magnify"><defs><filter height="300%" id="focsudbtcmake" width="300%" x="-1" y="-1"><feGaussianBlur result="blurOut" stdDeviation="2.0"/><feColorMatrix in="blurOut" result="blurOut2" type="matrix" values="0 0 0 0 0 0 0 0 0 0 0 0 0 0 0 0 0 0 .4 0"/><feOffset dx="4.0" dy="4.0" in="blurOut2" result="blurOut3"/><feBlend in="SourceGraphic" in2="blurOut3" mode="normal"/></filter></defs><g><!--MD5=[420dfaaece016e47b2ba70000faa3ce7]
class TopographicProfileTool--><rect fill="#FEFECE" filter="url(#focsudbtcmake)" height="99.2188" id="TopographicProfileTool" style="stroke: #A80036; stroke-width: 1.5;" width="410" x="6" y="116"/><ellipse cx="135.25" cy="132" fill="#ADD1B2" rx="11" ry="11" style="stroke: #A80036; stroke-width: 1.0;"/><path d="M138.2188,137.6406 Q137.6406,137.9375 137,138.0781 Q136.3594,138.2344 135.6563,138.2344 Q133.1563,138.2344 131.8281,136.5938 Q130.5156,134.9375 130.5156,131.8125 Q130.5156,128.6875 131.8281,127.0313 Q133.1563,125.375 135.6563,125.375 Q136.3594,125.375 137,125.5313 Q137.6563,125.6875 138.2188,125.9844 L138.2188,128.7031 Q137.5938,128.125 137,127.8594 Q136.4063,127.5781 135.7813,127.5781 Q134.4375,127.5781 133.75,128.6563 Q133.0625,129.7188 133.0625,131.8125 Q133.0625,133.9063 133.75,134.9844 Q134.4375,136.0469 135.7813,136.0469 Q136.4063,136.0469 137,135.7813 Q137.5938,135.5 138.2188,134.9219 L138.2188,137.6406 Z "/><text fill="#000000" font-family="sans-serif" font-size="12" lengthAdjust="spacingAndGlyphs" textLength="143" x="155.75" y="136.1543">TopographicProfileTool</text><line style="stroke: #A80036; stroke-width: 1.5;" x1="7" x2="415" y1="148" y2="148"/><line style="stroke: #A80036; stroke-width: 1.5;" x1="7" x2="415" y1="156" y2="156"/><ellipse cx="17" cy="167" fill="#84BE84" rx="3" ry="3" style="stroke: #038048; stroke-width: 1.0;"/><text fill="#000000" font-family="sans-serif" font-size="11" lengthAdjust="spacingAndGlyphs" textLength="234" x="26" y="170.2104">«override» ToolCoroutine() : IEnumerator</text><ellipse cx="17" cy="179.8047" fill="#84BE84" rx="3" ry="3" style="stroke: #038048; stroke-width: 1.0;"/><text fill="#000000" font-family="sans-serif" font-size="11" lengthAdjust="spacingAndGlyphs" text-decoration="underline" textLength="278" x="26" y="183.0151">SaveSingleInstance(instance:ToolInstance) : void</text><ellipse cx="17" cy="192.6094" fill="#84BE84" rx="3" ry="3" style="stroke: #038048; stroke-width: 1.0;"/><text fill="#000000" font-family="sans-serif" font-size="11" lengthAdjust="spacingAndGlyphs" text-decoration="underline" textLength="384" x="26" y="195.8198">SaveToFile(FilePath:string, PlacemarkList:List&lt;GameObject&gt;) : void</text><ellipse cx="17" cy="205.4141" fill="#84BE84" rx="3" ry="3" style="stroke: #038048; stroke-width: 1.0;"/><text fill="#000000" font-family="sans-serif" font-size="11" lengthAdjust="spacingAndGlyphs" textLength="118" x="26" y="208.6245">CancelButton() : void</text><!--MD5=[e644022de7dea015dd09463c37421447]
class List`1--><rect fill="#FEFECE" filter="url(#focsudbtcmake)" height="48" id="List`1" style="stroke: #A80036; stroke-width: 1.5;" width="78" x="601" y="141.5"/><ellipse cx="616" cy="157.5" fill="#ADD1B2" rx="11" ry="11" style="stroke: #A80036; stroke-width: 1.0;"/><path d="M618.9688,163.1406 Q618.3906,163.4375 617.75,163.5781 Q617.1094,163.7344 616.4063,163.7344 Q613.9063,163.7344 612.5781,162.0938 Q611.2656,160.4375 611.2656,157.3125 Q611.2656,154.1875 612.5781,152.5313 Q613.9063,150.875 616.4063,150.875 Q617.1094,150.875 617.75,151.0313 Q618.4063,151.1875 618.9688,151.4844 L618.9688,154.2031 Q618.3438,153.625 617.75,153.3594 Q617.1563,153.0781 616.5313,153.0781 Q615.1875,153.0781 614.5,154.1563 Q613.8125,155.2188 613.8125,157.3125 Q613.8125,159.4063 614.5,160.4844 Q615.1875,161.5469 616.5313,161.5469 Q617.1563,161.5469 617.75,161.2813 Q618.3438,161 618.9688,160.4219 L618.9688,163.1406 Z "/><text fill="#000000" font-family="sans-serif" font-size="12" lengthAdjust="spacingAndGlyphs" textLength="35" x="630" y="161.6543">List`1</text><rect fill="#FFFFFF" height="15.9688" style="stroke: #000000; stroke-width: 1.0; stroke-dasharray: 2.0,2.0;" width="9" x="673" y="138.5"/><text fill="#000000" font-family="sans-serif" font-size="12" font-style="italic" lengthAdjust="spacingAndGlyphs" textLength="7" x="674" y="150.6387">T</text><line style="stroke: #A80036; stroke-width: 1.5;" x1="602" x2="678" y1="173.5" y2="173.5"/><line style="stroke: #A80036; stroke-width: 1.5;" x1="602" x2="678" y1="181.5" y2="181.5"/><!--MD5=[5910e465cccb2cec379e83a41f7f6503]
class Tool--><rect fill="#FEFECE" filter="url(#focsudbtcmake)" height="48" id="Tool" style="stroke: #A80036; stroke-width: 1.5;" width="58" x="182" y="8"/><ellipse cx="197" cy="24" fill="#ADD1B2" rx="11" ry="11" style="stroke: #A80036; stroke-width: 1.0;"/><path d="M199.9688,29.6406 Q199.3906,29.9375 198.75,30.0781 Q198.1094,30.2344 197.4063,30.2344 Q194.9063,30.2344 193.5781,28.5938 Q192.2656,26.9375 192.2656,23.8125 Q192.2656,20.6875 193.5781,19.0313 Q194.9063,17.375 197.4063,17.375 Q198.1094,17.375 198.75,17.5313 Q199.4063,17.6875 199.9688,17.9844 L199.9688,20.7031 Q199.3438,20.125 198.75,19.8594 Q198.1563,19.5781 197.5313,19.5781 Q196.1875,19.5781 195.5,20.6563 Q194.8125,21.7188 194.8125,23.8125 Q194.8125,25.9063 195.5,26.9844 Q196.1875,28.0469 197.5313,28.0469 Q198.1563,28.0469 198.75,27.7813 Q199.3438,27.5 199.9688,26.9219 L199.9688,29.6406 Z "/><text fill="#000000" font-family="sans-serif" font-size="12" lengthAdjust="spacingAndGlyphs" textLength="26" x="211" y="28.1543">Tool</text><line style="stroke: #A80036; stroke-width: 1.5;" x1="183" x2="239" y1="40" y2="40"/><line style="stroke: #A80036; stroke-width: 1.5;" x1="183" x2="239" y1="48" y2="48"/><!--MD5=[db462180693f7e61cf3217ec29875f93]
class LineRenderer--><rect fill="#FEFECE" filter="url(#focsudbtcmake)" height="48" id="LineRenderer" style="stroke: #A80036; stroke-width: 1.5;" width="115" x="450.5" y="141.5"/><ellipse cx="465.5" cy="157.5" fill="#ADD1B2" rx="11" ry="11" style="stroke: #A80036; stroke-width: 1.0;"/><path d="M468.4688,163.1406 Q467.8906,163.4375 467.25,163.5781 Q466.6094,163.7344 465.9063,163.7344 Q463.4063,163.7344 462.0781,162.0938 Q460.7656,160.4375 460.7656,157.3125 Q460.7656,154.1875 462.0781,152.5313 Q463.4063,150.875 465.9063,150.875 Q466.6094,150.875 467.25,151.0313 Q467.9063,151.1875 468.4688,151.4844 L468.4688,154.2031 Q467.8438,153.625 467.25,153.3594 Q466.6563,153.0781 466.0313,153.0781 Q464.6875,153.0781 464,154.1563 Q463.3125,155.2188 463.3125,157.3125 Q463.3125,159.4063 464,160.4844 Q464.6875,161.5469 466.0313,161.5469 Q466.6563,161.5469 467.25,161.2813 Q467.8438,161 468.4688,160.4219 L468.4688,163.1406 Z "/><text fill="#000000" font-family="sans-serif" font-size="12" lengthAdjust="spacingAndGlyphs" textLength="83" x="479.5" y="161.6543">LineRenderer</text><line style="stroke: #A80036; stroke-width: 1.5;" x1="451.5" x2="564.5" y1="173.5" y2="173.5"/><line style="stroke: #A80036; stroke-width: 1.5;" x1="451.5" x2="564.5" y1="181.5" y2="181.5"/><!--MD5=[c0463f170f163c35f2f6f4773fa47ed8]
reverse link Tool to TopographicProfileTool--><path d="M211,76.51 C211,89.14 211,103.01 211,115.93 " fill="none" id="Tool&lt;-TopographicProfileTool" style="stroke: #A80036; stroke-width: 1.0;"/><polygon fill="none" points="204,76.21,211,56.21,218,76.21,204,76.21" style="stroke: #A80036; stroke-width: 1.0;"/><!--MD5=[06a3cc6761980611d8e979d4ee416dd0]
link TopographicProfileTool to List`1--><path d="M310.7585,110.9033 C310.7585,110.9033 483.82,50.6 565.5,86 C586.71,95.19 604.65,113.73 617.61,130.59 " fill="none" id="TopographicProfileTool-List`1" style="stroke: #A80036; stroke-width: 1.0;"/><polygon fill="#A80036" points="625.39,141.32,623.34,131.6869,622.4527,137.2737,616.8659,136.3865,625.39,141.32" style="stroke: #A80036; stroke-width: 1.0;"/><line style="stroke: #A80036; stroke-width: 1.0;" x1="622.4527" x2="617.755" y1="137.2737" y2="130.795"/><polygon fill="#FFFFFF" points="299.83,115.86,306.9465,117.0245,310.7585,110.9033,303.642,109.7388,299.83,115.86" style="stroke: #A80036; stroke-width: 1.0;"/><text fill="#000000" font-family="sans-serif" font-size="13" lengthAdjust="spacingAndGlyphs" textLength="178" x="420.8399" y="130.2859">instanceList&lt;GameObject&gt;</text><!--MD5=[9f962f2a66033365d055e3c514710533]
link TopographicProfileTool to LineRenderer--><path d="M428.06,165.5 C428.06,165.5 434.38,165.5 437.02,165.5 " fill="none" id="TopographicProfileTool-LineRenderer" style="stroke: #A80036; stroke-width: 1.0;"/><polygon fill="#A80036" points="450.18,165.5,441.18,161.5,445.18,165.5,441.18,169.5,450.18,165.5" style="stroke: #A80036; stroke-width: 1.0;"/><line style="stroke: #A80036; stroke-width: 1.0;" x1="445.18" x2="437.18" y1="165.5" y2="165.5"/><polygon fill="#FFFFFF" points="416.06,165.5,422.06,169.5,428.06,165.5,422.06,161.5,416.06,165.5" style="stroke: #A80036; stroke-width: 1.0;"/><text fill="#000000" font-family="sans-serif" font-size="13" lengthAdjust="spacingAndGlyphs" textLength="8" x="434.6457" y="161.6609">lr</text><!--MD5=[1cfaccac4436a55982f798ead83ed96d]
@startuml
class TopographicProfileTool {
    + <<override>> ToolCoroutine() : IEnumerator
    + {static} SaveSingleInstance(instance:ToolInstance) : void
    + {static} SaveToFile(FilePath:string, PlacemarkList:List<GameObject>) : void
    + CancelButton() : void
}
class "List`1"<T> {
}
Tool <|- - TopographicProfileTool
TopographicProfileTool o-> "instanceList<GameObject>" "List`1"
TopographicProfileTool o-> "lr" LineRenderer
@enduml

PlantUML version 1.2020.02(Sun Mar 01 10:22:07 GMT 2020)
(GPL source distribution)
Java Runtime: OpenJDK Runtime Environment
JVM: OpenJDK 64-Bit Server VM
Java Version: 11.0.9+11-Ubuntu-0ubuntu1
Operating System: Linux
Default Encoding: ANSI_X3.4-1968
Language: en
Country: US
--></g></svg>