<?xml version="1.0" encoding="UTF-8" standalone="no"?><svg xmlns="http://www.w3.org/2000/svg" xmlns:xlink="http://www.w3.org/1999/xlink" contentScriptType="application/ecmascript" contentStyleType="text/css" height="226px" preserveAspectRatio="none" style="width:499px;height:226px;" version="1.1" viewBox="0 0 499 226" width="499px" zoomAndPan="magnify"><defs><filter height="300%" id="flcwm9neakrbp" width="300%" x="-1" y="-1"><feGaussianBlur result="blurOut" stdDeviation="2.0"/><feColorMatrix in="blurOut" result="blurOut2" type="matrix" values="0 0 0 0 0 0 0 0 0 0 0 0 0 0 0 0 0 0 .4 0"/><feOffset dx="4.0" dy="4.0" in="blurOut2" result="blurOut3"/><feBlend in="SourceGraphic" in2="blurOut3" mode="normal"/></filter></defs><g><!--MD5=[18979978255e1db6aaa75c8e6e34ba96]
class WaypointTool--><rect fill="#FEFECE" filter="url(#flcwm9neakrbp)" height="99.2188" id="WaypointTool" style="stroke: #A80036; stroke-width: 1.5;" width="260" x="6" y="116"/><ellipse cx="90.25" cy="132" fill="#ADD1B2" rx="11" ry="11" style="stroke: #A80036; stroke-width: 1.0;"/><path d="M93.2188,137.6406 Q92.6406,137.9375 92,138.0781 Q91.3594,138.2344 90.6563,138.2344 Q88.1563,138.2344 86.8281,136.5938 Q85.5156,134.9375 85.5156,131.8125 Q85.5156,128.6875 86.8281,127.0313 Q88.1563,125.375 90.6563,125.375 Q91.3594,125.375 92,125.5313 Q92.6563,125.6875 93.2188,125.9844 L93.2188,128.7031 Q92.5938,128.125 92,127.8594 Q91.4063,127.5781 90.7813,127.5781 Q89.4375,127.5781 88.75,128.6563 Q88.0625,129.7188 88.0625,131.8125 Q88.0625,133.9063 88.75,134.9844 Q89.4375,136.0469 90.7813,136.0469 Q91.4063,136.0469 92,135.7813 Q92.5938,135.5 93.2188,134.9219 L93.2188,137.6406 Z "/><text fill="#000000" font-family="sans-serif" font-size="12" lengthAdjust="spacingAndGlyphs" textLength="83" x="110.75" y="136.1543">WaypointTool</text><line style="stroke: #A80036; stroke-width: 1.5;" x1="7" x2="265" y1="148" y2="148"/><text fill="#000000" font-family="sans-serif" font-size="11" lengthAdjust="spacingAndGlyphs" textLength="107" x="12" y="162.2104">counter : int = 001</text><line style="stroke: #A80036; stroke-width: 1.5;" x1="7" x2="265" y1="168.8047" y2="168.8047"/><ellipse cx="17" cy="179.8047" fill="#84BE84" rx="3" ry="3" style="stroke: #038048; stroke-width: 1.0;"/><text fill="#000000" font-family="sans-serif" font-size="11" lengthAdjust="spacingAndGlyphs" textLength="234" x="26" y="183.0151">«override» ToolCoroutine() : IEnumerator</text><ellipse cx="17" cy="192.6094" fill="#84BE84" rx="3" ry="3" style="stroke: #038048; stroke-width: 1.0;"/><text fill="#000000" font-family="sans-serif" font-size="11" lengthAdjust="spacingAndGlyphs" textLength="118" x="26" y="195.8198">CancelButton() : void</text><ellipse cx="17" cy="205.4141" fill="#84BE84" rx="3" ry="3" style="stroke: #038048; stroke-width: 1.0;"/><text fill="#000000" font-family="sans-serif" font-size="11" lengthAdjust="spacingAndGlyphs" textLength="108" x="26" y="208.6245">SaveButton() : void</text><!--MD5=[5910e465cccb2cec379e83a41f7f6503]
class Tool--><rect fill="#FEFECE" filter="url(#flcwm9neakrbp)" height="48" id="Tool" style="stroke: #A80036; stroke-width: 1.5;" width="58" x="107" y="8"/><ellipse cx="122" cy="24" fill="#ADD1B2" rx="11" ry="11" style="stroke: #A80036; stroke-width: 1.0;"/><path d="M124.9688,29.6406 Q124.3906,29.9375 123.75,30.0781 Q123.1094,30.2344 122.4063,30.2344 Q119.9063,30.2344 118.5781,28.5938 Q117.2656,26.9375 117.2656,23.8125 Q117.2656,20.6875 118.5781,19.0313 Q119.9063,17.375 122.4063,17.375 Q123.1094,17.375 123.75,17.5313 Q124.4063,17.6875 124.9688,17.9844 L124.9688,20.7031 Q124.3438,20.125 123.75,19.8594 Q123.1563,19.5781 122.5313,19.5781 Q121.1875,19.5781 120.5,20.6563 Q119.8125,21.7188 119.8125,23.8125 Q119.8125,25.9063 120.5,26.9844 Q121.1875,28.0469 122.5313,28.0469 Q123.1563,28.0469 123.75,27.7813 Q124.3438,27.5 124.9688,26.9219 L124.9688,29.6406 Z "/><text fill="#000000" font-family="sans-serif" font-size="12" lengthAdjust="spacingAndGlyphs" textLength="26" x="136" y="28.1543">Tool</text><line style="stroke: #A80036; stroke-width: 1.5;" x1="108" x2="164" y1="40" y2="40"/><line style="stroke: #A80036; stroke-width: 1.5;" x1="108" x2="164" y1="48" y2="48"/><!--MD5=[85c2ed8dbf494cb60783de624603a7dd]
class Sprite--><rect fill="#FEFECE" filter="url(#flcwm9neakrbp)" height="48" id="Sprite" style="stroke: #A80036; stroke-width: 1.5;" width="69" x="301.5" y="141.5"/><ellipse cx="316.5" cy="157.5" fill="#ADD1B2" rx="11" ry="11" style="stroke: #A80036; stroke-width: 1.0;"/><path d="M319.4688,163.1406 Q318.8906,163.4375 318.25,163.5781 Q317.6094,163.7344 316.9063,163.7344 Q314.4063,163.7344 313.0781,162.0938 Q311.7656,160.4375 311.7656,157.3125 Q311.7656,154.1875 313.0781,152.5313 Q314.4063,150.875 316.9063,150.875 Q317.6094,150.875 318.25,151.0313 Q318.9063,151.1875 319.4688,151.4844 L319.4688,154.2031 Q318.8438,153.625 318.25,153.3594 Q317.6563,153.0781 317.0313,153.0781 Q315.6875,153.0781 315,154.1563 Q314.3125,155.2188 314.3125,157.3125 Q314.3125,159.4063 315,160.4844 Q315.6875,161.5469 317.0313,161.5469 Q317.6563,161.5469 318.25,161.2813 Q318.8438,161 319.4688,160.4219 L319.4688,163.1406 Z "/><text fill="#000000" font-family="sans-serif" font-size="12" lengthAdjust="spacingAndGlyphs" textLength="37" x="330.5" y="161.6543">Sprite</text><line style="stroke: #A80036; stroke-width: 1.5;" x1="302.5" x2="369.5" y1="173.5" y2="173.5"/><line style="stroke: #A80036; stroke-width: 1.5;" x1="302.5" x2="369.5" y1="181.5" y2="181.5"/><!--MD5=[f4eb1c0aaede8a7f8fe6bd6770cc9731]
reverse link Tool to WaypointTool--><path d="M136,76.51 C136,89.14 136,103.01 136,115.93 " fill="none" id="Tool&lt;-WaypointTool" style="stroke: #A80036; stroke-width: 1.0;"/><polygon fill="none" points="129,76.21,136,56.21,143,76.21,129,76.21" style="stroke: #A80036; stroke-width: 1.0;"/><!--MD5=[ec7ffcfb3ceec10d857a4d2fc406f66d]
link WaypointTool to Sprite--><path d="M278.08,165.5 C278.08,165.5 285.26,165.5 288.24,165.5 " fill="none" id="WaypointTool-Sprite" style="stroke: #A80036; stroke-width: 1.0;"/><polygon fill="#A80036" points="301.31,165.5,292.31,161.5,296.31,165.5,292.31,169.5,301.31,165.5" style="stroke: #A80036; stroke-width: 1.0;"/><line style="stroke: #A80036; stroke-width: 1.0;" x1="296.31" x2="288.31" y1="165.5" y2="165.5"/><polygon fill="#FFFFFF" points="266.08,165.5,272.08,169.5,278.08,165.5,272.08,161.5,266.08,165.5" style="stroke: #A80036; stroke-width: 1.0;"/><text fill="#000000" font-family="sans-serif" font-size="13" lengthAdjust="spacingAndGlyphs" textLength="109" x="378.569" y="133.5759">spriteImageInitial</text><!--MD5=[a66f03a00c0ca5f53af2e29930694f77]
@startuml
class WaypointTool {
    counter : int = 001
    + <<override>> ToolCoroutine() : IEnumerator
    + CancelButton() : void
    + SaveButton() : void
}
Tool <|- - WaypointTool
WaypointTool o-> "spriteImageInitial" Sprite
@enduml

PlantUML version 1.2020.02(Sun Mar 01 10:22:07 GMT 2020)
(GPL source distribution)
Java Runtime: OpenJDK Runtime Environment
JVM: OpenJDK 64-Bit Server VM
Java Version: 11.0.9+11-Ubuntu-0ubuntu1
Operating System: Linux
Default Encoding: ANSI_X3.4-1968
Language: en
Country: US
--></g></svg>